M48
; DRILL file {KiCad (5.1.10)-1} date 07/26/21 22:22:24
; FORMAT={-:-/ absolute / inch / decimal}
; #@! TF.CreationDate,2021-07-26T22:22:24-04:00
; #@! TF.GenerationSoftware,Kicad,Pcbnew,(5.1.10)-1
; #@! TF.FileFunction,Plated,1,2,PTH
FMAT,2
INCH
T1C0.0157
T2C0.0315
T3C0.0394
T4C0.0433
T5C0.0590
T6C0.0787
%
G90
G05
T1
X3.8263Y-3.2714
X3.83Y-3.9469
X3.8594Y-2.8764
X3.9259Y-3.6885
X3.9407Y-3.4596
X4.1622Y-3.4855
T2
X4.3836Y-3.3674
X4.3836Y-3.4744
X4.6836Y-3.3674
X4.6836Y-3.4744
X5.1403Y-3.3674
X5.1429Y-3.4744
X5.4403Y-3.3674
X5.4429Y-3.4744
X5.8895Y-3.3674
X5.8895Y-3.4744
X6.1895Y-3.3674
X6.1895Y-3.4744
X6.6451Y-3.3674
X6.6451Y-3.4744
X6.9451Y-3.3674
X6.9451Y-3.4744
X7.3585Y-3.9136
X7.3585Y-4.2136
X7.794Y-3.9136
X7.794Y-4.2136
X7.996Y-4.0465
X8.296Y-4.0465
T3
X7.7327Y-2.7766
X7.8327Y-2.7766
X7.9327Y-2.7766
X8.0327Y-2.7766
X8.0731Y-4.1929
X8.0731Y-4.7638
X8.1715Y-4.1929
X8.2699Y-4.1929
X8.2699Y-4.7638
T4
X3.4034Y-2.8727
X3.4034Y-2.9727
X3.4034Y-3.0727
X3.4034Y-3.1727
X3.4034Y-3.2727
X3.4034Y-3.3727
X3.4034Y-3.4727
X3.4034Y-3.5727
X3.4034Y-3.6727
X3.4034Y-3.7727
X3.4034Y-3.8727
X3.4034Y-3.9727
X4.0034Y-2.8727
X4.0034Y-2.9727
X4.0034Y-3.0727
X4.0034Y-3.1727
X4.0034Y-3.2727
X4.0034Y-3.3727
X4.0034Y-3.4727
X4.0034Y-3.5727
X4.0034Y-3.6727
X4.0034Y-3.7727
X4.0034Y-3.8727
X4.0034Y-3.9727
X7.7559Y-3.0684
X7.7559Y-3.2456
X8.0118Y-3.0684
X8.0118Y-3.2456
T5
X4.3739Y-2.9315
X4.3739Y-3.6992
X4.6239Y-2.8315
X4.6239Y-3.5992
X5.1281Y-2.9315
X5.1305Y-3.6992
X5.3781Y-2.8315
X5.3805Y-3.5992
X5.8798Y-3.6992
X5.8822Y-2.9315
X6.1298Y-3.5992
X6.1322Y-2.8315
X6.6364Y-2.9315
X6.6364Y-3.6992
X6.8864Y-2.8315
X6.8864Y-3.5992
X7.3133Y-4.5533
X7.5807Y-4.5214
X7.926Y-5.1586
X8.1934Y-5.1267
T6
G00X7.951Y-4.4783
M15
G01X7.951Y-4.498
M16
G05
G00X8.392Y-4.4783
M15
G01X8.392Y-4.498
M16
G05
T0
M30
