M48
; DRILL file {KiCad (5.1.4)-1} date 7/2/2021 8:10:45 PM
; FORMAT={-:-/ absolute / inch / decimal}
; #@! TF.CreationDate,2021-07-02T20:10:45-04:00
; #@! TF.GenerationSoftware,Kicad,Pcbnew,(5.1.4)-1
; #@! TF.FileFunction,Plated,1,2,PTH
FMAT,2
INCH
T1C0.0157
T2C0.0315
T3C0.0394
T4C0.0433
T5C0.0590
T6C0.0787
%
G90
G05
T1
X1.779Y-2.3068
X1.7827Y-2.9823
X1.8122Y-1.9118
X1.8787Y-2.7239
X1.8935Y-2.4951
X2.1149Y-2.5209
T2
X2.3364Y-2.4028
X2.6364Y-2.4028
X4.5979Y-2.5098
X4.8979Y-2.5098
X3.8423Y-2.5098
X4.1423Y-2.5098
X3.0957Y-2.5098
X3.3957Y-2.5098
X2.3364Y-2.5098
X2.6364Y-2.5098
X4.5979Y-2.4028
X4.8979Y-2.4028
X3.8423Y-2.4028
X4.1423Y-2.4028
X5.9488Y-3.0819
X6.2488Y-3.0819
X5.7468Y-2.9491
X5.7468Y-3.2491
X3.093Y-2.4028
X3.393Y-2.4028
X5.3113Y-2.9491
X5.3113Y-3.2491
T3
X5.6855Y-1.812
X5.7855Y-1.812
X5.8855Y-1.812
X5.9855Y-1.812
X6.0258Y-3.3219
X6.0258Y-3.8927
X6.1243Y-3.3219
X6.2227Y-3.3219
X6.2227Y-3.8927
T4
X1.3562Y-1.9082
X1.3562Y-2.0082
X1.3562Y-2.1082
X1.3562Y-2.2082
X1.3562Y-2.3082
X1.3562Y-2.4082
X1.3562Y-2.5082
X1.3562Y-2.6082
X1.3562Y-2.7082
X1.3562Y-2.8082
X1.3562Y-2.9082
X1.3562Y-3.0082
X1.9562Y-1.9082
X1.9562Y-2.0082
X1.9562Y-2.1082
X1.9562Y-2.2082
X1.9562Y-2.3082
X1.9562Y-2.4082
X1.9562Y-2.5082
X1.9562Y-2.6082
X1.9562Y-2.7082
X1.9562Y-2.8082
X1.9562Y-2.9082
X1.9562Y-3.0082
X5.7087Y-2.1038
X5.7087Y-2.281
X5.9646Y-2.1038
X5.9646Y-2.281
T5
X2.3266Y-2.7346
X2.5766Y-2.6346
X3.0833Y-2.7346
X3.3333Y-2.6346
X4.5892Y-2.7346
X4.8392Y-2.6346
X3.0808Y-1.9669
X3.3308Y-1.8669
X3.8325Y-2.7346
X4.0825Y-2.6346
X4.5892Y-1.9669
X4.8392Y-1.8669
X5.2661Y-3.5887
X5.5334Y-3.5569
X5.8788Y-4.1941
X6.1461Y-4.1622
X2.3266Y-1.9669
X2.5766Y-1.8669
X3.835Y-1.9669
X4.085Y-1.8669
T6
G00X5.9038Y-3.6073
M15
G01X5.9038Y-3.627
M16
G05
G00X6.3447Y-3.6073
M15
G01X6.3447Y-3.627
M16
G05
T0
M30
