M48
; DRILL file {KiCad (5.1.4)-1} date 7/2/2021 8:10:45 PM
; FORMAT={-:-/ absolute / inch / decimal}
; #@! TF.CreationDate,2021-07-02T20:10:45-04:00
; #@! TF.GenerationSoftware,Kicad,Pcbnew,(5.1.4)-1
; #@! TF.FileFunction,NonPlated,1,2,NPTH
FMAT,2
INCH
T1C0.0670
T2C0.1181
T3C0.1260
T4C0.1570
%
G90
G05
T1
X3.785Y-2.0669
X2.2766Y-2.8346
X2.6766Y-2.8346
X3.0333Y-2.8346
X3.4333Y-2.8346
X4.5392Y-2.8346
X4.9392Y-2.8346
X3.0308Y-2.0669
X3.4308Y-2.0669
X3.7825Y-2.8346
X4.1825Y-2.8346
X4.5392Y-2.0669
X4.9392Y-2.0669
X5.1919Y-3.6724
X5.5783Y-3.7759
X5.8046Y-4.2777
X6.191Y-4.3812
X2.2766Y-2.0669
X2.6766Y-2.0669
X4.185Y-2.0669
T2
X2.3766Y-3.0346
X2.6266Y-2.9346
X3.1333Y-3.0346
X3.3833Y-2.9346
X4.6392Y-3.0346
X4.8892Y-2.9346
X3.1308Y-2.2669
X3.3808Y-2.1669
X3.8825Y-3.0346
X4.1325Y-2.9346
X4.6392Y-2.2669
X4.8892Y-2.1669
X5.2367Y-3.8915
X5.5041Y-3.8596
X5.8494Y-4.4968
X6.1168Y-4.4649
X2.3766Y-2.2669
X2.6266Y-2.1669
X3.885Y-2.2669
X4.135Y-2.1669
T3
X1.3583Y-3.1373
X6.3595Y-4.1339
X6.3484Y-1.7827
X1.3767Y-1.7717
X5.6951Y-4.0785
T4
X2.4766Y-2.0669
X3.985Y-2.0669
X2.4766Y-2.8346
X3.2333Y-2.8346
X4.7392Y-2.8346
X3.2308Y-2.0669
X3.9825Y-2.8346
X4.7392Y-2.0669
X5.3851Y-3.7242
X5.9978Y-4.3295
T0
M30
