G04 #@! TF.GenerationSoftware,KiCad,Pcbnew,(5.1.10)-1*
G04 #@! TF.CreationDate,2021-07-26T22:22:40-04:00*
G04 #@! TF.ProjectId,chayzer,63686179-7a65-4722-9e6b-696361645f70,rev?*
G04 #@! TF.SameCoordinates,Original*
G04 #@! TF.FileFunction,Soldermask,Top*
G04 #@! TF.FilePolarity,Negative*
%FSLAX46Y46*%
G04 Gerber Fmt 4.6, Leading zero omitted, Abs format (unit mm)*
G04 Created by KiCad (PCBNEW (5.1.10)-1) date 2021-07-26 22:22:40*
%MOMM*%
%LPD*%
G01*
G04 APERTURE LIST*
%ADD10C,3.302000*%
%ADD11C,1.702000*%
%ADD12C,1.803800*%
%ADD13C,2.388000*%
%ADD14C,4.089800*%
%ADD15C,3.102000*%
%ADD16C,2.102000*%
%ADD17O,1.702000X2.102000*%
%ADD18O,1.702000X1.702000*%
G04 APERTURE END LIST*
D10*
X85500000Y-105000000D03*
X196000000Y-130500000D03*
X214500000Y-131000000D03*
X214500000Y-69000000D03*
X85500000Y-69000000D03*
D11*
X101687500Y-72967500D03*
X101687500Y-75507500D03*
X101687500Y-78047500D03*
X101687500Y-80587500D03*
X101687500Y-83127500D03*
X101687500Y-85667500D03*
X101687500Y-88207500D03*
X101687500Y-90747500D03*
X101687500Y-93287500D03*
X101687500Y-95827500D03*
X101687500Y-98367500D03*
X101687500Y-100907500D03*
X86447500Y-100907500D03*
X86447500Y-98367500D03*
X86447500Y-95827500D03*
X86447500Y-93287500D03*
X86447500Y-90747500D03*
X86447500Y-88207500D03*
X86447500Y-85667500D03*
X86447500Y-83127500D03*
X86447500Y-80587500D03*
X86447500Y-78047500D03*
X86447500Y-75507500D03*
G36*
G01*
X85647500Y-72116500D02*
X87247500Y-72116500D01*
G75*
G02*
X87298500Y-72167500I0J-51000D01*
G01*
X87298500Y-73767500D01*
G75*
G02*
X87247500Y-73818500I-51000J0D01*
G01*
X85647500Y-73818500D01*
G75*
G02*
X85596500Y-73767500I0J51000D01*
G01*
X85596500Y-72167500D01*
G75*
G02*
X85647500Y-72116500I51000J0D01*
G01*
G37*
D12*
X199436847Y-133153949D03*
X209250653Y-135783551D03*
D13*
X201320973Y-131029198D03*
D14*
X204343750Y-134468750D03*
D13*
X208112002Y-130219247D03*
D15*
X207366527Y-137908302D03*
X200575498Y-138718253D03*
D16*
X203500000Y-82437500D03*
X203500000Y-77937500D03*
X197000000Y-82437500D03*
X197000000Y-77937500D03*
G36*
G01*
X209056250Y-105449000D02*
X211056250Y-105449000D01*
G75*
G02*
X211107250Y-105500000I0J-51000D01*
G01*
X211107250Y-107500000D01*
G75*
G02*
X211056250Y-107551000I-51000J0D01*
G01*
X209056250Y-107551000D01*
G75*
G02*
X209005250Y-107500000I0J51000D01*
G01*
X209005250Y-105500000D01*
G75*
G02*
X209056250Y-105449000I51000J0D01*
G01*
G37*
X207556250Y-106500000D03*
X205056250Y-106500000D03*
G36*
G01*
X211906250Y-112449000D02*
X214406250Y-112449000D01*
G75*
G02*
X214457250Y-112500000I0J-51000D01*
G01*
X214457250Y-115500000D01*
G75*
G02*
X214406250Y-115551000I-51000J0D01*
G01*
X211906250Y-115551000D01*
G75*
G02*
X211855250Y-115500000I0J51000D01*
G01*
X211855250Y-112500000D01*
G75*
G02*
X211906250Y-112449000I51000J0D01*
G01*
G37*
G36*
G01*
X200706250Y-112449000D02*
X203206250Y-112449000D01*
G75*
G02*
X203257250Y-112500000I0J-51000D01*
G01*
X203257250Y-115500000D01*
G75*
G02*
X203206250Y-115551000I-51000J0D01*
G01*
X200706250Y-115551000D01*
G75*
G02*
X200655250Y-115500000I0J51000D01*
G01*
X200655250Y-112500000D01*
G75*
G02*
X200706250Y-112449000I51000J0D01*
G01*
G37*
X210056250Y-121000000D03*
X205056250Y-121000000D03*
D17*
X198951250Y-70525000D03*
X196411250Y-70525000D03*
X201491250Y-70525000D03*
X204031250Y-70525000D03*
D12*
X148076250Y-96500000D03*
X158236250Y-96500000D03*
D13*
X149346250Y-93960000D03*
D14*
X153156250Y-96500000D03*
D13*
X155696250Y-91420000D03*
D15*
X156966250Y-99040000D03*
X150616250Y-101580000D03*
D12*
X128982500Y-77000000D03*
X139142500Y-77000000D03*
D13*
X130252500Y-74460000D03*
D14*
X134062500Y-77000000D03*
D13*
X136602500Y-71920000D03*
D15*
X137872500Y-79540000D03*
X131522500Y-82080000D03*
D12*
X183874347Y-117778949D03*
X193688153Y-120408551D03*
D13*
X185758473Y-115654198D03*
D14*
X188781250Y-119093750D03*
D13*
X192549502Y-114844247D03*
D15*
X191804027Y-122533302D03*
X185012998Y-123343253D03*
D12*
X109826250Y-77000000D03*
X119986250Y-77000000D03*
D13*
X111096250Y-74460000D03*
D14*
X114906250Y-77000000D03*
D13*
X117446250Y-71920000D03*
D15*
X118716250Y-79540000D03*
X112366250Y-82080000D03*
D12*
X148138750Y-77000000D03*
X158298750Y-77000000D03*
D13*
X149408750Y-74460000D03*
D14*
X153218750Y-77000000D03*
D13*
X155758750Y-71920000D03*
D15*
X157028750Y-79540000D03*
X150678750Y-82080000D03*
D12*
X109826250Y-96500000D03*
X119986250Y-96500000D03*
D13*
X111096250Y-93960000D03*
D14*
X114906250Y-96500000D03*
D13*
X117446250Y-91420000D03*
D15*
X118716250Y-99040000D03*
X112366250Y-101580000D03*
D12*
X129045000Y-96500000D03*
X139205000Y-96500000D03*
D13*
X130315000Y-93960000D03*
D14*
X134125000Y-96500000D03*
D13*
X136665000Y-91420000D03*
D15*
X137935000Y-99040000D03*
X131585000Y-101580000D03*
D12*
X167295000Y-96500000D03*
X177455000Y-96500000D03*
D13*
X168565000Y-93960000D03*
D14*
X172375000Y-96500000D03*
D13*
X174915000Y-91420000D03*
D15*
X176185000Y-99040000D03*
X169835000Y-101580000D03*
D12*
X167295000Y-77000000D03*
X177455000Y-77000000D03*
D13*
X168565000Y-74460000D03*
D14*
X172375000Y-77000000D03*
D13*
X174915000Y-71920000D03*
D15*
X176185000Y-79540000D03*
X169835000Y-82080000D03*
D18*
X157213750Y-88250000D03*
G36*
G01*
X148742750Y-89050000D02*
X148742750Y-87450000D01*
G75*
G02*
X148793750Y-87399000I51000J0D01*
G01*
X150393750Y-87399000D01*
G75*
G02*
X150444750Y-87450000I0J-51000D01*
G01*
X150444750Y-89050000D01*
G75*
G02*
X150393750Y-89101000I-51000J0D01*
G01*
X148793750Y-89101000D01*
G75*
G02*
X148742750Y-89050000I0J51000D01*
G01*
G37*
X138182500Y-85531250D03*
G36*
G01*
X129711500Y-86331250D02*
X129711500Y-84731250D01*
G75*
G02*
X129762500Y-84680250I51000J0D01*
G01*
X131362500Y-84680250D01*
G75*
G02*
X131413500Y-84731250I0J-51000D01*
G01*
X131413500Y-86331250D01*
G75*
G02*
X131362500Y-86382250I-51000J0D01*
G01*
X129762500Y-86382250D01*
G75*
G02*
X129711500Y-86331250I0J51000D01*
G01*
G37*
X186906250Y-107026250D03*
G36*
G01*
X186106250Y-98555250D02*
X187706250Y-98555250D01*
G75*
G02*
X187757250Y-98606250I0J-51000D01*
G01*
X187757250Y-100206250D01*
G75*
G02*
X187706250Y-100257250I-51000J0D01*
G01*
X186106250Y-100257250D01*
G75*
G02*
X186055250Y-100206250I0J51000D01*
G01*
X186055250Y-98606250D01*
G75*
G02*
X186106250Y-98555250I51000J0D01*
G01*
G37*
X118963750Y-85531250D03*
G36*
G01*
X110492750Y-86331250D02*
X110492750Y-84731250D01*
G75*
G02*
X110543750Y-84680250I51000J0D01*
G01*
X112143750Y-84680250D01*
G75*
G02*
X112194750Y-84731250I0J-51000D01*
G01*
X112194750Y-86331250D01*
G75*
G02*
X112143750Y-86382250I-51000J0D01*
G01*
X110543750Y-86382250D01*
G75*
G02*
X110492750Y-86331250I0J51000D01*
G01*
G37*
X157213750Y-85531250D03*
G36*
G01*
X148742750Y-86331250D02*
X148742750Y-84731250D01*
G75*
G02*
X148793750Y-84680250I51000J0D01*
G01*
X150393750Y-84680250D01*
G75*
G02*
X150444750Y-84731250I0J-51000D01*
G01*
X150444750Y-86331250D01*
G75*
G02*
X150393750Y-86382250I-51000J0D01*
G01*
X148793750Y-86382250D01*
G75*
G02*
X148742750Y-86331250I0J51000D01*
G01*
G37*
X118963750Y-88250000D03*
G36*
G01*
X110492750Y-89050000D02*
X110492750Y-87450000D01*
G75*
G02*
X110543750Y-87399000I51000J0D01*
G01*
X112143750Y-87399000D01*
G75*
G02*
X112194750Y-87450000I0J-51000D01*
G01*
X112194750Y-89050000D01*
G75*
G02*
X112143750Y-89101000I-51000J0D01*
G01*
X110543750Y-89101000D01*
G75*
G02*
X110492750Y-89050000I0J51000D01*
G01*
G37*
X138250000Y-88250000D03*
G36*
G01*
X129779000Y-89050000D02*
X129779000Y-87450000D01*
G75*
G02*
X129830000Y-87399000I51000J0D01*
G01*
X131430000Y-87399000D01*
G75*
G02*
X131481000Y-87450000I0J-51000D01*
G01*
X131481000Y-89050000D01*
G75*
G02*
X131430000Y-89101000I-51000J0D01*
G01*
X129830000Y-89101000D01*
G75*
G02*
X129779000Y-89050000I0J51000D01*
G01*
G37*
X176406250Y-88250000D03*
G36*
G01*
X167935250Y-89050000D02*
X167935250Y-87450000D01*
G75*
G02*
X167986250Y-87399000I51000J0D01*
G01*
X169586250Y-87399000D01*
G75*
G02*
X169637250Y-87450000I0J-51000D01*
G01*
X169637250Y-89050000D01*
G75*
G02*
X169586250Y-89101000I-51000J0D01*
G01*
X167986250Y-89101000D01*
G75*
G02*
X167935250Y-89050000I0J51000D01*
G01*
G37*
X203098750Y-102781250D03*
G36*
G01*
X211569750Y-101981250D02*
X211569750Y-103581250D01*
G75*
G02*
X211518750Y-103632250I-51000J0D01*
G01*
X209918750Y-103632250D01*
G75*
G02*
X209867750Y-103581250I0J51000D01*
G01*
X209867750Y-101981250D01*
G75*
G02*
X209918750Y-101930250I51000J0D01*
G01*
X211518750Y-101930250D01*
G75*
G02*
X211569750Y-101981250I0J-51000D01*
G01*
G37*
X197968750Y-107026250D03*
G36*
G01*
X197168750Y-98555250D02*
X198768750Y-98555250D01*
G75*
G02*
X198819750Y-98606250I0J-51000D01*
G01*
X198819750Y-100206250D01*
G75*
G02*
X198768750Y-100257250I-51000J0D01*
G01*
X197168750Y-100257250D01*
G75*
G02*
X197117750Y-100206250I0J51000D01*
G01*
X197117750Y-98606250D01*
G75*
G02*
X197168750Y-98555250I51000J0D01*
G01*
G37*
X176406250Y-85531250D03*
G36*
G01*
X167935250Y-86331250D02*
X167935250Y-84731250D01*
G75*
G02*
X167986250Y-84680250I51000J0D01*
G01*
X169586250Y-84680250D01*
G75*
G02*
X169637250Y-84731250I0J-51000D01*
G01*
X169637250Y-86331250D01*
G75*
G02*
X169586250Y-86382250I-51000J0D01*
G01*
X167986250Y-86382250D01*
G75*
G02*
X167935250Y-86331250I0J51000D01*
G01*
G37*
M02*
