G04 #@! TF.GenerationSoftware,KiCad,Pcbnew,(5.1.4)-1*
G04 #@! TF.CreationDate,2021-07-02T20:11:15-04:00*
G04 #@! TF.ProjectId,chayzer,63686179-7a65-4722-9e6b-696361645f70,rev?*
G04 #@! TF.SameCoordinates,Original*
G04 #@! TF.FileFunction,Soldermask,Bot*
G04 #@! TF.FilePolarity,Negative*
%FSLAX46Y46*%
G04 Gerber Fmt 4.6, Leading zero omitted, Abs format (unit mm)*
G04 Created by KiCad (PCBNEW (5.1.4)-1) date 2021-07-02 20:11:15*
%MOMM*%
%LPD*%
G04 APERTURE LIST*
%ADD10C,0.100000*%
G04 APERTURE END LIST*
D10*
G36*
X160606290Y-113465399D02*
G01*
X160253299Y-114782781D01*
X159932843Y-115978737D01*
X159932843Y-115978738D01*
X157371208Y-115292349D01*
X158044655Y-112779010D01*
X160606290Y-113465399D01*
X160606290Y-113465399D01*
G37*
G36*
X148878083Y-112697055D02*
G01*
X149027908Y-112726857D01*
X149310172Y-112843774D01*
X149564203Y-113013512D01*
X149780239Y-113229548D01*
X149949977Y-113483579D01*
X150066894Y-113765843D01*
X150066894Y-113765844D01*
X150126498Y-114065492D01*
X150126498Y-114371014D01*
X150096696Y-114520838D01*
X150066894Y-114670663D01*
X149949977Y-114952927D01*
X149780239Y-115206958D01*
X149564203Y-115422994D01*
X149310172Y-115592732D01*
X149027908Y-115709649D01*
X148878083Y-115739451D01*
X148728259Y-115769253D01*
X148422737Y-115769253D01*
X148272913Y-115739451D01*
X148123088Y-115709649D01*
X147840824Y-115592732D01*
X147586793Y-115422994D01*
X147370757Y-115206958D01*
X147201019Y-114952927D01*
X147084102Y-114670663D01*
X147054300Y-114520838D01*
X147024498Y-114371014D01*
X147024498Y-114065492D01*
X147084102Y-113765844D01*
X147084102Y-113765843D01*
X147201019Y-113483579D01*
X147370757Y-113229548D01*
X147586793Y-113013512D01*
X147840824Y-112843774D01*
X148123088Y-112726857D01*
X148272913Y-112697055D01*
X148422737Y-112667253D01*
X148728259Y-112667253D01*
X148878083Y-112697055D01*
X148878083Y-112697055D01*
G37*
G36*
X155669112Y-111887104D02*
G01*
X155818937Y-111916906D01*
X156101201Y-112033823D01*
X156355232Y-112203561D01*
X156571268Y-112419597D01*
X156741006Y-112673628D01*
X156857923Y-112955892D01*
X156887725Y-113105717D01*
X156912357Y-113229548D01*
X156917527Y-113255542D01*
X156917527Y-113561062D01*
X156857923Y-113860712D01*
X156741006Y-114142976D01*
X156571268Y-114397007D01*
X156355232Y-114613043D01*
X156101201Y-114782781D01*
X155818937Y-114899698D01*
X155669112Y-114929500D01*
X155519288Y-114959302D01*
X155213766Y-114959302D01*
X155063942Y-114929500D01*
X154914117Y-114899698D01*
X154631853Y-114782781D01*
X154377822Y-114613043D01*
X154161786Y-114397007D01*
X153992048Y-114142976D01*
X153875131Y-113860712D01*
X153815527Y-113561062D01*
X153815527Y-113255542D01*
X153820698Y-113229548D01*
X153845329Y-113105717D01*
X153875131Y-112955892D01*
X153992048Y-112673628D01*
X154161786Y-112419597D01*
X154377822Y-112203561D01*
X154631853Y-112033823D01*
X154914117Y-111916906D01*
X155063942Y-111887104D01*
X155213766Y-111857302D01*
X155519288Y-111857302D01*
X155669112Y-111887104D01*
X155669112Y-111887104D01*
G37*
G36*
X146570817Y-112334206D02*
G01*
X145944766Y-114670662D01*
X145897370Y-114847544D01*
X145897370Y-114847545D01*
X143335735Y-114161156D01*
X144009182Y-111647817D01*
X146570817Y-112334206D01*
X146570817Y-112334206D01*
G37*
G36*
X157426605Y-110398981D02*
G01*
X157513728Y-110416310D01*
X157623151Y-110461635D01*
X157677864Y-110484298D01*
X157798979Y-110565224D01*
X157825581Y-110582999D01*
X157951205Y-110708623D01*
X157951207Y-110708626D01*
X158049906Y-110856340D01*
X158049906Y-110856341D01*
X158117894Y-111020476D01*
X158152553Y-111194722D01*
X158152553Y-111372380D01*
X158117894Y-111546626D01*
X158113544Y-111557127D01*
X158049906Y-111710762D01*
X158003030Y-111780917D01*
X157951205Y-111858479D01*
X157825581Y-111984103D01*
X157825578Y-111984105D01*
X157677864Y-112082804D01*
X157623151Y-112105467D01*
X157513728Y-112150792D01*
X157426605Y-112168122D01*
X157339484Y-112185451D01*
X157161822Y-112185451D01*
X157074701Y-112168122D01*
X156987578Y-112150792D01*
X156878155Y-112105467D01*
X156823442Y-112082804D01*
X156675728Y-111984105D01*
X156675725Y-111984103D01*
X156550101Y-111858479D01*
X156498276Y-111780917D01*
X156451400Y-111710762D01*
X156387762Y-111557127D01*
X156383412Y-111546626D01*
X156348753Y-111372380D01*
X156348753Y-111194722D01*
X156383412Y-111020476D01*
X156451400Y-110856341D01*
X156451400Y-110856340D01*
X156550099Y-110708626D01*
X156550101Y-110708623D01*
X156675725Y-110582999D01*
X156702327Y-110565224D01*
X156823442Y-110484298D01*
X156878155Y-110461635D01*
X156987578Y-110416310D01*
X157074701Y-110398981D01*
X157161822Y-110381651D01*
X157339484Y-110381651D01*
X157426605Y-110398981D01*
X157426605Y-110398981D01*
G37*
G36*
X152940224Y-108002434D02*
G01*
X153125121Y-108079021D01*
X153312373Y-108156583D01*
X153647298Y-108380373D01*
X153932127Y-108665202D01*
X154155917Y-109000127D01*
X154155917Y-109000128D01*
X154310066Y-109372276D01*
X154388650Y-109767344D01*
X154388650Y-110170156D01*
X154310066Y-110565224D01*
X154302704Y-110582997D01*
X154155917Y-110937373D01*
X153932127Y-111272298D01*
X153647298Y-111557127D01*
X153312373Y-111780917D01*
X153158224Y-111844767D01*
X152940224Y-111935066D01*
X152545156Y-112013650D01*
X152142344Y-112013650D01*
X151747276Y-111935066D01*
X151529276Y-111844767D01*
X151375127Y-111780917D01*
X151040202Y-111557127D01*
X150755373Y-111272298D01*
X150531583Y-110937373D01*
X150384796Y-110582997D01*
X150377434Y-110565224D01*
X150298850Y-110170156D01*
X150298850Y-109767344D01*
X150377434Y-109372276D01*
X150531583Y-109000128D01*
X150531583Y-109000127D01*
X150755373Y-108665202D01*
X151040202Y-108380373D01*
X151375127Y-108156583D01*
X151562379Y-108079021D01*
X151747276Y-108002434D01*
X152142344Y-107923850D01*
X152545156Y-107923850D01*
X152940224Y-108002434D01*
X152940224Y-108002434D01*
G37*
G36*
X147612799Y-107769378D02*
G01*
X147699922Y-107786708D01*
X147809345Y-107832033D01*
X147864058Y-107854696D01*
X148010780Y-107952732D01*
X148011775Y-107953397D01*
X148137399Y-108079021D01*
X148137401Y-108079024D01*
X148236100Y-108226738D01*
X148236100Y-108226739D01*
X148304088Y-108390874D01*
X148338747Y-108565120D01*
X148338747Y-108742778D01*
X148304088Y-108917024D01*
X148258763Y-109026447D01*
X148236100Y-109081160D01*
X148138064Y-109227882D01*
X148137399Y-109228877D01*
X148011775Y-109354501D01*
X148011772Y-109354503D01*
X147864058Y-109453202D01*
X147809345Y-109475865D01*
X147699922Y-109521190D01*
X147612799Y-109538519D01*
X147525678Y-109555849D01*
X147348016Y-109555849D01*
X147260895Y-109538519D01*
X147173772Y-109521190D01*
X147064349Y-109475865D01*
X147009636Y-109453202D01*
X146861922Y-109354503D01*
X146861919Y-109354501D01*
X146736295Y-109228877D01*
X146735630Y-109227882D01*
X146637594Y-109081160D01*
X146614931Y-109026447D01*
X146569606Y-108917024D01*
X146534947Y-108742778D01*
X146534947Y-108565120D01*
X146569606Y-108390874D01*
X146637594Y-108226739D01*
X146637594Y-108226738D01*
X146736293Y-108079024D01*
X146736295Y-108079021D01*
X146861919Y-107953397D01*
X146862914Y-107952732D01*
X147009636Y-107854696D01*
X147064349Y-107832033D01*
X147173772Y-107786708D01*
X147260895Y-107769378D01*
X147348016Y-107752049D01*
X147525678Y-107752049D01*
X147612799Y-107769378D01*
X147612799Y-107769378D01*
G37*
G36*
X149669249Y-105381082D02*
G01*
X149886542Y-105471088D01*
X149886544Y-105471089D01*
X149902243Y-105481579D01*
X150082103Y-105601758D01*
X150248413Y-105768068D01*
X150379083Y-105963629D01*
X150469089Y-106180922D01*
X150514973Y-106411598D01*
X150514973Y-106646798D01*
X150469089Y-106877474D01*
X150454271Y-106913247D01*
X150379082Y-107094769D01*
X150248413Y-107290328D01*
X150082103Y-107456638D01*
X149886544Y-107587307D01*
X149886543Y-107587308D01*
X149886542Y-107587308D01*
X149669249Y-107677314D01*
X149438573Y-107723198D01*
X149203373Y-107723198D01*
X148972697Y-107677314D01*
X148755404Y-107587308D01*
X148755403Y-107587308D01*
X148755402Y-107587307D01*
X148559843Y-107456638D01*
X148393533Y-107290328D01*
X148262864Y-107094769D01*
X148187675Y-106913247D01*
X148172857Y-106877474D01*
X148126973Y-106646798D01*
X148126973Y-106411598D01*
X148172857Y-106180922D01*
X148262863Y-105963629D01*
X148393533Y-105768068D01*
X148559843Y-105601758D01*
X148739703Y-105481579D01*
X148755402Y-105471089D01*
X148755404Y-105471088D01*
X148972697Y-105381082D01*
X149203373Y-105335198D01*
X149438573Y-105335198D01*
X149669249Y-105381082D01*
X149669249Y-105381082D01*
G37*
G36*
X156460278Y-104571131D02*
G01*
X156641512Y-104646201D01*
X156677573Y-104661138D01*
X156873132Y-104791807D01*
X157039442Y-104958117D01*
X157105412Y-105056847D01*
X157170112Y-105153678D01*
X157260118Y-105370971D01*
X157306002Y-105601647D01*
X157306002Y-105836847D01*
X157260118Y-106067523D01*
X157171106Y-106282416D01*
X157170111Y-106284818D01*
X157039442Y-106480377D01*
X156873132Y-106646687D01*
X156677573Y-106777356D01*
X156677572Y-106777357D01*
X156677571Y-106777357D01*
X156460278Y-106867363D01*
X156229602Y-106913247D01*
X155994402Y-106913247D01*
X155763726Y-106867363D01*
X155546433Y-106777357D01*
X155546432Y-106777357D01*
X155546431Y-106777356D01*
X155350872Y-106646687D01*
X155184562Y-106480377D01*
X155053893Y-106284818D01*
X155052898Y-106282416D01*
X154963886Y-106067523D01*
X154918002Y-105836847D01*
X154918002Y-105601647D01*
X154963886Y-105370971D01*
X155053892Y-105153678D01*
X155118593Y-105056847D01*
X155184562Y-104958117D01*
X155350872Y-104791807D01*
X155546431Y-104661138D01*
X155582492Y-104646201D01*
X155763726Y-104571131D01*
X155994402Y-104525247D01*
X156229602Y-104525247D01*
X156460278Y-104571131D01*
X156460278Y-104571131D01*
G37*
G36*
X161906506Y-103391298D02*
G01*
X162012829Y-103412447D01*
X162313292Y-103536903D01*
X162583701Y-103717585D01*
X162813665Y-103947549D01*
X162994347Y-104217958D01*
X163118803Y-104518421D01*
X163182250Y-104837391D01*
X163182250Y-105162609D01*
X163118803Y-105481579D01*
X162994347Y-105782042D01*
X162813665Y-106052451D01*
X162583701Y-106282415D01*
X162313292Y-106463097D01*
X162313291Y-106463098D01*
X162313290Y-106463098D01*
X162225287Y-106499550D01*
X162012829Y-106587553D01*
X161906506Y-106608702D01*
X161693861Y-106651000D01*
X161368639Y-106651000D01*
X161155994Y-106608702D01*
X161049671Y-106587553D01*
X160837213Y-106499550D01*
X160749210Y-106463098D01*
X160749209Y-106463098D01*
X160749208Y-106463097D01*
X160478799Y-106282415D01*
X160248835Y-106052451D01*
X160068153Y-105782042D01*
X159943697Y-105481579D01*
X159880250Y-105162609D01*
X159880250Y-104837391D01*
X159943697Y-104518421D01*
X160068153Y-104217958D01*
X160248835Y-103947549D01*
X160478799Y-103717585D01*
X160749208Y-103536903D01*
X161049671Y-103412447D01*
X161155994Y-103391298D01*
X161368639Y-103349000D01*
X161693861Y-103349000D01*
X161906506Y-103391298D01*
X161906506Y-103391298D01*
G37*
G36*
X145031506Y-101985048D02*
G01*
X145137829Y-102006197D01*
X145438292Y-102130653D01*
X145708701Y-102311335D01*
X145938665Y-102541299D01*
X146119347Y-102811708D01*
X146243803Y-103112171D01*
X146307250Y-103431141D01*
X146307250Y-103756359D01*
X146243803Y-104075329D01*
X146119347Y-104375792D01*
X145938665Y-104646201D01*
X145708701Y-104876165D01*
X145438292Y-105056847D01*
X145137829Y-105181303D01*
X145031506Y-105202452D01*
X144818861Y-105244750D01*
X144493639Y-105244750D01*
X144280994Y-105202452D01*
X144174671Y-105181303D01*
X143874208Y-105056847D01*
X143603799Y-104876165D01*
X143373835Y-104646201D01*
X143193153Y-104375792D01*
X143068697Y-104075329D01*
X143005250Y-103756359D01*
X143005250Y-103431141D01*
X143068697Y-103112171D01*
X143193153Y-102811708D01*
X143373835Y-102541299D01*
X143603799Y-102311335D01*
X143874208Y-102130653D01*
X144174671Y-102006197D01*
X144280994Y-101985048D01*
X144493639Y-101942750D01*
X144818861Y-101942750D01*
X145031506Y-101985048D01*
X145031506Y-101985048D01*
G37*
G36*
X145043790Y-98090399D02*
G01*
X144562765Y-99885611D01*
X144370343Y-100603737D01*
X144370343Y-100603738D01*
X141808708Y-99917349D01*
X142482155Y-97404010D01*
X145043790Y-98090399D01*
X145043790Y-98090399D01*
G37*
G36*
X133315583Y-97322055D02*
G01*
X133465408Y-97351857D01*
X133747672Y-97468774D01*
X134001703Y-97638512D01*
X134217739Y-97854548D01*
X134387477Y-98108579D01*
X134498728Y-98377165D01*
X134504394Y-98390844D01*
X134563998Y-98690492D01*
X134563998Y-98996014D01*
X134534196Y-99145838D01*
X134504394Y-99295663D01*
X134387477Y-99577927D01*
X134217739Y-99831958D01*
X134001703Y-100047994D01*
X133747672Y-100217732D01*
X133465408Y-100334649D01*
X133315583Y-100364451D01*
X133165759Y-100394253D01*
X132860237Y-100394253D01*
X132710413Y-100364451D01*
X132560588Y-100334649D01*
X132278324Y-100217732D01*
X132024293Y-100047994D01*
X131808257Y-99831958D01*
X131638519Y-99577927D01*
X131521602Y-99295663D01*
X131491800Y-99145838D01*
X131461998Y-98996014D01*
X131461998Y-98690492D01*
X131521602Y-98390844D01*
X131527268Y-98377165D01*
X131638519Y-98108579D01*
X131808257Y-97854548D01*
X132024293Y-97638512D01*
X132278324Y-97468774D01*
X132560588Y-97351857D01*
X132710413Y-97322055D01*
X132860237Y-97292253D01*
X133165759Y-97292253D01*
X133315583Y-97322055D01*
X133315583Y-97322055D01*
G37*
G36*
X158362814Y-97864389D02*
G01*
X158554083Y-97943615D01*
X158554085Y-97943616D01*
X158726223Y-98058635D01*
X158872615Y-98205027D01*
X158987635Y-98377167D01*
X159066861Y-98568436D01*
X159107250Y-98771484D01*
X159107250Y-98978516D01*
X159066861Y-99181564D01*
X158987635Y-99372833D01*
X158987634Y-99372835D01*
X158872615Y-99544973D01*
X158726223Y-99691365D01*
X158554085Y-99806384D01*
X158554084Y-99806385D01*
X158554083Y-99806385D01*
X158362814Y-99885611D01*
X158159766Y-99926000D01*
X157952734Y-99926000D01*
X157749686Y-99885611D01*
X157558417Y-99806385D01*
X157558416Y-99806385D01*
X157558415Y-99806384D01*
X157386277Y-99691365D01*
X157239885Y-99544973D01*
X157124866Y-99372835D01*
X157124865Y-99372833D01*
X157045639Y-99181564D01*
X157005250Y-98978516D01*
X157005250Y-98771484D01*
X157045639Y-98568436D01*
X157124865Y-98377167D01*
X157239885Y-98205027D01*
X157386277Y-98058635D01*
X157558415Y-97943616D01*
X157558417Y-97943615D01*
X157749686Y-97864389D01*
X157952734Y-97824000D01*
X158159766Y-97824000D01*
X158362814Y-97864389D01*
X158362814Y-97864389D01*
G37*
G36*
X153362814Y-97864389D02*
G01*
X153554083Y-97943615D01*
X153554085Y-97943616D01*
X153726223Y-98058635D01*
X153872615Y-98205027D01*
X153987635Y-98377167D01*
X154066861Y-98568436D01*
X154107250Y-98771484D01*
X154107250Y-98978516D01*
X154066861Y-99181564D01*
X153987635Y-99372833D01*
X153987634Y-99372835D01*
X153872615Y-99544973D01*
X153726223Y-99691365D01*
X153554085Y-99806384D01*
X153554084Y-99806385D01*
X153554083Y-99806385D01*
X153362814Y-99885611D01*
X153159766Y-99926000D01*
X152952734Y-99926000D01*
X152749686Y-99885611D01*
X152558417Y-99806385D01*
X152558416Y-99806385D01*
X152558415Y-99806384D01*
X152386277Y-99691365D01*
X152239885Y-99544973D01*
X152124866Y-99372835D01*
X152124865Y-99372833D01*
X152045639Y-99181564D01*
X152005250Y-98978516D01*
X152005250Y-98771484D01*
X152045639Y-98568436D01*
X152124865Y-98377167D01*
X152239885Y-98205027D01*
X152386277Y-98058635D01*
X152558415Y-97943616D01*
X152558417Y-97943615D01*
X152749686Y-97864389D01*
X152952734Y-97824000D01*
X153159766Y-97824000D01*
X153362814Y-97864389D01*
X153362814Y-97864389D01*
G37*
G36*
X140106612Y-96512104D02*
G01*
X140256437Y-96541906D01*
X140538701Y-96658823D01*
X140792732Y-96828561D01*
X141008768Y-97044597D01*
X141178506Y-97298628D01*
X141295423Y-97580892D01*
X141325225Y-97730717D01*
X141349857Y-97854548D01*
X141355027Y-97880542D01*
X141355027Y-98186062D01*
X141295423Y-98485712D01*
X141178506Y-98767976D01*
X141008768Y-99022007D01*
X140792732Y-99238043D01*
X140538701Y-99407781D01*
X140256437Y-99524698D01*
X140106612Y-99554500D01*
X139956788Y-99584302D01*
X139651266Y-99584302D01*
X139501442Y-99554500D01*
X139351617Y-99524698D01*
X139069353Y-99407781D01*
X138815322Y-99238043D01*
X138599286Y-99022007D01*
X138429548Y-98767976D01*
X138312631Y-98485712D01*
X138253027Y-98186062D01*
X138253027Y-97880542D01*
X138258198Y-97854548D01*
X138282829Y-97730717D01*
X138312631Y-97580892D01*
X138429548Y-97298628D01*
X138599286Y-97044597D01*
X138815322Y-96828561D01*
X139069353Y-96658823D01*
X139351617Y-96541906D01*
X139501442Y-96512104D01*
X139651266Y-96482302D01*
X139956788Y-96482302D01*
X140106612Y-96512104D01*
X140106612Y-96512104D01*
G37*
G36*
X131008317Y-96959206D02*
G01*
X130361588Y-99372833D01*
X130334870Y-99472544D01*
X130334870Y-99472545D01*
X127773235Y-98786156D01*
X128446682Y-96272817D01*
X131008317Y-96959206D01*
X131008317Y-96959206D01*
G37*
G36*
X141864105Y-95023981D02*
G01*
X141951228Y-95041310D01*
X142060651Y-95086635D01*
X142115364Y-95109298D01*
X142236479Y-95190224D01*
X142263081Y-95207999D01*
X142388705Y-95333623D01*
X142388707Y-95333626D01*
X142487406Y-95481340D01*
X142487406Y-95481341D01*
X142555394Y-95645476D01*
X142590053Y-95819722D01*
X142590053Y-95997380D01*
X142555394Y-96171626D01*
X142551044Y-96182127D01*
X142487406Y-96335762D01*
X142440530Y-96405917D01*
X142388705Y-96483479D01*
X142263081Y-96609103D01*
X142263078Y-96609105D01*
X142115364Y-96707804D01*
X142060651Y-96730467D01*
X141951228Y-96775792D01*
X141864105Y-96793122D01*
X141776984Y-96810451D01*
X141599322Y-96810451D01*
X141512201Y-96793121D01*
X141425078Y-96775792D01*
X141315655Y-96730467D01*
X141260942Y-96707804D01*
X141113228Y-96609105D01*
X141113225Y-96609103D01*
X140987601Y-96483479D01*
X140935776Y-96405917D01*
X140888900Y-96335762D01*
X140825262Y-96182127D01*
X140820912Y-96171626D01*
X140786253Y-95997380D01*
X140786253Y-95819722D01*
X140820912Y-95645476D01*
X140888900Y-95481341D01*
X140888900Y-95481340D01*
X140987599Y-95333626D01*
X140987601Y-95333623D01*
X141113225Y-95207999D01*
X141139827Y-95190224D01*
X141260942Y-95109298D01*
X141315655Y-95086635D01*
X141425078Y-95041310D01*
X141512201Y-95023981D01*
X141599322Y-95006651D01*
X141776984Y-95006651D01*
X141864105Y-95023981D01*
X141864105Y-95023981D01*
G37*
G36*
X137377724Y-92627434D02*
G01*
X137562621Y-92704021D01*
X137749873Y-92781583D01*
X138084798Y-93005373D01*
X138369627Y-93290202D01*
X138593417Y-93625127D01*
X138593417Y-93625128D01*
X138747566Y-93997276D01*
X138826150Y-94392344D01*
X138826150Y-94795156D01*
X138747566Y-95190224D01*
X138740204Y-95207997D01*
X138593417Y-95562373D01*
X138369627Y-95897298D01*
X138084798Y-96182127D01*
X137749873Y-96405917D01*
X137595724Y-96469767D01*
X137377724Y-96560066D01*
X136982656Y-96638650D01*
X136579844Y-96638650D01*
X136184776Y-96560066D01*
X135966776Y-96469767D01*
X135812627Y-96405917D01*
X135477702Y-96182127D01*
X135192873Y-95897298D01*
X134969083Y-95562373D01*
X134822296Y-95207997D01*
X134814934Y-95190224D01*
X134736350Y-94795156D01*
X134736350Y-94392344D01*
X134814934Y-93997276D01*
X134969083Y-93625128D01*
X134969083Y-93625127D01*
X135192873Y-93290202D01*
X135477702Y-93005373D01*
X135812627Y-92781583D01*
X135999879Y-92704021D01*
X136184776Y-92627434D01*
X136579844Y-92548850D01*
X136982656Y-92548850D01*
X137377724Y-92627434D01*
X137377724Y-92627434D01*
G37*
G36*
X132050299Y-92394379D02*
G01*
X132137422Y-92411708D01*
X132246845Y-92457033D01*
X132301558Y-92479696D01*
X132448280Y-92577732D01*
X132449275Y-92578397D01*
X132574899Y-92704021D01*
X132574901Y-92704024D01*
X132673600Y-92851738D01*
X132673600Y-92851739D01*
X132741588Y-93015874D01*
X132776247Y-93190120D01*
X132776247Y-93367778D01*
X132741588Y-93542024D01*
X132696263Y-93651447D01*
X132673600Y-93706160D01*
X132575564Y-93852882D01*
X132574899Y-93853877D01*
X132449275Y-93979501D01*
X132449272Y-93979503D01*
X132301558Y-94078202D01*
X132246845Y-94100865D01*
X132137422Y-94146190D01*
X132050299Y-94163519D01*
X131963178Y-94180849D01*
X131785516Y-94180849D01*
X131698395Y-94163519D01*
X131611272Y-94146190D01*
X131501849Y-94100865D01*
X131447136Y-94078202D01*
X131299422Y-93979503D01*
X131299419Y-93979501D01*
X131173795Y-93853877D01*
X131173130Y-93852882D01*
X131075094Y-93706160D01*
X131052431Y-93651447D01*
X131007106Y-93542024D01*
X130972447Y-93367778D01*
X130972447Y-93190120D01*
X131007106Y-93015874D01*
X131075094Y-92851739D01*
X131075094Y-92851738D01*
X131173793Y-92704024D01*
X131173795Y-92704021D01*
X131299419Y-92578397D01*
X131300414Y-92577732D01*
X131447136Y-92479696D01*
X131501849Y-92457033D01*
X131611272Y-92411708D01*
X131698395Y-92394379D01*
X131785516Y-92377049D01*
X131963178Y-92377049D01*
X132050299Y-92394379D01*
X132050299Y-92394379D01*
G37*
G36*
X151257250Y-93426000D02*
G01*
X148655250Y-93426000D01*
X148655250Y-90324000D01*
X151257250Y-90324000D01*
X151257250Y-93426000D01*
X151257250Y-93426000D01*
G37*
G36*
X162457250Y-93426000D02*
G01*
X159855250Y-93426000D01*
X159855250Y-90324000D01*
X162457250Y-90324000D01*
X162457250Y-93426000D01*
X162457250Y-93426000D01*
G37*
G36*
X134106749Y-90006082D02*
G01*
X134324042Y-90096088D01*
X134324044Y-90096089D01*
X134519437Y-90226647D01*
X134519603Y-90226758D01*
X134685913Y-90393068D01*
X134816583Y-90588629D01*
X134906589Y-90805922D01*
X134952473Y-91036598D01*
X134952473Y-91271798D01*
X134906589Y-91502474D01*
X134891771Y-91538247D01*
X134816582Y-91719769D01*
X134685913Y-91915328D01*
X134519603Y-92081638D01*
X134324044Y-92212307D01*
X134324043Y-92212308D01*
X134324042Y-92212308D01*
X134106749Y-92302314D01*
X133876073Y-92348198D01*
X133640873Y-92348198D01*
X133410197Y-92302314D01*
X133192904Y-92212308D01*
X133192903Y-92212308D01*
X133192902Y-92212307D01*
X132997343Y-92081638D01*
X132831033Y-91915328D01*
X132700364Y-91719769D01*
X132625175Y-91538247D01*
X132610357Y-91502474D01*
X132564473Y-91271798D01*
X132564473Y-91036598D01*
X132610357Y-90805922D01*
X132700363Y-90588629D01*
X132831033Y-90393068D01*
X132997343Y-90226758D01*
X132997509Y-90226647D01*
X133192902Y-90096089D01*
X133192904Y-90096088D01*
X133410197Y-90006082D01*
X133640873Y-89960198D01*
X133876073Y-89960198D01*
X134106749Y-90006082D01*
X134106749Y-90006082D01*
G37*
G36*
X140897778Y-89196131D02*
G01*
X141115071Y-89286137D01*
X141115073Y-89286138D01*
X141310632Y-89416807D01*
X141476942Y-89583117D01*
X141607612Y-89778678D01*
X141697618Y-89995971D01*
X141743502Y-90226647D01*
X141743502Y-90461847D01*
X141697618Y-90692523D01*
X141650646Y-90805922D01*
X141607611Y-90909818D01*
X141476942Y-91105377D01*
X141310632Y-91271687D01*
X141115073Y-91402356D01*
X141115072Y-91402357D01*
X141115071Y-91402357D01*
X140897778Y-91492363D01*
X140667102Y-91538247D01*
X140431902Y-91538247D01*
X140201226Y-91492363D01*
X139983933Y-91402357D01*
X139983932Y-91402357D01*
X139983931Y-91402356D01*
X139788372Y-91271687D01*
X139622062Y-91105377D01*
X139491393Y-90909818D01*
X139448358Y-90805922D01*
X139401386Y-90692523D01*
X139355502Y-90461847D01*
X139355502Y-90226647D01*
X139401386Y-89995971D01*
X139491392Y-89778678D01*
X139622062Y-89583117D01*
X139788372Y-89416807D01*
X139983931Y-89286138D01*
X139983933Y-89286137D01*
X140201226Y-89196131D01*
X140431902Y-89150247D01*
X140667102Y-89150247D01*
X140897778Y-89196131D01*
X140897778Y-89196131D01*
G37*
G36*
X159107250Y-85426000D02*
G01*
X157005250Y-85426000D01*
X157005250Y-83324000D01*
X159107250Y-83324000D01*
X159107250Y-85426000D01*
X159107250Y-85426000D01*
G37*
G36*
X155862814Y-83364389D02*
G01*
X156054083Y-83443615D01*
X156054085Y-83443616D01*
X156226223Y-83558635D01*
X156372615Y-83705027D01*
X156487635Y-83877167D01*
X156566861Y-84068436D01*
X156607250Y-84271484D01*
X156607250Y-84478516D01*
X156566861Y-84681564D01*
X156487635Y-84872833D01*
X156487634Y-84872835D01*
X156372615Y-85044973D01*
X156226223Y-85191365D01*
X156054085Y-85306384D01*
X156054084Y-85306385D01*
X156054083Y-85306385D01*
X155862814Y-85385611D01*
X155659766Y-85426000D01*
X155452734Y-85426000D01*
X155249686Y-85385611D01*
X155058417Y-85306385D01*
X155058416Y-85306385D01*
X155058415Y-85306384D01*
X154886277Y-85191365D01*
X154739885Y-85044973D01*
X154624866Y-84872835D01*
X154624865Y-84872833D01*
X154545639Y-84681564D01*
X154505250Y-84478516D01*
X154505250Y-84271484D01*
X154545639Y-84068436D01*
X154624865Y-83877167D01*
X154739885Y-83705027D01*
X154886277Y-83558635D01*
X155058415Y-83443616D01*
X155058417Y-83443615D01*
X155249686Y-83364389D01*
X155452734Y-83324000D01*
X155659766Y-83324000D01*
X155862814Y-83364389D01*
X155862814Y-83364389D01*
G37*
G36*
X153362814Y-83364389D02*
G01*
X153554083Y-83443615D01*
X153554085Y-83443616D01*
X153726223Y-83558635D01*
X153872615Y-83705027D01*
X153987635Y-83877167D01*
X154066861Y-84068436D01*
X154107250Y-84271484D01*
X154107250Y-84478516D01*
X154066861Y-84681564D01*
X153987635Y-84872833D01*
X153987634Y-84872835D01*
X153872615Y-85044973D01*
X153726223Y-85191365D01*
X153554085Y-85306384D01*
X153554084Y-85306385D01*
X153554083Y-85306385D01*
X153362814Y-85385611D01*
X153159766Y-85426000D01*
X152952734Y-85426000D01*
X152749686Y-85385611D01*
X152558417Y-85306385D01*
X152558416Y-85306385D01*
X152558415Y-85306384D01*
X152386277Y-85191365D01*
X152239885Y-85044973D01*
X152124866Y-84872835D01*
X152124865Y-84872833D01*
X152045639Y-84681564D01*
X152005250Y-84478516D01*
X152005250Y-84271484D01*
X152045639Y-84068436D01*
X152124865Y-83877167D01*
X152239885Y-83705027D01*
X152386277Y-83558635D01*
X152558415Y-83443616D01*
X152558417Y-83443615D01*
X152749686Y-83364389D01*
X152952734Y-83324000D01*
X153159766Y-83324000D01*
X153362814Y-83364389D01*
X153362814Y-83364389D01*
G37*
G36*
X135073073Y-81687563D02*
G01*
X135233492Y-81736226D01*
X135366156Y-81807136D01*
X135381328Y-81815246D01*
X135510909Y-81921591D01*
X135617254Y-82051172D01*
X135617255Y-82051174D01*
X135696274Y-82199008D01*
X135744937Y-82359427D01*
X135761367Y-82526250D01*
X135744937Y-82693073D01*
X135696274Y-82853492D01*
X135625364Y-82986156D01*
X135617254Y-83001328D01*
X135510909Y-83130909D01*
X135381328Y-83237254D01*
X135381326Y-83237255D01*
X135233492Y-83316274D01*
X135073073Y-83364937D01*
X134948054Y-83377250D01*
X134864446Y-83377250D01*
X134739427Y-83364937D01*
X134579008Y-83316274D01*
X134431174Y-83237255D01*
X134431172Y-83237254D01*
X134301591Y-83130909D01*
X134195246Y-83001328D01*
X134187136Y-82986156D01*
X134116226Y-82853492D01*
X134067563Y-82693073D01*
X134051133Y-82526250D01*
X134067563Y-82359427D01*
X134116226Y-82199008D01*
X134195245Y-82051174D01*
X134195246Y-82051172D01*
X134301591Y-81921591D01*
X134431172Y-81815246D01*
X134446344Y-81807136D01*
X134579008Y-81736226D01*
X134739427Y-81687563D01*
X134864446Y-81675250D01*
X134948054Y-81675250D01*
X135073073Y-81687563D01*
X135073073Y-81687563D01*
G37*
G36*
X146135573Y-81687563D02*
G01*
X146295992Y-81736226D01*
X146428656Y-81807136D01*
X146443828Y-81815246D01*
X146573409Y-81921591D01*
X146679754Y-82051172D01*
X146679755Y-82051174D01*
X146758774Y-82199008D01*
X146807437Y-82359427D01*
X146823867Y-82526250D01*
X146807437Y-82693073D01*
X146758774Y-82853492D01*
X146687864Y-82986156D01*
X146679754Y-83001328D01*
X146573409Y-83130909D01*
X146443828Y-83237254D01*
X146443826Y-83237255D01*
X146295992Y-83316274D01*
X146135573Y-83364937D01*
X146010554Y-83377250D01*
X145926946Y-83377250D01*
X145801927Y-83364937D01*
X145641508Y-83316274D01*
X145493674Y-83237255D01*
X145493672Y-83237254D01*
X145364091Y-83130909D01*
X145257746Y-83001328D01*
X145249636Y-82986156D01*
X145178726Y-82853492D01*
X145130063Y-82693073D01*
X145113633Y-82526250D01*
X145130063Y-82359427D01*
X145178726Y-82199008D01*
X145257745Y-82051174D01*
X145257746Y-82051172D01*
X145364091Y-81921591D01*
X145493672Y-81815246D01*
X145508844Y-81807136D01*
X145641508Y-81736226D01*
X145801927Y-81687563D01*
X145926946Y-81675250D01*
X146010554Y-81675250D01*
X146135573Y-81687563D01*
X146135573Y-81687563D01*
G37*
G36*
X34824510Y-78068704D02*
G01*
X34981579Y-78099947D01*
X35282042Y-78224403D01*
X35552451Y-78405085D01*
X35782415Y-78635049D01*
X35963097Y-78905458D01*
X36087553Y-79205921D01*
X36151000Y-79524891D01*
X36151000Y-79850109D01*
X36087553Y-80169079D01*
X35963097Y-80469542D01*
X35782415Y-80739951D01*
X35552451Y-80969915D01*
X35282042Y-81150597D01*
X34981579Y-81275053D01*
X34875256Y-81296202D01*
X34662611Y-81338500D01*
X34337389Y-81338500D01*
X34124744Y-81296202D01*
X34018421Y-81275053D01*
X33717958Y-81150597D01*
X33447549Y-80969915D01*
X33217585Y-80739951D01*
X33036903Y-80469542D01*
X32912447Y-80169079D01*
X32849000Y-79850109D01*
X32849000Y-79524891D01*
X32912447Y-79205921D01*
X33036903Y-78905458D01*
X33217585Y-78635049D01*
X33447549Y-78405085D01*
X33717958Y-78224403D01*
X34018421Y-78099947D01*
X34175490Y-78068704D01*
X34337389Y-78036500D01*
X34662611Y-78036500D01*
X34824510Y-78068704D01*
X34824510Y-78068704D01*
G37*
G36*
X151265573Y-77442563D02*
G01*
X151425992Y-77491226D01*
X151558656Y-77562136D01*
X151573828Y-77570246D01*
X151703409Y-77676591D01*
X151809754Y-77806172D01*
X151809755Y-77806174D01*
X151888774Y-77954008D01*
X151937437Y-78114427D01*
X151953867Y-78281250D01*
X151937437Y-78448073D01*
X151888774Y-78608492D01*
X151817864Y-78741156D01*
X151809754Y-78756328D01*
X151703409Y-78885909D01*
X151573828Y-78992254D01*
X151573826Y-78992255D01*
X151425992Y-79071274D01*
X151265573Y-79119937D01*
X151140554Y-79132250D01*
X151056946Y-79132250D01*
X150931927Y-79119937D01*
X150771508Y-79071274D01*
X150623674Y-78992255D01*
X150623672Y-78992254D01*
X150494091Y-78885909D01*
X150387746Y-78756328D01*
X150379636Y-78741156D01*
X150308726Y-78608492D01*
X150260063Y-78448073D01*
X150243633Y-78281250D01*
X150260063Y-78114427D01*
X150308726Y-77954008D01*
X150387745Y-77806174D01*
X150387746Y-77806172D01*
X150494091Y-77676591D01*
X150623672Y-77570246D01*
X150638844Y-77562136D01*
X150771508Y-77491226D01*
X150931927Y-77442563D01*
X151056946Y-77430250D01*
X151140554Y-77430250D01*
X151265573Y-77442563D01*
X151265573Y-77442563D01*
G37*
G36*
X159569750Y-79132250D02*
G01*
X157867750Y-79132250D01*
X157867750Y-77430250D01*
X159569750Y-77430250D01*
X159569750Y-79132250D01*
X159569750Y-79132250D01*
G37*
G36*
X79876012Y-75556500D02*
G01*
X80037410Y-75588604D01*
X80319674Y-75705521D01*
X80573705Y-75875259D01*
X80789741Y-76091295D01*
X80959479Y-76345326D01*
X81076396Y-76627590D01*
X81136000Y-76927240D01*
X81136000Y-77232760D01*
X81076396Y-77532410D01*
X80959479Y-77814674D01*
X80789741Y-78068705D01*
X80573705Y-78284741D01*
X80319674Y-78454479D01*
X80037410Y-78571396D01*
X79887585Y-78601198D01*
X79737761Y-78631000D01*
X79432239Y-78631000D01*
X79282415Y-78601198D01*
X79132590Y-78571396D01*
X78850326Y-78454479D01*
X78596295Y-78284741D01*
X78380259Y-78068705D01*
X78210521Y-77814674D01*
X78093604Y-77532410D01*
X78034000Y-77232760D01*
X78034000Y-76927240D01*
X78093604Y-76627590D01*
X78210521Y-76345326D01*
X78380259Y-76091295D01*
X78596295Y-75875259D01*
X78850326Y-75705521D01*
X79132590Y-75588604D01*
X79293988Y-75556500D01*
X79432239Y-75529000D01*
X79737761Y-75529000D01*
X79876012Y-75556500D01*
X79876012Y-75556500D01*
G37*
G36*
X118126012Y-75556500D02*
G01*
X118287410Y-75588604D01*
X118569674Y-75705521D01*
X118823705Y-75875259D01*
X119039741Y-76091295D01*
X119209479Y-76345326D01*
X119326396Y-76627590D01*
X119386000Y-76927240D01*
X119386000Y-77232760D01*
X119326396Y-77532410D01*
X119209479Y-77814674D01*
X119039741Y-78068705D01*
X118823705Y-78284741D01*
X118569674Y-78454479D01*
X118287410Y-78571396D01*
X118137585Y-78601198D01*
X117987761Y-78631000D01*
X117682239Y-78631000D01*
X117532415Y-78601198D01*
X117382590Y-78571396D01*
X117100326Y-78454479D01*
X116846295Y-78284741D01*
X116630259Y-78068705D01*
X116460521Y-77814674D01*
X116343604Y-77532410D01*
X116284000Y-77232760D01*
X116284000Y-76927240D01*
X116343604Y-76627590D01*
X116460521Y-76345326D01*
X116630259Y-76091295D01*
X116846295Y-75875259D01*
X117100326Y-75705521D01*
X117382590Y-75588604D01*
X117543988Y-75556500D01*
X117682239Y-75529000D01*
X117987761Y-75529000D01*
X118126012Y-75556500D01*
X118126012Y-75556500D01*
G37*
G36*
X98907262Y-75556500D02*
G01*
X99068660Y-75588604D01*
X99350924Y-75705521D01*
X99604955Y-75875259D01*
X99820991Y-76091295D01*
X99990729Y-76345326D01*
X100107646Y-76627590D01*
X100167250Y-76927240D01*
X100167250Y-77232760D01*
X100107646Y-77532410D01*
X99990729Y-77814674D01*
X99820991Y-78068705D01*
X99604955Y-78284741D01*
X99350924Y-78454479D01*
X99068660Y-78571396D01*
X98918835Y-78601198D01*
X98769011Y-78631000D01*
X98463489Y-78631000D01*
X98313665Y-78601198D01*
X98163840Y-78571396D01*
X97881576Y-78454479D01*
X97627545Y-78284741D01*
X97411509Y-78068705D01*
X97241771Y-77814674D01*
X97124854Y-77532410D01*
X97065250Y-77232760D01*
X97065250Y-76927240D01*
X97124854Y-76627590D01*
X97241771Y-76345326D01*
X97411509Y-76091295D01*
X97627545Y-75875259D01*
X97881576Y-75705521D01*
X98163840Y-75588604D01*
X98325238Y-75556500D01*
X98463489Y-75529000D01*
X98769011Y-75529000D01*
X98907262Y-75556500D01*
X98907262Y-75556500D01*
G37*
G36*
X60657262Y-75556500D02*
G01*
X60818660Y-75588604D01*
X61100924Y-75705521D01*
X61354955Y-75875259D01*
X61570991Y-76091295D01*
X61740729Y-76345326D01*
X61857646Y-76627590D01*
X61917250Y-76927240D01*
X61917250Y-77232760D01*
X61857646Y-77532410D01*
X61740729Y-77814674D01*
X61570991Y-78068705D01*
X61354955Y-78284741D01*
X61100924Y-78454479D01*
X60818660Y-78571396D01*
X60668835Y-78601198D01*
X60519011Y-78631000D01*
X60213489Y-78631000D01*
X60063665Y-78601198D01*
X59913840Y-78571396D01*
X59631576Y-78454479D01*
X59377545Y-78284741D01*
X59161509Y-78068705D01*
X58991771Y-77814674D01*
X58874854Y-77532410D01*
X58815250Y-77232760D01*
X58815250Y-76927240D01*
X58874854Y-76627590D01*
X58991771Y-76345326D01*
X59161509Y-76091295D01*
X59377545Y-75875259D01*
X59631576Y-75705521D01*
X59913840Y-75588604D01*
X60075238Y-75556500D01*
X60213489Y-75529000D01*
X60519011Y-75529000D01*
X60657262Y-75556500D01*
X60657262Y-75556500D01*
G37*
G36*
X96192250Y-78381000D02*
G01*
X93540250Y-78381000D01*
X93540250Y-75779000D01*
X96192250Y-75779000D01*
X96192250Y-78381000D01*
X96192250Y-78381000D01*
G37*
G36*
X115411000Y-78381000D02*
G01*
X112759000Y-78381000D01*
X112759000Y-75779000D01*
X115411000Y-75779000D01*
X115411000Y-78381000D01*
X115411000Y-78381000D01*
G37*
G36*
X77161000Y-78381000D02*
G01*
X74509000Y-78381000D01*
X74509000Y-75779000D01*
X77161000Y-75779000D01*
X77161000Y-78381000D01*
X77161000Y-78381000D01*
G37*
G36*
X57942250Y-78381000D02*
G01*
X55290250Y-78381000D01*
X55290250Y-75779000D01*
X57942250Y-75779000D01*
X57942250Y-78381000D01*
X57942250Y-78381000D01*
G37*
G36*
X49935728Y-75589203D02*
G01*
X50090600Y-75653353D01*
X50229981Y-75746485D01*
X50348515Y-75865019D01*
X50441647Y-76004400D01*
X50505797Y-76159272D01*
X50538500Y-76323684D01*
X50538500Y-76491316D01*
X50505797Y-76655728D01*
X50441647Y-76810600D01*
X50348515Y-76949981D01*
X50229981Y-77068515D01*
X50090600Y-77161647D01*
X49935728Y-77225797D01*
X49771316Y-77258500D01*
X49603684Y-77258500D01*
X49439272Y-77225797D01*
X49284400Y-77161647D01*
X49145019Y-77068515D01*
X49026485Y-76949981D01*
X48933353Y-76810600D01*
X48869203Y-76655728D01*
X48836500Y-76491316D01*
X48836500Y-76323684D01*
X48869203Y-76159272D01*
X48933353Y-76004400D01*
X49026485Y-75865019D01*
X49145019Y-75746485D01*
X49284400Y-75653353D01*
X49439272Y-75589203D01*
X49603684Y-75556500D01*
X49771316Y-75556500D01*
X49935728Y-75589203D01*
X49935728Y-75589203D01*
G37*
G36*
X34695728Y-75589203D02*
G01*
X34850600Y-75653353D01*
X34989981Y-75746485D01*
X35108515Y-75865019D01*
X35201647Y-76004400D01*
X35265797Y-76159272D01*
X35298500Y-76323684D01*
X35298500Y-76491316D01*
X35265797Y-76655728D01*
X35201647Y-76810600D01*
X35108515Y-76949981D01*
X34989981Y-77068515D01*
X34850600Y-77161647D01*
X34695728Y-77225797D01*
X34531316Y-77258500D01*
X34363684Y-77258500D01*
X34199272Y-77225797D01*
X34044400Y-77161647D01*
X33905019Y-77068515D01*
X33786485Y-76949981D01*
X33693353Y-76810600D01*
X33629203Y-76655728D01*
X33596500Y-76491316D01*
X33596500Y-76323684D01*
X33629203Y-76159272D01*
X33693353Y-76004400D01*
X33786485Y-75865019D01*
X33905019Y-75746485D01*
X34044400Y-75653353D01*
X34199272Y-75589203D01*
X34363684Y-75556500D01*
X34531316Y-75556500D01*
X34695728Y-75589203D01*
X34695728Y-75589203D01*
G37*
G36*
X124476012Y-73016500D02*
G01*
X124637410Y-73048604D01*
X124919674Y-73165521D01*
X125173705Y-73335259D01*
X125389741Y-73551295D01*
X125559479Y-73805326D01*
X125676396Y-74087590D01*
X125736000Y-74387240D01*
X125736000Y-74692760D01*
X125676396Y-74992410D01*
X125559479Y-75274674D01*
X125389741Y-75528705D01*
X125173705Y-75744741D01*
X124919674Y-75914479D01*
X124637410Y-76031396D01*
X124487585Y-76061198D01*
X124337761Y-76091000D01*
X124032239Y-76091000D01*
X123882415Y-76061198D01*
X123732590Y-76031396D01*
X123450326Y-75914479D01*
X123196295Y-75744741D01*
X122980259Y-75528705D01*
X122810521Y-75274674D01*
X122693604Y-74992410D01*
X122634000Y-74692760D01*
X122634000Y-74387240D01*
X122693604Y-74087590D01*
X122810521Y-73805326D01*
X122980259Y-73551295D01*
X123196295Y-73335259D01*
X123450326Y-73165521D01*
X123732590Y-73048604D01*
X123893988Y-73016500D01*
X124032239Y-72989000D01*
X124337761Y-72989000D01*
X124476012Y-73016500D01*
X124476012Y-73016500D01*
G37*
G36*
X86226012Y-73016500D02*
G01*
X86387410Y-73048604D01*
X86669674Y-73165521D01*
X86923705Y-73335259D01*
X87139741Y-73551295D01*
X87309479Y-73805326D01*
X87426396Y-74087590D01*
X87486000Y-74387240D01*
X87486000Y-74692760D01*
X87426396Y-74992410D01*
X87309479Y-75274674D01*
X87139741Y-75528705D01*
X86923705Y-75744741D01*
X86669674Y-75914479D01*
X86387410Y-76031396D01*
X86237585Y-76061198D01*
X86087761Y-76091000D01*
X85782239Y-76091000D01*
X85632415Y-76061198D01*
X85482590Y-76031396D01*
X85200326Y-75914479D01*
X84946295Y-75744741D01*
X84730259Y-75528705D01*
X84560521Y-75274674D01*
X84443604Y-74992410D01*
X84384000Y-74692760D01*
X84384000Y-74387240D01*
X84443604Y-74087590D01*
X84560521Y-73805326D01*
X84730259Y-73551295D01*
X84946295Y-73335259D01*
X85200326Y-73165521D01*
X85482590Y-73048604D01*
X85643988Y-73016500D01*
X85782239Y-72989000D01*
X86087761Y-72989000D01*
X86226012Y-73016500D01*
X86226012Y-73016500D01*
G37*
G36*
X67007262Y-73016500D02*
G01*
X67168660Y-73048604D01*
X67450924Y-73165521D01*
X67704955Y-73335259D01*
X67920991Y-73551295D01*
X68090729Y-73805326D01*
X68207646Y-74087590D01*
X68267250Y-74387240D01*
X68267250Y-74692760D01*
X68207646Y-74992410D01*
X68090729Y-75274674D01*
X67920991Y-75528705D01*
X67704955Y-75744741D01*
X67450924Y-75914479D01*
X67168660Y-76031396D01*
X67018835Y-76061198D01*
X66869011Y-76091000D01*
X66563489Y-76091000D01*
X66413665Y-76061198D01*
X66263840Y-76031396D01*
X65981576Y-75914479D01*
X65727545Y-75744741D01*
X65511509Y-75528705D01*
X65341771Y-75274674D01*
X65224854Y-74992410D01*
X65165250Y-74692760D01*
X65165250Y-74387240D01*
X65224854Y-74087590D01*
X65341771Y-73805326D01*
X65511509Y-73551295D01*
X65727545Y-73335259D01*
X65981576Y-73165521D01*
X66263840Y-73048604D01*
X66425238Y-73016500D01*
X66563489Y-72989000D01*
X66869011Y-72989000D01*
X67007262Y-73016500D01*
X67007262Y-73016500D01*
G37*
G36*
X105257262Y-73016500D02*
G01*
X105418660Y-73048604D01*
X105700924Y-73165521D01*
X105954955Y-73335259D01*
X106170991Y-73551295D01*
X106340729Y-73805326D01*
X106457646Y-74087590D01*
X106517250Y-74387240D01*
X106517250Y-74692760D01*
X106457646Y-74992410D01*
X106340729Y-75274674D01*
X106170991Y-75528705D01*
X105954955Y-75744741D01*
X105700924Y-75914479D01*
X105418660Y-76031396D01*
X105268835Y-76061198D01*
X105119011Y-76091000D01*
X104813489Y-76091000D01*
X104663665Y-76061198D01*
X104513840Y-76031396D01*
X104231576Y-75914479D01*
X103977545Y-75744741D01*
X103761509Y-75528705D01*
X103591771Y-75274674D01*
X103474854Y-74992410D01*
X103415250Y-74692760D01*
X103415250Y-74387240D01*
X103474854Y-74087590D01*
X103591771Y-73805326D01*
X103761509Y-73551295D01*
X103977545Y-73335259D01*
X104231576Y-73165521D01*
X104513840Y-73048604D01*
X104675238Y-73016500D01*
X104813489Y-72989000D01*
X105119011Y-72989000D01*
X105257262Y-73016500D01*
X105257262Y-73016500D01*
G37*
G36*
X91011000Y-75841000D02*
G01*
X88359000Y-75841000D01*
X88359000Y-73239000D01*
X91011000Y-73239000D01*
X91011000Y-75841000D01*
X91011000Y-75841000D01*
G37*
G36*
X129261000Y-75841000D02*
G01*
X126609000Y-75841000D01*
X126609000Y-73239000D01*
X129261000Y-73239000D01*
X129261000Y-75841000D01*
X129261000Y-75841000D01*
G37*
G36*
X71792250Y-75841000D02*
G01*
X69140250Y-75841000D01*
X69140250Y-73239000D01*
X71792250Y-73239000D01*
X71792250Y-75841000D01*
X71792250Y-75841000D01*
G37*
G36*
X110042250Y-75841000D02*
G01*
X107390250Y-75841000D01*
X107390250Y-73239000D01*
X110042250Y-73239000D01*
X110042250Y-75841000D01*
X110042250Y-75841000D01*
G37*
G36*
X135757250Y-75757250D02*
G01*
X134055250Y-75757250D01*
X134055250Y-74055250D01*
X135757250Y-74055250D01*
X135757250Y-75757250D01*
X135757250Y-75757250D01*
G37*
G36*
X146819750Y-75757250D02*
G01*
X145117750Y-75757250D01*
X145117750Y-74055250D01*
X146819750Y-74055250D01*
X146819750Y-75757250D01*
X146819750Y-75757250D01*
G37*
G36*
X34695728Y-73049203D02*
G01*
X34850600Y-73113353D01*
X34989981Y-73206485D01*
X35108515Y-73325019D01*
X35201647Y-73464400D01*
X35265797Y-73619272D01*
X35298500Y-73783684D01*
X35298500Y-73951316D01*
X35265797Y-74115728D01*
X35201647Y-74270600D01*
X35108515Y-74409981D01*
X34989981Y-74528515D01*
X34850600Y-74621647D01*
X34695728Y-74685797D01*
X34531316Y-74718500D01*
X34363684Y-74718500D01*
X34199272Y-74685797D01*
X34044400Y-74621647D01*
X33905019Y-74528515D01*
X33786485Y-74409981D01*
X33693353Y-74270600D01*
X33629203Y-74115728D01*
X33596500Y-73951316D01*
X33596500Y-73783684D01*
X33629203Y-73619272D01*
X33693353Y-73464400D01*
X33786485Y-73325019D01*
X33905019Y-73206485D01*
X34044400Y-73113353D01*
X34199272Y-73049203D01*
X34363684Y-73016500D01*
X34531316Y-73016500D01*
X34695728Y-73049203D01*
X34695728Y-73049203D01*
G37*
G36*
X49935728Y-73049203D02*
G01*
X50090600Y-73113353D01*
X50229981Y-73206485D01*
X50348515Y-73325019D01*
X50441647Y-73464400D01*
X50505797Y-73619272D01*
X50538500Y-73783684D01*
X50538500Y-73951316D01*
X50505797Y-74115728D01*
X50441647Y-74270600D01*
X50348515Y-74409981D01*
X50229981Y-74528515D01*
X50090600Y-74621647D01*
X49935728Y-74685797D01*
X49771316Y-74718500D01*
X49603684Y-74718500D01*
X49439272Y-74685797D01*
X49284400Y-74621647D01*
X49145019Y-74528515D01*
X49026485Y-74409981D01*
X48933353Y-74270600D01*
X48869203Y-74115728D01*
X48836500Y-73951316D01*
X48836500Y-73783684D01*
X48869203Y-73619272D01*
X48933353Y-73464400D01*
X49026485Y-73325019D01*
X49145019Y-73206485D01*
X49284400Y-73113353D01*
X49439272Y-73049203D01*
X49603684Y-73016500D01*
X49771316Y-73016500D01*
X49935728Y-73049203D01*
X49935728Y-73049203D01*
G37*
G36*
X101752724Y-70033684D02*
G01*
X101970724Y-70123983D01*
X102124873Y-70187833D01*
X102459798Y-70411623D01*
X102744627Y-70696452D01*
X102968417Y-71031377D01*
X103032267Y-71185526D01*
X103122566Y-71403526D01*
X103201150Y-71798594D01*
X103201150Y-72201406D01*
X103122566Y-72596474D01*
X103038572Y-72799253D01*
X102968417Y-72968623D01*
X102744627Y-73303548D01*
X102459798Y-73588377D01*
X102124873Y-73812167D01*
X101970724Y-73876017D01*
X101752724Y-73966316D01*
X101357656Y-74044900D01*
X100954844Y-74044900D01*
X100559776Y-73966316D01*
X100341776Y-73876017D01*
X100187627Y-73812167D01*
X99852702Y-73588377D01*
X99567873Y-73303548D01*
X99344083Y-72968623D01*
X99273928Y-72799253D01*
X99189934Y-72596474D01*
X99111350Y-72201406D01*
X99111350Y-71798594D01*
X99189934Y-71403526D01*
X99280233Y-71185526D01*
X99344083Y-71031377D01*
X99567873Y-70696452D01*
X99852702Y-70411623D01*
X100187627Y-70187833D01*
X100341776Y-70123983D01*
X100559776Y-70033684D01*
X100954844Y-69955100D01*
X101357656Y-69955100D01*
X101752724Y-70033684D01*
X101752724Y-70033684D01*
G37*
G36*
X82721474Y-70033684D02*
G01*
X82939474Y-70123983D01*
X83093623Y-70187833D01*
X83428548Y-70411623D01*
X83713377Y-70696452D01*
X83937167Y-71031377D01*
X84001017Y-71185526D01*
X84091316Y-71403526D01*
X84169900Y-71798594D01*
X84169900Y-72201406D01*
X84091316Y-72596474D01*
X84007322Y-72799253D01*
X83937167Y-72968623D01*
X83713377Y-73303548D01*
X83428548Y-73588377D01*
X83093623Y-73812167D01*
X82939474Y-73876017D01*
X82721474Y-73966316D01*
X82326406Y-74044900D01*
X81923594Y-74044900D01*
X81528526Y-73966316D01*
X81310526Y-73876017D01*
X81156377Y-73812167D01*
X80821452Y-73588377D01*
X80536623Y-73303548D01*
X80312833Y-72968623D01*
X80242678Y-72799253D01*
X80158684Y-72596474D01*
X80080100Y-72201406D01*
X80080100Y-71798594D01*
X80158684Y-71403526D01*
X80248983Y-71185526D01*
X80312833Y-71031377D01*
X80536623Y-70696452D01*
X80821452Y-70411623D01*
X81156377Y-70187833D01*
X81310526Y-70123983D01*
X81528526Y-70033684D01*
X81923594Y-69955100D01*
X82326406Y-69955100D01*
X82721474Y-70033684D01*
X82721474Y-70033684D01*
G37*
G36*
X120971474Y-70033684D02*
G01*
X121189474Y-70123983D01*
X121343623Y-70187833D01*
X121678548Y-70411623D01*
X121963377Y-70696452D01*
X122187167Y-71031377D01*
X122251017Y-71185526D01*
X122341316Y-71403526D01*
X122419900Y-71798594D01*
X122419900Y-72201406D01*
X122341316Y-72596474D01*
X122257322Y-72799253D01*
X122187167Y-72968623D01*
X121963377Y-73303548D01*
X121678548Y-73588377D01*
X121343623Y-73812167D01*
X121189474Y-73876017D01*
X120971474Y-73966316D01*
X120576406Y-74044900D01*
X120173594Y-74044900D01*
X119778526Y-73966316D01*
X119560526Y-73876017D01*
X119406377Y-73812167D01*
X119071452Y-73588377D01*
X118786623Y-73303548D01*
X118562833Y-72968623D01*
X118492678Y-72799253D01*
X118408684Y-72596474D01*
X118330100Y-72201406D01*
X118330100Y-71798594D01*
X118408684Y-71403526D01*
X118498983Y-71185526D01*
X118562833Y-71031377D01*
X118786623Y-70696452D01*
X119071452Y-70411623D01*
X119406377Y-70187833D01*
X119560526Y-70123983D01*
X119778526Y-70033684D01*
X120173594Y-69955100D01*
X120576406Y-69955100D01*
X120971474Y-70033684D01*
X120971474Y-70033684D01*
G37*
G36*
X63502724Y-70033684D02*
G01*
X63720724Y-70123983D01*
X63874873Y-70187833D01*
X64209798Y-70411623D01*
X64494627Y-70696452D01*
X64718417Y-71031377D01*
X64782267Y-71185526D01*
X64872566Y-71403526D01*
X64951150Y-71798594D01*
X64951150Y-72201406D01*
X64872566Y-72596474D01*
X64788572Y-72799253D01*
X64718417Y-72968623D01*
X64494627Y-73303548D01*
X64209798Y-73588377D01*
X63874873Y-73812167D01*
X63720724Y-73876017D01*
X63502724Y-73966316D01*
X63107656Y-74044900D01*
X62704844Y-74044900D01*
X62309776Y-73966316D01*
X62091776Y-73876017D01*
X61937627Y-73812167D01*
X61602702Y-73588377D01*
X61317873Y-73303548D01*
X61094083Y-72968623D01*
X61023928Y-72799253D01*
X60939934Y-72596474D01*
X60861350Y-72201406D01*
X60861350Y-71798594D01*
X60939934Y-71403526D01*
X61030233Y-71185526D01*
X61094083Y-71031377D01*
X61317873Y-70696452D01*
X61602702Y-70411623D01*
X61937627Y-70187833D01*
X62091776Y-70123983D01*
X62309776Y-70033684D01*
X62704844Y-69955100D01*
X63107656Y-69955100D01*
X63502724Y-70033684D01*
X63502724Y-70033684D01*
G37*
G36*
X106412202Y-71115429D02*
G01*
X106499325Y-71132759D01*
X106608748Y-71178084D01*
X106663461Y-71200747D01*
X106727722Y-71243685D01*
X106811178Y-71299448D01*
X106936802Y-71425072D01*
X106936804Y-71425075D01*
X107035503Y-71572789D01*
X107058166Y-71627502D01*
X107103491Y-71736925D01*
X107138150Y-71911171D01*
X107138150Y-72088829D01*
X107103491Y-72263075D01*
X107058166Y-72372498D01*
X107035503Y-72427211D01*
X106937467Y-72573933D01*
X106936802Y-72574928D01*
X106811178Y-72700552D01*
X106811175Y-72700554D01*
X106663461Y-72799253D01*
X106608748Y-72821916D01*
X106499325Y-72867241D01*
X106412202Y-72884571D01*
X106325081Y-72901900D01*
X106147419Y-72901900D01*
X106060298Y-72884571D01*
X105973175Y-72867241D01*
X105863752Y-72821916D01*
X105809039Y-72799253D01*
X105661325Y-72700554D01*
X105661322Y-72700552D01*
X105535698Y-72574928D01*
X105535033Y-72573933D01*
X105436997Y-72427211D01*
X105414334Y-72372498D01*
X105369009Y-72263075D01*
X105334350Y-72088829D01*
X105334350Y-71911171D01*
X105369009Y-71736925D01*
X105414334Y-71627502D01*
X105436997Y-71572789D01*
X105535696Y-71425075D01*
X105535698Y-71425072D01*
X105661322Y-71299448D01*
X105744778Y-71243685D01*
X105809039Y-71200747D01*
X105863752Y-71178084D01*
X105973175Y-71132759D01*
X106060298Y-71115429D01*
X106147419Y-71098100D01*
X106325081Y-71098100D01*
X106412202Y-71115429D01*
X106412202Y-71115429D01*
G37*
G36*
X115470952Y-71115429D02*
G01*
X115558075Y-71132759D01*
X115667498Y-71178084D01*
X115722211Y-71200747D01*
X115786472Y-71243685D01*
X115869928Y-71299448D01*
X115995552Y-71425072D01*
X115995554Y-71425075D01*
X116094253Y-71572789D01*
X116116916Y-71627502D01*
X116162241Y-71736925D01*
X116196900Y-71911171D01*
X116196900Y-72088829D01*
X116162241Y-72263075D01*
X116116916Y-72372498D01*
X116094253Y-72427211D01*
X115996217Y-72573933D01*
X115995552Y-72574928D01*
X115869928Y-72700552D01*
X115869925Y-72700554D01*
X115722211Y-72799253D01*
X115667498Y-72821916D01*
X115558075Y-72867241D01*
X115470952Y-72884571D01*
X115383831Y-72901900D01*
X115206169Y-72901900D01*
X115119048Y-72884571D01*
X115031925Y-72867241D01*
X114922502Y-72821916D01*
X114867789Y-72799253D01*
X114720075Y-72700554D01*
X114720072Y-72700552D01*
X114594448Y-72574928D01*
X114593783Y-72573933D01*
X114495747Y-72427211D01*
X114473084Y-72372498D01*
X114427759Y-72263075D01*
X114393100Y-72088829D01*
X114393100Y-71911171D01*
X114427759Y-71736925D01*
X114473084Y-71627502D01*
X114495747Y-71572789D01*
X114594446Y-71425075D01*
X114594448Y-71425072D01*
X114720072Y-71299448D01*
X114803528Y-71243685D01*
X114867789Y-71200747D01*
X114922502Y-71178084D01*
X115031925Y-71132759D01*
X115119048Y-71115429D01*
X115206169Y-71098100D01*
X115383831Y-71098100D01*
X115470952Y-71115429D01*
X115470952Y-71115429D01*
G37*
G36*
X87380952Y-71115429D02*
G01*
X87468075Y-71132759D01*
X87577498Y-71178084D01*
X87632211Y-71200747D01*
X87696472Y-71243685D01*
X87779928Y-71299448D01*
X87905552Y-71425072D01*
X87905554Y-71425075D01*
X88004253Y-71572789D01*
X88026916Y-71627502D01*
X88072241Y-71736925D01*
X88106900Y-71911171D01*
X88106900Y-72088829D01*
X88072241Y-72263075D01*
X88026916Y-72372498D01*
X88004253Y-72427211D01*
X87906217Y-72573933D01*
X87905552Y-72574928D01*
X87779928Y-72700552D01*
X87779925Y-72700554D01*
X87632211Y-72799253D01*
X87577498Y-72821916D01*
X87468075Y-72867241D01*
X87380952Y-72884571D01*
X87293831Y-72901900D01*
X87116169Y-72901900D01*
X87029048Y-72884571D01*
X86941925Y-72867241D01*
X86832502Y-72821916D01*
X86777789Y-72799253D01*
X86630075Y-72700554D01*
X86630072Y-72700552D01*
X86504448Y-72574928D01*
X86503783Y-72573933D01*
X86405747Y-72427211D01*
X86383084Y-72372498D01*
X86337759Y-72263075D01*
X86303100Y-72088829D01*
X86303100Y-71911171D01*
X86337759Y-71736925D01*
X86383084Y-71627502D01*
X86405747Y-71572789D01*
X86504446Y-71425075D01*
X86504448Y-71425072D01*
X86630072Y-71299448D01*
X86713528Y-71243685D01*
X86777789Y-71200747D01*
X86832502Y-71178084D01*
X86941925Y-71132759D01*
X87029048Y-71115429D01*
X87116169Y-71098100D01*
X87293831Y-71098100D01*
X87380952Y-71115429D01*
X87380952Y-71115429D01*
G37*
G36*
X77220952Y-71115429D02*
G01*
X77308075Y-71132759D01*
X77417498Y-71178084D01*
X77472211Y-71200747D01*
X77536472Y-71243685D01*
X77619928Y-71299448D01*
X77745552Y-71425072D01*
X77745554Y-71425075D01*
X77844253Y-71572789D01*
X77866916Y-71627502D01*
X77912241Y-71736925D01*
X77946900Y-71911171D01*
X77946900Y-72088829D01*
X77912241Y-72263075D01*
X77866916Y-72372498D01*
X77844253Y-72427211D01*
X77746217Y-72573933D01*
X77745552Y-72574928D01*
X77619928Y-72700552D01*
X77619925Y-72700554D01*
X77472211Y-72799253D01*
X77417498Y-72821916D01*
X77308075Y-72867241D01*
X77220952Y-72884571D01*
X77133831Y-72901900D01*
X76956169Y-72901900D01*
X76869048Y-72884571D01*
X76781925Y-72867241D01*
X76672502Y-72821916D01*
X76617789Y-72799253D01*
X76470075Y-72700554D01*
X76470072Y-72700552D01*
X76344448Y-72574928D01*
X76343783Y-72573933D01*
X76245747Y-72427211D01*
X76223084Y-72372498D01*
X76177759Y-72263075D01*
X76143100Y-72088829D01*
X76143100Y-71911171D01*
X76177759Y-71736925D01*
X76223084Y-71627502D01*
X76245747Y-71572789D01*
X76344446Y-71425075D01*
X76344448Y-71425072D01*
X76470072Y-71299448D01*
X76553528Y-71243685D01*
X76617789Y-71200747D01*
X76672502Y-71178084D01*
X76781925Y-71132759D01*
X76869048Y-71115429D01*
X76956169Y-71098100D01*
X77133831Y-71098100D01*
X77220952Y-71115429D01*
X77220952Y-71115429D01*
G37*
G36*
X58002202Y-71115429D02*
G01*
X58089325Y-71132759D01*
X58198748Y-71178084D01*
X58253461Y-71200747D01*
X58317722Y-71243685D01*
X58401178Y-71299448D01*
X58526802Y-71425072D01*
X58526804Y-71425075D01*
X58625503Y-71572789D01*
X58648166Y-71627502D01*
X58693491Y-71736925D01*
X58728150Y-71911171D01*
X58728150Y-72088829D01*
X58693491Y-72263075D01*
X58648166Y-72372498D01*
X58625503Y-72427211D01*
X58527467Y-72573933D01*
X58526802Y-72574928D01*
X58401178Y-72700552D01*
X58401175Y-72700554D01*
X58253461Y-72799253D01*
X58198748Y-72821916D01*
X58089325Y-72867241D01*
X58002202Y-72884571D01*
X57915081Y-72901900D01*
X57737419Y-72901900D01*
X57650298Y-72884571D01*
X57563175Y-72867241D01*
X57453752Y-72821916D01*
X57399039Y-72799253D01*
X57251325Y-72700554D01*
X57251322Y-72700552D01*
X57125698Y-72574928D01*
X57125033Y-72573933D01*
X57026997Y-72427211D01*
X57004334Y-72372498D01*
X56959009Y-72263075D01*
X56924350Y-72088829D01*
X56924350Y-71911171D01*
X56959009Y-71736925D01*
X57004334Y-71627502D01*
X57026997Y-71572789D01*
X57125696Y-71425075D01*
X57125698Y-71425072D01*
X57251322Y-71299448D01*
X57334778Y-71243685D01*
X57399039Y-71200747D01*
X57453752Y-71178084D01*
X57563175Y-71132759D01*
X57650298Y-71115429D01*
X57737419Y-71098100D01*
X57915081Y-71098100D01*
X58002202Y-71115429D01*
X58002202Y-71115429D01*
G37*
G36*
X96252202Y-71115429D02*
G01*
X96339325Y-71132759D01*
X96448748Y-71178084D01*
X96503461Y-71200747D01*
X96567722Y-71243685D01*
X96651178Y-71299448D01*
X96776802Y-71425072D01*
X96776804Y-71425075D01*
X96875503Y-71572789D01*
X96898166Y-71627502D01*
X96943491Y-71736925D01*
X96978150Y-71911171D01*
X96978150Y-72088829D01*
X96943491Y-72263075D01*
X96898166Y-72372498D01*
X96875503Y-72427211D01*
X96777467Y-72573933D01*
X96776802Y-72574928D01*
X96651178Y-72700552D01*
X96651175Y-72700554D01*
X96503461Y-72799253D01*
X96448748Y-72821916D01*
X96339325Y-72867241D01*
X96252202Y-72884571D01*
X96165081Y-72901900D01*
X95987419Y-72901900D01*
X95900298Y-72884571D01*
X95813175Y-72867241D01*
X95703752Y-72821916D01*
X95649039Y-72799253D01*
X95501325Y-72700554D01*
X95501322Y-72700552D01*
X95375698Y-72574928D01*
X95375033Y-72573933D01*
X95276997Y-72427211D01*
X95254334Y-72372498D01*
X95209009Y-72263075D01*
X95174350Y-72088829D01*
X95174350Y-71911171D01*
X95209009Y-71736925D01*
X95254334Y-71627502D01*
X95276997Y-71572789D01*
X95375696Y-71425075D01*
X95375698Y-71425072D01*
X95501322Y-71299448D01*
X95584778Y-71243685D01*
X95649039Y-71200747D01*
X95703752Y-71178084D01*
X95813175Y-71132759D01*
X95900298Y-71115429D01*
X95987419Y-71098100D01*
X96165081Y-71098100D01*
X96252202Y-71115429D01*
X96252202Y-71115429D01*
G37*
G36*
X125630952Y-71115429D02*
G01*
X125718075Y-71132759D01*
X125827498Y-71178084D01*
X125882211Y-71200747D01*
X125946472Y-71243685D01*
X126029928Y-71299448D01*
X126155552Y-71425072D01*
X126155554Y-71425075D01*
X126254253Y-71572789D01*
X126276916Y-71627502D01*
X126322241Y-71736925D01*
X126356900Y-71911171D01*
X126356900Y-72088829D01*
X126322241Y-72263075D01*
X126276916Y-72372498D01*
X126254253Y-72427211D01*
X126156217Y-72573933D01*
X126155552Y-72574928D01*
X126029928Y-72700552D01*
X126029925Y-72700554D01*
X125882211Y-72799253D01*
X125827498Y-72821916D01*
X125718075Y-72867241D01*
X125630952Y-72884571D01*
X125543831Y-72901900D01*
X125366169Y-72901900D01*
X125279048Y-72884571D01*
X125191925Y-72867241D01*
X125082502Y-72821916D01*
X125027789Y-72799253D01*
X124880075Y-72700554D01*
X124880072Y-72700552D01*
X124754448Y-72574928D01*
X124753783Y-72573933D01*
X124655747Y-72427211D01*
X124633084Y-72372498D01*
X124587759Y-72263075D01*
X124553100Y-72088829D01*
X124553100Y-71911171D01*
X124587759Y-71736925D01*
X124633084Y-71627502D01*
X124655747Y-71572789D01*
X124754446Y-71425075D01*
X124754448Y-71425072D01*
X124880072Y-71299448D01*
X124963528Y-71243685D01*
X125027789Y-71200747D01*
X125082502Y-71178084D01*
X125191925Y-71132759D01*
X125279048Y-71115429D01*
X125366169Y-71098100D01*
X125543831Y-71098100D01*
X125630952Y-71115429D01*
X125630952Y-71115429D01*
G37*
G36*
X68162202Y-71115429D02*
G01*
X68249325Y-71132759D01*
X68358748Y-71178084D01*
X68413461Y-71200747D01*
X68477722Y-71243685D01*
X68561178Y-71299448D01*
X68686802Y-71425072D01*
X68686804Y-71425075D01*
X68785503Y-71572789D01*
X68808166Y-71627502D01*
X68853491Y-71736925D01*
X68888150Y-71911171D01*
X68888150Y-72088829D01*
X68853491Y-72263075D01*
X68808166Y-72372498D01*
X68785503Y-72427211D01*
X68687467Y-72573933D01*
X68686802Y-72574928D01*
X68561178Y-72700552D01*
X68561175Y-72700554D01*
X68413461Y-72799253D01*
X68358748Y-72821916D01*
X68249325Y-72867241D01*
X68162202Y-72884571D01*
X68075081Y-72901900D01*
X67897419Y-72901900D01*
X67810298Y-72884571D01*
X67723175Y-72867241D01*
X67613752Y-72821916D01*
X67559039Y-72799253D01*
X67411325Y-72700554D01*
X67411322Y-72700552D01*
X67285698Y-72574928D01*
X67285033Y-72573933D01*
X67186997Y-72427211D01*
X67164334Y-72372498D01*
X67119009Y-72263075D01*
X67084350Y-72088829D01*
X67084350Y-71911171D01*
X67119009Y-71736925D01*
X67164334Y-71627502D01*
X67186997Y-71572789D01*
X67285696Y-71425075D01*
X67285698Y-71425072D01*
X67411322Y-71299448D01*
X67494778Y-71243685D01*
X67559039Y-71200747D01*
X67613752Y-71178084D01*
X67723175Y-71132759D01*
X67810298Y-71115429D01*
X67897419Y-71098100D01*
X68075081Y-71098100D01*
X68162202Y-71115429D01*
X68162202Y-71115429D01*
G37*
G36*
X34695728Y-70509203D02*
G01*
X34850600Y-70573353D01*
X34989981Y-70666485D01*
X35108515Y-70785019D01*
X35201647Y-70924400D01*
X35265797Y-71079272D01*
X35298500Y-71243684D01*
X35298500Y-71411316D01*
X35265797Y-71575728D01*
X35201647Y-71730600D01*
X35108515Y-71869981D01*
X34989981Y-71988515D01*
X34850600Y-72081647D01*
X34695728Y-72145797D01*
X34531316Y-72178500D01*
X34363684Y-72178500D01*
X34199272Y-72145797D01*
X34044400Y-72081647D01*
X33905019Y-71988515D01*
X33786485Y-71869981D01*
X33693353Y-71730600D01*
X33629203Y-71575728D01*
X33596500Y-71411316D01*
X33596500Y-71243684D01*
X33629203Y-71079272D01*
X33693353Y-70924400D01*
X33786485Y-70785019D01*
X33905019Y-70666485D01*
X34044400Y-70573353D01*
X34199272Y-70509203D01*
X34363684Y-70476500D01*
X34531316Y-70476500D01*
X34695728Y-70509203D01*
X34695728Y-70509203D01*
G37*
G36*
X49935728Y-70509203D02*
G01*
X50090600Y-70573353D01*
X50229981Y-70666485D01*
X50348515Y-70785019D01*
X50441647Y-70924400D01*
X50505797Y-71079272D01*
X50538500Y-71243684D01*
X50538500Y-71411316D01*
X50505797Y-71575728D01*
X50441647Y-71730600D01*
X50348515Y-71869981D01*
X50229981Y-71988515D01*
X50090600Y-72081647D01*
X49935728Y-72145797D01*
X49771316Y-72178500D01*
X49603684Y-72178500D01*
X49439272Y-72145797D01*
X49284400Y-72081647D01*
X49145019Y-71988515D01*
X49026485Y-71869981D01*
X48933353Y-71730600D01*
X48869203Y-71575728D01*
X48836500Y-71411316D01*
X48836500Y-71243684D01*
X48869203Y-71079272D01*
X48933353Y-70924400D01*
X49026485Y-70785019D01*
X49145019Y-70666485D01*
X49284400Y-70573353D01*
X49439272Y-70509203D01*
X49603684Y-70476500D01*
X49771316Y-70476500D01*
X49935728Y-70509203D01*
X49935728Y-70509203D01*
G37*
G36*
X97694526Y-68311884D02*
G01*
X97911819Y-68401890D01*
X97911821Y-68401891D01*
X98107380Y-68532560D01*
X98273690Y-68698870D01*
X98388915Y-68871315D01*
X98404360Y-68894431D01*
X98494366Y-69111724D01*
X98540250Y-69342400D01*
X98540250Y-69577600D01*
X98494366Y-69808276D01*
X98433549Y-69955100D01*
X98404359Y-70025571D01*
X98273690Y-70221130D01*
X98107380Y-70387440D01*
X97911821Y-70518109D01*
X97911820Y-70518110D01*
X97911819Y-70518110D01*
X97694526Y-70608116D01*
X97463850Y-70654000D01*
X97228650Y-70654000D01*
X96997974Y-70608116D01*
X96780681Y-70518110D01*
X96780680Y-70518110D01*
X96780679Y-70518109D01*
X96585120Y-70387440D01*
X96418810Y-70221130D01*
X96288141Y-70025571D01*
X96258951Y-69955100D01*
X96198134Y-69808276D01*
X96152250Y-69577600D01*
X96152250Y-69342400D01*
X96198134Y-69111724D01*
X96288140Y-68894431D01*
X96303586Y-68871315D01*
X96418810Y-68698870D01*
X96585120Y-68532560D01*
X96780679Y-68401891D01*
X96780681Y-68401890D01*
X96997974Y-68311884D01*
X97228650Y-68266000D01*
X97463850Y-68266000D01*
X97694526Y-68311884D01*
X97694526Y-68311884D01*
G37*
G36*
X78663276Y-68311884D02*
G01*
X78880569Y-68401890D01*
X78880571Y-68401891D01*
X79076130Y-68532560D01*
X79242440Y-68698870D01*
X79357665Y-68871315D01*
X79373110Y-68894431D01*
X79463116Y-69111724D01*
X79509000Y-69342400D01*
X79509000Y-69577600D01*
X79463116Y-69808276D01*
X79402299Y-69955100D01*
X79373109Y-70025571D01*
X79242440Y-70221130D01*
X79076130Y-70387440D01*
X78880571Y-70518109D01*
X78880570Y-70518110D01*
X78880569Y-70518110D01*
X78663276Y-70608116D01*
X78432600Y-70654000D01*
X78197400Y-70654000D01*
X77966724Y-70608116D01*
X77749431Y-70518110D01*
X77749430Y-70518110D01*
X77749429Y-70518109D01*
X77553870Y-70387440D01*
X77387560Y-70221130D01*
X77256891Y-70025571D01*
X77227701Y-69955100D01*
X77166884Y-69808276D01*
X77121000Y-69577600D01*
X77121000Y-69342400D01*
X77166884Y-69111724D01*
X77256890Y-68894431D01*
X77272336Y-68871315D01*
X77387560Y-68698870D01*
X77553870Y-68532560D01*
X77749429Y-68401891D01*
X77749431Y-68401890D01*
X77966724Y-68311884D01*
X78197400Y-68266000D01*
X78432600Y-68266000D01*
X78663276Y-68311884D01*
X78663276Y-68311884D01*
G37*
G36*
X59444526Y-68311884D02*
G01*
X59661819Y-68401890D01*
X59661821Y-68401891D01*
X59857380Y-68532560D01*
X60023690Y-68698870D01*
X60138915Y-68871315D01*
X60154360Y-68894431D01*
X60244366Y-69111724D01*
X60290250Y-69342400D01*
X60290250Y-69577600D01*
X60244366Y-69808276D01*
X60183549Y-69955100D01*
X60154359Y-70025571D01*
X60023690Y-70221130D01*
X59857380Y-70387440D01*
X59661821Y-70518109D01*
X59661820Y-70518110D01*
X59661819Y-70518110D01*
X59444526Y-70608116D01*
X59213850Y-70654000D01*
X58978650Y-70654000D01*
X58747974Y-70608116D01*
X58530681Y-70518110D01*
X58530680Y-70518110D01*
X58530679Y-70518109D01*
X58335120Y-70387440D01*
X58168810Y-70221130D01*
X58038141Y-70025571D01*
X58008951Y-69955100D01*
X57948134Y-69808276D01*
X57902250Y-69577600D01*
X57902250Y-69342400D01*
X57948134Y-69111724D01*
X58038140Y-68894431D01*
X58053586Y-68871315D01*
X58168810Y-68698870D01*
X58335120Y-68532560D01*
X58530679Y-68401891D01*
X58530681Y-68401890D01*
X58747974Y-68311884D01*
X58978650Y-68266000D01*
X59213850Y-68266000D01*
X59444526Y-68311884D01*
X59444526Y-68311884D01*
G37*
G36*
X116913276Y-68311884D02*
G01*
X117130569Y-68401890D01*
X117130571Y-68401891D01*
X117326130Y-68532560D01*
X117492440Y-68698870D01*
X117607665Y-68871315D01*
X117623110Y-68894431D01*
X117713116Y-69111724D01*
X117759000Y-69342400D01*
X117759000Y-69577600D01*
X117713116Y-69808276D01*
X117652299Y-69955100D01*
X117623109Y-70025571D01*
X117492440Y-70221130D01*
X117326130Y-70387440D01*
X117130571Y-70518109D01*
X117130570Y-70518110D01*
X117130569Y-70518110D01*
X116913276Y-70608116D01*
X116682600Y-70654000D01*
X116447400Y-70654000D01*
X116216724Y-70608116D01*
X115999431Y-70518110D01*
X115999430Y-70518110D01*
X115999429Y-70518109D01*
X115803870Y-70387440D01*
X115637560Y-70221130D01*
X115506891Y-70025571D01*
X115477701Y-69955100D01*
X115416884Y-69808276D01*
X115371000Y-69577600D01*
X115371000Y-69342400D01*
X115416884Y-69111724D01*
X115506890Y-68894431D01*
X115522336Y-68871315D01*
X115637560Y-68698870D01*
X115803870Y-68532560D01*
X115999429Y-68401891D01*
X115999431Y-68401890D01*
X116216724Y-68311884D01*
X116447400Y-68266000D01*
X116682600Y-68266000D01*
X116913276Y-68311884D01*
X116913276Y-68311884D01*
G37*
G36*
X49935728Y-67969203D02*
G01*
X50090600Y-68033353D01*
X50229981Y-68126485D01*
X50348515Y-68245019D01*
X50441647Y-68384400D01*
X50505797Y-68539272D01*
X50538500Y-68703684D01*
X50538500Y-68871316D01*
X50505797Y-69035728D01*
X50441647Y-69190600D01*
X50348515Y-69329981D01*
X50229981Y-69448515D01*
X50090600Y-69541647D01*
X49935728Y-69605797D01*
X49771316Y-69638500D01*
X49603684Y-69638500D01*
X49439272Y-69605797D01*
X49284400Y-69541647D01*
X49145019Y-69448515D01*
X49026485Y-69329981D01*
X48933353Y-69190600D01*
X48869203Y-69035728D01*
X48836500Y-68871316D01*
X48836500Y-68703684D01*
X48869203Y-68539272D01*
X48933353Y-68384400D01*
X49026485Y-68245019D01*
X49145019Y-68126485D01*
X49284400Y-68033353D01*
X49439272Y-67969203D01*
X49603684Y-67936500D01*
X49771316Y-67936500D01*
X49935728Y-67969203D01*
X49935728Y-67969203D01*
G37*
G36*
X34695728Y-67969203D02*
G01*
X34850600Y-68033353D01*
X34989981Y-68126485D01*
X35108515Y-68245019D01*
X35201647Y-68384400D01*
X35265797Y-68539272D01*
X35298500Y-68703684D01*
X35298500Y-68871316D01*
X35265797Y-69035728D01*
X35201647Y-69190600D01*
X35108515Y-69329981D01*
X34989981Y-69448515D01*
X34850600Y-69541647D01*
X34695728Y-69605797D01*
X34531316Y-69638500D01*
X34363684Y-69638500D01*
X34199272Y-69605797D01*
X34044400Y-69541647D01*
X33905019Y-69448515D01*
X33786485Y-69329981D01*
X33693353Y-69190600D01*
X33629203Y-69035728D01*
X33596500Y-68871316D01*
X33596500Y-68703684D01*
X33629203Y-68539272D01*
X33693353Y-68384400D01*
X33786485Y-68245019D01*
X33905019Y-68126485D01*
X34044400Y-68033353D01*
X34199272Y-67969203D01*
X34363684Y-67936500D01*
X34531316Y-67936500D01*
X34695728Y-67969203D01*
X34695728Y-67969203D01*
G37*
G36*
X85013276Y-65771884D02*
G01*
X85230569Y-65861890D01*
X85230571Y-65861891D01*
X85426130Y-65992560D01*
X85592440Y-66158870D01*
X85707665Y-66331315D01*
X85723110Y-66354431D01*
X85813116Y-66571724D01*
X85859000Y-66802400D01*
X85859000Y-67037600D01*
X85813116Y-67268276D01*
X85723110Y-67485569D01*
X85723109Y-67485571D01*
X85592440Y-67681130D01*
X85426130Y-67847440D01*
X85230571Y-67978109D01*
X85230570Y-67978110D01*
X85230569Y-67978110D01*
X85013276Y-68068116D01*
X84782600Y-68114000D01*
X84547400Y-68114000D01*
X84316724Y-68068116D01*
X84099431Y-67978110D01*
X84099430Y-67978110D01*
X84099429Y-67978109D01*
X83903870Y-67847440D01*
X83737560Y-67681130D01*
X83606891Y-67485571D01*
X83606890Y-67485569D01*
X83516884Y-67268276D01*
X83471000Y-67037600D01*
X83471000Y-66802400D01*
X83516884Y-66571724D01*
X83606890Y-66354431D01*
X83622336Y-66331315D01*
X83737560Y-66158870D01*
X83903870Y-65992560D01*
X84099429Y-65861891D01*
X84099431Y-65861890D01*
X84316724Y-65771884D01*
X84547400Y-65726000D01*
X84782600Y-65726000D01*
X85013276Y-65771884D01*
X85013276Y-65771884D01*
G37*
G36*
X104044526Y-65771884D02*
G01*
X104261819Y-65861890D01*
X104261821Y-65861891D01*
X104457380Y-65992560D01*
X104623690Y-66158870D01*
X104738915Y-66331315D01*
X104754360Y-66354431D01*
X104844366Y-66571724D01*
X104890250Y-66802400D01*
X104890250Y-67037600D01*
X104844366Y-67268276D01*
X104754360Y-67485569D01*
X104754359Y-67485571D01*
X104623690Y-67681130D01*
X104457380Y-67847440D01*
X104261821Y-67978109D01*
X104261820Y-67978110D01*
X104261819Y-67978110D01*
X104044526Y-68068116D01*
X103813850Y-68114000D01*
X103578650Y-68114000D01*
X103347974Y-68068116D01*
X103130681Y-67978110D01*
X103130680Y-67978110D01*
X103130679Y-67978109D01*
X102935120Y-67847440D01*
X102768810Y-67681130D01*
X102638141Y-67485571D01*
X102638140Y-67485569D01*
X102548134Y-67268276D01*
X102502250Y-67037600D01*
X102502250Y-66802400D01*
X102548134Y-66571724D01*
X102638140Y-66354431D01*
X102653586Y-66331315D01*
X102768810Y-66158870D01*
X102935120Y-65992560D01*
X103130679Y-65861891D01*
X103130681Y-65861890D01*
X103347974Y-65771884D01*
X103578650Y-65726000D01*
X103813850Y-65726000D01*
X104044526Y-65771884D01*
X104044526Y-65771884D01*
G37*
G36*
X123263276Y-65771884D02*
G01*
X123480569Y-65861890D01*
X123480571Y-65861891D01*
X123676130Y-65992560D01*
X123842440Y-66158870D01*
X123957665Y-66331315D01*
X123973110Y-66354431D01*
X124063116Y-66571724D01*
X124109000Y-66802400D01*
X124109000Y-67037600D01*
X124063116Y-67268276D01*
X123973110Y-67485569D01*
X123973109Y-67485571D01*
X123842440Y-67681130D01*
X123676130Y-67847440D01*
X123480571Y-67978109D01*
X123480570Y-67978110D01*
X123480569Y-67978110D01*
X123263276Y-68068116D01*
X123032600Y-68114000D01*
X122797400Y-68114000D01*
X122566724Y-68068116D01*
X122349431Y-67978110D01*
X122349430Y-67978110D01*
X122349429Y-67978109D01*
X122153870Y-67847440D01*
X121987560Y-67681130D01*
X121856891Y-67485571D01*
X121856890Y-67485569D01*
X121766884Y-67268276D01*
X121721000Y-67037600D01*
X121721000Y-66802400D01*
X121766884Y-66571724D01*
X121856890Y-66354431D01*
X121872336Y-66331315D01*
X121987560Y-66158870D01*
X122153870Y-65992560D01*
X122349429Y-65861891D01*
X122349431Y-65861890D01*
X122566724Y-65771884D01*
X122797400Y-65726000D01*
X123032600Y-65726000D01*
X123263276Y-65771884D01*
X123263276Y-65771884D01*
G37*
G36*
X65794526Y-65771884D02*
G01*
X66011819Y-65861890D01*
X66011821Y-65861891D01*
X66207380Y-65992560D01*
X66373690Y-66158870D01*
X66488915Y-66331315D01*
X66504360Y-66354431D01*
X66594366Y-66571724D01*
X66640250Y-66802400D01*
X66640250Y-67037600D01*
X66594366Y-67268276D01*
X66504360Y-67485569D01*
X66504359Y-67485571D01*
X66373690Y-67681130D01*
X66207380Y-67847440D01*
X66011821Y-67978109D01*
X66011820Y-67978110D01*
X66011819Y-67978110D01*
X65794526Y-68068116D01*
X65563850Y-68114000D01*
X65328650Y-68114000D01*
X65097974Y-68068116D01*
X64880681Y-67978110D01*
X64880680Y-67978110D01*
X64880679Y-67978109D01*
X64685120Y-67847440D01*
X64518810Y-67681130D01*
X64388141Y-67485571D01*
X64388140Y-67485569D01*
X64298134Y-67268276D01*
X64252250Y-67037600D01*
X64252250Y-66802400D01*
X64298134Y-66571724D01*
X64388140Y-66354431D01*
X64403586Y-66331315D01*
X64518810Y-66158870D01*
X64685120Y-65992560D01*
X64880679Y-65861891D01*
X64880681Y-65861890D01*
X65097974Y-65771884D01*
X65328650Y-65726000D01*
X65563850Y-65726000D01*
X65794526Y-65771884D01*
X65794526Y-65771884D01*
G37*
G36*
X49935728Y-65429203D02*
G01*
X50090600Y-65493353D01*
X50229981Y-65586485D01*
X50348515Y-65705019D01*
X50441647Y-65844400D01*
X50505797Y-65999272D01*
X50538500Y-66163684D01*
X50538500Y-66331316D01*
X50505797Y-66495728D01*
X50441647Y-66650600D01*
X50348515Y-66789981D01*
X50229981Y-66908515D01*
X50090600Y-67001647D01*
X49935728Y-67065797D01*
X49771316Y-67098500D01*
X49603684Y-67098500D01*
X49439272Y-67065797D01*
X49284400Y-67001647D01*
X49145019Y-66908515D01*
X49026485Y-66789981D01*
X48933353Y-66650600D01*
X48869203Y-66495728D01*
X48836500Y-66331316D01*
X48836500Y-66163684D01*
X48869203Y-65999272D01*
X48933353Y-65844400D01*
X49026485Y-65705019D01*
X49145019Y-65586485D01*
X49284400Y-65493353D01*
X49439272Y-65429203D01*
X49603684Y-65396500D01*
X49771316Y-65396500D01*
X49935728Y-65429203D01*
X49935728Y-65429203D01*
G37*
G36*
X34695728Y-65429203D02*
G01*
X34850600Y-65493353D01*
X34989981Y-65586485D01*
X35108515Y-65705019D01*
X35201647Y-65844400D01*
X35265797Y-65999272D01*
X35298500Y-66163684D01*
X35298500Y-66331316D01*
X35265797Y-66495728D01*
X35201647Y-66650600D01*
X35108515Y-66789981D01*
X34989981Y-66908515D01*
X34850600Y-67001647D01*
X34695728Y-67065797D01*
X34531316Y-67098500D01*
X34363684Y-67098500D01*
X34199272Y-67065797D01*
X34044400Y-67001647D01*
X33905019Y-66908515D01*
X33786485Y-66789981D01*
X33693353Y-66650600D01*
X33629203Y-66495728D01*
X33596500Y-66331316D01*
X33596500Y-66163684D01*
X33629203Y-65999272D01*
X33693353Y-65844400D01*
X33786485Y-65705019D01*
X33905019Y-65586485D01*
X34044400Y-65493353D01*
X34199272Y-65429203D01*
X34363684Y-65396500D01*
X34531316Y-65396500D01*
X34695728Y-65429203D01*
X34695728Y-65429203D01*
G37*
G36*
X60194750Y-64601000D02*
G01*
X58492750Y-64601000D01*
X58492750Y-62899000D01*
X60194750Y-62899000D01*
X60194750Y-64601000D01*
X60194750Y-64601000D01*
G37*
G36*
X86416823Y-62911313D02*
G01*
X86577242Y-62959976D01*
X86709906Y-63030886D01*
X86725078Y-63038996D01*
X86854659Y-63145341D01*
X86961004Y-63274922D01*
X86961005Y-63274924D01*
X87040024Y-63422758D01*
X87088687Y-63583177D01*
X87105117Y-63750000D01*
X87088687Y-63916823D01*
X87040024Y-64077242D01*
X86969114Y-64209906D01*
X86961004Y-64225078D01*
X86854659Y-64354659D01*
X86725078Y-64461004D01*
X86725076Y-64461005D01*
X86577242Y-64540024D01*
X86416823Y-64588687D01*
X86291804Y-64601000D01*
X86208196Y-64601000D01*
X86083177Y-64588687D01*
X85922758Y-64540024D01*
X85774924Y-64461005D01*
X85774922Y-64461004D01*
X85645341Y-64354659D01*
X85538996Y-64225078D01*
X85530886Y-64209906D01*
X85459976Y-64077242D01*
X85411313Y-63916823D01*
X85394883Y-63750000D01*
X85411313Y-63583177D01*
X85459976Y-63422758D01*
X85538995Y-63274924D01*
X85538996Y-63274922D01*
X85645341Y-63145341D01*
X85774922Y-63038996D01*
X85790094Y-63030886D01*
X85922758Y-62959976D01*
X86083177Y-62911313D01*
X86208196Y-62899000D01*
X86291804Y-62899000D01*
X86416823Y-62911313D01*
X86416823Y-62911313D01*
G37*
G36*
X117637250Y-64601000D02*
G01*
X115935250Y-64601000D01*
X115935250Y-62899000D01*
X117637250Y-62899000D01*
X117637250Y-64601000D01*
X117637250Y-64601000D01*
G37*
G36*
X124573073Y-62911313D02*
G01*
X124733492Y-62959976D01*
X124866156Y-63030886D01*
X124881328Y-63038996D01*
X125010909Y-63145341D01*
X125117254Y-63274922D01*
X125117255Y-63274924D01*
X125196274Y-63422758D01*
X125244937Y-63583177D01*
X125261367Y-63750000D01*
X125244937Y-63916823D01*
X125196274Y-64077242D01*
X125125364Y-64209906D01*
X125117254Y-64225078D01*
X125010909Y-64354659D01*
X124881328Y-64461004D01*
X124881326Y-64461005D01*
X124733492Y-64540024D01*
X124573073Y-64588687D01*
X124448054Y-64601000D01*
X124364446Y-64601000D01*
X124239427Y-64588687D01*
X124079008Y-64540024D01*
X123931174Y-64461005D01*
X123931172Y-64461004D01*
X123801591Y-64354659D01*
X123695246Y-64225078D01*
X123687136Y-64209906D01*
X123616226Y-64077242D01*
X123567563Y-63916823D01*
X123551133Y-63750000D01*
X123567563Y-63583177D01*
X123616226Y-63422758D01*
X123695245Y-63274924D01*
X123695246Y-63274922D01*
X123801591Y-63145341D01*
X123931172Y-63038996D01*
X123946344Y-63030886D01*
X124079008Y-62959976D01*
X124239427Y-62911313D01*
X124364446Y-62899000D01*
X124448054Y-62899000D01*
X124573073Y-62911313D01*
X124573073Y-62911313D01*
G37*
G36*
X105380573Y-62911313D02*
G01*
X105540992Y-62959976D01*
X105673656Y-63030886D01*
X105688828Y-63038996D01*
X105818409Y-63145341D01*
X105924754Y-63274922D01*
X105924755Y-63274924D01*
X106003774Y-63422758D01*
X106052437Y-63583177D01*
X106068867Y-63750000D01*
X106052437Y-63916823D01*
X106003774Y-64077242D01*
X105932864Y-64209906D01*
X105924754Y-64225078D01*
X105818409Y-64354659D01*
X105688828Y-64461004D01*
X105688826Y-64461005D01*
X105540992Y-64540024D01*
X105380573Y-64588687D01*
X105255554Y-64601000D01*
X105171946Y-64601000D01*
X105046927Y-64588687D01*
X104886508Y-64540024D01*
X104738674Y-64461005D01*
X104738672Y-64461004D01*
X104609091Y-64354659D01*
X104502746Y-64225078D01*
X104494636Y-64209906D01*
X104423726Y-64077242D01*
X104375063Y-63916823D01*
X104358633Y-63750000D01*
X104375063Y-63583177D01*
X104423726Y-63422758D01*
X104502745Y-63274924D01*
X104502746Y-63274922D01*
X104609091Y-63145341D01*
X104738672Y-63038996D01*
X104753844Y-63030886D01*
X104886508Y-62959976D01*
X105046927Y-62911313D01*
X105171946Y-62899000D01*
X105255554Y-62899000D01*
X105380573Y-62911313D01*
X105380573Y-62911313D01*
G37*
G36*
X98444750Y-64601000D02*
G01*
X96742750Y-64601000D01*
X96742750Y-62899000D01*
X98444750Y-62899000D01*
X98444750Y-64601000D01*
X98444750Y-64601000D01*
G37*
G36*
X79481000Y-64601000D02*
G01*
X77779000Y-64601000D01*
X77779000Y-62899000D01*
X79481000Y-62899000D01*
X79481000Y-64601000D01*
X79481000Y-64601000D01*
G37*
G36*
X67130573Y-62911313D02*
G01*
X67290992Y-62959976D01*
X67423656Y-63030886D01*
X67438828Y-63038996D01*
X67568409Y-63145341D01*
X67674754Y-63274922D01*
X67674755Y-63274924D01*
X67753774Y-63422758D01*
X67802437Y-63583177D01*
X67818867Y-63750000D01*
X67802437Y-63916823D01*
X67753774Y-64077242D01*
X67682864Y-64209906D01*
X67674754Y-64225078D01*
X67568409Y-64354659D01*
X67438828Y-64461004D01*
X67438826Y-64461005D01*
X67290992Y-64540024D01*
X67130573Y-64588687D01*
X67005554Y-64601000D01*
X66921946Y-64601000D01*
X66796927Y-64588687D01*
X66636508Y-64540024D01*
X66488674Y-64461005D01*
X66488672Y-64461004D01*
X66359091Y-64354659D01*
X66252746Y-64225078D01*
X66244636Y-64209906D01*
X66173726Y-64077242D01*
X66125063Y-63916823D01*
X66108633Y-63750000D01*
X66125063Y-63583177D01*
X66173726Y-63422758D01*
X66252745Y-63274924D01*
X66252746Y-63274922D01*
X66359091Y-63145341D01*
X66488672Y-63038996D01*
X66503844Y-63030886D01*
X66636508Y-62959976D01*
X66796927Y-62911313D01*
X66921946Y-62899000D01*
X67005554Y-62899000D01*
X67130573Y-62911313D01*
X67130573Y-62911313D01*
G37*
G36*
X34695728Y-62889203D02*
G01*
X34850600Y-62953353D01*
X34989981Y-63046485D01*
X35108515Y-63165019D01*
X35201647Y-63304400D01*
X35265797Y-63459272D01*
X35298500Y-63623684D01*
X35298500Y-63791316D01*
X35265797Y-63955728D01*
X35201647Y-64110600D01*
X35108515Y-64249981D01*
X34989981Y-64368515D01*
X34850600Y-64461647D01*
X34695728Y-64525797D01*
X34531316Y-64558500D01*
X34363684Y-64558500D01*
X34199272Y-64525797D01*
X34044400Y-64461647D01*
X33905019Y-64368515D01*
X33786485Y-64249981D01*
X33693353Y-64110600D01*
X33629203Y-63955728D01*
X33596500Y-63791316D01*
X33596500Y-63623684D01*
X33629203Y-63459272D01*
X33693353Y-63304400D01*
X33786485Y-63165019D01*
X33905019Y-63046485D01*
X34044400Y-62953353D01*
X34199272Y-62889203D01*
X34363684Y-62856500D01*
X34531316Y-62856500D01*
X34695728Y-62889203D01*
X34695728Y-62889203D01*
G37*
G36*
X49935728Y-62889203D02*
G01*
X50090600Y-62953353D01*
X50229981Y-63046485D01*
X50348515Y-63165019D01*
X50441647Y-63304400D01*
X50505797Y-63459272D01*
X50538500Y-63623684D01*
X50538500Y-63791316D01*
X50505797Y-63955728D01*
X50441647Y-64110600D01*
X50348515Y-64249981D01*
X50229981Y-64368515D01*
X50090600Y-64461647D01*
X49935728Y-64525797D01*
X49771316Y-64558500D01*
X49603684Y-64558500D01*
X49439272Y-64525797D01*
X49284400Y-64461647D01*
X49145019Y-64368515D01*
X49026485Y-64249981D01*
X48933353Y-64110600D01*
X48869203Y-63955728D01*
X48836500Y-63791316D01*
X48836500Y-63623684D01*
X48869203Y-63459272D01*
X48933353Y-63304400D01*
X49026485Y-63165019D01*
X49145019Y-63046485D01*
X49284400Y-62953353D01*
X49439272Y-62889203D01*
X49603684Y-62856500D01*
X49771316Y-62856500D01*
X49935728Y-62889203D01*
X49935728Y-62889203D01*
G37*
G36*
X49935728Y-60349203D02*
G01*
X50090600Y-60413353D01*
X50229981Y-60506485D01*
X50348515Y-60625019D01*
X50441647Y-60764400D01*
X50505797Y-60919272D01*
X50538500Y-61083684D01*
X50538500Y-61251316D01*
X50505797Y-61415728D01*
X50441647Y-61570600D01*
X50348515Y-61709981D01*
X50229981Y-61828515D01*
X50090600Y-61921647D01*
X49935728Y-61985797D01*
X49771316Y-62018500D01*
X49603684Y-62018500D01*
X49439272Y-61985797D01*
X49284400Y-61921647D01*
X49145019Y-61828515D01*
X49026485Y-61709981D01*
X48933353Y-61570600D01*
X48869203Y-61415728D01*
X48836500Y-61251316D01*
X48836500Y-61083684D01*
X48869203Y-60919272D01*
X48933353Y-60764400D01*
X49026485Y-60625019D01*
X49145019Y-60506485D01*
X49284400Y-60413353D01*
X49439272Y-60349203D01*
X49603684Y-60316500D01*
X49771316Y-60316500D01*
X49935728Y-60349203D01*
X49935728Y-60349203D01*
G37*
G36*
X34695728Y-60349203D02*
G01*
X34850600Y-60413353D01*
X34989981Y-60506485D01*
X35108515Y-60625019D01*
X35201647Y-60764400D01*
X35265797Y-60919272D01*
X35298500Y-61083684D01*
X35298500Y-61251316D01*
X35265797Y-61415728D01*
X35201647Y-61570600D01*
X35108515Y-61709981D01*
X34989981Y-61828515D01*
X34850600Y-61921647D01*
X34695728Y-61985797D01*
X34531316Y-62018500D01*
X34363684Y-62018500D01*
X34199272Y-61985797D01*
X34044400Y-61921647D01*
X33905019Y-61828515D01*
X33786485Y-61709981D01*
X33693353Y-61570600D01*
X33629203Y-61415728D01*
X33596500Y-61251316D01*
X33596500Y-61083684D01*
X33629203Y-60919272D01*
X33693353Y-60764400D01*
X33786485Y-60625019D01*
X33905019Y-60506485D01*
X34044400Y-60413353D01*
X34199272Y-60349203D01*
X34363684Y-60316500D01*
X34531316Y-60316500D01*
X34695728Y-60349203D01*
X34695728Y-60349203D01*
G37*
G36*
X86349323Y-60192563D02*
G01*
X86509742Y-60241226D01*
X86642406Y-60312136D01*
X86657578Y-60320246D01*
X86787159Y-60426591D01*
X86893504Y-60556172D01*
X86893505Y-60556174D01*
X86972524Y-60704008D01*
X87021187Y-60864427D01*
X87037617Y-61031250D01*
X87021187Y-61198073D01*
X86972524Y-61358492D01*
X86941930Y-61415729D01*
X86893504Y-61506328D01*
X86787159Y-61635909D01*
X86657578Y-61742254D01*
X86657576Y-61742255D01*
X86509742Y-61821274D01*
X86349323Y-61869937D01*
X86224304Y-61882250D01*
X86140696Y-61882250D01*
X86015677Y-61869937D01*
X85855258Y-61821274D01*
X85707424Y-61742255D01*
X85707422Y-61742254D01*
X85577841Y-61635909D01*
X85471496Y-61506328D01*
X85423070Y-61415729D01*
X85392476Y-61358492D01*
X85343813Y-61198073D01*
X85327383Y-61031250D01*
X85343813Y-60864427D01*
X85392476Y-60704008D01*
X85471495Y-60556174D01*
X85471496Y-60556172D01*
X85577841Y-60426591D01*
X85707422Y-60320246D01*
X85722594Y-60312136D01*
X85855258Y-60241226D01*
X86015677Y-60192563D01*
X86140696Y-60180250D01*
X86224304Y-60180250D01*
X86349323Y-60192563D01*
X86349323Y-60192563D01*
G37*
G36*
X124573073Y-60192563D02*
G01*
X124733492Y-60241226D01*
X124866156Y-60312136D01*
X124881328Y-60320246D01*
X125010909Y-60426591D01*
X125117254Y-60556172D01*
X125117255Y-60556174D01*
X125196274Y-60704008D01*
X125244937Y-60864427D01*
X125261367Y-61031250D01*
X125244937Y-61198073D01*
X125196274Y-61358492D01*
X125165680Y-61415729D01*
X125117254Y-61506328D01*
X125010909Y-61635909D01*
X124881328Y-61742254D01*
X124881326Y-61742255D01*
X124733492Y-61821274D01*
X124573073Y-61869937D01*
X124448054Y-61882250D01*
X124364446Y-61882250D01*
X124239427Y-61869937D01*
X124079008Y-61821274D01*
X123931174Y-61742255D01*
X123931172Y-61742254D01*
X123801591Y-61635909D01*
X123695246Y-61506328D01*
X123646820Y-61415729D01*
X123616226Y-61358492D01*
X123567563Y-61198073D01*
X123551133Y-61031250D01*
X123567563Y-60864427D01*
X123616226Y-60704008D01*
X123695245Y-60556174D01*
X123695246Y-60556172D01*
X123801591Y-60426591D01*
X123931172Y-60320246D01*
X123946344Y-60312136D01*
X124079008Y-60241226D01*
X124239427Y-60192563D01*
X124364446Y-60180250D01*
X124448054Y-60180250D01*
X124573073Y-60192563D01*
X124573073Y-60192563D01*
G37*
G36*
X117637250Y-61882250D02*
G01*
X115935250Y-61882250D01*
X115935250Y-60180250D01*
X117637250Y-60180250D01*
X117637250Y-61882250D01*
X117637250Y-61882250D01*
G37*
G36*
X79413500Y-61882250D02*
G01*
X77711500Y-61882250D01*
X77711500Y-60180250D01*
X79413500Y-60180250D01*
X79413500Y-61882250D01*
X79413500Y-61882250D01*
G37*
G36*
X67130573Y-60192563D02*
G01*
X67290992Y-60241226D01*
X67423656Y-60312136D01*
X67438828Y-60320246D01*
X67568409Y-60426591D01*
X67674754Y-60556172D01*
X67674755Y-60556174D01*
X67753774Y-60704008D01*
X67802437Y-60864427D01*
X67818867Y-61031250D01*
X67802437Y-61198073D01*
X67753774Y-61358492D01*
X67723180Y-61415729D01*
X67674754Y-61506328D01*
X67568409Y-61635909D01*
X67438828Y-61742254D01*
X67438826Y-61742255D01*
X67290992Y-61821274D01*
X67130573Y-61869937D01*
X67005554Y-61882250D01*
X66921946Y-61882250D01*
X66796927Y-61869937D01*
X66636508Y-61821274D01*
X66488674Y-61742255D01*
X66488672Y-61742254D01*
X66359091Y-61635909D01*
X66252746Y-61506328D01*
X66204320Y-61415729D01*
X66173726Y-61358492D01*
X66125063Y-61198073D01*
X66108633Y-61031250D01*
X66125063Y-60864427D01*
X66173726Y-60704008D01*
X66252745Y-60556174D01*
X66252746Y-60556172D01*
X66359091Y-60426591D01*
X66488672Y-60320246D01*
X66503844Y-60312136D01*
X66636508Y-60241226D01*
X66796927Y-60192563D01*
X66921946Y-60180250D01*
X67005554Y-60180250D01*
X67130573Y-60192563D01*
X67130573Y-60192563D01*
G37*
G36*
X105380573Y-60192563D02*
G01*
X105540992Y-60241226D01*
X105673656Y-60312136D01*
X105688828Y-60320246D01*
X105818409Y-60426591D01*
X105924754Y-60556172D01*
X105924755Y-60556174D01*
X106003774Y-60704008D01*
X106052437Y-60864427D01*
X106068867Y-61031250D01*
X106052437Y-61198073D01*
X106003774Y-61358492D01*
X105973180Y-61415729D01*
X105924754Y-61506328D01*
X105818409Y-61635909D01*
X105688828Y-61742254D01*
X105688826Y-61742255D01*
X105540992Y-61821274D01*
X105380573Y-61869937D01*
X105255554Y-61882250D01*
X105171946Y-61882250D01*
X105046927Y-61869937D01*
X104886508Y-61821274D01*
X104738674Y-61742255D01*
X104738672Y-61742254D01*
X104609091Y-61635909D01*
X104502746Y-61506328D01*
X104454320Y-61415729D01*
X104423726Y-61358492D01*
X104375063Y-61198073D01*
X104358633Y-61031250D01*
X104375063Y-60864427D01*
X104423726Y-60704008D01*
X104502745Y-60556174D01*
X104502746Y-60556172D01*
X104609091Y-60426591D01*
X104738672Y-60320246D01*
X104753844Y-60312136D01*
X104886508Y-60241226D01*
X105046927Y-60192563D01*
X105171946Y-60180250D01*
X105255554Y-60180250D01*
X105380573Y-60192563D01*
X105380573Y-60192563D01*
G37*
G36*
X98444750Y-61882250D02*
G01*
X96742750Y-61882250D01*
X96742750Y-60180250D01*
X98444750Y-60180250D01*
X98444750Y-61882250D01*
X98444750Y-61882250D01*
G37*
G36*
X60194750Y-61882250D02*
G01*
X58492750Y-61882250D01*
X58492750Y-60180250D01*
X60194750Y-60180250D01*
X60194750Y-61882250D01*
X60194750Y-61882250D01*
G37*
G36*
X49935728Y-57809203D02*
G01*
X50090600Y-57873353D01*
X50229981Y-57966485D01*
X50348515Y-58085019D01*
X50441647Y-58224400D01*
X50505797Y-58379272D01*
X50538500Y-58543684D01*
X50538500Y-58711316D01*
X50505797Y-58875728D01*
X50441647Y-59030600D01*
X50348515Y-59169981D01*
X50229981Y-59288515D01*
X50090600Y-59381647D01*
X49935728Y-59445797D01*
X49771316Y-59478500D01*
X49603684Y-59478500D01*
X49439272Y-59445797D01*
X49284400Y-59381647D01*
X49145019Y-59288515D01*
X49026485Y-59169981D01*
X48933353Y-59030600D01*
X48869203Y-58875728D01*
X48836500Y-58711316D01*
X48836500Y-58543684D01*
X48869203Y-58379272D01*
X48933353Y-58224400D01*
X49026485Y-58085019D01*
X49145019Y-57966485D01*
X49284400Y-57873353D01*
X49439272Y-57809203D01*
X49603684Y-57776500D01*
X49771316Y-57776500D01*
X49935728Y-57809203D01*
X49935728Y-57809203D01*
G37*
G36*
X34695728Y-57809203D02*
G01*
X34850600Y-57873353D01*
X34989981Y-57966485D01*
X35108515Y-58085019D01*
X35201647Y-58224400D01*
X35265797Y-58379272D01*
X35298500Y-58543684D01*
X35298500Y-58711316D01*
X35265797Y-58875728D01*
X35201647Y-59030600D01*
X35108515Y-59169981D01*
X34989981Y-59288515D01*
X34850600Y-59381647D01*
X34695728Y-59445797D01*
X34531316Y-59478500D01*
X34363684Y-59478500D01*
X34199272Y-59445797D01*
X34044400Y-59381647D01*
X33905019Y-59288515D01*
X33786485Y-59169981D01*
X33693353Y-59030600D01*
X33629203Y-58875728D01*
X33596500Y-58711316D01*
X33596500Y-58543684D01*
X33629203Y-58379272D01*
X33693353Y-58224400D01*
X33786485Y-58085019D01*
X33905019Y-57966485D01*
X34044400Y-57873353D01*
X34199272Y-57809203D01*
X34363684Y-57776500D01*
X34531316Y-57776500D01*
X34695728Y-57809203D01*
X34695728Y-57809203D01*
G37*
G36*
X118137585Y-56058802D02*
G01*
X118287410Y-56088604D01*
X118569674Y-56205521D01*
X118823705Y-56375259D01*
X119039741Y-56591295D01*
X119209479Y-56845326D01*
X119326396Y-57127590D01*
X119386000Y-57427240D01*
X119386000Y-57732760D01*
X119326396Y-58032410D01*
X119209479Y-58314674D01*
X119039741Y-58568705D01*
X118823705Y-58784741D01*
X118569674Y-58954479D01*
X118287410Y-59071396D01*
X118137585Y-59101198D01*
X117987761Y-59131000D01*
X117682239Y-59131000D01*
X117532415Y-59101198D01*
X117382590Y-59071396D01*
X117100326Y-58954479D01*
X116846295Y-58784741D01*
X116630259Y-58568705D01*
X116460521Y-58314674D01*
X116343604Y-58032410D01*
X116284000Y-57732760D01*
X116284000Y-57427240D01*
X116343604Y-57127590D01*
X116460521Y-56845326D01*
X116630259Y-56591295D01*
X116846295Y-56375259D01*
X117100326Y-56205521D01*
X117382590Y-56088604D01*
X117532415Y-56058802D01*
X117682239Y-56029000D01*
X117987761Y-56029000D01*
X118137585Y-56058802D01*
X118137585Y-56058802D01*
G37*
G36*
X79825085Y-56058802D02*
G01*
X79974910Y-56088604D01*
X80257174Y-56205521D01*
X80511205Y-56375259D01*
X80727241Y-56591295D01*
X80896979Y-56845326D01*
X81013896Y-57127590D01*
X81073500Y-57427240D01*
X81073500Y-57732760D01*
X81013896Y-58032410D01*
X80896979Y-58314674D01*
X80727241Y-58568705D01*
X80511205Y-58784741D01*
X80257174Y-58954479D01*
X79974910Y-59071396D01*
X79825085Y-59101198D01*
X79675261Y-59131000D01*
X79369739Y-59131000D01*
X79219915Y-59101198D01*
X79070090Y-59071396D01*
X78787826Y-58954479D01*
X78533795Y-58784741D01*
X78317759Y-58568705D01*
X78148021Y-58314674D01*
X78031104Y-58032410D01*
X77971500Y-57732760D01*
X77971500Y-57427240D01*
X78031104Y-57127590D01*
X78148021Y-56845326D01*
X78317759Y-56591295D01*
X78533795Y-56375259D01*
X78787826Y-56205521D01*
X79070090Y-56088604D01*
X79219915Y-56058802D01*
X79369739Y-56029000D01*
X79675261Y-56029000D01*
X79825085Y-56058802D01*
X79825085Y-56058802D01*
G37*
G36*
X98981335Y-56058802D02*
G01*
X99131160Y-56088604D01*
X99413424Y-56205521D01*
X99667455Y-56375259D01*
X99883491Y-56591295D01*
X100053229Y-56845326D01*
X100170146Y-57127590D01*
X100229750Y-57427240D01*
X100229750Y-57732760D01*
X100170146Y-58032410D01*
X100053229Y-58314674D01*
X99883491Y-58568705D01*
X99667455Y-58784741D01*
X99413424Y-58954479D01*
X99131160Y-59071396D01*
X98981335Y-59101198D01*
X98831511Y-59131000D01*
X98525989Y-59131000D01*
X98376165Y-59101198D01*
X98226340Y-59071396D01*
X97944076Y-58954479D01*
X97690045Y-58784741D01*
X97474009Y-58568705D01*
X97304271Y-58314674D01*
X97187354Y-58032410D01*
X97127750Y-57732760D01*
X97127750Y-57427240D01*
X97187354Y-57127590D01*
X97304271Y-56845326D01*
X97474009Y-56591295D01*
X97690045Y-56375259D01*
X97944076Y-56205521D01*
X98226340Y-56088604D01*
X98376165Y-56058802D01*
X98525989Y-56029000D01*
X98831511Y-56029000D01*
X98981335Y-56058802D01*
X98981335Y-56058802D01*
G37*
G36*
X60668835Y-56058802D02*
G01*
X60818660Y-56088604D01*
X61100924Y-56205521D01*
X61354955Y-56375259D01*
X61570991Y-56591295D01*
X61740729Y-56845326D01*
X61857646Y-57127590D01*
X61917250Y-57427240D01*
X61917250Y-57732760D01*
X61857646Y-58032410D01*
X61740729Y-58314674D01*
X61570991Y-58568705D01*
X61354955Y-58784741D01*
X61100924Y-58954479D01*
X60818660Y-59071396D01*
X60668835Y-59101198D01*
X60519011Y-59131000D01*
X60213489Y-59131000D01*
X60063665Y-59101198D01*
X59913840Y-59071396D01*
X59631576Y-58954479D01*
X59377545Y-58784741D01*
X59161509Y-58568705D01*
X58991771Y-58314674D01*
X58874854Y-58032410D01*
X58815250Y-57732760D01*
X58815250Y-57427240D01*
X58874854Y-57127590D01*
X58991771Y-56845326D01*
X59161509Y-56591295D01*
X59377545Y-56375259D01*
X59631576Y-56205521D01*
X59913840Y-56088604D01*
X60063665Y-56058802D01*
X60213489Y-56029000D01*
X60519011Y-56029000D01*
X60668835Y-56058802D01*
X60668835Y-56058802D01*
G37*
G36*
X145306564Y-56926889D02*
G01*
X145497833Y-57006115D01*
X145497835Y-57006116D01*
X145669973Y-57121135D01*
X145816365Y-57267527D01*
X145931385Y-57439667D01*
X146010611Y-57630936D01*
X146051000Y-57833984D01*
X146051000Y-58041016D01*
X146010611Y-58244064D01*
X145954606Y-58379272D01*
X145931384Y-58435335D01*
X145816365Y-58607473D01*
X145669973Y-58753865D01*
X145497835Y-58868884D01*
X145497834Y-58868885D01*
X145497833Y-58868885D01*
X145306564Y-58948111D01*
X145103516Y-58988500D01*
X144896484Y-58988500D01*
X144693436Y-58948111D01*
X144502167Y-58868885D01*
X144502166Y-58868885D01*
X144502165Y-58868884D01*
X144330027Y-58753865D01*
X144183635Y-58607473D01*
X144068616Y-58435335D01*
X144045394Y-58379272D01*
X143989389Y-58244064D01*
X143949000Y-58041016D01*
X143949000Y-57833984D01*
X143989389Y-57630936D01*
X144068615Y-57439667D01*
X144183635Y-57267527D01*
X144330027Y-57121135D01*
X144502165Y-57006116D01*
X144502167Y-57006115D01*
X144693436Y-56926889D01*
X144896484Y-56886500D01*
X145103516Y-56886500D01*
X145306564Y-56926889D01*
X145306564Y-56926889D01*
G37*
G36*
X151806564Y-56926889D02*
G01*
X151997833Y-57006115D01*
X151997835Y-57006116D01*
X152169973Y-57121135D01*
X152316365Y-57267527D01*
X152431385Y-57439667D01*
X152510611Y-57630936D01*
X152551000Y-57833984D01*
X152551000Y-58041016D01*
X152510611Y-58244064D01*
X152454606Y-58379272D01*
X152431384Y-58435335D01*
X152316365Y-58607473D01*
X152169973Y-58753865D01*
X151997835Y-58868884D01*
X151997834Y-58868885D01*
X151997833Y-58868885D01*
X151806564Y-58948111D01*
X151603516Y-58988500D01*
X151396484Y-58988500D01*
X151193436Y-58948111D01*
X151002167Y-58868885D01*
X151002166Y-58868885D01*
X151002165Y-58868884D01*
X150830027Y-58753865D01*
X150683635Y-58607473D01*
X150568616Y-58435335D01*
X150545394Y-58379272D01*
X150489389Y-58244064D01*
X150449000Y-58041016D01*
X150449000Y-57833984D01*
X150489389Y-57630936D01*
X150568615Y-57439667D01*
X150683635Y-57267527D01*
X150830027Y-57121135D01*
X151002165Y-57006116D01*
X151002167Y-57006115D01*
X151193436Y-56926889D01*
X151396484Y-56886500D01*
X151603516Y-56886500D01*
X151806564Y-56926889D01*
X151806564Y-56926889D01*
G37*
G36*
X115411000Y-58881000D02*
G01*
X112759000Y-58881000D01*
X112759000Y-56279000D01*
X115411000Y-56279000D01*
X115411000Y-58881000D01*
X115411000Y-58881000D01*
G37*
G36*
X96254750Y-58881000D02*
G01*
X93602750Y-58881000D01*
X93602750Y-56279000D01*
X96254750Y-56279000D01*
X96254750Y-58881000D01*
X96254750Y-58881000D01*
G37*
G36*
X77098500Y-58881000D02*
G01*
X74446500Y-58881000D01*
X74446500Y-56279000D01*
X77098500Y-56279000D01*
X77098500Y-58881000D01*
X77098500Y-58881000D01*
G37*
G36*
X57942250Y-58881000D02*
G01*
X55290250Y-58881000D01*
X55290250Y-56279000D01*
X57942250Y-56279000D01*
X57942250Y-58881000D01*
X57942250Y-58881000D01*
G37*
G36*
X49935728Y-55269203D02*
G01*
X50090600Y-55333353D01*
X50229981Y-55426485D01*
X50348515Y-55545019D01*
X50441647Y-55684400D01*
X50505797Y-55839272D01*
X50538500Y-56003684D01*
X50538500Y-56171316D01*
X50505797Y-56335728D01*
X50441647Y-56490600D01*
X50348515Y-56629981D01*
X50229981Y-56748515D01*
X50090600Y-56841647D01*
X49935728Y-56905797D01*
X49771316Y-56938500D01*
X49603684Y-56938500D01*
X49439272Y-56905797D01*
X49284400Y-56841647D01*
X49145019Y-56748515D01*
X49026485Y-56629981D01*
X48933353Y-56490600D01*
X48869203Y-56335728D01*
X48836500Y-56171316D01*
X48836500Y-56003684D01*
X48869203Y-55839272D01*
X48933353Y-55684400D01*
X49026485Y-55545019D01*
X49145019Y-55426485D01*
X49284400Y-55333353D01*
X49439272Y-55269203D01*
X49603684Y-55236500D01*
X49771316Y-55236500D01*
X49935728Y-55269203D01*
X49935728Y-55269203D01*
G37*
G36*
X34695728Y-55269203D02*
G01*
X34850600Y-55333353D01*
X34989981Y-55426485D01*
X35108515Y-55545019D01*
X35201647Y-55684400D01*
X35265797Y-55839272D01*
X35298500Y-56003684D01*
X35298500Y-56171316D01*
X35265797Y-56335728D01*
X35201647Y-56490600D01*
X35108515Y-56629981D01*
X34989981Y-56748515D01*
X34850600Y-56841647D01*
X34695728Y-56905797D01*
X34531316Y-56938500D01*
X34363684Y-56938500D01*
X34199272Y-56905797D01*
X34044400Y-56841647D01*
X33905019Y-56748515D01*
X33786485Y-56629981D01*
X33693353Y-56490600D01*
X33629203Y-56335728D01*
X33596500Y-56171316D01*
X33596500Y-56003684D01*
X33629203Y-55839272D01*
X33693353Y-55684400D01*
X33786485Y-55545019D01*
X33905019Y-55426485D01*
X34044400Y-55333353D01*
X34199272Y-55269203D01*
X34363684Y-55236500D01*
X34531316Y-55236500D01*
X34695728Y-55269203D01*
X34695728Y-55269203D01*
G37*
G36*
X67018835Y-53518802D02*
G01*
X67168660Y-53548604D01*
X67450924Y-53665521D01*
X67704955Y-53835259D01*
X67920991Y-54051295D01*
X68090729Y-54305326D01*
X68207646Y-54587590D01*
X68267250Y-54887240D01*
X68267250Y-55192760D01*
X68207646Y-55492410D01*
X68090729Y-55774674D01*
X67920991Y-56028705D01*
X67704955Y-56244741D01*
X67450924Y-56414479D01*
X67168660Y-56531396D01*
X67018835Y-56561198D01*
X66869011Y-56591000D01*
X66563489Y-56591000D01*
X66413665Y-56561198D01*
X66263840Y-56531396D01*
X65981576Y-56414479D01*
X65727545Y-56244741D01*
X65511509Y-56028705D01*
X65341771Y-55774674D01*
X65224854Y-55492410D01*
X65165250Y-55192760D01*
X65165250Y-54887240D01*
X65224854Y-54587590D01*
X65341771Y-54305326D01*
X65511509Y-54051295D01*
X65727545Y-53835259D01*
X65981576Y-53665521D01*
X66263840Y-53548604D01*
X66413665Y-53518802D01*
X66563489Y-53489000D01*
X66869011Y-53489000D01*
X67018835Y-53518802D01*
X67018835Y-53518802D01*
G37*
G36*
X124487585Y-53518802D02*
G01*
X124637410Y-53548604D01*
X124919674Y-53665521D01*
X125173705Y-53835259D01*
X125389741Y-54051295D01*
X125559479Y-54305326D01*
X125676396Y-54587590D01*
X125736000Y-54887240D01*
X125736000Y-55192760D01*
X125676396Y-55492410D01*
X125559479Y-55774674D01*
X125389741Y-56028705D01*
X125173705Y-56244741D01*
X124919674Y-56414479D01*
X124637410Y-56531396D01*
X124487585Y-56561198D01*
X124337761Y-56591000D01*
X124032239Y-56591000D01*
X123882415Y-56561198D01*
X123732590Y-56531396D01*
X123450326Y-56414479D01*
X123196295Y-56244741D01*
X122980259Y-56028705D01*
X122810521Y-55774674D01*
X122693604Y-55492410D01*
X122634000Y-55192760D01*
X122634000Y-54887240D01*
X122693604Y-54587590D01*
X122810521Y-54305326D01*
X122980259Y-54051295D01*
X123196295Y-53835259D01*
X123450326Y-53665521D01*
X123732590Y-53548604D01*
X123882415Y-53518802D01*
X124032239Y-53489000D01*
X124337761Y-53489000D01*
X124487585Y-53518802D01*
X124487585Y-53518802D01*
G37*
G36*
X86175085Y-53518802D02*
G01*
X86324910Y-53548604D01*
X86607174Y-53665521D01*
X86861205Y-53835259D01*
X87077241Y-54051295D01*
X87246979Y-54305326D01*
X87363896Y-54587590D01*
X87423500Y-54887240D01*
X87423500Y-55192760D01*
X87363896Y-55492410D01*
X87246979Y-55774674D01*
X87077241Y-56028705D01*
X86861205Y-56244741D01*
X86607174Y-56414479D01*
X86324910Y-56531396D01*
X86175085Y-56561198D01*
X86025261Y-56591000D01*
X85719739Y-56591000D01*
X85569915Y-56561198D01*
X85420090Y-56531396D01*
X85137826Y-56414479D01*
X84883795Y-56244741D01*
X84667759Y-56028705D01*
X84498021Y-55774674D01*
X84381104Y-55492410D01*
X84321500Y-55192760D01*
X84321500Y-54887240D01*
X84381104Y-54587590D01*
X84498021Y-54305326D01*
X84667759Y-54051295D01*
X84883795Y-53835259D01*
X85137826Y-53665521D01*
X85420090Y-53548604D01*
X85569915Y-53518802D01*
X85719739Y-53489000D01*
X86025261Y-53489000D01*
X86175085Y-53518802D01*
X86175085Y-53518802D01*
G37*
G36*
X105331335Y-53518802D02*
G01*
X105481160Y-53548604D01*
X105763424Y-53665521D01*
X106017455Y-53835259D01*
X106233491Y-54051295D01*
X106403229Y-54305326D01*
X106520146Y-54587590D01*
X106579750Y-54887240D01*
X106579750Y-55192760D01*
X106520146Y-55492410D01*
X106403229Y-55774674D01*
X106233491Y-56028705D01*
X106017455Y-56244741D01*
X105763424Y-56414479D01*
X105481160Y-56531396D01*
X105331335Y-56561198D01*
X105181511Y-56591000D01*
X104875989Y-56591000D01*
X104726165Y-56561198D01*
X104576340Y-56531396D01*
X104294076Y-56414479D01*
X104040045Y-56244741D01*
X103824009Y-56028705D01*
X103654271Y-55774674D01*
X103537354Y-55492410D01*
X103477750Y-55192760D01*
X103477750Y-54887240D01*
X103537354Y-54587590D01*
X103654271Y-54305326D01*
X103824009Y-54051295D01*
X104040045Y-53835259D01*
X104294076Y-53665521D01*
X104576340Y-53548604D01*
X104726165Y-53518802D01*
X104875989Y-53489000D01*
X105181511Y-53489000D01*
X105331335Y-53518802D01*
X105331335Y-53518802D01*
G37*
G36*
X71792250Y-56341000D02*
G01*
X69140250Y-56341000D01*
X69140250Y-53739000D01*
X71792250Y-53739000D01*
X71792250Y-56341000D01*
X71792250Y-56341000D01*
G37*
G36*
X129261000Y-56341000D02*
G01*
X126609000Y-56341000D01*
X126609000Y-53739000D01*
X129261000Y-53739000D01*
X129261000Y-56341000D01*
X129261000Y-56341000D01*
G37*
G36*
X110104750Y-56341000D02*
G01*
X107452750Y-56341000D01*
X107452750Y-53739000D01*
X110104750Y-53739000D01*
X110104750Y-56341000D01*
X110104750Y-56341000D01*
G37*
G36*
X90948500Y-56341000D02*
G01*
X88296500Y-56341000D01*
X88296500Y-53739000D01*
X90948500Y-53739000D01*
X90948500Y-56341000D01*
X90948500Y-56341000D01*
G37*
G36*
X120971474Y-50533684D02*
G01*
X121142197Y-50604400D01*
X121343623Y-50687833D01*
X121678548Y-50911623D01*
X121963377Y-51196452D01*
X122187167Y-51531377D01*
X122243971Y-51668515D01*
X122341316Y-51903526D01*
X122419900Y-52298594D01*
X122419900Y-52701406D01*
X122341316Y-53096474D01*
X122257322Y-53299253D01*
X122187167Y-53468623D01*
X121963377Y-53803548D01*
X121678548Y-54088377D01*
X121343623Y-54312167D01*
X121214153Y-54365795D01*
X120971474Y-54466316D01*
X120576406Y-54544900D01*
X120173594Y-54544900D01*
X119778526Y-54466316D01*
X119535847Y-54365795D01*
X119406377Y-54312167D01*
X119071452Y-54088377D01*
X118786623Y-53803548D01*
X118562833Y-53468623D01*
X118492678Y-53299253D01*
X118408684Y-53096474D01*
X118330100Y-52701406D01*
X118330100Y-52298594D01*
X118408684Y-51903526D01*
X118506029Y-51668515D01*
X118562833Y-51531377D01*
X118786623Y-51196452D01*
X119071452Y-50911623D01*
X119406377Y-50687833D01*
X119607803Y-50604400D01*
X119778526Y-50533684D01*
X120173594Y-50455100D01*
X120576406Y-50455100D01*
X120971474Y-50533684D01*
X120971474Y-50533684D01*
G37*
G36*
X101815224Y-50533684D02*
G01*
X101985947Y-50604400D01*
X102187373Y-50687833D01*
X102522298Y-50911623D01*
X102807127Y-51196452D01*
X103030917Y-51531377D01*
X103087721Y-51668515D01*
X103185066Y-51903526D01*
X103263650Y-52298594D01*
X103263650Y-52701406D01*
X103185066Y-53096474D01*
X103101072Y-53299253D01*
X103030917Y-53468623D01*
X102807127Y-53803548D01*
X102522298Y-54088377D01*
X102187373Y-54312167D01*
X102057903Y-54365795D01*
X101815224Y-54466316D01*
X101420156Y-54544900D01*
X101017344Y-54544900D01*
X100622276Y-54466316D01*
X100379597Y-54365795D01*
X100250127Y-54312167D01*
X99915202Y-54088377D01*
X99630373Y-53803548D01*
X99406583Y-53468623D01*
X99336428Y-53299253D01*
X99252434Y-53096474D01*
X99173850Y-52701406D01*
X99173850Y-52298594D01*
X99252434Y-51903526D01*
X99349779Y-51668515D01*
X99406583Y-51531377D01*
X99630373Y-51196452D01*
X99915202Y-50911623D01*
X100250127Y-50687833D01*
X100451553Y-50604400D01*
X100622276Y-50533684D01*
X101017344Y-50455100D01*
X101420156Y-50455100D01*
X101815224Y-50533684D01*
X101815224Y-50533684D01*
G37*
G36*
X82658974Y-50533684D02*
G01*
X82829697Y-50604400D01*
X83031123Y-50687833D01*
X83366048Y-50911623D01*
X83650877Y-51196452D01*
X83874667Y-51531377D01*
X83931471Y-51668515D01*
X84028816Y-51903526D01*
X84107400Y-52298594D01*
X84107400Y-52701406D01*
X84028816Y-53096474D01*
X83944822Y-53299253D01*
X83874667Y-53468623D01*
X83650877Y-53803548D01*
X83366048Y-54088377D01*
X83031123Y-54312167D01*
X82901653Y-54365795D01*
X82658974Y-54466316D01*
X82263906Y-54544900D01*
X81861094Y-54544900D01*
X81466026Y-54466316D01*
X81223347Y-54365795D01*
X81093877Y-54312167D01*
X80758952Y-54088377D01*
X80474123Y-53803548D01*
X80250333Y-53468623D01*
X80180178Y-53299253D01*
X80096184Y-53096474D01*
X80017600Y-52701406D01*
X80017600Y-52298594D01*
X80096184Y-51903526D01*
X80193529Y-51668515D01*
X80250333Y-51531377D01*
X80474123Y-51196452D01*
X80758952Y-50911623D01*
X81093877Y-50687833D01*
X81295303Y-50604400D01*
X81466026Y-50533684D01*
X81861094Y-50455100D01*
X82263906Y-50455100D01*
X82658974Y-50533684D01*
X82658974Y-50533684D01*
G37*
G36*
X63502724Y-50533684D02*
G01*
X63673447Y-50604400D01*
X63874873Y-50687833D01*
X64209798Y-50911623D01*
X64494627Y-51196452D01*
X64718417Y-51531377D01*
X64775221Y-51668515D01*
X64872566Y-51903526D01*
X64951150Y-52298594D01*
X64951150Y-52701406D01*
X64872566Y-53096474D01*
X64788572Y-53299253D01*
X64718417Y-53468623D01*
X64494627Y-53803548D01*
X64209798Y-54088377D01*
X63874873Y-54312167D01*
X63745403Y-54365795D01*
X63502724Y-54466316D01*
X63107656Y-54544900D01*
X62704844Y-54544900D01*
X62309776Y-54466316D01*
X62067097Y-54365795D01*
X61937627Y-54312167D01*
X61602702Y-54088377D01*
X61317873Y-53803548D01*
X61094083Y-53468623D01*
X61023928Y-53299253D01*
X60939934Y-53096474D01*
X60861350Y-52701406D01*
X60861350Y-52298594D01*
X60939934Y-51903526D01*
X61037279Y-51668515D01*
X61094083Y-51531377D01*
X61317873Y-51196452D01*
X61602702Y-50911623D01*
X61937627Y-50687833D01*
X62139053Y-50604400D01*
X62309776Y-50533684D01*
X62704844Y-50455100D01*
X63107656Y-50455100D01*
X63502724Y-50533684D01*
X63502724Y-50533684D01*
G37*
G36*
X151806564Y-52426889D02*
G01*
X151997833Y-52506115D01*
X151997835Y-52506116D01*
X152121624Y-52588829D01*
X152169973Y-52621135D01*
X152316365Y-52767527D01*
X152431385Y-52939667D01*
X152510611Y-53130936D01*
X152551000Y-53333984D01*
X152551000Y-53541016D01*
X152510611Y-53744064D01*
X152485972Y-53803547D01*
X152431384Y-53935335D01*
X152316365Y-54107473D01*
X152169973Y-54253865D01*
X151997835Y-54368884D01*
X151997834Y-54368885D01*
X151997833Y-54368885D01*
X151806564Y-54448111D01*
X151603516Y-54488500D01*
X151396484Y-54488500D01*
X151193436Y-54448111D01*
X151002167Y-54368885D01*
X151002166Y-54368885D01*
X151002165Y-54368884D01*
X150830027Y-54253865D01*
X150683635Y-54107473D01*
X150568616Y-53935335D01*
X150514028Y-53803547D01*
X150489389Y-53744064D01*
X150449000Y-53541016D01*
X150449000Y-53333984D01*
X150489389Y-53130936D01*
X150568615Y-52939667D01*
X150683635Y-52767527D01*
X150830027Y-52621135D01*
X150878376Y-52588829D01*
X151002165Y-52506116D01*
X151002167Y-52506115D01*
X151193436Y-52426889D01*
X151396484Y-52386500D01*
X151603516Y-52386500D01*
X151806564Y-52426889D01*
X151806564Y-52426889D01*
G37*
G36*
X145306564Y-52426889D02*
G01*
X145497833Y-52506115D01*
X145497835Y-52506116D01*
X145621624Y-52588829D01*
X145669973Y-52621135D01*
X145816365Y-52767527D01*
X145931385Y-52939667D01*
X146010611Y-53130936D01*
X146051000Y-53333984D01*
X146051000Y-53541016D01*
X146010611Y-53744064D01*
X145985972Y-53803547D01*
X145931384Y-53935335D01*
X145816365Y-54107473D01*
X145669973Y-54253865D01*
X145497835Y-54368884D01*
X145497834Y-54368885D01*
X145497833Y-54368885D01*
X145306564Y-54448111D01*
X145103516Y-54488500D01*
X144896484Y-54488500D01*
X144693436Y-54448111D01*
X144502167Y-54368885D01*
X144502166Y-54368885D01*
X144502165Y-54368884D01*
X144330027Y-54253865D01*
X144183635Y-54107473D01*
X144068616Y-53935335D01*
X144014028Y-53803547D01*
X143989389Y-53744064D01*
X143949000Y-53541016D01*
X143949000Y-53333984D01*
X143989389Y-53130936D01*
X144068615Y-52939667D01*
X144183635Y-52767527D01*
X144330027Y-52621135D01*
X144378376Y-52588829D01*
X144502165Y-52506116D01*
X144502167Y-52506115D01*
X144693436Y-52426889D01*
X144896484Y-52386500D01*
X145103516Y-52386500D01*
X145306564Y-52426889D01*
X145306564Y-52426889D01*
G37*
G36*
X34695728Y-52729203D02*
G01*
X34850600Y-52793353D01*
X34989981Y-52886485D01*
X35108515Y-53005019D01*
X35201647Y-53144400D01*
X35265797Y-53299272D01*
X35298500Y-53463684D01*
X35298500Y-53631316D01*
X35265797Y-53795728D01*
X35201647Y-53950600D01*
X35108515Y-54089981D01*
X34989981Y-54208515D01*
X34850600Y-54301647D01*
X34695728Y-54365797D01*
X34531316Y-54398500D01*
X34363684Y-54398500D01*
X34199272Y-54365797D01*
X34044400Y-54301647D01*
X33905019Y-54208515D01*
X33786485Y-54089981D01*
X33693353Y-53950600D01*
X33629203Y-53795728D01*
X33596500Y-53631316D01*
X33596500Y-53463684D01*
X33629203Y-53299272D01*
X33693353Y-53144400D01*
X33786485Y-53005019D01*
X33905019Y-52886485D01*
X34044400Y-52793353D01*
X34199272Y-52729203D01*
X34363684Y-52696500D01*
X34531316Y-52696500D01*
X34695728Y-52729203D01*
X34695728Y-52729203D01*
G37*
G36*
X49935728Y-52729203D02*
G01*
X50090600Y-52793353D01*
X50229981Y-52886485D01*
X50348515Y-53005019D01*
X50441647Y-53144400D01*
X50505797Y-53299272D01*
X50538500Y-53463684D01*
X50538500Y-53631316D01*
X50505797Y-53795728D01*
X50441647Y-53950600D01*
X50348515Y-54089981D01*
X50229981Y-54208515D01*
X50090600Y-54301647D01*
X49935728Y-54365797D01*
X49771316Y-54398500D01*
X49603684Y-54398500D01*
X49439272Y-54365797D01*
X49284400Y-54301647D01*
X49145019Y-54208515D01*
X49026485Y-54089981D01*
X48933353Y-53950600D01*
X48869203Y-53795728D01*
X48836500Y-53631316D01*
X48836500Y-53463684D01*
X48869203Y-53299272D01*
X48933353Y-53144400D01*
X49026485Y-53005019D01*
X49145019Y-52886485D01*
X49284400Y-52793353D01*
X49439272Y-52729203D01*
X49603684Y-52696500D01*
X49771316Y-52696500D01*
X49935728Y-52729203D01*
X49935728Y-52729203D01*
G37*
G36*
X106474702Y-51615430D02*
G01*
X106561825Y-51632759D01*
X106648146Y-51668515D01*
X106725961Y-51700747D01*
X106817106Y-51761648D01*
X106873678Y-51799448D01*
X106999302Y-51925072D01*
X106999304Y-51925075D01*
X107098003Y-52072789D01*
X107098003Y-52072790D01*
X107165991Y-52236925D01*
X107200650Y-52411171D01*
X107200650Y-52588829D01*
X107165991Y-52763075D01*
X107153449Y-52793353D01*
X107098003Y-52927211D01*
X107046013Y-53005020D01*
X106999302Y-53074928D01*
X106873678Y-53200552D01*
X106873675Y-53200554D01*
X106725961Y-53299253D01*
X106671248Y-53321916D01*
X106561825Y-53367241D01*
X106474702Y-53384571D01*
X106387581Y-53401900D01*
X106209919Y-53401900D01*
X106122798Y-53384571D01*
X106035675Y-53367241D01*
X105926252Y-53321916D01*
X105871539Y-53299253D01*
X105723825Y-53200554D01*
X105723822Y-53200552D01*
X105598198Y-53074928D01*
X105551487Y-53005020D01*
X105499497Y-52927211D01*
X105444051Y-52793353D01*
X105431509Y-52763075D01*
X105396850Y-52588829D01*
X105396850Y-52411171D01*
X105431509Y-52236925D01*
X105499497Y-52072790D01*
X105499497Y-52072789D01*
X105598196Y-51925075D01*
X105598198Y-51925072D01*
X105723822Y-51799448D01*
X105780394Y-51761648D01*
X105871539Y-51700747D01*
X105949354Y-51668515D01*
X106035675Y-51632759D01*
X106122798Y-51615430D01*
X106209919Y-51598100D01*
X106387581Y-51598100D01*
X106474702Y-51615430D01*
X106474702Y-51615430D01*
G37*
G36*
X125630952Y-51615430D02*
G01*
X125718075Y-51632759D01*
X125804396Y-51668515D01*
X125882211Y-51700747D01*
X125973356Y-51761648D01*
X126029928Y-51799448D01*
X126155552Y-51925072D01*
X126155554Y-51925075D01*
X126254253Y-52072789D01*
X126254253Y-52072790D01*
X126322241Y-52236925D01*
X126356900Y-52411171D01*
X126356900Y-52588829D01*
X126322241Y-52763075D01*
X126309699Y-52793353D01*
X126254253Y-52927211D01*
X126202263Y-53005020D01*
X126155552Y-53074928D01*
X126029928Y-53200552D01*
X126029925Y-53200554D01*
X125882211Y-53299253D01*
X125827498Y-53321916D01*
X125718075Y-53367241D01*
X125630952Y-53384571D01*
X125543831Y-53401900D01*
X125366169Y-53401900D01*
X125279048Y-53384571D01*
X125191925Y-53367241D01*
X125082502Y-53321916D01*
X125027789Y-53299253D01*
X124880075Y-53200554D01*
X124880072Y-53200552D01*
X124754448Y-53074928D01*
X124707737Y-53005020D01*
X124655747Y-52927211D01*
X124600301Y-52793353D01*
X124587759Y-52763075D01*
X124553100Y-52588829D01*
X124553100Y-52411171D01*
X124587759Y-52236925D01*
X124655747Y-52072790D01*
X124655747Y-52072789D01*
X124754446Y-51925075D01*
X124754448Y-51925072D01*
X124880072Y-51799448D01*
X124936644Y-51761648D01*
X125027789Y-51700747D01*
X125105604Y-51668515D01*
X125191925Y-51632759D01*
X125279048Y-51615430D01*
X125366169Y-51598100D01*
X125543831Y-51598100D01*
X125630952Y-51615430D01*
X125630952Y-51615430D01*
G37*
G36*
X96314702Y-51615430D02*
G01*
X96401825Y-51632759D01*
X96488146Y-51668515D01*
X96565961Y-51700747D01*
X96657106Y-51761648D01*
X96713678Y-51799448D01*
X96839302Y-51925072D01*
X96839304Y-51925075D01*
X96938003Y-52072789D01*
X96938003Y-52072790D01*
X97005991Y-52236925D01*
X97040650Y-52411171D01*
X97040650Y-52588829D01*
X97005991Y-52763075D01*
X96993449Y-52793353D01*
X96938003Y-52927211D01*
X96886013Y-53005020D01*
X96839302Y-53074928D01*
X96713678Y-53200552D01*
X96713675Y-53200554D01*
X96565961Y-53299253D01*
X96511248Y-53321916D01*
X96401825Y-53367241D01*
X96314702Y-53384571D01*
X96227581Y-53401900D01*
X96049919Y-53401900D01*
X95962798Y-53384571D01*
X95875675Y-53367241D01*
X95766252Y-53321916D01*
X95711539Y-53299253D01*
X95563825Y-53200554D01*
X95563822Y-53200552D01*
X95438198Y-53074928D01*
X95391487Y-53005020D01*
X95339497Y-52927211D01*
X95284051Y-52793353D01*
X95271509Y-52763075D01*
X95236850Y-52588829D01*
X95236850Y-52411171D01*
X95271509Y-52236925D01*
X95339497Y-52072790D01*
X95339497Y-52072789D01*
X95438196Y-51925075D01*
X95438198Y-51925072D01*
X95563822Y-51799448D01*
X95620394Y-51761648D01*
X95711539Y-51700747D01*
X95789354Y-51668515D01*
X95875675Y-51632759D01*
X95962798Y-51615430D01*
X96049919Y-51598100D01*
X96227581Y-51598100D01*
X96314702Y-51615430D01*
X96314702Y-51615430D01*
G37*
G36*
X68162202Y-51615430D02*
G01*
X68249325Y-51632759D01*
X68335646Y-51668515D01*
X68413461Y-51700747D01*
X68504606Y-51761648D01*
X68561178Y-51799448D01*
X68686802Y-51925072D01*
X68686804Y-51925075D01*
X68785503Y-52072789D01*
X68785503Y-52072790D01*
X68853491Y-52236925D01*
X68888150Y-52411171D01*
X68888150Y-52588829D01*
X68853491Y-52763075D01*
X68840949Y-52793353D01*
X68785503Y-52927211D01*
X68733513Y-53005020D01*
X68686802Y-53074928D01*
X68561178Y-53200552D01*
X68561175Y-53200554D01*
X68413461Y-53299253D01*
X68358748Y-53321916D01*
X68249325Y-53367241D01*
X68162202Y-53384571D01*
X68075081Y-53401900D01*
X67897419Y-53401900D01*
X67810298Y-53384571D01*
X67723175Y-53367241D01*
X67613752Y-53321916D01*
X67559039Y-53299253D01*
X67411325Y-53200554D01*
X67411322Y-53200552D01*
X67285698Y-53074928D01*
X67238987Y-53005020D01*
X67186997Y-52927211D01*
X67131551Y-52793353D01*
X67119009Y-52763075D01*
X67084350Y-52588829D01*
X67084350Y-52411171D01*
X67119009Y-52236925D01*
X67186997Y-52072790D01*
X67186997Y-52072789D01*
X67285696Y-51925075D01*
X67285698Y-51925072D01*
X67411322Y-51799448D01*
X67467894Y-51761648D01*
X67559039Y-51700747D01*
X67636854Y-51668515D01*
X67723175Y-51632759D01*
X67810298Y-51615430D01*
X67897419Y-51598100D01*
X68075081Y-51598100D01*
X68162202Y-51615430D01*
X68162202Y-51615430D01*
G37*
G36*
X115470952Y-51615430D02*
G01*
X115558075Y-51632759D01*
X115644396Y-51668515D01*
X115722211Y-51700747D01*
X115813356Y-51761648D01*
X115869928Y-51799448D01*
X115995552Y-51925072D01*
X115995554Y-51925075D01*
X116094253Y-52072789D01*
X116094253Y-52072790D01*
X116162241Y-52236925D01*
X116196900Y-52411171D01*
X116196900Y-52588829D01*
X116162241Y-52763075D01*
X116149699Y-52793353D01*
X116094253Y-52927211D01*
X116042263Y-53005020D01*
X115995552Y-53074928D01*
X115869928Y-53200552D01*
X115869925Y-53200554D01*
X115722211Y-53299253D01*
X115667498Y-53321916D01*
X115558075Y-53367241D01*
X115470952Y-53384571D01*
X115383831Y-53401900D01*
X115206169Y-53401900D01*
X115119048Y-53384571D01*
X115031925Y-53367241D01*
X114922502Y-53321916D01*
X114867789Y-53299253D01*
X114720075Y-53200554D01*
X114720072Y-53200552D01*
X114594448Y-53074928D01*
X114547737Y-53005020D01*
X114495747Y-52927211D01*
X114440301Y-52793353D01*
X114427759Y-52763075D01*
X114393100Y-52588829D01*
X114393100Y-52411171D01*
X114427759Y-52236925D01*
X114495747Y-52072790D01*
X114495747Y-52072789D01*
X114594446Y-51925075D01*
X114594448Y-51925072D01*
X114720072Y-51799448D01*
X114776644Y-51761648D01*
X114867789Y-51700747D01*
X114945604Y-51668515D01*
X115031925Y-51632759D01*
X115119048Y-51615430D01*
X115206169Y-51598100D01*
X115383831Y-51598100D01*
X115470952Y-51615430D01*
X115470952Y-51615430D01*
G37*
G36*
X77158452Y-51615430D02*
G01*
X77245575Y-51632759D01*
X77331896Y-51668515D01*
X77409711Y-51700747D01*
X77500856Y-51761648D01*
X77557428Y-51799448D01*
X77683052Y-51925072D01*
X77683054Y-51925075D01*
X77781753Y-52072789D01*
X77781753Y-52072790D01*
X77849741Y-52236925D01*
X77884400Y-52411171D01*
X77884400Y-52588829D01*
X77849741Y-52763075D01*
X77837199Y-52793353D01*
X77781753Y-52927211D01*
X77729763Y-53005020D01*
X77683052Y-53074928D01*
X77557428Y-53200552D01*
X77557425Y-53200554D01*
X77409711Y-53299253D01*
X77354998Y-53321916D01*
X77245575Y-53367241D01*
X77158452Y-53384571D01*
X77071331Y-53401900D01*
X76893669Y-53401900D01*
X76806548Y-53384571D01*
X76719425Y-53367241D01*
X76610002Y-53321916D01*
X76555289Y-53299253D01*
X76407575Y-53200554D01*
X76407572Y-53200552D01*
X76281948Y-53074928D01*
X76235237Y-53005020D01*
X76183247Y-52927211D01*
X76127801Y-52793353D01*
X76115259Y-52763075D01*
X76080600Y-52588829D01*
X76080600Y-52411171D01*
X76115259Y-52236925D01*
X76183247Y-52072790D01*
X76183247Y-52072789D01*
X76281946Y-51925075D01*
X76281948Y-51925072D01*
X76407572Y-51799448D01*
X76464144Y-51761648D01*
X76555289Y-51700747D01*
X76633104Y-51668515D01*
X76719425Y-51632759D01*
X76806548Y-51615430D01*
X76893669Y-51598100D01*
X77071331Y-51598100D01*
X77158452Y-51615430D01*
X77158452Y-51615430D01*
G37*
G36*
X87318452Y-51615430D02*
G01*
X87405575Y-51632759D01*
X87491896Y-51668515D01*
X87569711Y-51700747D01*
X87660856Y-51761648D01*
X87717428Y-51799448D01*
X87843052Y-51925072D01*
X87843054Y-51925075D01*
X87941753Y-52072789D01*
X87941753Y-52072790D01*
X88009741Y-52236925D01*
X88044400Y-52411171D01*
X88044400Y-52588829D01*
X88009741Y-52763075D01*
X87997199Y-52793353D01*
X87941753Y-52927211D01*
X87889763Y-53005020D01*
X87843052Y-53074928D01*
X87717428Y-53200552D01*
X87717425Y-53200554D01*
X87569711Y-53299253D01*
X87514998Y-53321916D01*
X87405575Y-53367241D01*
X87318452Y-53384571D01*
X87231331Y-53401900D01*
X87053669Y-53401900D01*
X86966548Y-53384571D01*
X86879425Y-53367241D01*
X86770002Y-53321916D01*
X86715289Y-53299253D01*
X86567575Y-53200554D01*
X86567572Y-53200552D01*
X86441948Y-53074928D01*
X86395237Y-53005020D01*
X86343247Y-52927211D01*
X86287801Y-52793353D01*
X86275259Y-52763075D01*
X86240600Y-52588829D01*
X86240600Y-52411171D01*
X86275259Y-52236925D01*
X86343247Y-52072790D01*
X86343247Y-52072789D01*
X86441946Y-51925075D01*
X86441948Y-51925072D01*
X86567572Y-51799448D01*
X86624144Y-51761648D01*
X86715289Y-51700747D01*
X86793104Y-51668515D01*
X86879425Y-51632759D01*
X86966548Y-51615430D01*
X87053669Y-51598100D01*
X87231331Y-51598100D01*
X87318452Y-51615430D01*
X87318452Y-51615430D01*
G37*
G36*
X58002202Y-51615430D02*
G01*
X58089325Y-51632759D01*
X58175646Y-51668515D01*
X58253461Y-51700747D01*
X58344606Y-51761648D01*
X58401178Y-51799448D01*
X58526802Y-51925072D01*
X58526804Y-51925075D01*
X58625503Y-52072789D01*
X58625503Y-52072790D01*
X58693491Y-52236925D01*
X58728150Y-52411171D01*
X58728150Y-52588829D01*
X58693491Y-52763075D01*
X58680949Y-52793353D01*
X58625503Y-52927211D01*
X58573513Y-53005020D01*
X58526802Y-53074928D01*
X58401178Y-53200552D01*
X58401175Y-53200554D01*
X58253461Y-53299253D01*
X58198748Y-53321916D01*
X58089325Y-53367241D01*
X58002202Y-53384571D01*
X57915081Y-53401900D01*
X57737419Y-53401900D01*
X57650298Y-53384571D01*
X57563175Y-53367241D01*
X57453752Y-53321916D01*
X57399039Y-53299253D01*
X57251325Y-53200554D01*
X57251322Y-53200552D01*
X57125698Y-53074928D01*
X57078987Y-53005020D01*
X57026997Y-52927211D01*
X56971551Y-52793353D01*
X56959009Y-52763075D01*
X56924350Y-52588829D01*
X56924350Y-52411171D01*
X56959009Y-52236925D01*
X57026997Y-52072790D01*
X57026997Y-52072789D01*
X57125696Y-51925075D01*
X57125698Y-51925072D01*
X57251322Y-51799448D01*
X57307894Y-51761648D01*
X57399039Y-51700747D01*
X57476854Y-51668515D01*
X57563175Y-51632759D01*
X57650298Y-51615430D01*
X57737419Y-51598100D01*
X57915081Y-51598100D01*
X58002202Y-51615430D01*
X58002202Y-51615430D01*
G37*
G36*
X49935728Y-50189203D02*
G01*
X50090600Y-50253353D01*
X50229981Y-50346485D01*
X50348515Y-50465019D01*
X50441647Y-50604400D01*
X50505797Y-50759272D01*
X50538500Y-50923684D01*
X50538500Y-51091316D01*
X50505797Y-51255728D01*
X50441647Y-51410600D01*
X50348515Y-51549981D01*
X50229981Y-51668515D01*
X50090600Y-51761647D01*
X49935728Y-51825797D01*
X49771316Y-51858500D01*
X49603684Y-51858500D01*
X49439272Y-51825797D01*
X49284400Y-51761647D01*
X49145019Y-51668515D01*
X49026485Y-51549981D01*
X48933353Y-51410600D01*
X48869203Y-51255728D01*
X48836500Y-51091316D01*
X48836500Y-50923684D01*
X48869203Y-50759272D01*
X48933353Y-50604400D01*
X49026485Y-50465019D01*
X49145019Y-50346485D01*
X49284400Y-50253353D01*
X49439272Y-50189203D01*
X49603684Y-50156500D01*
X49771316Y-50156500D01*
X49935728Y-50189203D01*
X49935728Y-50189203D01*
G37*
G36*
X34695728Y-50189203D02*
G01*
X34850600Y-50253353D01*
X34989981Y-50346485D01*
X35108515Y-50465019D01*
X35201647Y-50604400D01*
X35265797Y-50759272D01*
X35298500Y-50923684D01*
X35298500Y-51091316D01*
X35265797Y-51255728D01*
X35201647Y-51410600D01*
X35108515Y-51549981D01*
X34989981Y-51668515D01*
X34850600Y-51761647D01*
X34695728Y-51825797D01*
X34531316Y-51858500D01*
X34363684Y-51858500D01*
X34199272Y-51825797D01*
X34044400Y-51761647D01*
X33905019Y-51668515D01*
X33786485Y-51549981D01*
X33693353Y-51410600D01*
X33629203Y-51255728D01*
X33596500Y-51091316D01*
X33596500Y-50923684D01*
X33629203Y-50759272D01*
X33693353Y-50604400D01*
X33786485Y-50465019D01*
X33905019Y-50346485D01*
X34044400Y-50253353D01*
X34199272Y-50189203D01*
X34363684Y-50156500D01*
X34531316Y-50156500D01*
X34695728Y-50189203D01*
X34695728Y-50189203D01*
G37*
G36*
X78600776Y-48811884D02*
G01*
X78818069Y-48901890D01*
X78818071Y-48901891D01*
X79013630Y-49032560D01*
X79179940Y-49198870D01*
X79259875Y-49318500D01*
X79310610Y-49394431D01*
X79400616Y-49611724D01*
X79446500Y-49842400D01*
X79446500Y-50077600D01*
X79400616Y-50308276D01*
X79335690Y-50465020D01*
X79310609Y-50525571D01*
X79179940Y-50721130D01*
X79013630Y-50887440D01*
X78818071Y-51018109D01*
X78818070Y-51018110D01*
X78818069Y-51018110D01*
X78600776Y-51108116D01*
X78370100Y-51154000D01*
X78134900Y-51154000D01*
X77904224Y-51108116D01*
X77686931Y-51018110D01*
X77686930Y-51018110D01*
X77686929Y-51018109D01*
X77491370Y-50887440D01*
X77325060Y-50721130D01*
X77194391Y-50525571D01*
X77169310Y-50465020D01*
X77104384Y-50308276D01*
X77058500Y-50077600D01*
X77058500Y-49842400D01*
X77104384Y-49611724D01*
X77194390Y-49394431D01*
X77245126Y-49318500D01*
X77325060Y-49198870D01*
X77491370Y-49032560D01*
X77686929Y-48901891D01*
X77686931Y-48901890D01*
X77904224Y-48811884D01*
X78134900Y-48766000D01*
X78370100Y-48766000D01*
X78600776Y-48811884D01*
X78600776Y-48811884D01*
G37*
G36*
X97757026Y-48811884D02*
G01*
X97974319Y-48901890D01*
X97974321Y-48901891D01*
X98169880Y-49032560D01*
X98336190Y-49198870D01*
X98416125Y-49318500D01*
X98466860Y-49394431D01*
X98556866Y-49611724D01*
X98602750Y-49842400D01*
X98602750Y-50077600D01*
X98556866Y-50308276D01*
X98491940Y-50465020D01*
X98466859Y-50525571D01*
X98336190Y-50721130D01*
X98169880Y-50887440D01*
X97974321Y-51018109D01*
X97974320Y-51018110D01*
X97974319Y-51018110D01*
X97757026Y-51108116D01*
X97526350Y-51154000D01*
X97291150Y-51154000D01*
X97060474Y-51108116D01*
X96843181Y-51018110D01*
X96843180Y-51018110D01*
X96843179Y-51018109D01*
X96647620Y-50887440D01*
X96481310Y-50721130D01*
X96350641Y-50525571D01*
X96325560Y-50465020D01*
X96260634Y-50308276D01*
X96214750Y-50077600D01*
X96214750Y-49842400D01*
X96260634Y-49611724D01*
X96350640Y-49394431D01*
X96401376Y-49318500D01*
X96481310Y-49198870D01*
X96647620Y-49032560D01*
X96843179Y-48901891D01*
X96843181Y-48901890D01*
X97060474Y-48811884D01*
X97291150Y-48766000D01*
X97526350Y-48766000D01*
X97757026Y-48811884D01*
X97757026Y-48811884D01*
G37*
G36*
X59444526Y-48811884D02*
G01*
X59661819Y-48901890D01*
X59661821Y-48901891D01*
X59857380Y-49032560D01*
X60023690Y-49198870D01*
X60103625Y-49318500D01*
X60154360Y-49394431D01*
X60244366Y-49611724D01*
X60290250Y-49842400D01*
X60290250Y-50077600D01*
X60244366Y-50308276D01*
X60179440Y-50465020D01*
X60154359Y-50525571D01*
X60023690Y-50721130D01*
X59857380Y-50887440D01*
X59661821Y-51018109D01*
X59661820Y-51018110D01*
X59661819Y-51018110D01*
X59444526Y-51108116D01*
X59213850Y-51154000D01*
X58978650Y-51154000D01*
X58747974Y-51108116D01*
X58530681Y-51018110D01*
X58530680Y-51018110D01*
X58530679Y-51018109D01*
X58335120Y-50887440D01*
X58168810Y-50721130D01*
X58038141Y-50525571D01*
X58013060Y-50465020D01*
X57948134Y-50308276D01*
X57902250Y-50077600D01*
X57902250Y-49842400D01*
X57948134Y-49611724D01*
X58038140Y-49394431D01*
X58088876Y-49318500D01*
X58168810Y-49198870D01*
X58335120Y-49032560D01*
X58530679Y-48901891D01*
X58530681Y-48901890D01*
X58747974Y-48811884D01*
X58978650Y-48766000D01*
X59213850Y-48766000D01*
X59444526Y-48811884D01*
X59444526Y-48811884D01*
G37*
G36*
X116913276Y-48811884D02*
G01*
X117130569Y-48901890D01*
X117130571Y-48901891D01*
X117326130Y-49032560D01*
X117492440Y-49198870D01*
X117572375Y-49318500D01*
X117623110Y-49394431D01*
X117713116Y-49611724D01*
X117759000Y-49842400D01*
X117759000Y-50077600D01*
X117713116Y-50308276D01*
X117648190Y-50465020D01*
X117623109Y-50525571D01*
X117492440Y-50721130D01*
X117326130Y-50887440D01*
X117130571Y-51018109D01*
X117130570Y-51018110D01*
X117130569Y-51018110D01*
X116913276Y-51108116D01*
X116682600Y-51154000D01*
X116447400Y-51154000D01*
X116216724Y-51108116D01*
X115999431Y-51018110D01*
X115999430Y-51018110D01*
X115999429Y-51018109D01*
X115803870Y-50887440D01*
X115637560Y-50721130D01*
X115506891Y-50525571D01*
X115481810Y-50465020D01*
X115416884Y-50308276D01*
X115371000Y-50077600D01*
X115371000Y-49842400D01*
X115416884Y-49611724D01*
X115506890Y-49394431D01*
X115557626Y-49318500D01*
X115637560Y-49198870D01*
X115803870Y-49032560D01*
X115999429Y-48901891D01*
X115999431Y-48901890D01*
X116216724Y-48811884D01*
X116447400Y-48766000D01*
X116682600Y-48766000D01*
X116913276Y-48811884D01*
X116913276Y-48811884D01*
G37*
G36*
X35298500Y-49318500D02*
G01*
X33596500Y-49318500D01*
X33596500Y-47616500D01*
X35298500Y-47616500D01*
X35298500Y-49318500D01*
X35298500Y-49318500D01*
G37*
G36*
X49935728Y-47649203D02*
G01*
X50090600Y-47713353D01*
X50229981Y-47806485D01*
X50348515Y-47925019D01*
X50441647Y-48064400D01*
X50505797Y-48219272D01*
X50538500Y-48383684D01*
X50538500Y-48551316D01*
X50505797Y-48715728D01*
X50441647Y-48870600D01*
X50348515Y-49009981D01*
X50229981Y-49128515D01*
X50090600Y-49221647D01*
X49935728Y-49285797D01*
X49771316Y-49318500D01*
X49603684Y-49318500D01*
X49439272Y-49285797D01*
X49284400Y-49221647D01*
X49145019Y-49128515D01*
X49026485Y-49009981D01*
X48933353Y-48870600D01*
X48869203Y-48715728D01*
X48836500Y-48551316D01*
X48836500Y-48383684D01*
X48869203Y-48219272D01*
X48933353Y-48064400D01*
X49026485Y-47925019D01*
X49145019Y-47806485D01*
X49284400Y-47713353D01*
X49439272Y-47649203D01*
X49603684Y-47616500D01*
X49771316Y-47616500D01*
X49935728Y-47649203D01*
X49935728Y-47649203D01*
G37*
G36*
X104107026Y-46271884D02*
G01*
X104324319Y-46361890D01*
X104324321Y-46361891D01*
X104369117Y-46391823D01*
X104519880Y-46492560D01*
X104686190Y-46658870D01*
X104816860Y-46854431D01*
X104906866Y-47071724D01*
X104952750Y-47302400D01*
X104952750Y-47537600D01*
X104906866Y-47768276D01*
X104841940Y-47925020D01*
X104816859Y-47985571D01*
X104686190Y-48181130D01*
X104519880Y-48347440D01*
X104324321Y-48478109D01*
X104324320Y-48478110D01*
X104324319Y-48478110D01*
X104107026Y-48568116D01*
X103876350Y-48614000D01*
X103641150Y-48614000D01*
X103410474Y-48568116D01*
X103193181Y-48478110D01*
X103193180Y-48478110D01*
X103193179Y-48478109D01*
X102997620Y-48347440D01*
X102831310Y-48181130D01*
X102700641Y-47985571D01*
X102675560Y-47925020D01*
X102610634Y-47768276D01*
X102564750Y-47537600D01*
X102564750Y-47302400D01*
X102610634Y-47071724D01*
X102700640Y-46854431D01*
X102831310Y-46658870D01*
X102997620Y-46492560D01*
X103148383Y-46391823D01*
X103193179Y-46361891D01*
X103193181Y-46361890D01*
X103410474Y-46271884D01*
X103641150Y-46226000D01*
X103876350Y-46226000D01*
X104107026Y-46271884D01*
X104107026Y-46271884D01*
G37*
G36*
X84950776Y-46271884D02*
G01*
X85168069Y-46361890D01*
X85168071Y-46361891D01*
X85212867Y-46391823D01*
X85363630Y-46492560D01*
X85529940Y-46658870D01*
X85660610Y-46854431D01*
X85750616Y-47071724D01*
X85796500Y-47302400D01*
X85796500Y-47537600D01*
X85750616Y-47768276D01*
X85685690Y-47925020D01*
X85660609Y-47985571D01*
X85529940Y-48181130D01*
X85363630Y-48347440D01*
X85168071Y-48478109D01*
X85168070Y-48478110D01*
X85168069Y-48478110D01*
X84950776Y-48568116D01*
X84720100Y-48614000D01*
X84484900Y-48614000D01*
X84254224Y-48568116D01*
X84036931Y-48478110D01*
X84036930Y-48478110D01*
X84036929Y-48478109D01*
X83841370Y-48347440D01*
X83675060Y-48181130D01*
X83544391Y-47985571D01*
X83519310Y-47925020D01*
X83454384Y-47768276D01*
X83408500Y-47537600D01*
X83408500Y-47302400D01*
X83454384Y-47071724D01*
X83544390Y-46854431D01*
X83675060Y-46658870D01*
X83841370Y-46492560D01*
X83992133Y-46391823D01*
X84036929Y-46361891D01*
X84036931Y-46361890D01*
X84254224Y-46271884D01*
X84484900Y-46226000D01*
X84720100Y-46226000D01*
X84950776Y-46271884D01*
X84950776Y-46271884D01*
G37*
G36*
X65794526Y-46271884D02*
G01*
X66011819Y-46361890D01*
X66011821Y-46361891D01*
X66056617Y-46391823D01*
X66207380Y-46492560D01*
X66373690Y-46658870D01*
X66504360Y-46854431D01*
X66594366Y-47071724D01*
X66640250Y-47302400D01*
X66640250Y-47537600D01*
X66594366Y-47768276D01*
X66529440Y-47925020D01*
X66504359Y-47985571D01*
X66373690Y-48181130D01*
X66207380Y-48347440D01*
X66011821Y-48478109D01*
X66011820Y-48478110D01*
X66011819Y-48478110D01*
X65794526Y-48568116D01*
X65563850Y-48614000D01*
X65328650Y-48614000D01*
X65097974Y-48568116D01*
X64880681Y-48478110D01*
X64880680Y-48478110D01*
X64880679Y-48478109D01*
X64685120Y-48347440D01*
X64518810Y-48181130D01*
X64388141Y-47985571D01*
X64363060Y-47925020D01*
X64298134Y-47768276D01*
X64252250Y-47537600D01*
X64252250Y-47302400D01*
X64298134Y-47071724D01*
X64388140Y-46854431D01*
X64518810Y-46658870D01*
X64685120Y-46492560D01*
X64835883Y-46391823D01*
X64880679Y-46361891D01*
X64880681Y-46361890D01*
X65097974Y-46271884D01*
X65328650Y-46226000D01*
X65563850Y-46226000D01*
X65794526Y-46271884D01*
X65794526Y-46271884D01*
G37*
G36*
X123263276Y-46271884D02*
G01*
X123480569Y-46361890D01*
X123480571Y-46361891D01*
X123525367Y-46391823D01*
X123676130Y-46492560D01*
X123842440Y-46658870D01*
X123973110Y-46854431D01*
X124063116Y-47071724D01*
X124109000Y-47302400D01*
X124109000Y-47537600D01*
X124063116Y-47768276D01*
X123998190Y-47925020D01*
X123973109Y-47985571D01*
X123842440Y-48181130D01*
X123676130Y-48347440D01*
X123480571Y-48478109D01*
X123480570Y-48478110D01*
X123480569Y-48478110D01*
X123263276Y-48568116D01*
X123032600Y-48614000D01*
X122797400Y-48614000D01*
X122566724Y-48568116D01*
X122349431Y-48478110D01*
X122349430Y-48478110D01*
X122349429Y-48478109D01*
X122153870Y-48347440D01*
X121987560Y-48181130D01*
X121856891Y-47985571D01*
X121831810Y-47925020D01*
X121766884Y-47768276D01*
X121721000Y-47537600D01*
X121721000Y-47302400D01*
X121766884Y-47071724D01*
X121856890Y-46854431D01*
X121987560Y-46658870D01*
X122153870Y-46492560D01*
X122304633Y-46391823D01*
X122349429Y-46361891D01*
X122349431Y-46361890D01*
X122566724Y-46271884D01*
X122797400Y-46226000D01*
X123032600Y-46226000D01*
X123263276Y-46271884D01*
X123263276Y-46271884D01*
G37*
G36*
X144578072Y-44986313D02*
G01*
X144738491Y-45034976D01*
X144886327Y-45113995D01*
X144945565Y-45162611D01*
X145015909Y-45220341D01*
X145122254Y-45349922D01*
X145122255Y-45349924D01*
X145201274Y-45497758D01*
X145249937Y-45658177D01*
X145262250Y-45783196D01*
X145262250Y-46266803D01*
X145249937Y-46391822D01*
X145201274Y-46552242D01*
X145148487Y-46651000D01*
X145122254Y-46700078D01*
X145015909Y-46829659D01*
X144886328Y-46936004D01*
X144886326Y-46936005D01*
X144738492Y-47015024D01*
X144578073Y-47063687D01*
X144411250Y-47080117D01*
X144244428Y-47063687D01*
X144084009Y-47015024D01*
X143936175Y-46936005D01*
X143936173Y-46936004D01*
X143806592Y-46829659D01*
X143700246Y-46700078D01*
X143674013Y-46651000D01*
X143621226Y-46552242D01*
X143572563Y-46391823D01*
X143560250Y-46266804D01*
X143560250Y-45783197D01*
X143572563Y-45658178D01*
X143621226Y-45497759D01*
X143700245Y-45349923D01*
X143806591Y-45220341D01*
X143876935Y-45162611D01*
X143936172Y-45113996D01*
X143951344Y-45105886D01*
X144084008Y-45034976D01*
X144244427Y-44986313D01*
X144411250Y-44969883D01*
X144578072Y-44986313D01*
X144578072Y-44986313D01*
G37*
G36*
X147118072Y-44986313D02*
G01*
X147278491Y-45034976D01*
X147426327Y-45113995D01*
X147485565Y-45162611D01*
X147555909Y-45220341D01*
X147662254Y-45349922D01*
X147662255Y-45349924D01*
X147741274Y-45497758D01*
X147789937Y-45658177D01*
X147802250Y-45783196D01*
X147802250Y-46266803D01*
X147789937Y-46391822D01*
X147741274Y-46552242D01*
X147688487Y-46651000D01*
X147662254Y-46700078D01*
X147555909Y-46829659D01*
X147426328Y-46936004D01*
X147426326Y-46936005D01*
X147278492Y-47015024D01*
X147118073Y-47063687D01*
X146951250Y-47080117D01*
X146784428Y-47063687D01*
X146624009Y-47015024D01*
X146476175Y-46936005D01*
X146476173Y-46936004D01*
X146346592Y-46829659D01*
X146240246Y-46700078D01*
X146214013Y-46651000D01*
X146161226Y-46552242D01*
X146112563Y-46391823D01*
X146100250Y-46266804D01*
X146100250Y-45783197D01*
X146112563Y-45658178D01*
X146161226Y-45497759D01*
X146240245Y-45349923D01*
X146346591Y-45220341D01*
X146416935Y-45162611D01*
X146476172Y-45113996D01*
X146491344Y-45105886D01*
X146624008Y-45034976D01*
X146784427Y-44986313D01*
X146951250Y-44969883D01*
X147118072Y-44986313D01*
X147118072Y-44986313D01*
G37*
G36*
X149658072Y-44986313D02*
G01*
X149818491Y-45034976D01*
X149966327Y-45113995D01*
X150025565Y-45162611D01*
X150095909Y-45220341D01*
X150202254Y-45349922D01*
X150202255Y-45349924D01*
X150281274Y-45497758D01*
X150329937Y-45658177D01*
X150342250Y-45783196D01*
X150342250Y-46266803D01*
X150329937Y-46391822D01*
X150281274Y-46552242D01*
X150228487Y-46651000D01*
X150202254Y-46700078D01*
X150095909Y-46829659D01*
X149966328Y-46936004D01*
X149966326Y-46936005D01*
X149818492Y-47015024D01*
X149658073Y-47063687D01*
X149491250Y-47080117D01*
X149324428Y-47063687D01*
X149164009Y-47015024D01*
X149016175Y-46936005D01*
X149016173Y-46936004D01*
X148886592Y-46829659D01*
X148780246Y-46700078D01*
X148754013Y-46651000D01*
X148701226Y-46552242D01*
X148652563Y-46391823D01*
X148640250Y-46266804D01*
X148640250Y-45783197D01*
X148652563Y-45658178D01*
X148701226Y-45497759D01*
X148780245Y-45349923D01*
X148886591Y-45220341D01*
X148956935Y-45162611D01*
X149016172Y-45113996D01*
X149031344Y-45105886D01*
X149164008Y-45034976D01*
X149324427Y-44986313D01*
X149491250Y-44969883D01*
X149658072Y-44986313D01*
X149658072Y-44986313D01*
G37*
G36*
X152198072Y-44986313D02*
G01*
X152358491Y-45034976D01*
X152506327Y-45113995D01*
X152565565Y-45162611D01*
X152635909Y-45220341D01*
X152742254Y-45349922D01*
X152742255Y-45349924D01*
X152821274Y-45497758D01*
X152869937Y-45658177D01*
X152882250Y-45783196D01*
X152882250Y-46266803D01*
X152869937Y-46391822D01*
X152821274Y-46552242D01*
X152768487Y-46651000D01*
X152742254Y-46700078D01*
X152635909Y-46829659D01*
X152506328Y-46936004D01*
X152506326Y-46936005D01*
X152358492Y-47015024D01*
X152198073Y-47063687D01*
X152031250Y-47080117D01*
X151864428Y-47063687D01*
X151704009Y-47015024D01*
X151556175Y-46936005D01*
X151556173Y-46936004D01*
X151426592Y-46829659D01*
X151320246Y-46700078D01*
X151294013Y-46651000D01*
X151241226Y-46552242D01*
X151192563Y-46391823D01*
X151180250Y-46266804D01*
X151180250Y-45783197D01*
X151192563Y-45658178D01*
X151241226Y-45497759D01*
X151320245Y-45349923D01*
X151426591Y-45220341D01*
X151496935Y-45162611D01*
X151556172Y-45113996D01*
X151571344Y-45105886D01*
X151704008Y-45034976D01*
X151864427Y-44986313D01*
X152031250Y-44969883D01*
X152198072Y-44986313D01*
X152198072Y-44986313D01*
G37*
G36*
X161625256Y-43672548D02*
G01*
X161731579Y-43693697D01*
X162032042Y-43818153D01*
X162302451Y-43998835D01*
X162532415Y-44228799D01*
X162713097Y-44499208D01*
X162837553Y-44799671D01*
X162845056Y-44837391D01*
X162901000Y-45118639D01*
X162901000Y-45443861D01*
X162890278Y-45497762D01*
X162837553Y-45762829D01*
X162749550Y-45975287D01*
X162717588Y-46052451D01*
X162713097Y-46063292D01*
X162532415Y-46333701D01*
X162302451Y-46563665D01*
X162032042Y-46744347D01*
X161731579Y-46868803D01*
X161625256Y-46889952D01*
X161412611Y-46932250D01*
X161087389Y-46932250D01*
X160874744Y-46889952D01*
X160768421Y-46868803D01*
X160467958Y-46744347D01*
X160197549Y-46563665D01*
X159967585Y-46333701D01*
X159786903Y-46063292D01*
X159782413Y-46052451D01*
X159750450Y-45975287D01*
X159662447Y-45762829D01*
X159609722Y-45497762D01*
X159599000Y-45443861D01*
X159599000Y-45118639D01*
X159654944Y-44837391D01*
X159662447Y-44799671D01*
X159786903Y-44499208D01*
X159967585Y-44228799D01*
X160197549Y-43998835D01*
X160467958Y-43818153D01*
X160768421Y-43693697D01*
X160874744Y-43672548D01*
X161087389Y-43630250D01*
X161412611Y-43630250D01*
X161625256Y-43672548D01*
X161625256Y-43672548D01*
G37*
G36*
X35344006Y-43391298D02*
G01*
X35450329Y-43412447D01*
X35750792Y-43536903D01*
X36021201Y-43717585D01*
X36251165Y-43947549D01*
X36285433Y-43998835D01*
X36431848Y-44217960D01*
X36436338Y-44228801D01*
X36548346Y-44499210D01*
X36556303Y-44518422D01*
X36619750Y-44837389D01*
X36619750Y-45162611D01*
X36582491Y-45349922D01*
X36556303Y-45481579D01*
X36431847Y-45782042D01*
X36251165Y-46052451D01*
X36021201Y-46282415D01*
X35750792Y-46463097D01*
X35450329Y-46587553D01*
X35344006Y-46608702D01*
X35131361Y-46651000D01*
X34806139Y-46651000D01*
X34593494Y-46608702D01*
X34487171Y-46587553D01*
X34186708Y-46463097D01*
X33916299Y-46282415D01*
X33686335Y-46052451D01*
X33505653Y-45782042D01*
X33381197Y-45481579D01*
X33355009Y-45349922D01*
X33317750Y-45162611D01*
X33317750Y-44837389D01*
X33381197Y-44518422D01*
X33389155Y-44499210D01*
X33501162Y-44228801D01*
X33505652Y-44217960D01*
X33652067Y-43998835D01*
X33686335Y-43947549D01*
X33916299Y-43717585D01*
X34186708Y-43536903D01*
X34487171Y-43412447D01*
X34593494Y-43391298D01*
X34806139Y-43349000D01*
X35131361Y-43349000D01*
X35344006Y-43391298D01*
X35344006Y-43391298D01*
G37*
M02*
