M48
; DRILL file {KiCad (5.1.10)-1} date 07/26/21 22:22:24
; FORMAT={-:-/ absolute / inch / decimal}
; #@! TF.CreationDate,2021-07-26T22:22:24-04:00
; #@! TF.GenerationSoftware,Kicad,Pcbnew,(5.1.10)-1
; #@! TF.FileFunction,NonPlated,1,2,NPTH
FMAT,2
INCH
T1C0.0670
T2C0.1181
T3C0.1260
T4C0.1570
%
G90
G05
T1
X4.3239Y-3.0315
X4.3239Y-3.7992
X4.7239Y-3.0315
X4.7239Y-3.7992
X5.0781Y-3.0315
X5.0805Y-3.7992
X5.4781Y-3.0315
X5.4805Y-3.7992
X5.8298Y-3.7992
X5.8322Y-3.0315
X6.2298Y-3.7992
X6.2322Y-3.0315
X6.5864Y-3.0315
X6.5864Y-3.7992
X6.9864Y-3.0315
X6.9864Y-3.7992
X7.2391Y-4.637
X7.6255Y-4.7405
X7.8518Y-5.2423
X8.2382Y-5.3458
T2
X4.4239Y-3.2315
X4.4239Y-3.9992
X4.6739Y-3.1315
X4.6739Y-3.8992
X5.1781Y-3.2315
X5.1805Y-3.9992
X5.4281Y-3.1315
X5.4305Y-3.8992
X5.9298Y-3.9992
X5.9322Y-3.2315
X6.1798Y-3.8992
X6.1822Y-3.1315
X6.6864Y-3.2315
X6.6864Y-3.9992
X6.9364Y-3.1315
X6.9364Y-3.8992
X7.284Y-4.856
X7.5513Y-4.8241
X7.8967Y-5.4613
X8.164Y-5.4295
T3
X3.3661Y-2.7165
X3.3661Y-4.1339
X7.7165Y-5.1378
X8.4449Y-2.7165
X8.4449Y-5.1575
T4
X4.5239Y-3.0315
X4.5239Y-3.7992
X5.2781Y-3.0315
X5.2805Y-3.7992
X6.0298Y-3.7992
X6.0322Y-3.0315
X6.7864Y-3.0315
X6.7864Y-3.7992
X7.4323Y-4.6887
X8.045Y-5.294
T0
M30
