G04 #@! TF.GenerationSoftware,KiCad,Pcbnew,(5.1.4)-1*
G04 #@! TF.CreationDate,2021-07-29T18:33:23-04:00*
G04 #@! TF.ProjectId,chayzer,63686179-7a65-4722-9e6b-696361645f70,rev?*
G04 #@! TF.SameCoordinates,Original*
G04 #@! TF.FileFunction,Copper,L1,Top*
G04 #@! TF.FilePolarity,Positive*
%FSLAX46Y46*%
G04 Gerber Fmt 4.6, Leading zero omitted, Abs format (unit mm)*
G04 Created by KiCad (PCBNEW (5.1.4)-1) date 2021-07-29 18:33:23*
%MOMM*%
%LPD*%
G04 APERTURE LIST*
%ADD10C,2.286000*%
%ADD11R,1.600000X0.850000*%
%ADD12C,1.600000*%
%ADD13R,1.600000X1.600000*%
%ADD14C,2.000000*%
%ADD15R,2.000000X2.000000*%
%ADD16R,2.500000X3.000000*%
%ADD17O,1.600000X2.000000*%
%ADD18O,1.600000X1.600000*%
%ADD19C,0.800000*%
%ADD20C,0.250000*%
G04 APERTURE END LIST*
D10*
X168565000Y-74460000D03*
X174915000Y-71920000D03*
D11*
X196968750Y-122156250D03*
X196968750Y-123906250D03*
X200468750Y-122156250D03*
X200468750Y-123906250D03*
X161031250Y-85906250D03*
X161031250Y-87656250D03*
X164531250Y-85906250D03*
X164531250Y-87656250D03*
X145406250Y-87656250D03*
X145406250Y-85906250D03*
X141906250Y-87656250D03*
X141906250Y-85906250D03*
X126187500Y-87750000D03*
X126187500Y-86000000D03*
X122687500Y-87750000D03*
X122687500Y-86000000D03*
D12*
X101687500Y-72967500D03*
X101687500Y-75507500D03*
X101687500Y-78047500D03*
X101687500Y-80587500D03*
X101687500Y-83127500D03*
X101687500Y-85667500D03*
X101687500Y-88207500D03*
X101687500Y-90747500D03*
X101687500Y-93287500D03*
X101687500Y-95827500D03*
X101687500Y-98367500D03*
X101687500Y-100907500D03*
X86447500Y-100907500D03*
X86447500Y-98367500D03*
X86447500Y-95827500D03*
X86447500Y-93287500D03*
X86447500Y-90747500D03*
X86447500Y-88207500D03*
X86447500Y-85667500D03*
X86447500Y-83127500D03*
X86447500Y-80587500D03*
X86447500Y-78047500D03*
X86447500Y-75507500D03*
D13*
X86447500Y-72967500D03*
D10*
X201320973Y-131029198D03*
X208112002Y-130219247D03*
D14*
X203500000Y-82437500D03*
X203500000Y-77937500D03*
X197000000Y-82437500D03*
X197000000Y-77937500D03*
D15*
X210056250Y-106500000D03*
D14*
X207556250Y-106500000D03*
X205056250Y-106500000D03*
D16*
X213156250Y-114000000D03*
X201956250Y-114000000D03*
D14*
X210056250Y-121000000D03*
X205056250Y-121000000D03*
D17*
X198951250Y-70525000D03*
X196411250Y-70525000D03*
X201491250Y-70525000D03*
X204031250Y-70525000D03*
D10*
X149346250Y-93960000D03*
X155696250Y-91420000D03*
X130252500Y-74460000D03*
X136602500Y-71920000D03*
X185758473Y-115654198D03*
X192549502Y-114844247D03*
X111096250Y-74460000D03*
X117446250Y-71920000D03*
X149408750Y-74460000D03*
X155758750Y-71920000D03*
X111096250Y-93960000D03*
X117446250Y-91420000D03*
X130315000Y-93960000D03*
X136665000Y-91420000D03*
X168565000Y-93960000D03*
X174915000Y-91420000D03*
D18*
X157213750Y-88250000D03*
D13*
X149593750Y-88250000D03*
D18*
X138182500Y-85531250D03*
D13*
X130562500Y-85531250D03*
D18*
X186906250Y-107026250D03*
D13*
X186906250Y-99406250D03*
D18*
X118963750Y-85531250D03*
D13*
X111343750Y-85531250D03*
D18*
X157213750Y-85531250D03*
D13*
X149593750Y-85531250D03*
D18*
X118963750Y-88250000D03*
D13*
X111343750Y-88250000D03*
D18*
X138250000Y-88250000D03*
D13*
X130630000Y-88250000D03*
D18*
X176406250Y-88250000D03*
D13*
X168786250Y-88250000D03*
D18*
X203098750Y-102781250D03*
D13*
X210718750Y-102781250D03*
D18*
X197968750Y-107026250D03*
D13*
X197968750Y-99406250D03*
D18*
X176406250Y-85531250D03*
D13*
X168786250Y-85531250D03*
D19*
X97281250Y-100250000D03*
X99718750Y-93687500D03*
X97187500Y-83093750D03*
X164062500Y-84000000D03*
X128718750Y-87093750D03*
X139968750Y-86343750D03*
X106781250Y-90937500D03*
X200437500Y-107156250D03*
X199593750Y-120281250D03*
X124218750Y-88618750D03*
X124289641Y-94664641D03*
X141843750Y-89062500D03*
X143343750Y-92718750D03*
X162093750Y-90375000D03*
X162281250Y-93281250D03*
X122718750Y-84562500D03*
X109593750Y-98343750D03*
X147375000Y-88500000D03*
X158906250Y-86718750D03*
X185250000Y-111000000D03*
X166875000Y-98062500D03*
X164531250Y-98062500D03*
X164437500Y-90281250D03*
X98029222Y-73060472D03*
X100093750Y-87875000D03*
X105718750Y-88531250D03*
D20*
X90248750Y-84406250D02*
X86447500Y-88207500D01*
X109168750Y-84406250D02*
X90248750Y-84406250D01*
X111343750Y-85531250D02*
X110293750Y-85531250D01*
X110293750Y-85531250D02*
X109168750Y-84406250D01*
X90257500Y-86937500D02*
X86447500Y-90747500D01*
X108981250Y-86937500D02*
X90257500Y-86937500D01*
X111343750Y-88250000D02*
X110293750Y-88250000D01*
X110293750Y-88250000D02*
X108981250Y-86937500D01*
X99718750Y-90176250D02*
X101687500Y-88207500D01*
X99718750Y-93687500D02*
X99718750Y-90176250D01*
X101653750Y-83093750D02*
X101687500Y-83127500D01*
X97187500Y-83093750D02*
X101653750Y-83093750D01*
X103937500Y-78337500D02*
X101687500Y-80587500D01*
X103937500Y-72406250D02*
X103937500Y-78337500D01*
X112281250Y-72406250D02*
X103937500Y-72406250D01*
X113687500Y-73812500D02*
X112281250Y-72406250D01*
X119125000Y-73812500D02*
X113687500Y-73812500D01*
X120625000Y-72312500D02*
X119125000Y-73812500D01*
X158125000Y-72500000D02*
X158125000Y-72593750D01*
X156531250Y-74187500D02*
X151937500Y-74187500D01*
X169843750Y-72500000D02*
X158125000Y-72500000D01*
X171156250Y-73812500D02*
X169843750Y-72500000D01*
X198951250Y-70525000D02*
X198951250Y-71775000D01*
X196913750Y-73812500D02*
X171156250Y-73812500D01*
X139187500Y-72406250D02*
X137500000Y-74093750D01*
X198951250Y-71775000D02*
X196913750Y-73812500D01*
X158125000Y-72593750D02*
X156531250Y-74187500D01*
X151937500Y-73625000D02*
X150718750Y-72406250D01*
X151937500Y-74187500D02*
X151937500Y-73625000D01*
X150718750Y-72406250D02*
X139187500Y-72406250D01*
X132906250Y-74000000D02*
X131218750Y-72312500D01*
X137500000Y-74093750D02*
X132906250Y-74093750D01*
X132906250Y-74093750D02*
X132906250Y-74000000D01*
X131218750Y-72312500D02*
X120625000Y-72312500D01*
X203500000Y-82437500D02*
X207556250Y-86493750D01*
X207556250Y-106500000D02*
X207556250Y-86493750D01*
X142856249Y-84406249D02*
X144356250Y-85906250D01*
X136301091Y-84406249D02*
X142856249Y-84406249D01*
X133988590Y-86718750D02*
X136301091Y-84406249D01*
X128846248Y-86000000D02*
X129564998Y-86718750D01*
X144356250Y-85906250D02*
X145406250Y-85906250D01*
X129564998Y-86718750D02*
X133988590Y-86718750D01*
X126187500Y-86000000D02*
X128846248Y-86000000D01*
X163481250Y-85906250D02*
X164531250Y-85906250D01*
X161981249Y-84406249D02*
X163481250Y-85906250D01*
X155426091Y-84406249D02*
X161981249Y-84406249D01*
X153176089Y-86656251D02*
X155426091Y-84406249D01*
X147206251Y-86656251D02*
X153176089Y-86656251D01*
X146456250Y-85906250D02*
X147206251Y-86656251D01*
X145406250Y-85906250D02*
X146456250Y-85906250D01*
X207556250Y-107914213D02*
X207556250Y-106500000D01*
X207556250Y-120461002D02*
X207556250Y-107914213D01*
X209580003Y-122484755D02*
X207556250Y-120461002D01*
X208816643Y-131687248D02*
X209580003Y-130923888D01*
X204074748Y-131687248D02*
X208816643Y-131687248D01*
X196968750Y-124581250D02*
X204074748Y-131687248D01*
X209580003Y-130923888D02*
X209580003Y-122484755D01*
X196968750Y-123906250D02*
X196968750Y-124581250D01*
X164531250Y-85906250D02*
X164531250Y-84468750D01*
X164531250Y-84468750D02*
X164062500Y-84000000D01*
X129312500Y-85531250D02*
X130562500Y-85531250D01*
X126875000Y-83093750D02*
X129312500Y-85531250D01*
X114831250Y-83093750D02*
X126875000Y-83093750D01*
X111343750Y-85531250D02*
X112393750Y-85531250D01*
X112393750Y-85531250D02*
X114831250Y-83093750D01*
X149593750Y-84481250D02*
X149593750Y-85531250D01*
X148206250Y-83093750D02*
X149593750Y-84481250D01*
X134050000Y-83093750D02*
X148206250Y-83093750D01*
X131612500Y-85531250D02*
X134050000Y-83093750D01*
X130562500Y-85531250D02*
X131612500Y-85531250D01*
X167736250Y-85531250D02*
X168786250Y-85531250D01*
X165125000Y-82920000D02*
X167736250Y-85531250D01*
X165125000Y-82812500D02*
X165125000Y-82920000D01*
X153362500Y-82812500D02*
X165125000Y-82812500D01*
X150643750Y-85531250D02*
X153362500Y-82812500D01*
X149593750Y-85531250D02*
X150643750Y-85531250D01*
X130630000Y-89300000D02*
X130630000Y-88250000D01*
X130586250Y-89343750D02*
X130630000Y-89300000D01*
X111343750Y-88250000D02*
X113875000Y-88250000D01*
X115187500Y-86937500D02*
X119843750Y-86937500D01*
X119843750Y-86937500D02*
X121031250Y-88125000D01*
X113875000Y-88250000D02*
X115187500Y-86937500D01*
X121031250Y-88125000D02*
X121031250Y-89343750D01*
X121031250Y-89343750D02*
X130586250Y-89343750D01*
X149593750Y-89300000D02*
X149593750Y-88250000D01*
X148800000Y-90093750D02*
X149593750Y-89300000D01*
X140437500Y-90093750D02*
X148800000Y-90093750D01*
X133093750Y-88250000D02*
X134500000Y-86843750D01*
X134500000Y-86843750D02*
X138687500Y-86843750D01*
X138687500Y-86843750D02*
X139875000Y-88031250D01*
X130630000Y-88250000D02*
X133093750Y-88250000D01*
X139875000Y-88031250D02*
X139875000Y-89531250D01*
X139875000Y-89531250D02*
X140437500Y-90093750D01*
X168786250Y-89870000D02*
X168786250Y-88250000D01*
X159843750Y-91312500D02*
X167343750Y-91312500D01*
X152218750Y-88250000D02*
X153531250Y-86937500D01*
X167343750Y-91312500D02*
X168786250Y-89870000D01*
X149593750Y-88250000D02*
X152218750Y-88250000D01*
X153531250Y-86937500D02*
X157718750Y-86937500D01*
X157718750Y-86937500D02*
X159187500Y-88406250D01*
X159187500Y-88406250D02*
X159187500Y-90656250D01*
X159187500Y-90656250D02*
X159843750Y-91312500D01*
X208112002Y-127268252D02*
X208112002Y-130219247D01*
X97281250Y-101375000D02*
X101031250Y-105125000D01*
X97281250Y-100250000D02*
X97281250Y-101375000D01*
X101031250Y-105125000D02*
X179781250Y-105125000D01*
X179781250Y-105125000D02*
X184656250Y-110000000D01*
X184656250Y-110000000D02*
X190843750Y-110000000D01*
X190843750Y-110000000D02*
X208112002Y-127268252D01*
X103271250Y-68843750D02*
X86447500Y-85667500D01*
X201060000Y-68843750D02*
X103271250Y-68843750D01*
X201491250Y-70525000D02*
X201491250Y-69275000D01*
X201491250Y-69275000D02*
X201060000Y-68843750D01*
X126187500Y-87750000D02*
X128062500Y-87750000D01*
X128062500Y-87750000D02*
X128718750Y-87093750D01*
X141468750Y-86343750D02*
X141906250Y-85906250D01*
X139968750Y-86343750D02*
X141468750Y-86343750D01*
X131019641Y-95428001D02*
X132497633Y-93950009D01*
X170219850Y-92450010D02*
X171907350Y-94137510D01*
X129610359Y-95428001D02*
X131019641Y-95428001D01*
X106781250Y-90937500D02*
X114791108Y-90937500D01*
X128846999Y-94664641D02*
X129610359Y-95428001D01*
X114791108Y-90937500D02*
X118518249Y-94664641D01*
X132497633Y-93950009D02*
X138342651Y-93950009D01*
X138342651Y-93950009D02*
X140592650Y-91700010D01*
X149501100Y-91700010D02*
X151938599Y-94137509D01*
X151938599Y-94137509D02*
X156436401Y-94137509D01*
X156436401Y-94137509D02*
X158123900Y-92450010D01*
X171907350Y-94137510D02*
X187418760Y-94137510D01*
X187418760Y-94137510D02*
X200437500Y-107156250D01*
X200093750Y-122156250D02*
X200468750Y-122156250D01*
X199418750Y-121481250D02*
X200093750Y-122156250D01*
X199418750Y-121456250D02*
X199418750Y-121481250D01*
X199593750Y-121281250D02*
X199418750Y-121456250D01*
X199593750Y-120281250D02*
X199593750Y-121281250D01*
X122687500Y-87750000D02*
X123350000Y-87750000D01*
X123350000Y-87750000D02*
X124218750Y-88618750D01*
X118518249Y-94664641D02*
X124289641Y-94664641D01*
X124289641Y-94664641D02*
X128846999Y-94664641D01*
X141906250Y-87656250D02*
X141906250Y-89000000D01*
X141906250Y-89000000D02*
X141843750Y-89062500D01*
X143743749Y-92318751D02*
X144362490Y-91700010D01*
X143343750Y-92718750D02*
X143743749Y-92318751D01*
X140592650Y-91700010D02*
X144362490Y-91700010D01*
X144362490Y-91700010D02*
X149501100Y-91700010D01*
X161031250Y-87656250D02*
X161031250Y-89312500D01*
X161031250Y-89312500D02*
X162093750Y-90375000D01*
X162681249Y-92649999D02*
X162481260Y-92450010D01*
X162681249Y-92881251D02*
X162681249Y-92649999D01*
X162281250Y-93281250D02*
X162681249Y-92881251D01*
X158123900Y-92450010D02*
X162481260Y-92450010D01*
X162481260Y-92450010D02*
X170219850Y-92450010D01*
X122687500Y-86000000D02*
X122687500Y-84593750D01*
X122687500Y-84593750D02*
X122718750Y-84562500D01*
X104537500Y-93287500D02*
X101687500Y-93287500D01*
X109593750Y-98343750D02*
X104537500Y-93287500D01*
X145406250Y-87656250D02*
X146531250Y-87656250D01*
X146531250Y-87656250D02*
X147375000Y-88500000D01*
X161031250Y-86581250D02*
X161031250Y-85906250D01*
X160893750Y-86718750D02*
X161031250Y-86581250D01*
X158906250Y-86718750D02*
X160893750Y-86718750D01*
X200468750Y-123906250D02*
X200093750Y-123906250D01*
X195795150Y-119232650D02*
X193482650Y-119232650D01*
X193482650Y-119232650D02*
X185250000Y-111000000D01*
X166875000Y-98062500D02*
X164531250Y-98062500D01*
X200093750Y-123906250D02*
X199418750Y-123231250D01*
X199418750Y-122856250D02*
X195795150Y-119232650D01*
X199418750Y-123231250D02*
X199418750Y-122856250D01*
X164437500Y-87750000D02*
X164531250Y-87656250D01*
X164437500Y-90281250D02*
X164437500Y-87750000D01*
X102625000Y-68464694D02*
X98029222Y-73060472D01*
X102625000Y-68281250D02*
X102625000Y-68464694D01*
X208187500Y-68281250D02*
X102625000Y-68281250D01*
X212500000Y-72593750D02*
X208187500Y-68281250D01*
X212500000Y-104500000D02*
X212500000Y-72593750D01*
X210500000Y-106500000D02*
X212500000Y-104500000D01*
X210056250Y-106500000D02*
X210500000Y-106500000D01*
X102906250Y-102126250D02*
X101687500Y-100907500D01*
X180250000Y-104093750D02*
X102906250Y-104093750D01*
X102906250Y-104093750D02*
X102906250Y-102126250D01*
X205056250Y-108875000D02*
X185031250Y-108875000D01*
X185031250Y-108875000D02*
X180250000Y-104093750D01*
X205056250Y-108875000D02*
X205056250Y-106500000D01*
X98406250Y-89562500D02*
X100093750Y-87875000D01*
X98406250Y-100230160D02*
X98406250Y-89562500D01*
X184937500Y-109531250D02*
X180062500Y-104656250D01*
X180062500Y-104656250D02*
X102832340Y-104656250D01*
X102832340Y-104656250D02*
X98406250Y-100230160D01*
X193587500Y-109531250D02*
X191000000Y-109531250D01*
X205056250Y-121000000D02*
X193587500Y-109531250D01*
X191212500Y-109531250D02*
X191000000Y-109531250D01*
X191000000Y-109531250D02*
X184937500Y-109531250D01*
X170031250Y-91625000D02*
X169656250Y-92000000D01*
X156250000Y-93687500D02*
X156062500Y-93500000D01*
X172093750Y-93687500D02*
X170031250Y-91625000D01*
X197000000Y-77937500D02*
X195585787Y-77937500D01*
X180625000Y-92898287D02*
X180625000Y-93687500D01*
X151937500Y-93500000D02*
X151937500Y-93406250D01*
X149781250Y-91250000D02*
X140406250Y-91250000D01*
X195585787Y-77937500D02*
X180625000Y-92898287D01*
X180625000Y-93687500D02*
X172093750Y-93687500D01*
X169656250Y-92000000D02*
X157937500Y-92000000D01*
X157937500Y-92000000D02*
X156250000Y-93687500D01*
X156062500Y-93500000D02*
X151937500Y-93500000D01*
X151937500Y-93406250D02*
X149781250Y-91250000D01*
X140406250Y-91250000D02*
X138156250Y-93500000D01*
X138156250Y-93500000D02*
X138062500Y-93406250D01*
X138062500Y-93406250D02*
X132437500Y-93406250D01*
X107139499Y-89951999D02*
X105718750Y-88531250D01*
X128983249Y-89951999D02*
X128110501Y-89951999D01*
X132437500Y-93406250D02*
X128983249Y-89951999D01*
X128204251Y-89951999D02*
X128110501Y-89951999D01*
X128110501Y-89951999D02*
X107139499Y-89951999D01*
M02*
