G04 #@! TF.GenerationSoftware,KiCad,Pcbnew,(5.1.4)-1*
G04 #@! TF.CreationDate,2021-07-02T20:11:14-04:00*
G04 #@! TF.ProjectId,chayzer,63686179-7a65-4722-9e6b-696361645f70,rev?*
G04 #@! TF.SameCoordinates,Original*
G04 #@! TF.FileFunction,Legend,Bot*
G04 #@! TF.FilePolarity,Positive*
%FSLAX46Y46*%
G04 Gerber Fmt 4.6, Leading zero omitted, Abs format (unit mm)*
G04 Created by KiCad (PCBNEW (5.1.4)-1) date 2021-07-02 20:11:14*
%MOMM*%
%LPD*%
G04 APERTURE LIST*
%ADD10C,0.300000*%
%ADD11C,0.150000*%
%ADD12C,0.120000*%
G04 APERTURE END LIST*
D10*
X149522321Y-66385714D02*
X149593750Y-66457142D01*
X149808035Y-66528571D01*
X149950892Y-66528571D01*
X150165178Y-66457142D01*
X150308035Y-66314285D01*
X150379464Y-66171428D01*
X150450892Y-65885714D01*
X150450892Y-65671428D01*
X150379464Y-65385714D01*
X150308035Y-65242857D01*
X150165178Y-65100000D01*
X149950892Y-65028571D01*
X149808035Y-65028571D01*
X149593750Y-65100000D01*
X149522321Y-65171428D01*
X148879464Y-66528571D02*
X148879464Y-65028571D01*
X148236607Y-66528571D02*
X148236607Y-65742857D01*
X148308035Y-65600000D01*
X148450892Y-65528571D01*
X148665178Y-65528571D01*
X148808035Y-65600000D01*
X148879464Y-65671428D01*
X146879464Y-66528571D02*
X146879464Y-65742857D01*
X146950892Y-65600000D01*
X147093750Y-65528571D01*
X147379464Y-65528571D01*
X147522321Y-65600000D01*
X146879464Y-66457142D02*
X147022321Y-66528571D01*
X147379464Y-66528571D01*
X147522321Y-66457142D01*
X147593750Y-66314285D01*
X147593750Y-66171428D01*
X147522321Y-66028571D01*
X147379464Y-65957142D01*
X147022321Y-65957142D01*
X146879464Y-65885714D01*
X146308035Y-65528571D02*
X145950892Y-66528571D01*
X145593750Y-65528571D02*
X145950892Y-66528571D01*
X146093750Y-66885714D01*
X146165178Y-66957142D01*
X146308035Y-67028571D01*
X145165178Y-65528571D02*
X144379464Y-65528571D01*
X145165178Y-66528571D01*
X144379464Y-66528571D01*
X143236607Y-66457142D02*
X143379464Y-66528571D01*
X143665178Y-66528571D01*
X143808035Y-66457142D01*
X143879464Y-66314285D01*
X143879464Y-65742857D01*
X143808035Y-65600000D01*
X143665178Y-65528571D01*
X143379464Y-65528571D01*
X143236607Y-65600000D01*
X143165178Y-65742857D01*
X143165178Y-65885714D01*
X143879464Y-66028571D01*
X142522321Y-66528571D02*
X142522321Y-65528571D01*
X142522321Y-65814285D02*
X142450892Y-65671428D01*
X142379464Y-65600000D01*
X142236607Y-65528571D01*
X142093750Y-65528571D01*
X153986607Y-69078571D02*
X153986607Y-67578571D01*
X153986607Y-68150000D02*
X153843750Y-68078571D01*
X153558035Y-68078571D01*
X153415178Y-68150000D01*
X153343750Y-68221428D01*
X153272321Y-68364285D01*
X153272321Y-68792857D01*
X153343750Y-68935714D01*
X153415178Y-69007142D01*
X153558035Y-69078571D01*
X153843750Y-69078571D01*
X153986607Y-69007142D01*
X152772321Y-68078571D02*
X152415178Y-69078571D01*
X152058035Y-68078571D02*
X152415178Y-69078571D01*
X152558035Y-69435714D01*
X152629464Y-69507142D01*
X152772321Y-69578571D01*
X150343750Y-69078571D02*
X150343750Y-68078571D01*
X150343750Y-68364285D02*
X150272321Y-68221428D01*
X150200892Y-68150000D01*
X150058035Y-68078571D01*
X149915178Y-68078571D01*
X148772321Y-69078571D02*
X148772321Y-68292857D01*
X148843750Y-68150000D01*
X148986607Y-68078571D01*
X149272321Y-68078571D01*
X149415178Y-68150000D01*
X148772321Y-69007142D02*
X148915178Y-69078571D01*
X149272321Y-69078571D01*
X149415178Y-69007142D01*
X149486607Y-68864285D01*
X149486607Y-68721428D01*
X149415178Y-68578571D01*
X149272321Y-68507142D01*
X148915178Y-68507142D01*
X148772321Y-68435714D01*
X147415178Y-69078571D02*
X147415178Y-67578571D01*
X147415178Y-69007142D02*
X147558035Y-69078571D01*
X147843750Y-69078571D01*
X147986607Y-69007142D01*
X148058035Y-68935714D01*
X148129464Y-68792857D01*
X148129464Y-68364285D01*
X148058035Y-68221428D01*
X147986607Y-68150000D01*
X147843750Y-68078571D01*
X147558035Y-68078571D01*
X147415178Y-68150000D01*
X146700892Y-69078571D02*
X146700892Y-68078571D01*
X146700892Y-67578571D02*
X146772321Y-67650000D01*
X146700892Y-67721428D01*
X146629464Y-67650000D01*
X146700892Y-67578571D01*
X146700892Y-67721428D01*
X145772321Y-69078571D02*
X145915178Y-69007142D01*
X145986607Y-68935714D01*
X146058035Y-68792857D01*
X146058035Y-68364285D01*
X145986607Y-68221428D01*
X145915178Y-68150000D01*
X145772321Y-68078571D01*
X145558035Y-68078571D01*
X145415178Y-68150000D01*
X145343750Y-68221428D01*
X145272321Y-68364285D01*
X145272321Y-68792857D01*
X145343750Y-68935714D01*
X145415178Y-69007142D01*
X145558035Y-69078571D01*
X145772321Y-69078571D01*
X144629464Y-69078571D02*
X144629464Y-67578571D01*
X143986607Y-69078571D02*
X143986607Y-68292857D01*
X144058035Y-68150000D01*
X144200892Y-68078571D01*
X144415178Y-68078571D01*
X144558035Y-68150000D01*
X144629464Y-68221428D01*
X142629464Y-69078571D02*
X142629464Y-68292857D01*
X142700892Y-68150000D01*
X142843750Y-68078571D01*
X143129464Y-68078571D01*
X143272321Y-68150000D01*
X142629464Y-69007142D02*
X142772321Y-69078571D01*
X143129464Y-69078571D01*
X143272321Y-69007142D01*
X143343750Y-68864285D01*
X143343750Y-68721428D01*
X143272321Y-68578571D01*
X143129464Y-68507142D01*
X142772321Y-68507142D01*
X142629464Y-68435714D01*
X141915178Y-68078571D02*
X141915178Y-69078571D01*
X141915178Y-68221428D02*
X141843750Y-68150000D01*
X141700892Y-68078571D01*
X141486607Y-68078571D01*
X141343750Y-68150000D01*
X141272321Y-68292857D01*
X141272321Y-69078571D01*
X139915178Y-69078571D02*
X139915178Y-67578571D01*
X139915178Y-69007142D02*
X140058035Y-69078571D01*
X140343750Y-69078571D01*
X140486607Y-69007142D01*
X140558035Y-68935714D01*
X140629464Y-68792857D01*
X140629464Y-68364285D01*
X140558035Y-68221428D01*
X140486607Y-68150000D01*
X140343750Y-68078571D01*
X140058035Y-68078571D01*
X139915178Y-68150000D01*
X139272321Y-69007142D02*
X139129464Y-69078571D01*
X138843750Y-69078571D01*
X138700892Y-69007142D01*
X138629464Y-68864285D01*
X138629464Y-68792857D01*
X138700892Y-68650000D01*
X138843750Y-68578571D01*
X139058035Y-68578571D01*
X139200892Y-68507142D01*
X139272321Y-68364285D01*
X139272321Y-68292857D01*
X139200892Y-68150000D01*
X139058035Y-68078571D01*
X138843750Y-68078571D01*
X138700892Y-68150000D01*
D11*
X50957500Y-47197500D02*
X50957500Y-77677500D01*
X45877500Y-47197500D02*
X50957500Y-47197500D01*
X45877500Y-44657500D02*
X45877500Y-47197500D01*
X38257500Y-44657500D02*
X45877500Y-44657500D01*
X38257500Y-47197500D02*
X38257500Y-44657500D01*
X33177500Y-47197500D02*
X38257500Y-47197500D01*
X33177500Y-77677500D02*
X33177500Y-47197500D01*
X50957500Y-77677500D02*
X33177500Y-77677500D01*
X145628996Y-115400941D02*
X154216076Y-117701842D01*
X145727606Y-115032923D02*
X145628996Y-115400941D01*
X146779446Y-111107401D02*
X146516486Y-112088781D01*
X151686350Y-112422202D02*
X146779446Y-111107401D01*
X156227595Y-111666824D02*
X154632852Y-111239513D01*
X158313029Y-112225614D02*
X157945011Y-112127004D01*
X158214419Y-112593632D02*
X158313029Y-112225614D01*
X157326928Y-115905791D02*
X157425538Y-115537773D01*
X154564505Y-111201571D02*
G75*
G02X151686350Y-112422202I-2220755J1232821D01*
G01*
X157326928Y-115905792D02*
G75*
G02X154216076Y-117701842I-2453451J657401D01*
G01*
D12*
X151750000Y-54937500D02*
X151750000Y-56437500D01*
X150500000Y-58937500D02*
X146000000Y-58937500D01*
X144750000Y-56437500D02*
X144750000Y-54937500D01*
X146000000Y-52437500D02*
X150500000Y-52437500D01*
D11*
X96076250Y-78985000D02*
X104966250Y-78985000D01*
X96076250Y-78604000D02*
X96076250Y-78985000D01*
X96076250Y-74540000D02*
X96076250Y-75556000D01*
X101156250Y-74540000D02*
X96076250Y-74540000D01*
X105347250Y-72635000D02*
X103696250Y-72635000D01*
X107506250Y-72635000D02*
X107125250Y-72635000D01*
X107506250Y-73016000D02*
X107506250Y-72635000D01*
X107506250Y-76445000D02*
X107506250Y-76064000D01*
X103620412Y-72616040D02*
G75*
G02X101156250Y-74540000I-2464162J616040D01*
G01*
X107506250Y-76445000D02*
G75*
G02X104966250Y-78985000I-2540000J0D01*
G01*
X76982500Y-59485000D02*
X85872500Y-59485000D01*
X76982500Y-59104000D02*
X76982500Y-59485000D01*
X76982500Y-55040000D02*
X76982500Y-56056000D01*
X82062500Y-55040000D02*
X76982500Y-55040000D01*
X86253500Y-53135000D02*
X84602500Y-53135000D01*
X88412500Y-53135000D02*
X88031500Y-53135000D01*
X88412500Y-53516000D02*
X88412500Y-53135000D01*
X88412500Y-56945000D02*
X88412500Y-56564000D01*
X84526662Y-53116040D02*
G75*
G02X82062500Y-55040000I-2464162J616040D01*
G01*
X88412500Y-56945000D02*
G75*
G02X85872500Y-59485000I-2540000J0D01*
G01*
X130066496Y-100025941D02*
X138653576Y-102326842D01*
X130165106Y-99657923D02*
X130066496Y-100025941D01*
X131216946Y-95732401D02*
X130953986Y-96713781D01*
X136123850Y-97047202D02*
X131216946Y-95732401D01*
X140665095Y-96291824D02*
X139070352Y-95864513D01*
X142750529Y-96850614D02*
X142382511Y-96752004D01*
X142651919Y-97218632D02*
X142750529Y-96850614D01*
X141764428Y-100530791D02*
X141863038Y-100162773D01*
X139002005Y-95826571D02*
G75*
G02X136123850Y-97047202I-2220755J1232821D01*
G01*
X141764428Y-100530792D02*
G75*
G02X138653576Y-102326842I-2453451J657401D01*
G01*
X57826250Y-59485000D02*
X66716250Y-59485000D01*
X57826250Y-59104000D02*
X57826250Y-59485000D01*
X57826250Y-55040000D02*
X57826250Y-56056000D01*
X62906250Y-55040000D02*
X57826250Y-55040000D01*
X67097250Y-53135000D02*
X65446250Y-53135000D01*
X69256250Y-53135000D02*
X68875250Y-53135000D01*
X69256250Y-53516000D02*
X69256250Y-53135000D01*
X69256250Y-56945000D02*
X69256250Y-56564000D01*
X65370412Y-53116040D02*
G75*
G02X62906250Y-55040000I-2464162J616040D01*
G01*
X69256250Y-56945000D02*
G75*
G02X66716250Y-59485000I-2540000J0D01*
G01*
X96138750Y-59485000D02*
X105028750Y-59485000D01*
X96138750Y-59104000D02*
X96138750Y-59485000D01*
X96138750Y-55040000D02*
X96138750Y-56056000D01*
X101218750Y-55040000D02*
X96138750Y-55040000D01*
X105409750Y-53135000D02*
X103758750Y-53135000D01*
X107568750Y-53135000D02*
X107187750Y-53135000D01*
X107568750Y-53516000D02*
X107568750Y-53135000D01*
X107568750Y-56945000D02*
X107568750Y-56564000D01*
X103682912Y-53116040D02*
G75*
G02X101218750Y-55040000I-2464162J616040D01*
G01*
X107568750Y-56945000D02*
G75*
G02X105028750Y-59485000I-2540000J0D01*
G01*
X57826250Y-78985000D02*
X66716250Y-78985000D01*
X57826250Y-78604000D02*
X57826250Y-78985000D01*
X57826250Y-74540000D02*
X57826250Y-75556000D01*
X62906250Y-74540000D02*
X57826250Y-74540000D01*
X67097250Y-72635000D02*
X65446250Y-72635000D01*
X69256250Y-72635000D02*
X68875250Y-72635000D01*
X69256250Y-73016000D02*
X69256250Y-72635000D01*
X69256250Y-76445000D02*
X69256250Y-76064000D01*
X65370412Y-72616040D02*
G75*
G02X62906250Y-74540000I-2464162J616040D01*
G01*
X69256250Y-76445000D02*
G75*
G02X66716250Y-78985000I-2540000J0D01*
G01*
X77045000Y-78985000D02*
X85935000Y-78985000D01*
X77045000Y-78604000D02*
X77045000Y-78985000D01*
X77045000Y-74540000D02*
X77045000Y-75556000D01*
X82125000Y-74540000D02*
X77045000Y-74540000D01*
X86316000Y-72635000D02*
X84665000Y-72635000D01*
X88475000Y-72635000D02*
X88094000Y-72635000D01*
X88475000Y-73016000D02*
X88475000Y-72635000D01*
X88475000Y-76445000D02*
X88475000Y-76064000D01*
X84589162Y-72616040D02*
G75*
G02X82125000Y-74540000I-2464162J616040D01*
G01*
X88475000Y-76445000D02*
G75*
G02X85935000Y-78985000I-2540000J0D01*
G01*
X115295000Y-78985000D02*
X124185000Y-78985000D01*
X115295000Y-78604000D02*
X115295000Y-78985000D01*
X115295000Y-74540000D02*
X115295000Y-75556000D01*
X120375000Y-74540000D02*
X115295000Y-74540000D01*
X124566000Y-72635000D02*
X122915000Y-72635000D01*
X126725000Y-72635000D02*
X126344000Y-72635000D01*
X126725000Y-73016000D02*
X126725000Y-72635000D01*
X126725000Y-76445000D02*
X126725000Y-76064000D01*
X122839162Y-72616040D02*
G75*
G02X120375000Y-74540000I-2464162J616040D01*
G01*
X126725000Y-76445000D02*
G75*
G02X124185000Y-78985000I-2540000J0D01*
G01*
X115295000Y-59485000D02*
X124185000Y-59485000D01*
X115295000Y-59104000D02*
X115295000Y-59485000D01*
X115295000Y-55040000D02*
X115295000Y-56056000D01*
X120375000Y-55040000D02*
X115295000Y-55040000D01*
X124566000Y-53135000D02*
X122915000Y-53135000D01*
X126725000Y-53135000D02*
X126344000Y-53135000D01*
X126725000Y-53516000D02*
X126725000Y-53135000D01*
X126725000Y-56945000D02*
X126725000Y-56564000D01*
X122839162Y-53116040D02*
G75*
G02X120375000Y-55040000I-2464162J616040D01*
G01*
X126725000Y-56945000D02*
G75*
G02X124185000Y-59485000I-2540000J0D01*
G01*
D12*
X99883750Y-64870000D02*
X99883750Y-62630000D01*
X100123750Y-64870000D02*
X100123750Y-62630000D01*
X100003750Y-64870000D02*
X100003750Y-62630000D01*
X104173750Y-63750000D02*
X103523750Y-63750000D01*
X98633750Y-63750000D02*
X99283750Y-63750000D01*
X103523750Y-64870000D02*
X99283750Y-64870000D01*
X103523750Y-62630000D02*
X103523750Y-64870000D01*
X99283750Y-62630000D02*
X103523750Y-62630000D01*
X99283750Y-64870000D02*
X99283750Y-62630000D01*
X80852500Y-62151250D02*
X80852500Y-59911250D01*
X81092500Y-62151250D02*
X81092500Y-59911250D01*
X80972500Y-62151250D02*
X80972500Y-59911250D01*
X85142500Y-61031250D02*
X84492500Y-61031250D01*
X79602500Y-61031250D02*
X80252500Y-61031250D01*
X84492500Y-62151250D02*
X80252500Y-62151250D01*
X84492500Y-59911250D02*
X84492500Y-62151250D01*
X80252500Y-59911250D02*
X84492500Y-59911250D01*
X80252500Y-62151250D02*
X80252500Y-59911250D01*
X133786250Y-77196250D02*
X136026250Y-77196250D01*
X133786250Y-77436250D02*
X136026250Y-77436250D01*
X133786250Y-77316250D02*
X136026250Y-77316250D01*
X134906250Y-81486250D02*
X134906250Y-80836250D01*
X134906250Y-75946250D02*
X134906250Y-76596250D01*
X133786250Y-80836250D02*
X133786250Y-76596250D01*
X136026250Y-80836250D02*
X133786250Y-80836250D01*
X136026250Y-76596250D02*
X136026250Y-80836250D01*
X133786250Y-76596250D02*
X136026250Y-76596250D01*
X61633750Y-62151250D02*
X61633750Y-59911250D01*
X61873750Y-62151250D02*
X61873750Y-59911250D01*
X61753750Y-62151250D02*
X61753750Y-59911250D01*
X65923750Y-61031250D02*
X65273750Y-61031250D01*
X60383750Y-61031250D02*
X61033750Y-61031250D01*
X65273750Y-62151250D02*
X61033750Y-62151250D01*
X65273750Y-59911250D02*
X65273750Y-62151250D01*
X61033750Y-59911250D02*
X65273750Y-59911250D01*
X61033750Y-62151250D02*
X61033750Y-59911250D01*
X99883750Y-62151250D02*
X99883750Y-59911250D01*
X100123750Y-62151250D02*
X100123750Y-59911250D01*
X100003750Y-62151250D02*
X100003750Y-59911250D01*
X104173750Y-61031250D02*
X103523750Y-61031250D01*
X98633750Y-61031250D02*
X99283750Y-61031250D01*
X103523750Y-62151250D02*
X99283750Y-62151250D01*
X103523750Y-59911250D02*
X103523750Y-62151250D01*
X99283750Y-59911250D02*
X103523750Y-59911250D01*
X99283750Y-62151250D02*
X99283750Y-59911250D01*
X61633750Y-64870000D02*
X61633750Y-62630000D01*
X61873750Y-64870000D02*
X61873750Y-62630000D01*
X61753750Y-64870000D02*
X61753750Y-62630000D01*
X65923750Y-63750000D02*
X65273750Y-63750000D01*
X60383750Y-63750000D02*
X61033750Y-63750000D01*
X65273750Y-64870000D02*
X61033750Y-64870000D01*
X65273750Y-62630000D02*
X65273750Y-64870000D01*
X61033750Y-62630000D02*
X65273750Y-62630000D01*
X61033750Y-64870000D02*
X61033750Y-62630000D01*
X80920000Y-64870000D02*
X80920000Y-62630000D01*
X81160000Y-64870000D02*
X81160000Y-62630000D01*
X81040000Y-64870000D02*
X81040000Y-62630000D01*
X85210000Y-63750000D02*
X84560000Y-63750000D01*
X79670000Y-63750000D02*
X80320000Y-63750000D01*
X84560000Y-64870000D02*
X80320000Y-64870000D01*
X84560000Y-62630000D02*
X84560000Y-64870000D01*
X80320000Y-62630000D02*
X84560000Y-62630000D01*
X80320000Y-64870000D02*
X80320000Y-62630000D01*
X119076250Y-64870000D02*
X119076250Y-62630000D01*
X119316250Y-64870000D02*
X119316250Y-62630000D01*
X119196250Y-64870000D02*
X119196250Y-62630000D01*
X123366250Y-63750000D02*
X122716250Y-63750000D01*
X117826250Y-63750000D02*
X118476250Y-63750000D01*
X122716250Y-64870000D02*
X118476250Y-64870000D01*
X122716250Y-62630000D02*
X122716250Y-64870000D01*
X118476250Y-62630000D02*
X122716250Y-62630000D01*
X118476250Y-64870000D02*
X118476250Y-62630000D01*
X156428750Y-77161250D02*
X156428750Y-79401250D01*
X156188750Y-77161250D02*
X156188750Y-79401250D01*
X156308750Y-77161250D02*
X156308750Y-79401250D01*
X152138750Y-78281250D02*
X152788750Y-78281250D01*
X157678750Y-78281250D02*
X157028750Y-78281250D01*
X152788750Y-77161250D02*
X157028750Y-77161250D01*
X152788750Y-79401250D02*
X152788750Y-77161250D01*
X157028750Y-79401250D02*
X152788750Y-79401250D01*
X157028750Y-77161250D02*
X157028750Y-79401250D01*
X144848750Y-77196250D02*
X147088750Y-77196250D01*
X144848750Y-77436250D02*
X147088750Y-77436250D01*
X144848750Y-77316250D02*
X147088750Y-77316250D01*
X145968750Y-81486250D02*
X145968750Y-80836250D01*
X145968750Y-75946250D02*
X145968750Y-76596250D01*
X144848750Y-80836250D02*
X144848750Y-76596250D01*
X147088750Y-80836250D02*
X144848750Y-80836250D01*
X147088750Y-76596250D02*
X147088750Y-80836250D01*
X144848750Y-76596250D02*
X147088750Y-76596250D01*
X119076250Y-62151250D02*
X119076250Y-59911250D01*
X119316250Y-62151250D02*
X119316250Y-59911250D01*
X119196250Y-62151250D02*
X119196250Y-59911250D01*
X123366250Y-61031250D02*
X122716250Y-61031250D01*
X117826250Y-61031250D02*
X118476250Y-61031250D01*
X122716250Y-62151250D02*
X118476250Y-62151250D01*
X122716250Y-59911250D02*
X122716250Y-62151250D01*
X118476250Y-59911250D02*
X122716250Y-59911250D01*
X118476250Y-62151250D02*
X118476250Y-59911250D01*
D11*
X156185105Y-120012582D02*
X156443924Y-119046656D01*
X155937078Y-119650330D01*
X155799974Y-118874110D01*
X155541155Y-119840036D01*
X155432002Y-118775512D02*
X154529232Y-119568892D01*
X154788051Y-118602966D02*
X155173183Y-119741438D01*
X154366594Y-119623911D02*
X153630650Y-119426715D01*
X153545262Y-119009444D02*
X153085297Y-118886197D01*
X153563307Y-119310073D02*
X153500150Y-118257874D01*
X152919356Y-119137527D01*
X152137416Y-118928007D02*
X152597381Y-119051254D01*
X152856200Y-118085328D01*
X151309480Y-118706162D02*
X151861437Y-118854058D01*
X151585458Y-118780110D02*
X151844278Y-117814184D01*
X151899296Y-117976823D01*
X151966640Y-118093465D01*
X152046308Y-118164111D01*
X151392857Y-60342261D02*
X151250000Y-60389880D01*
X151011904Y-60389880D01*
X150916666Y-60342261D01*
X150869047Y-60294642D01*
X150821428Y-60199404D01*
X150821428Y-60104166D01*
X150869047Y-60008928D01*
X150916666Y-59961309D01*
X151011904Y-59913690D01*
X151202380Y-59866071D01*
X151297619Y-59818452D01*
X151345238Y-59770833D01*
X151392857Y-59675595D01*
X151392857Y-59580357D01*
X151345238Y-59485119D01*
X151297619Y-59437500D01*
X151202380Y-59389880D01*
X150964285Y-59389880D01*
X150821428Y-59437500D01*
X150488095Y-59389880D02*
X150250000Y-60389880D01*
X150059523Y-59675595D01*
X149869047Y-60389880D01*
X149630952Y-59389880D01*
X149488095Y-60485119D02*
X148726190Y-60485119D01*
X147916666Y-60389880D02*
X148250000Y-59913690D01*
X148488095Y-60389880D02*
X148488095Y-59389880D01*
X148107142Y-59389880D01*
X148011904Y-59437500D01*
X147964285Y-59485119D01*
X147916666Y-59580357D01*
X147916666Y-59723214D01*
X147964285Y-59818452D01*
X148011904Y-59866071D01*
X148107142Y-59913690D01*
X148488095Y-59913690D01*
X147488095Y-59866071D02*
X147154761Y-59866071D01*
X147011904Y-60389880D02*
X147488095Y-60389880D01*
X147488095Y-59389880D01*
X147011904Y-59389880D01*
X146630952Y-60342261D02*
X146488095Y-60389880D01*
X146250000Y-60389880D01*
X146154761Y-60342261D01*
X146107142Y-60294642D01*
X146059523Y-60199404D01*
X146059523Y-60104166D01*
X146107142Y-60008928D01*
X146154761Y-59961309D01*
X146250000Y-59913690D01*
X146440476Y-59866071D01*
X146535714Y-59818452D01*
X146583333Y-59770833D01*
X146630952Y-59675595D01*
X146630952Y-59580357D01*
X146583333Y-59485119D01*
X146535714Y-59437500D01*
X146440476Y-59389880D01*
X146202380Y-59389880D01*
X146059523Y-59437500D01*
X145107142Y-60389880D02*
X145678571Y-60389880D01*
X145392857Y-60389880D02*
X145392857Y-59389880D01*
X145488095Y-59532738D01*
X145583333Y-59627976D01*
X145678571Y-59675595D01*
X107061488Y-80707380D02*
X107061488Y-79707380D01*
X106728154Y-80421666D01*
X106394821Y-79707380D01*
X106394821Y-80707380D01*
X106013869Y-79707380D02*
X105347202Y-80707380D01*
X105347202Y-79707380D02*
X106013869Y-80707380D01*
X105204345Y-80802619D02*
X104442440Y-80802619D01*
X104013869Y-80231190D02*
X104013869Y-80707380D01*
X104347202Y-79707380D02*
X104013869Y-80231190D01*
X103680535Y-79707380D01*
X102823392Y-80707380D02*
X103394821Y-80707380D01*
X103109107Y-80707380D02*
X103109107Y-79707380D01*
X103204345Y-79850238D01*
X103299583Y-79945476D01*
X103394821Y-79993095D01*
X87920119Y-61207380D02*
X87920119Y-60207380D01*
X87586785Y-60921666D01*
X87253452Y-60207380D01*
X87253452Y-61207380D01*
X86872500Y-60207380D02*
X86205833Y-61207380D01*
X86205833Y-60207380D02*
X86872500Y-61207380D01*
X86062976Y-61302619D02*
X85301071Y-61302619D01*
X85205833Y-60207380D02*
X84634404Y-60207380D01*
X84920119Y-61207380D02*
X84920119Y-60207380D01*
X83777261Y-61207380D02*
X84348690Y-61207380D01*
X84062976Y-61207380D02*
X84062976Y-60207380D01*
X84158214Y-60350238D01*
X84253452Y-60445476D01*
X84348690Y-60493095D01*
X140783593Y-104680718D02*
X141042412Y-103714792D01*
X140535566Y-104318466D01*
X140398461Y-103542246D01*
X140139642Y-104508172D01*
X140030490Y-103443648D02*
X139127720Y-104237028D01*
X139386539Y-103271102D02*
X139771671Y-104409574D01*
X138965081Y-104292047D02*
X138229138Y-104094852D01*
X138082126Y-103907563D02*
X137931812Y-103916586D01*
X137701830Y-103854962D01*
X137622161Y-103784316D01*
X137588490Y-103725995D01*
X137567143Y-103621677D01*
X137591792Y-103529684D01*
X137662438Y-103450016D01*
X137720759Y-103416344D01*
X137825077Y-103394997D01*
X138021387Y-103398300D01*
X138125705Y-103376953D01*
X138184026Y-103343281D01*
X138254672Y-103263613D01*
X138279321Y-103171620D01*
X138257974Y-103067302D01*
X138224303Y-103008981D01*
X138144634Y-102938335D01*
X137914652Y-102876712D01*
X137764338Y-102885734D01*
X137103875Y-103694741D02*
X137362695Y-102728815D01*
X137239447Y-103188780D02*
X136687490Y-103040883D01*
X136551918Y-103546844D02*
X136810737Y-102580918D01*
X135585992Y-103288025D02*
X136137950Y-103435922D01*
X135861971Y-103361973D02*
X136120790Y-102396048D01*
X136175809Y-102558686D01*
X136243152Y-102675329D01*
X136322820Y-102745975D01*
X68859107Y-61207380D02*
X68859107Y-60207380D01*
X68525773Y-60921666D01*
X68192440Y-60207380D01*
X68192440Y-61207380D01*
X67811488Y-60207380D02*
X67144821Y-61207380D01*
X67144821Y-60207380D02*
X67811488Y-61207380D01*
X67001964Y-61302619D02*
X66240059Y-61302619D01*
X66049583Y-61159761D02*
X65906726Y-61207380D01*
X65668630Y-61207380D01*
X65573392Y-61159761D01*
X65525773Y-61112142D01*
X65478154Y-61016904D01*
X65478154Y-60921666D01*
X65525773Y-60826428D01*
X65573392Y-60778809D01*
X65668630Y-60731190D01*
X65859107Y-60683571D01*
X65954345Y-60635952D01*
X66001964Y-60588333D01*
X66049583Y-60493095D01*
X66049583Y-60397857D01*
X66001964Y-60302619D01*
X65954345Y-60255000D01*
X65859107Y-60207380D01*
X65621011Y-60207380D01*
X65478154Y-60255000D01*
X64525773Y-61207380D02*
X65097202Y-61207380D01*
X64811488Y-61207380D02*
X64811488Y-60207380D01*
X64906726Y-60350238D01*
X65001964Y-60445476D01*
X65097202Y-60493095D01*
X107195416Y-61207380D02*
X107195416Y-60207380D01*
X106862083Y-60921666D01*
X106528750Y-60207380D01*
X106528750Y-61207380D01*
X106147797Y-60207380D02*
X105481130Y-61207380D01*
X105481130Y-60207380D02*
X106147797Y-61207380D01*
X105338273Y-61302619D02*
X104576369Y-61302619D01*
X103766845Y-61207380D02*
X104100178Y-60731190D01*
X104338273Y-61207380D02*
X104338273Y-60207380D01*
X103957321Y-60207380D01*
X103862083Y-60255000D01*
X103814464Y-60302619D01*
X103766845Y-60397857D01*
X103766845Y-60540714D01*
X103814464Y-60635952D01*
X103862083Y-60683571D01*
X103957321Y-60731190D01*
X104338273Y-60731190D01*
X102814464Y-61207380D02*
X103385892Y-61207380D01*
X103100178Y-61207380D02*
X103100178Y-60207380D01*
X103195416Y-60350238D01*
X103290654Y-60445476D01*
X103385892Y-60493095D01*
X68906726Y-80707380D02*
X68906726Y-79707380D01*
X68573392Y-80421666D01*
X68240059Y-79707380D01*
X68240059Y-80707380D01*
X67859107Y-79707380D02*
X67192440Y-80707380D01*
X67192440Y-79707380D02*
X67859107Y-80707380D01*
X67049583Y-80802619D02*
X66287678Y-80802619D01*
X65859107Y-79707380D02*
X65668630Y-79707380D01*
X65573392Y-79755000D01*
X65478154Y-79850238D01*
X65430535Y-80040714D01*
X65430535Y-80374047D01*
X65478154Y-80564523D01*
X65573392Y-80659761D01*
X65668630Y-80707380D01*
X65859107Y-80707380D01*
X65954345Y-80659761D01*
X66049583Y-80564523D01*
X66097202Y-80374047D01*
X66097202Y-80040714D01*
X66049583Y-79850238D01*
X65954345Y-79755000D01*
X65859107Y-79707380D01*
X64478154Y-80707380D02*
X65049583Y-80707380D01*
X64763869Y-80707380D02*
X64763869Y-79707380D01*
X64859107Y-79850238D01*
X64954345Y-79945476D01*
X65049583Y-79993095D01*
X87839761Y-80707380D02*
X87839761Y-79707380D01*
X87506428Y-80421666D01*
X87173095Y-79707380D01*
X87173095Y-80707380D01*
X86792142Y-79707380D02*
X86125476Y-80707380D01*
X86125476Y-79707380D02*
X86792142Y-80707380D01*
X85982619Y-80802619D02*
X85220714Y-80802619D01*
X84982619Y-80707380D02*
X84982619Y-79707380D01*
X83982619Y-80707380D02*
X84554047Y-80707380D01*
X84268333Y-80707380D02*
X84268333Y-79707380D01*
X84363571Y-79850238D01*
X84458809Y-79945476D01*
X84554047Y-79993095D01*
X126304047Y-80707380D02*
X126304047Y-79707380D01*
X125970714Y-80421666D01*
X125637380Y-79707380D01*
X125637380Y-80707380D01*
X125256428Y-79707380D02*
X124589761Y-80707380D01*
X124589761Y-79707380D02*
X125256428Y-80707380D01*
X124446904Y-80802619D02*
X123685000Y-80802619D01*
X123446904Y-80183571D02*
X123113571Y-80183571D01*
X122970714Y-80707380D02*
X123446904Y-80707380D01*
X123446904Y-79707380D01*
X122970714Y-79707380D01*
X122018333Y-80707380D02*
X122589761Y-80707380D01*
X122304047Y-80707380D02*
X122304047Y-79707380D01*
X122399285Y-79850238D01*
X122494523Y-79945476D01*
X122589761Y-79993095D01*
X126280238Y-61207380D02*
X126280238Y-60207380D01*
X125946904Y-60921666D01*
X125613571Y-60207380D01*
X125613571Y-61207380D01*
X125232619Y-60207380D02*
X124565952Y-61207380D01*
X124565952Y-60207380D02*
X125232619Y-61207380D01*
X124423095Y-61302619D02*
X123661190Y-61302619D01*
X123470714Y-60921666D02*
X122994523Y-60921666D01*
X123565952Y-61207380D02*
X123232619Y-60207380D01*
X122899285Y-61207380D01*
X122042142Y-61207380D02*
X122613571Y-61207380D01*
X122327857Y-61207380D02*
X122327857Y-60207380D01*
X122423095Y-60350238D01*
X122518333Y-60445476D01*
X122613571Y-60493095D01*
X102951369Y-66322380D02*
X102951369Y-65322380D01*
X102713273Y-65322380D01*
X102570416Y-65370000D01*
X102475178Y-65465238D01*
X102427559Y-65560476D01*
X102379940Y-65750952D01*
X102379940Y-65893809D01*
X102427559Y-66084285D01*
X102475178Y-66179523D01*
X102570416Y-66274761D01*
X102713273Y-66322380D01*
X102951369Y-66322380D01*
X102189464Y-66417619D02*
X101427559Y-66417619D01*
X100998988Y-65846190D02*
X100998988Y-66322380D01*
X101332321Y-65322380D02*
X100998988Y-65846190D01*
X100665654Y-65322380D01*
X99808511Y-66322380D02*
X100379940Y-66322380D01*
X100094226Y-66322380D02*
X100094226Y-65322380D01*
X100189464Y-65465238D01*
X100284702Y-65560476D01*
X100379940Y-65608095D01*
X97855654Y-66002380D02*
X97855654Y-65002380D01*
X97284226Y-66002380D02*
X97712797Y-65430952D01*
X97284226Y-65002380D02*
X97855654Y-65573809D01*
X83872500Y-63603630D02*
X83872500Y-62603630D01*
X83634404Y-62603630D01*
X83491547Y-62651250D01*
X83396309Y-62746488D01*
X83348690Y-62841726D01*
X83301071Y-63032202D01*
X83301071Y-63175059D01*
X83348690Y-63365535D01*
X83396309Y-63460773D01*
X83491547Y-63556011D01*
X83634404Y-63603630D01*
X83872500Y-63603630D01*
X83110595Y-63698869D02*
X82348690Y-63698869D01*
X82253452Y-62603630D02*
X81682023Y-62603630D01*
X81967738Y-63603630D02*
X81967738Y-62603630D01*
X80824880Y-63603630D02*
X81396309Y-63603630D01*
X81110595Y-63603630D02*
X81110595Y-62603630D01*
X81205833Y-62746488D01*
X81301071Y-62841726D01*
X81396309Y-62889345D01*
X78824404Y-63283630D02*
X78824404Y-62283630D01*
X78252976Y-63283630D02*
X78681547Y-62712202D01*
X78252976Y-62283630D02*
X78824404Y-62855059D01*
X133238630Y-76597202D02*
X132238630Y-76597202D01*
X132238630Y-76835297D01*
X132286250Y-76978154D01*
X132381488Y-77073392D01*
X132476726Y-77121011D01*
X132667202Y-77168630D01*
X132810059Y-77168630D01*
X133000535Y-77121011D01*
X133095773Y-77073392D01*
X133191011Y-76978154D01*
X133238630Y-76835297D01*
X133238630Y-76597202D01*
X133333869Y-77359107D02*
X133333869Y-78121011D01*
X133191011Y-78311488D02*
X133238630Y-78454345D01*
X133238630Y-78692440D01*
X133191011Y-78787678D01*
X133143392Y-78835297D01*
X133048154Y-78882916D01*
X132952916Y-78882916D01*
X132857678Y-78835297D01*
X132810059Y-78787678D01*
X132762440Y-78692440D01*
X132714821Y-78501964D01*
X132667202Y-78406726D01*
X132619583Y-78359107D01*
X132524345Y-78311488D01*
X132429107Y-78311488D01*
X132333869Y-78359107D01*
X132286250Y-78406726D01*
X132238630Y-78501964D01*
X132238630Y-78740059D01*
X132286250Y-78882916D01*
X133238630Y-79311488D02*
X132238630Y-79311488D01*
X132714821Y-79311488D02*
X132714821Y-79882916D01*
X133238630Y-79882916D02*
X132238630Y-79882916D01*
X133238630Y-80882916D02*
X133238630Y-80311488D01*
X133238630Y-80597202D02*
X132238630Y-80597202D01*
X132381488Y-80501964D01*
X132476726Y-80406726D01*
X132524345Y-80311488D01*
X133558630Y-74644345D02*
X132558630Y-74644345D01*
X133558630Y-75215773D02*
X132987202Y-74787202D01*
X132558630Y-75215773D02*
X133130059Y-74644345D01*
X64748988Y-63603630D02*
X64748988Y-62603630D01*
X64510892Y-62603630D01*
X64368035Y-62651250D01*
X64272797Y-62746488D01*
X64225178Y-62841726D01*
X64177559Y-63032202D01*
X64177559Y-63175059D01*
X64225178Y-63365535D01*
X64272797Y-63460773D01*
X64368035Y-63556011D01*
X64510892Y-63603630D01*
X64748988Y-63603630D01*
X63987083Y-63698869D02*
X63225178Y-63698869D01*
X63034702Y-63556011D02*
X62891845Y-63603630D01*
X62653750Y-63603630D01*
X62558511Y-63556011D01*
X62510892Y-63508392D01*
X62463273Y-63413154D01*
X62463273Y-63317916D01*
X62510892Y-63222678D01*
X62558511Y-63175059D01*
X62653750Y-63127440D01*
X62844226Y-63079821D01*
X62939464Y-63032202D01*
X62987083Y-62984583D01*
X63034702Y-62889345D01*
X63034702Y-62794107D01*
X62987083Y-62698869D01*
X62939464Y-62651250D01*
X62844226Y-62603630D01*
X62606130Y-62603630D01*
X62463273Y-62651250D01*
X61510892Y-63603630D02*
X62082321Y-63603630D01*
X61796607Y-63603630D02*
X61796607Y-62603630D01*
X61891845Y-62746488D01*
X61987083Y-62841726D01*
X62082321Y-62889345D01*
X59605654Y-63283630D02*
X59605654Y-62283630D01*
X59034226Y-63283630D02*
X59462797Y-62712202D01*
X59034226Y-62283630D02*
X59605654Y-62855059D01*
X103022797Y-63603630D02*
X103022797Y-62603630D01*
X102784702Y-62603630D01*
X102641845Y-62651250D01*
X102546607Y-62746488D01*
X102498988Y-62841726D01*
X102451369Y-63032202D01*
X102451369Y-63175059D01*
X102498988Y-63365535D01*
X102546607Y-63460773D01*
X102641845Y-63556011D01*
X102784702Y-63603630D01*
X103022797Y-63603630D01*
X102260892Y-63698869D02*
X101498988Y-63698869D01*
X100689464Y-63603630D02*
X101022797Y-63127440D01*
X101260892Y-63603630D02*
X101260892Y-62603630D01*
X100879940Y-62603630D01*
X100784702Y-62651250D01*
X100737083Y-62698869D01*
X100689464Y-62794107D01*
X100689464Y-62936964D01*
X100737083Y-63032202D01*
X100784702Y-63079821D01*
X100879940Y-63127440D01*
X101260892Y-63127440D01*
X99737083Y-63603630D02*
X100308511Y-63603630D01*
X100022797Y-63603630D02*
X100022797Y-62603630D01*
X100118035Y-62746488D01*
X100213273Y-62841726D01*
X100308511Y-62889345D01*
X97855654Y-63283630D02*
X97855654Y-62283630D01*
X97284226Y-63283630D02*
X97712797Y-62712202D01*
X97284226Y-62283630D02*
X97855654Y-62855059D01*
X64796607Y-66322380D02*
X64796607Y-65322380D01*
X64558511Y-65322380D01*
X64415654Y-65370000D01*
X64320416Y-65465238D01*
X64272797Y-65560476D01*
X64225178Y-65750952D01*
X64225178Y-65893809D01*
X64272797Y-66084285D01*
X64320416Y-66179523D01*
X64415654Y-66274761D01*
X64558511Y-66322380D01*
X64796607Y-66322380D01*
X64034702Y-66417619D02*
X63272797Y-66417619D01*
X62844226Y-65322380D02*
X62653750Y-65322380D01*
X62558511Y-65370000D01*
X62463273Y-65465238D01*
X62415654Y-65655714D01*
X62415654Y-65989047D01*
X62463273Y-66179523D01*
X62558511Y-66274761D01*
X62653750Y-66322380D01*
X62844226Y-66322380D01*
X62939464Y-66274761D01*
X63034702Y-66179523D01*
X63082321Y-65989047D01*
X63082321Y-65655714D01*
X63034702Y-65465238D01*
X62939464Y-65370000D01*
X62844226Y-65322380D01*
X61463273Y-66322380D02*
X62034702Y-66322380D01*
X61748988Y-66322380D02*
X61748988Y-65322380D01*
X61844226Y-65465238D01*
X61939464Y-65560476D01*
X62034702Y-65608095D01*
X59605654Y-66002380D02*
X59605654Y-65002380D01*
X59034226Y-66002380D02*
X59462797Y-65430952D01*
X59034226Y-65002380D02*
X59605654Y-65573809D01*
X83797142Y-66322380D02*
X83797142Y-65322380D01*
X83559047Y-65322380D01*
X83416190Y-65370000D01*
X83320952Y-65465238D01*
X83273333Y-65560476D01*
X83225714Y-65750952D01*
X83225714Y-65893809D01*
X83273333Y-66084285D01*
X83320952Y-66179523D01*
X83416190Y-66274761D01*
X83559047Y-66322380D01*
X83797142Y-66322380D01*
X83035238Y-66417619D02*
X82273333Y-66417619D01*
X82035238Y-66322380D02*
X82035238Y-65322380D01*
X81035238Y-66322380D02*
X81606666Y-66322380D01*
X81320952Y-66322380D02*
X81320952Y-65322380D01*
X81416190Y-65465238D01*
X81511428Y-65560476D01*
X81606666Y-65608095D01*
X78891904Y-66002380D02*
X78891904Y-65002380D01*
X78320476Y-66002380D02*
X78749047Y-65430952D01*
X78320476Y-65002380D02*
X78891904Y-65573809D01*
X122167678Y-66322380D02*
X122167678Y-65322380D01*
X121929583Y-65322380D01*
X121786726Y-65370000D01*
X121691488Y-65465238D01*
X121643869Y-65560476D01*
X121596250Y-65750952D01*
X121596250Y-65893809D01*
X121643869Y-66084285D01*
X121691488Y-66179523D01*
X121786726Y-66274761D01*
X121929583Y-66322380D01*
X122167678Y-66322380D01*
X121405773Y-66417619D02*
X120643869Y-66417619D01*
X120405773Y-65798571D02*
X120072440Y-65798571D01*
X119929583Y-66322380D02*
X120405773Y-66322380D01*
X120405773Y-65322380D01*
X119929583Y-65322380D01*
X118977202Y-66322380D02*
X119548630Y-66322380D01*
X119262916Y-66322380D02*
X119262916Y-65322380D01*
X119358154Y-65465238D01*
X119453392Y-65560476D01*
X119548630Y-65608095D01*
X117048154Y-66002380D02*
X117048154Y-65002380D01*
X116476726Y-66002380D02*
X116905297Y-65430952D01*
X116476726Y-65002380D02*
X117048154Y-65573809D01*
X157480178Y-76613630D02*
X157480178Y-75613630D01*
X157242083Y-75613630D01*
X157099226Y-75661250D01*
X157003988Y-75756488D01*
X156956369Y-75851726D01*
X156908750Y-76042202D01*
X156908750Y-76185059D01*
X156956369Y-76375535D01*
X157003988Y-76470773D01*
X157099226Y-76566011D01*
X157242083Y-76613630D01*
X157480178Y-76613630D01*
X156718273Y-76708869D02*
X155956369Y-76708869D01*
X155765892Y-76327916D02*
X155289702Y-76327916D01*
X155861130Y-76613630D02*
X155527797Y-75613630D01*
X155194464Y-76613630D01*
X154861130Y-75613630D02*
X154861130Y-76423154D01*
X154813511Y-76518392D01*
X154765892Y-76566011D01*
X154670654Y-76613630D01*
X154480178Y-76613630D01*
X154384940Y-76566011D01*
X154337321Y-76518392D01*
X154289702Y-76423154D01*
X154289702Y-75613630D01*
X153813511Y-76613630D02*
X153813511Y-75613630D01*
X153575416Y-75613630D01*
X153432559Y-75661250D01*
X153337321Y-75756488D01*
X153289702Y-75851726D01*
X153242083Y-76042202D01*
X153242083Y-76185059D01*
X153289702Y-76375535D01*
X153337321Y-76470773D01*
X153432559Y-76566011D01*
X153575416Y-76613630D01*
X153813511Y-76613630D01*
X152289702Y-76613630D02*
X152861130Y-76613630D01*
X152575416Y-76613630D02*
X152575416Y-75613630D01*
X152670654Y-75756488D01*
X152765892Y-75851726D01*
X152861130Y-75899345D01*
X158980654Y-76933630D02*
X158980654Y-75933630D01*
X158409226Y-76933630D02*
X158837797Y-76362202D01*
X158409226Y-75933630D02*
X158980654Y-76505059D01*
X144301130Y-76763869D02*
X143301130Y-76763869D01*
X143301130Y-77001964D01*
X143348750Y-77144821D01*
X143443988Y-77240059D01*
X143539226Y-77287678D01*
X143729702Y-77335297D01*
X143872559Y-77335297D01*
X144063035Y-77287678D01*
X144158273Y-77240059D01*
X144253511Y-77144821D01*
X144301130Y-77001964D01*
X144301130Y-76763869D01*
X144396369Y-77525773D02*
X144396369Y-78287678D01*
X144015416Y-78478154D02*
X144015416Y-78954345D01*
X144301130Y-78382916D02*
X143301130Y-78716250D01*
X144301130Y-79049583D01*
X144301130Y-79859107D02*
X144301130Y-79382916D01*
X143301130Y-79382916D01*
X144301130Y-80716250D02*
X144301130Y-80144821D01*
X144301130Y-80430535D02*
X143301130Y-80430535D01*
X143443988Y-80335297D01*
X143539226Y-80240059D01*
X143586845Y-80144821D01*
X144621130Y-74644345D02*
X143621130Y-74644345D01*
X144621130Y-75215773D02*
X144049702Y-74787202D01*
X143621130Y-75215773D02*
X144192559Y-74644345D01*
X122143869Y-63603630D02*
X122143869Y-62603630D01*
X121905773Y-62603630D01*
X121762916Y-62651250D01*
X121667678Y-62746488D01*
X121620059Y-62841726D01*
X121572440Y-63032202D01*
X121572440Y-63175059D01*
X121620059Y-63365535D01*
X121667678Y-63460773D01*
X121762916Y-63556011D01*
X121905773Y-63603630D01*
X122143869Y-63603630D01*
X121381964Y-63698869D02*
X120620059Y-63698869D01*
X120429583Y-63317916D02*
X119953392Y-63317916D01*
X120524821Y-63603630D02*
X120191488Y-62603630D01*
X119858154Y-63603630D01*
X119001011Y-63603630D02*
X119572440Y-63603630D01*
X119286726Y-63603630D02*
X119286726Y-62603630D01*
X119381964Y-62746488D01*
X119477202Y-62841726D01*
X119572440Y-62889345D01*
X117048154Y-63283630D02*
X117048154Y-62283630D01*
X116476726Y-63283630D02*
X116905297Y-62712202D01*
X116476726Y-62283630D02*
X117048154Y-62855059D01*
M02*
