G04 #@! TF.GenerationSoftware,KiCad,Pcbnew,(5.1.4)-1*
G04 #@! TF.CreationDate,2021-07-02T20:11:14-04:00*
G04 #@! TF.ProjectId,chayzer,63686179-7a65-4722-9e6b-696361645f70,rev?*
G04 #@! TF.SameCoordinates,Original*
G04 #@! TF.FileFunction,Copper,L2,Bot*
G04 #@! TF.FilePolarity,Positive*
%FSLAX46Y46*%
G04 Gerber Fmt 4.6, Leading zero omitted, Abs format (unit mm)*
G04 Created by KiCad (PCBNEW (5.1.4)-1) date 2021-07-02 20:11:14*
%MOMM*%
%LPD*%
G04 APERTURE LIST*
%ADD10C,1.600000*%
%ADD11R,1.600000X1.600000*%
%ADD12C,2.500000*%
%ADD13C,0.100000*%
%ADD14C,2.286000*%
%ADD15C,2.000000*%
%ADD16R,2.000000X2.000000*%
%ADD17R,2.500000X3.000000*%
%ADD18O,1.600000X2.000000*%
%ADD19R,2.550000X2.500000*%
%ADD20O,1.600000X1.600000*%
%ADD21C,0.800000*%
%ADD22C,0.250000*%
G04 APERTURE END LIST*
D10*
X49687500Y-48467500D03*
X49687500Y-51007500D03*
X49687500Y-53547500D03*
X49687500Y-56087500D03*
X49687500Y-58627500D03*
X49687500Y-61167500D03*
X49687500Y-63707500D03*
X49687500Y-66247500D03*
X49687500Y-68787500D03*
X49687500Y-71327500D03*
X49687500Y-73867500D03*
X49687500Y-76407500D03*
X34447500Y-76407500D03*
X34447500Y-73867500D03*
X34447500Y-71327500D03*
X34447500Y-68787500D03*
X34447500Y-66247500D03*
X34447500Y-63707500D03*
X34447500Y-61167500D03*
X34447500Y-58627500D03*
X34447500Y-56087500D03*
X34447500Y-53547500D03*
X34447500Y-51007500D03*
D11*
X34447500Y-48467500D03*
D12*
X158988749Y-114378874D03*
D13*
G36*
X157433670Y-115256287D02*
G01*
X158080717Y-112841472D01*
X160543828Y-113501461D01*
X159896781Y-115916276D01*
X157433670Y-115256287D01*
X157433670Y-115256287D01*
G37*
D14*
X149320973Y-106529198D03*
X156112002Y-105719247D03*
D12*
X144953276Y-113247681D03*
D13*
G36*
X143398197Y-114125094D02*
G01*
X144045244Y-111710279D01*
X146508355Y-112370268D01*
X145861308Y-114785083D01*
X143398197Y-114125094D01*
X143398197Y-114125094D01*
G37*
D15*
X151500000Y-57937500D03*
X151500000Y-53437500D03*
X145000000Y-57937500D03*
X145000000Y-53437500D03*
D16*
X158056250Y-84375000D03*
D15*
X155556250Y-84375000D03*
X153056250Y-84375000D03*
D17*
X161156250Y-91875000D03*
X149956250Y-91875000D03*
D15*
X158056250Y-98875000D03*
X153056250Y-98875000D03*
D18*
X146951250Y-46025000D03*
X144411250Y-46025000D03*
X149491250Y-46025000D03*
X152031250Y-46025000D03*
D19*
X108716250Y-74540000D03*
D14*
X97346250Y-69460000D03*
X103696250Y-66920000D03*
D19*
X94866250Y-77080000D03*
X89622500Y-55040000D03*
D14*
X78252500Y-49960000D03*
X84602500Y-47420000D03*
D19*
X75772500Y-57580000D03*
D12*
X143426249Y-99003874D03*
D13*
G36*
X141871170Y-99881287D02*
G01*
X142518217Y-97466472D01*
X144981328Y-98126461D01*
X144334281Y-100541276D01*
X141871170Y-99881287D01*
X141871170Y-99881287D01*
G37*
D14*
X133758473Y-91154198D03*
X140549502Y-90344247D03*
D12*
X129390776Y-97872681D03*
D13*
G36*
X127835697Y-98750094D02*
G01*
X128482744Y-96335279D01*
X130945855Y-96995268D01*
X130298808Y-99410083D01*
X127835697Y-98750094D01*
X127835697Y-98750094D01*
G37*
D19*
X70466250Y-55040000D03*
D14*
X59096250Y-49960000D03*
X65446250Y-47420000D03*
D19*
X56616250Y-57580000D03*
X108778750Y-55040000D03*
D14*
X97408750Y-49960000D03*
X103758750Y-47420000D03*
D19*
X94928750Y-57580000D03*
X70466250Y-74540000D03*
D14*
X59096250Y-69460000D03*
X65446250Y-66920000D03*
D19*
X56616250Y-77080000D03*
X89685000Y-74540000D03*
D14*
X78315000Y-69460000D03*
X84665000Y-66920000D03*
D19*
X75835000Y-77080000D03*
X127935000Y-74540000D03*
D14*
X116565000Y-69460000D03*
X122915000Y-66920000D03*
D19*
X114085000Y-77080000D03*
X127935000Y-55040000D03*
D14*
X116565000Y-49960000D03*
X122915000Y-47420000D03*
D19*
X114085000Y-57580000D03*
D20*
X105213750Y-63750000D03*
D11*
X97593750Y-63750000D03*
D20*
X86182500Y-61031250D03*
D11*
X78562500Y-61031250D03*
D20*
X134906250Y-82526250D03*
D11*
X134906250Y-74906250D03*
D20*
X66963750Y-61031250D03*
D11*
X59343750Y-61031250D03*
D20*
X105213750Y-61031250D03*
D11*
X97593750Y-61031250D03*
D20*
X66963750Y-63750000D03*
D11*
X59343750Y-63750000D03*
D20*
X86250000Y-63750000D03*
D11*
X78630000Y-63750000D03*
D20*
X124406250Y-63750000D03*
D11*
X116786250Y-63750000D03*
D20*
X151098750Y-78281250D03*
D11*
X158718750Y-78281250D03*
D20*
X145968750Y-82526250D03*
D11*
X145968750Y-74906250D03*
D20*
X124406250Y-61031250D03*
D11*
X116786250Y-61031250D03*
D21*
X45281250Y-75750000D03*
X47718750Y-69187500D03*
X45187500Y-58593750D03*
X46029222Y-48560472D03*
X48093750Y-63375000D03*
X53718750Y-64031250D03*
D22*
X127910000Y-55040000D02*
X127935000Y-55040000D01*
X124406250Y-58543750D02*
X127910000Y-55040000D01*
X124406250Y-61031250D02*
X124406250Y-58543750D01*
X127935000Y-53540000D02*
X127968750Y-53506250D01*
X127935000Y-55040000D02*
X127935000Y-53540000D01*
X127968750Y-53506250D02*
X127968750Y-49968750D01*
X127960000Y-49960000D02*
X116565000Y-49960000D01*
X127968750Y-49968750D02*
X127960000Y-49960000D01*
X145968750Y-100968750D02*
X145968750Y-82526250D01*
X146531250Y-101531250D02*
X145968750Y-100968750D01*
X159093750Y-101531250D02*
X146531250Y-101531250D01*
X158988749Y-114378874D02*
X158988749Y-112984779D01*
X158988749Y-112984779D02*
X159093750Y-112879778D01*
X156000000Y-108843750D02*
X159093750Y-108843750D01*
X159093750Y-108843750D02*
X159093750Y-101531250D01*
X159093750Y-112879778D02*
X159093750Y-108843750D01*
X149320973Y-106529198D02*
X150937419Y-106529198D01*
X150937419Y-106529198D02*
X151095721Y-106687500D01*
X151095721Y-106687500D02*
X153843750Y-106687500D01*
X153843750Y-106687500D02*
X156000000Y-108843750D01*
X135956250Y-74906250D02*
X145968750Y-74906250D01*
X134906250Y-74906250D02*
X135956250Y-74906250D01*
X158718750Y-74906250D02*
X158718750Y-78281250D01*
X145968750Y-74906250D02*
X158718750Y-74906250D01*
X134906250Y-73856250D02*
X128718750Y-67668750D01*
X134906250Y-74906250D02*
X134906250Y-73856250D01*
X128718750Y-67668750D02*
X128718750Y-62437500D01*
X117836250Y-63750000D02*
X116786250Y-63750000D01*
X119148750Y-62437500D02*
X117836250Y-63750000D01*
X128718750Y-62437500D02*
X119148750Y-62437500D01*
X151098750Y-82245000D02*
X151098750Y-78281250D01*
X148781250Y-84562500D02*
X151098750Y-82245000D01*
X152906250Y-88687500D02*
X148781250Y-84562500D01*
X152906250Y-92310787D02*
X152906250Y-88687500D01*
X158056250Y-98875000D02*
X158056250Y-97460787D01*
X158056250Y-97460787D02*
X152906250Y-92310787D01*
X127875000Y-67218750D02*
X124406250Y-63750000D01*
X127935000Y-74540000D02*
X127935000Y-73040000D01*
X127935000Y-73040000D02*
X127875000Y-72980000D01*
X116565000Y-69460000D02*
X117383750Y-69460000D01*
X117383750Y-69460000D02*
X118031250Y-68812500D01*
X118218750Y-69000000D02*
X127875000Y-69000000D01*
X118031250Y-68812500D02*
X118218750Y-69000000D01*
X127875000Y-72980000D02*
X127875000Y-69000000D01*
X127875000Y-69000000D02*
X127875000Y-67218750D01*
X89531250Y-67031250D02*
X86250000Y-63750000D01*
X89685000Y-74540000D02*
X89685000Y-73040000D01*
X89685000Y-73040000D02*
X89531250Y-72886250D01*
X78315000Y-69460000D02*
X78946250Y-69460000D01*
X78946250Y-69460000D02*
X79593750Y-68812500D01*
X79687500Y-68906250D02*
X89531250Y-68906250D01*
X79593750Y-68812500D02*
X79687500Y-68906250D01*
X89531250Y-72886250D02*
X89531250Y-68906250D01*
X89531250Y-68906250D02*
X89531250Y-67031250D01*
X70466250Y-67252500D02*
X66963750Y-63750000D01*
X59096250Y-69460000D02*
X59633750Y-69460000D01*
X59633750Y-69460000D02*
X60281250Y-68812500D01*
X60315000Y-68846250D02*
X70466250Y-68846250D01*
X60281250Y-68812500D02*
X60315000Y-68846250D01*
X70466250Y-74540000D02*
X70466250Y-68846250D01*
X70466250Y-68846250D02*
X70466250Y-67252500D01*
X108753750Y-55040000D02*
X108778750Y-55040000D01*
X105213750Y-58580000D02*
X108753750Y-55040000D01*
X105213750Y-61031250D02*
X105213750Y-58580000D01*
X108778750Y-53540000D02*
X108750000Y-53511250D01*
X108778750Y-55040000D02*
X108778750Y-53540000D01*
X108750000Y-53511250D02*
X108750000Y-49968750D01*
X108741250Y-49960000D02*
X97408750Y-49960000D01*
X108750000Y-49968750D02*
X108741250Y-49960000D01*
X70466250Y-53239666D02*
X70406250Y-53179666D01*
X70466250Y-55040000D02*
X70466250Y-53239666D01*
X70406250Y-53179666D02*
X70406250Y-49968750D01*
X70397500Y-49960000D02*
X59096250Y-49960000D01*
X70406250Y-49968750D02*
X70397500Y-49960000D01*
X70441250Y-55040000D02*
X70466250Y-55040000D01*
X66963750Y-58517500D02*
X70441250Y-55040000D01*
X66963750Y-61031250D02*
X66963750Y-58517500D01*
X143426249Y-99003874D02*
X144517579Y-97912544D01*
X136151250Y-82526250D02*
X134906250Y-82526250D01*
X144517579Y-90892579D02*
X136151250Y-82526250D01*
X140580079Y-93611329D02*
X144517579Y-93611329D01*
X144517579Y-97912544D02*
X144517579Y-93611329D01*
X133758473Y-91154198D02*
X135374919Y-91154198D01*
X144517579Y-93611329D02*
X144517579Y-90892579D01*
X135374919Y-91154198D02*
X135404117Y-91125000D01*
X135404117Y-91125000D02*
X138093750Y-91125000D01*
X138093750Y-91125000D02*
X140580079Y-93611329D01*
X89597500Y-55040000D02*
X89622500Y-55040000D01*
X86182500Y-58455000D02*
X89597500Y-55040000D01*
X86182500Y-61031250D02*
X86182500Y-58455000D01*
X89622500Y-53540000D02*
X89625000Y-53537500D01*
X89622500Y-55040000D02*
X89622500Y-53540000D01*
X89625000Y-53537500D02*
X89625000Y-49968750D01*
X89616250Y-49960000D02*
X78252500Y-49960000D01*
X89625000Y-49968750D02*
X89616250Y-49960000D01*
X108656250Y-67192500D02*
X105213750Y-63750000D01*
X108716250Y-74540000D02*
X108716250Y-73040000D01*
X108716250Y-73040000D02*
X108656250Y-72980000D01*
X97346250Y-69460000D02*
X98165000Y-69460000D01*
X98165000Y-69460000D02*
X98718750Y-68906250D01*
X98812500Y-69000000D02*
X108656250Y-69000000D01*
X98718750Y-68906250D02*
X98812500Y-69000000D01*
X108656250Y-72980000D02*
X108656250Y-69000000D01*
X108656250Y-69000000D02*
X108656250Y-67192500D01*
X121298554Y-47420000D02*
X121281054Y-47437500D01*
X122915000Y-47420000D02*
X121298554Y-47420000D01*
X121281054Y-47437500D02*
X113343750Y-47437500D01*
X113343750Y-47437500D02*
X113343750Y-54656250D01*
X114085000Y-56080000D02*
X114085000Y-57580000D01*
X114085000Y-55397500D02*
X114085000Y-56080000D01*
X113343750Y-54656250D02*
X114085000Y-55397500D01*
X122915000Y-66920000D02*
X113420000Y-66920000D01*
X113420000Y-66920000D02*
X113437500Y-66937500D01*
X114085000Y-74522500D02*
X114085000Y-77080000D01*
X113437500Y-73875000D02*
X114085000Y-74522500D01*
X113437500Y-59727500D02*
X113437500Y-67218750D01*
X114085000Y-59080000D02*
X113437500Y-59727500D01*
X114085000Y-57580000D02*
X114085000Y-59080000D01*
X113437500Y-66937500D02*
X113437500Y-67218750D01*
X113437500Y-67218750D02*
X113437500Y-73875000D01*
X40313750Y-76407500D02*
X34447500Y-76407500D01*
X40875000Y-76968750D02*
X40313750Y-76407500D01*
X40875000Y-80437500D02*
X40875000Y-76968750D01*
X112227500Y-80437500D02*
X40875000Y-80437500D01*
X114085000Y-77080000D02*
X114085000Y-78580000D01*
X114085000Y-78580000D02*
X112227500Y-80437500D01*
X144953276Y-108546724D02*
X144953276Y-113247681D01*
X154495556Y-105719247D02*
X152370059Y-103593750D01*
X152370059Y-103593750D02*
X147187500Y-103593750D01*
X156112002Y-105719247D02*
X154495556Y-105719247D01*
X147187500Y-103593750D02*
X147187500Y-106406250D01*
X147187500Y-106406250D02*
X147093750Y-106406250D01*
X147093750Y-106406250D02*
X144953276Y-108546724D01*
X45281250Y-75750000D02*
X45281250Y-71625000D01*
X45281250Y-71625000D02*
X47718750Y-69187500D01*
X82986054Y-47420000D02*
X82968554Y-47437500D01*
X84602500Y-47420000D02*
X82986054Y-47420000D01*
X82968554Y-47437500D02*
X75000000Y-47437500D01*
X75000000Y-47437500D02*
X75000000Y-54656250D01*
X75772500Y-55428750D02*
X75772500Y-57580000D01*
X75000000Y-54656250D02*
X75772500Y-55428750D01*
X83048554Y-66920000D02*
X83031054Y-66937500D01*
X84665000Y-66920000D02*
X83048554Y-66920000D01*
X83031054Y-66937500D02*
X75093750Y-66937500D01*
X75835000Y-74616250D02*
X75835000Y-77080000D01*
X75093750Y-73875000D02*
X75835000Y-74616250D01*
X75093750Y-59758750D02*
X75093750Y-67031250D01*
X75772500Y-59080000D02*
X75093750Y-59758750D01*
X75772500Y-57580000D02*
X75772500Y-59080000D01*
X75093750Y-66937500D02*
X75093750Y-67031250D01*
X75093750Y-67031250D02*
X75093750Y-73875000D01*
X39546250Y-71327500D02*
X34447500Y-71327500D01*
X42375000Y-74156250D02*
X39546250Y-71327500D01*
X42375000Y-79125000D02*
X42375000Y-74156250D01*
X72265000Y-79125000D02*
X42375000Y-79125000D01*
X75835000Y-77080000D02*
X74310000Y-77080000D01*
X74310000Y-77080000D02*
X72265000Y-79125000D01*
X65446250Y-47420000D02*
X55951250Y-47420000D01*
X55951250Y-47420000D02*
X55968750Y-47437500D01*
X55968750Y-47437500D02*
X55968750Y-54750000D01*
X56616250Y-55397500D02*
X56616250Y-57580000D01*
X55968750Y-54750000D02*
X56616250Y-55397500D01*
X63829804Y-66920000D02*
X63812304Y-66937500D01*
X65446250Y-66920000D02*
X63829804Y-66920000D01*
X63812304Y-66937500D02*
X55875000Y-66937500D01*
X56616250Y-74710000D02*
X56616250Y-77080000D01*
X55875000Y-73968750D02*
X56616250Y-74710000D01*
X55875000Y-59821250D02*
X55875000Y-67125000D01*
X56616250Y-59080000D02*
X55875000Y-59821250D01*
X56616250Y-57580000D02*
X56616250Y-59080000D01*
X55875000Y-66937500D02*
X55875000Y-67125000D01*
X35735000Y-67500000D02*
X34447500Y-68787500D01*
X55875000Y-67500000D02*
X35735000Y-67500000D01*
X55875000Y-67500000D02*
X55875000Y-73968750D01*
X55875000Y-67125000D02*
X55875000Y-67500000D01*
X102142304Y-47420000D02*
X102124804Y-47437500D01*
X103758750Y-47420000D02*
X102142304Y-47420000D01*
X102124804Y-47437500D02*
X94312500Y-47437500D01*
X94312500Y-47437500D02*
X94312500Y-54656250D01*
X94928750Y-55272500D02*
X94928750Y-57580000D01*
X94312500Y-54656250D02*
X94928750Y-55272500D01*
X102079804Y-66920000D02*
X102062304Y-66937500D01*
X103696250Y-66920000D02*
X102079804Y-66920000D01*
X102062304Y-66937500D02*
X94125000Y-66937500D01*
X94866250Y-74616250D02*
X94866250Y-77080000D01*
X94125000Y-73875000D02*
X94866250Y-74616250D01*
X94125000Y-59883750D02*
X94125000Y-67218750D01*
X94928750Y-59080000D02*
X94125000Y-59883750D01*
X94928750Y-57580000D02*
X94928750Y-59080000D01*
X94125000Y-66937500D02*
X94125000Y-67218750D01*
X94125000Y-67218750D02*
X94125000Y-73875000D01*
X40961250Y-73867500D02*
X34447500Y-73867500D01*
X94866250Y-77080000D02*
X94866250Y-78580000D01*
X94875000Y-79875000D02*
X41718750Y-79875000D01*
X94875000Y-78588750D02*
X94875000Y-79875000D01*
X41718750Y-79875000D02*
X41718750Y-74625000D01*
X94866250Y-78580000D02*
X94875000Y-78588750D01*
X41718750Y-74625000D02*
X40961250Y-73867500D01*
X129390776Y-92984224D02*
X129390776Y-97872681D01*
X131437500Y-90937500D02*
X129390776Y-92984224D01*
X131437500Y-88125000D02*
X131437500Y-90937500D01*
X136713809Y-88125000D02*
X131437500Y-88125000D01*
X140549502Y-90344247D02*
X138933056Y-90344247D01*
X138933056Y-90344247D02*
X136713809Y-88125000D01*
X127968750Y-80343750D02*
X127406250Y-80906250D01*
X79031250Y-80906250D02*
X70500000Y-80906250D01*
X131437500Y-88125000D02*
X131437500Y-83812500D01*
X127406250Y-80906250D02*
X111656250Y-80906250D01*
X131437500Y-83812500D02*
X127968750Y-80343750D01*
X70500000Y-80906250D02*
X53693750Y-80906250D01*
X111656250Y-80906250D02*
X79031250Y-80906250D01*
X40687500Y-80906250D02*
X39281250Y-79500000D01*
X39281250Y-79500000D02*
X39281250Y-78562500D01*
X53693750Y-80906250D02*
X40687500Y-80906250D01*
X39281250Y-78562500D02*
X39281250Y-77718750D01*
X39281250Y-77718750D02*
X33468750Y-77718750D01*
X33468750Y-77718750D02*
X33093750Y-77343750D01*
X33093750Y-77343750D02*
X32906250Y-77156250D01*
X32906250Y-77156250D02*
X32906250Y-67500000D01*
X32906250Y-67500000D02*
X32906250Y-62625000D01*
X32906250Y-62625000D02*
X32906250Y-62437500D01*
X32906250Y-62437500D02*
X41343750Y-62437500D01*
X41343750Y-62437500D02*
X45187500Y-58593750D01*
X154218750Y-55218750D02*
X151500000Y-57937500D01*
X154218750Y-50531250D02*
X154218750Y-55218750D01*
X147667500Y-50531250D02*
X154218750Y-50531250D01*
X144411250Y-46025000D02*
X144411250Y-47275000D01*
X144411250Y-47275000D02*
X147667500Y-50531250D01*
X146414213Y-57937500D02*
X151500000Y-57937500D01*
X145000000Y-57937500D02*
X146414213Y-57937500D01*
X47711250Y-51007500D02*
X49687500Y-51007500D01*
X124493750Y-46025000D02*
X123843750Y-45375000D01*
X144411250Y-46025000D02*
X124493750Y-46025000D01*
X123843750Y-45375000D02*
X48000000Y-45375000D01*
X48000000Y-45375000D02*
X47343750Y-46031250D01*
X47343750Y-46031250D02*
X47343750Y-51375000D01*
X47343750Y-51375000D02*
X47711250Y-51007500D01*
X46312500Y-46762500D02*
X34447500Y-58627500D01*
X152031250Y-44775000D02*
X151506250Y-44250000D01*
X151506250Y-44250000D02*
X136031250Y-44250000D01*
X136031250Y-44250000D02*
X135656250Y-44625000D01*
X135656250Y-44625000D02*
X46312500Y-44625000D01*
X152031250Y-46025000D02*
X152031250Y-44775000D01*
X46312500Y-44625000D02*
X46312500Y-46762500D01*
X46029222Y-62589222D02*
X49687500Y-66247500D01*
X46029222Y-48560472D02*
X46029222Y-62589222D01*
X48093750Y-63375000D02*
X48093750Y-61312500D01*
X48238750Y-61167500D02*
X49687500Y-61167500D01*
X48093750Y-61312500D02*
X48238750Y-61167500D01*
X150085787Y-53437500D02*
X145000000Y-53437500D01*
X151500000Y-53437500D02*
X150085787Y-53437500D01*
X51640000Y-55500000D02*
X49687500Y-53547500D01*
X53718750Y-64031250D02*
X53718750Y-55500000D01*
X53718750Y-55500000D02*
X51640000Y-55500000D01*
M02*
