G04 #@! TF.GenerationSoftware,KiCad,Pcbnew,(5.1.4)-1*
G04 #@! TF.CreationDate,2021-07-02T20:11:14-04:00*
G04 #@! TF.ProjectId,chayzer,63686179-7a65-4722-9e6b-696361645f70,rev?*
G04 #@! TF.SameCoordinates,Original*
G04 #@! TF.FileFunction,Copper,L1,Top*
G04 #@! TF.FilePolarity,Positive*
%FSLAX46Y46*%
G04 Gerber Fmt 4.6, Leading zero omitted, Abs format (unit mm)*
G04 Created by KiCad (PCBNEW (5.1.4)-1) date 2021-07-02 20:11:14*
%MOMM*%
%LPD*%
G04 APERTURE LIST*
%ADD10C,1.600000*%
%ADD11R,1.600000X1.600000*%
%ADD12C,2.286000*%
%ADD13C,2.000000*%
%ADD14R,2.000000X2.000000*%
%ADD15R,2.500000X3.000000*%
%ADD16O,1.600000X2.000000*%
%ADD17O,1.600000X1.600000*%
%ADD18C,0.800000*%
%ADD19C,0.250000*%
G04 APERTURE END LIST*
D10*
X49687500Y-48467500D03*
X49687500Y-51007500D03*
X49687500Y-53547500D03*
X49687500Y-56087500D03*
X49687500Y-58627500D03*
X49687500Y-61167500D03*
X49687500Y-63707500D03*
X49687500Y-66247500D03*
X49687500Y-68787500D03*
X49687500Y-71327500D03*
X49687500Y-73867500D03*
X49687500Y-76407500D03*
X34447500Y-76407500D03*
X34447500Y-73867500D03*
X34447500Y-71327500D03*
X34447500Y-68787500D03*
X34447500Y-66247500D03*
X34447500Y-63707500D03*
X34447500Y-61167500D03*
X34447500Y-58627500D03*
X34447500Y-56087500D03*
X34447500Y-53547500D03*
X34447500Y-51007500D03*
D11*
X34447500Y-48467500D03*
D12*
X149320973Y-106529198D03*
X156112002Y-105719247D03*
D13*
X151500000Y-57937500D03*
X151500000Y-53437500D03*
X145000000Y-57937500D03*
X145000000Y-53437500D03*
D14*
X158056250Y-84375000D03*
D13*
X155556250Y-84375000D03*
X153056250Y-84375000D03*
D15*
X161156250Y-91875000D03*
X149956250Y-91875000D03*
D13*
X158056250Y-98875000D03*
X153056250Y-98875000D03*
D16*
X146951250Y-46025000D03*
X144411250Y-46025000D03*
X149491250Y-46025000D03*
X152031250Y-46025000D03*
D12*
X97346250Y-69460000D03*
X103696250Y-66920000D03*
X78252500Y-49960000D03*
X84602500Y-47420000D03*
X133758473Y-91154198D03*
X140549502Y-90344247D03*
X59096250Y-49960000D03*
X65446250Y-47420000D03*
X97408750Y-49960000D03*
X103758750Y-47420000D03*
X59096250Y-69460000D03*
X65446250Y-66920000D03*
X78315000Y-69460000D03*
X84665000Y-66920000D03*
X116565000Y-69460000D03*
X122915000Y-66920000D03*
X116565000Y-49960000D03*
X122915000Y-47420000D03*
D17*
X105213750Y-63750000D03*
D11*
X97593750Y-63750000D03*
D17*
X86182500Y-61031250D03*
D11*
X78562500Y-61031250D03*
D17*
X134906250Y-82526250D03*
D11*
X134906250Y-74906250D03*
D17*
X66963750Y-61031250D03*
D11*
X59343750Y-61031250D03*
D17*
X105213750Y-61031250D03*
D11*
X97593750Y-61031250D03*
D17*
X66963750Y-63750000D03*
D11*
X59343750Y-63750000D03*
D17*
X86250000Y-63750000D03*
D11*
X78630000Y-63750000D03*
D17*
X124406250Y-63750000D03*
D11*
X116786250Y-63750000D03*
D17*
X151098750Y-78281250D03*
D11*
X158718750Y-78281250D03*
D17*
X145968750Y-82526250D03*
D11*
X145968750Y-74906250D03*
D17*
X124406250Y-61031250D03*
D11*
X116786250Y-61031250D03*
D18*
X45281250Y-75750000D03*
X47718750Y-69187500D03*
X45187500Y-58593750D03*
X46029222Y-48560472D03*
X48093750Y-63375000D03*
X53718750Y-64031250D03*
D19*
X60393750Y-61031250D02*
X62831250Y-58593750D01*
X59343750Y-61031250D02*
X60393750Y-61031250D01*
X62831250Y-58593750D02*
X71718750Y-58593750D01*
X74156250Y-61031250D02*
X78562500Y-61031250D01*
X71718750Y-58593750D02*
X74156250Y-61031250D01*
X79612500Y-61031250D02*
X82050000Y-58593750D01*
X78562500Y-61031250D02*
X79612500Y-61031250D01*
X82050000Y-58593750D02*
X91593750Y-58593750D01*
X94031250Y-61031250D02*
X97593750Y-61031250D01*
X91593750Y-58593750D02*
X94031250Y-61031250D01*
X98643750Y-61031250D02*
X101362500Y-58312500D01*
X97593750Y-61031250D02*
X98643750Y-61031250D01*
X101362500Y-58312500D02*
X110437500Y-58312500D01*
X113156250Y-61031250D02*
X116786250Y-61031250D01*
X110437500Y-58312500D02*
X113156250Y-61031250D01*
X38248750Y-59906250D02*
X34447500Y-63707500D01*
X57168750Y-59906250D02*
X38248750Y-59906250D01*
X59343750Y-61031250D02*
X58293750Y-61031250D01*
X58293750Y-61031250D02*
X57168750Y-59906250D01*
X115736250Y-63750000D02*
X114423750Y-62437500D01*
X116786250Y-63750000D02*
X115736250Y-63750000D01*
X114423750Y-62437500D02*
X101531250Y-62437500D01*
X100218750Y-63750000D02*
X97593750Y-63750000D01*
X101531250Y-62437500D02*
X100218750Y-63750000D01*
X96543750Y-63750000D02*
X95137500Y-62343750D01*
X97593750Y-63750000D02*
X96543750Y-63750000D01*
X95137500Y-62343750D02*
X82500000Y-62343750D01*
X81093750Y-63750000D02*
X78630000Y-63750000D01*
X82500000Y-62343750D02*
X81093750Y-63750000D01*
X77580000Y-63750000D02*
X76267500Y-62437500D01*
X78630000Y-63750000D02*
X77580000Y-63750000D01*
X76267500Y-62437500D02*
X63187500Y-62437500D01*
X61875000Y-63750000D02*
X59343750Y-63750000D01*
X63187500Y-62437500D02*
X61875000Y-63750000D01*
X38257500Y-62437500D02*
X34447500Y-66247500D01*
X56981250Y-62437500D02*
X38257500Y-62437500D01*
X59343750Y-63750000D02*
X58293750Y-63750000D01*
X58293750Y-63750000D02*
X56981250Y-62437500D01*
X156112002Y-105719247D02*
X151968750Y-101575995D01*
X151968750Y-101575995D02*
X151968750Y-100687500D01*
X151968750Y-100687500D02*
X151968750Y-100312500D01*
X151968750Y-100312500D02*
X142968750Y-91312500D01*
X142968750Y-91312500D02*
X142968750Y-89812500D01*
X142968750Y-89812500D02*
X142968750Y-89625000D01*
X142968750Y-89625000D02*
X138937500Y-85593750D01*
X138937500Y-85593750D02*
X138843750Y-85500000D01*
X138843750Y-85500000D02*
X132656250Y-85500000D01*
X132656250Y-85500000D02*
X127781250Y-80625000D01*
X127781250Y-80625000D02*
X118500000Y-80625000D01*
X118500000Y-80625000D02*
X115500000Y-80625000D01*
X115500000Y-80625000D02*
X109968750Y-80625000D01*
X109968750Y-80625000D02*
X106781250Y-80625000D01*
X106781250Y-80625000D02*
X97781250Y-80625000D01*
X97781250Y-80625000D02*
X85781250Y-80625000D01*
X85781250Y-80625000D02*
X76406250Y-80625000D01*
X76406250Y-80625000D02*
X70781250Y-80625000D01*
X70781250Y-80625000D02*
X65906250Y-80625000D01*
X65906250Y-80625000D02*
X49031250Y-80625000D01*
X49031250Y-80625000D02*
X45281250Y-76875000D01*
X45281250Y-76875000D02*
X45281250Y-75750000D01*
X47718750Y-65676250D02*
X49687500Y-63707500D01*
X47718750Y-69187500D02*
X47718750Y-65676250D01*
X49653750Y-58593750D02*
X49687500Y-58627500D01*
X45187500Y-58593750D02*
X49653750Y-58593750D01*
X51937500Y-53837500D02*
X49687500Y-56087500D01*
X51937500Y-47906250D02*
X51937500Y-53837500D01*
X60281250Y-47906250D02*
X51937500Y-47906250D01*
X61687500Y-49312500D02*
X60281250Y-47906250D01*
X67125000Y-49312500D02*
X61687500Y-49312500D01*
X68625000Y-47812500D02*
X67125000Y-49312500D01*
X106125000Y-48000000D02*
X106125000Y-48093750D01*
X104531250Y-49687500D02*
X99937500Y-49687500D01*
X117843750Y-48000000D02*
X106125000Y-48000000D01*
X119156250Y-49312500D02*
X117843750Y-48000000D01*
X146951250Y-46025000D02*
X146951250Y-47275000D01*
X144913750Y-49312500D02*
X119156250Y-49312500D01*
X87187500Y-47906250D02*
X85500000Y-49593750D01*
X146951250Y-47275000D02*
X144913750Y-49312500D01*
X106125000Y-48093750D02*
X104531250Y-49687500D01*
X99937500Y-49125000D02*
X98718750Y-47906250D01*
X99937500Y-49687500D02*
X99937500Y-49125000D01*
X98718750Y-47906250D02*
X87187500Y-47906250D01*
X80906250Y-49500000D02*
X79218750Y-47812500D01*
X85500000Y-49593750D02*
X80906250Y-49593750D01*
X80906250Y-49593750D02*
X80906250Y-49500000D01*
X79218750Y-47812500D02*
X68625000Y-47812500D01*
X155556250Y-61993750D02*
X155556250Y-84375000D01*
X151500000Y-57937500D02*
X155556250Y-61993750D01*
X51271250Y-44343750D02*
X34447500Y-61167500D01*
X149060000Y-44343750D02*
X51271250Y-44343750D01*
X149491250Y-46025000D02*
X149491250Y-44775000D01*
X149491250Y-44775000D02*
X149060000Y-44343750D01*
X158056250Y-83125000D02*
X156187500Y-81256250D01*
X158056250Y-84375000D02*
X158056250Y-83125000D01*
X156187500Y-81256250D02*
X156187500Y-43781250D01*
X156187500Y-43781250D02*
X124406250Y-43781250D01*
X124406250Y-43781250D02*
X88687500Y-43781250D01*
X88687500Y-43781250D02*
X50625000Y-43781250D01*
X50625000Y-43781250D02*
X50625000Y-43964694D01*
X50625000Y-43964694D02*
X46029222Y-48560472D01*
X50906250Y-77626250D02*
X49687500Y-76407500D01*
X50906250Y-79593750D02*
X50906250Y-77626250D01*
X128250000Y-79593750D02*
X50906250Y-79593750D01*
X153056250Y-84375000D02*
X133031250Y-84375000D01*
X133031250Y-84375000D02*
X128250000Y-79593750D01*
X153056250Y-98875000D02*
X139212500Y-85031250D01*
X139212500Y-85031250D02*
X138187500Y-85031250D01*
X138187500Y-85031250D02*
X132937500Y-85031250D01*
X132937500Y-85031250D02*
X132468750Y-84562500D01*
X132468750Y-84562500D02*
X132375000Y-84468750D01*
X132375000Y-84468750D02*
X128062500Y-80156250D01*
X128062500Y-80156250D02*
X115968750Y-80156250D01*
X115968750Y-80156250D02*
X77718750Y-80156250D01*
X77718750Y-80156250D02*
X75093750Y-80156250D01*
X75093750Y-80156250D02*
X70687500Y-80156250D01*
X70687500Y-80156250D02*
X56531250Y-80156250D01*
X46406250Y-75730160D02*
X46406250Y-65906250D01*
X56531250Y-80156250D02*
X50832340Y-80156250D01*
X50832340Y-80156250D02*
X46406250Y-75730160D01*
X46406250Y-65906250D02*
X46406250Y-65062500D01*
X46406250Y-65062500D02*
X48093750Y-63375000D01*
X76204251Y-65451999D02*
X55139499Y-65451999D01*
X80437500Y-68906250D02*
X76593750Y-65062500D01*
X76593750Y-65062500D02*
X76204251Y-65451999D01*
X118031250Y-67125000D02*
X117656250Y-67500000D01*
X104250000Y-69187500D02*
X104062500Y-69000000D01*
X120093750Y-69187500D02*
X118031250Y-67125000D01*
X145000000Y-53437500D02*
X143585787Y-53437500D01*
X128625000Y-68398287D02*
X128625000Y-69187500D01*
X99937500Y-69000000D02*
X99937500Y-68906250D01*
X97781250Y-66750000D02*
X88406250Y-66750000D01*
X143585787Y-53437500D02*
X128625000Y-68398287D01*
X128625000Y-69187500D02*
X120093750Y-69187500D01*
X117656250Y-67500000D02*
X105937500Y-67500000D01*
X105937500Y-67500000D02*
X104250000Y-69187500D01*
X104062500Y-69000000D02*
X99937500Y-69000000D01*
X99937500Y-68906250D02*
X97781250Y-66750000D01*
X88406250Y-66750000D02*
X86156250Y-69000000D01*
X86156250Y-69000000D02*
X86062500Y-68906250D01*
X86062500Y-68906250D02*
X80437500Y-68906250D01*
X55139499Y-65451999D02*
X53718750Y-64031250D01*
M02*
