G04 #@! TF.GenerationSoftware,KiCad,Pcbnew,(5.1.4)-1*
G04 #@! TF.CreationDate,2021-07-29T18:33:23-04:00*
G04 #@! TF.ProjectId,chayzer,63686179-7a65-4722-9e6b-696361645f70,rev?*
G04 #@! TF.SameCoordinates,Original*
G04 #@! TF.FileFunction,Soldermask,Top*
G04 #@! TF.FilePolarity,Negative*
%FSLAX46Y46*%
G04 Gerber Fmt 4.6, Leading zero omitted, Abs format (unit mm)*
G04 Created by KiCad (PCBNEW (5.1.4)-1) date 2021-07-29 18:33:23*
%MOMM*%
%LPD*%
G04 APERTURE LIST*
%ADD10C,0.100000*%
G04 APERTURE END LIST*
D10*
G36*
X200878083Y-137197055D02*
G01*
X201027908Y-137226857D01*
X201310172Y-137343774D01*
X201564203Y-137513512D01*
X201780239Y-137729548D01*
X201949977Y-137983579D01*
X202066894Y-138265843D01*
X202066894Y-138265844D01*
X202126498Y-138565492D01*
X202126498Y-138871014D01*
X202096696Y-139020838D01*
X202066894Y-139170663D01*
X201949977Y-139452927D01*
X201780239Y-139706958D01*
X201564203Y-139922994D01*
X201310172Y-140092732D01*
X201027908Y-140209649D01*
X200878083Y-140239451D01*
X200728259Y-140269253D01*
X200422737Y-140269253D01*
X200272913Y-140239451D01*
X200123088Y-140209649D01*
X199840824Y-140092732D01*
X199586793Y-139922994D01*
X199370757Y-139706958D01*
X199201019Y-139452927D01*
X199084102Y-139170663D01*
X199054300Y-139020838D01*
X199024498Y-138871014D01*
X199024498Y-138565492D01*
X199084102Y-138265844D01*
X199084102Y-138265843D01*
X199201019Y-137983579D01*
X199370757Y-137729548D01*
X199586793Y-137513512D01*
X199840824Y-137343774D01*
X200123088Y-137226857D01*
X200272913Y-137197055D01*
X200422737Y-137167253D01*
X200728259Y-137167253D01*
X200878083Y-137197055D01*
X200878083Y-137197055D01*
G37*
G36*
X207669112Y-136387104D02*
G01*
X207818937Y-136416906D01*
X208101201Y-136533823D01*
X208355232Y-136703561D01*
X208571268Y-136919597D01*
X208741006Y-137173628D01*
X208857923Y-137455892D01*
X208887725Y-137605717D01*
X208912357Y-137729548D01*
X208917527Y-137755542D01*
X208917527Y-138061062D01*
X208857923Y-138360712D01*
X208741006Y-138642976D01*
X208571268Y-138897007D01*
X208355232Y-139113043D01*
X208101201Y-139282781D01*
X207818937Y-139399698D01*
X207669112Y-139429500D01*
X207519288Y-139459302D01*
X207213766Y-139459302D01*
X207063942Y-139429500D01*
X206914117Y-139399698D01*
X206631853Y-139282781D01*
X206377822Y-139113043D01*
X206161786Y-138897007D01*
X205992048Y-138642976D01*
X205875131Y-138360712D01*
X205815527Y-138061062D01*
X205815527Y-137755542D01*
X205820698Y-137729548D01*
X205845329Y-137605717D01*
X205875131Y-137455892D01*
X205992048Y-137173628D01*
X206161786Y-136919597D01*
X206377822Y-136703561D01*
X206631853Y-136533823D01*
X206914117Y-136416906D01*
X207063942Y-136387104D01*
X207213766Y-136357302D01*
X207519288Y-136357302D01*
X207669112Y-136387104D01*
X207669112Y-136387104D01*
G37*
G36*
X209426605Y-134898980D02*
G01*
X209513728Y-134916310D01*
X209623151Y-134961635D01*
X209677864Y-134984298D01*
X209798979Y-135065224D01*
X209825581Y-135082999D01*
X209951205Y-135208623D01*
X209951207Y-135208626D01*
X210049906Y-135356340D01*
X210049906Y-135356341D01*
X210117894Y-135520476D01*
X210152553Y-135694722D01*
X210152553Y-135872380D01*
X210117894Y-136046626D01*
X210113544Y-136057127D01*
X210049906Y-136210762D01*
X210003030Y-136280917D01*
X209951205Y-136358479D01*
X209825581Y-136484103D01*
X209825578Y-136484105D01*
X209677864Y-136582804D01*
X209623151Y-136605467D01*
X209513728Y-136650792D01*
X209426605Y-136668121D01*
X209339484Y-136685451D01*
X209161822Y-136685451D01*
X209074701Y-136668121D01*
X208987578Y-136650792D01*
X208878155Y-136605467D01*
X208823442Y-136582804D01*
X208675728Y-136484105D01*
X208675725Y-136484103D01*
X208550101Y-136358479D01*
X208498276Y-136280917D01*
X208451400Y-136210762D01*
X208387762Y-136057127D01*
X208383412Y-136046626D01*
X208348753Y-135872380D01*
X208348753Y-135694722D01*
X208383412Y-135520476D01*
X208451400Y-135356341D01*
X208451400Y-135356340D01*
X208550099Y-135208626D01*
X208550101Y-135208623D01*
X208675725Y-135082999D01*
X208702327Y-135065224D01*
X208823442Y-134984298D01*
X208878155Y-134961635D01*
X208987578Y-134916310D01*
X209074701Y-134898980D01*
X209161822Y-134881651D01*
X209339484Y-134881651D01*
X209426605Y-134898980D01*
X209426605Y-134898980D01*
G37*
G36*
X204940224Y-132502434D02*
G01*
X205125121Y-132579021D01*
X205312373Y-132656583D01*
X205647298Y-132880373D01*
X205932127Y-133165202D01*
X206155917Y-133500127D01*
X206155917Y-133500128D01*
X206310066Y-133872276D01*
X206388650Y-134267344D01*
X206388650Y-134670156D01*
X206310066Y-135065224D01*
X206302704Y-135082997D01*
X206155917Y-135437373D01*
X205932127Y-135772298D01*
X205647298Y-136057127D01*
X205312373Y-136280917D01*
X205158224Y-136344767D01*
X204940224Y-136435066D01*
X204545156Y-136513650D01*
X204142344Y-136513650D01*
X203747276Y-136435066D01*
X203529276Y-136344767D01*
X203375127Y-136280917D01*
X203040202Y-136057127D01*
X202755373Y-135772298D01*
X202531583Y-135437373D01*
X202384796Y-135082997D01*
X202377434Y-135065224D01*
X202298850Y-134670156D01*
X202298850Y-134267344D01*
X202377434Y-133872276D01*
X202531583Y-133500128D01*
X202531583Y-133500127D01*
X202755373Y-133165202D01*
X203040202Y-132880373D01*
X203375127Y-132656583D01*
X203562379Y-132579021D01*
X203747276Y-132502434D01*
X204142344Y-132423850D01*
X204545156Y-132423850D01*
X204940224Y-132502434D01*
X204940224Y-132502434D01*
G37*
G36*
X199612799Y-132269378D02*
G01*
X199699922Y-132286708D01*
X199809345Y-132332033D01*
X199864058Y-132354696D01*
X200010780Y-132452732D01*
X200011775Y-132453397D01*
X200137399Y-132579021D01*
X200137401Y-132579024D01*
X200236100Y-132726738D01*
X200236100Y-132726739D01*
X200304088Y-132890874D01*
X200338747Y-133065120D01*
X200338747Y-133242778D01*
X200304088Y-133417024D01*
X200258763Y-133526447D01*
X200236100Y-133581160D01*
X200138064Y-133727882D01*
X200137399Y-133728877D01*
X200011775Y-133854501D01*
X200011772Y-133854503D01*
X199864058Y-133953202D01*
X199809345Y-133975865D01*
X199699922Y-134021190D01*
X199612799Y-134038520D01*
X199525678Y-134055849D01*
X199348016Y-134055849D01*
X199260895Y-134038520D01*
X199173772Y-134021190D01*
X199064349Y-133975865D01*
X199009636Y-133953202D01*
X198861922Y-133854503D01*
X198861919Y-133854501D01*
X198736295Y-133728877D01*
X198735630Y-133727882D01*
X198637594Y-133581160D01*
X198614931Y-133526447D01*
X198569606Y-133417024D01*
X198534947Y-133242778D01*
X198534947Y-133065120D01*
X198569606Y-132890874D01*
X198637594Y-132726739D01*
X198637594Y-132726738D01*
X198736293Y-132579024D01*
X198736295Y-132579021D01*
X198861919Y-132453397D01*
X198862914Y-132452732D01*
X199009636Y-132354696D01*
X199064349Y-132332033D01*
X199173772Y-132286708D01*
X199260895Y-132269378D01*
X199348016Y-132252049D01*
X199525678Y-132252049D01*
X199612799Y-132269378D01*
X199612799Y-132269378D01*
G37*
G36*
X214875256Y-129391298D02*
G01*
X214981579Y-129412447D01*
X215282042Y-129536903D01*
X215552451Y-129717585D01*
X215782415Y-129947549D01*
X215963097Y-130217958D01*
X216064857Y-130463627D01*
X216087553Y-130518422D01*
X216151000Y-130837389D01*
X216151000Y-131162611D01*
X216110272Y-131367362D01*
X216087553Y-131481579D01*
X215963097Y-131782042D01*
X215782415Y-132052451D01*
X215552451Y-132282415D01*
X215282042Y-132463097D01*
X214981579Y-132587553D01*
X214875256Y-132608702D01*
X214662611Y-132651000D01*
X214337389Y-132651000D01*
X214124744Y-132608702D01*
X214018421Y-132587553D01*
X213717958Y-132463097D01*
X213447549Y-132282415D01*
X213217585Y-132052451D01*
X213036903Y-131782042D01*
X212912447Y-131481579D01*
X212889728Y-131367362D01*
X212849000Y-131162611D01*
X212849000Y-130837389D01*
X212912447Y-130518422D01*
X212935144Y-130463627D01*
X213036903Y-130217958D01*
X213217585Y-129947549D01*
X213447549Y-129717585D01*
X213717958Y-129536903D01*
X214018421Y-129412447D01*
X214124744Y-129391298D01*
X214337389Y-129349000D01*
X214662611Y-129349000D01*
X214875256Y-129391298D01*
X214875256Y-129391298D01*
G37*
G36*
X201669249Y-129881082D02*
G01*
X201886542Y-129971088D01*
X201886544Y-129971089D01*
X201957381Y-130018421D01*
X202082103Y-130101758D01*
X202248413Y-130268068D01*
X202379083Y-130463629D01*
X202469089Y-130680922D01*
X202514973Y-130911598D01*
X202514973Y-131146798D01*
X202469089Y-131377474D01*
X202396611Y-131552451D01*
X202379082Y-131594769D01*
X202248413Y-131790328D01*
X202082103Y-131956638D01*
X201886544Y-132087307D01*
X201886543Y-132087308D01*
X201886542Y-132087308D01*
X201669249Y-132177314D01*
X201438573Y-132223198D01*
X201203373Y-132223198D01*
X200972697Y-132177314D01*
X200755404Y-132087308D01*
X200755403Y-132087308D01*
X200755402Y-132087307D01*
X200559843Y-131956638D01*
X200393533Y-131790328D01*
X200262864Y-131594769D01*
X200245335Y-131552451D01*
X200172857Y-131377474D01*
X200126973Y-131146798D01*
X200126973Y-130911598D01*
X200172857Y-130680922D01*
X200262863Y-130463629D01*
X200393533Y-130268068D01*
X200559843Y-130101758D01*
X200684565Y-130018421D01*
X200755402Y-129971089D01*
X200755404Y-129971088D01*
X200972697Y-129881082D01*
X201203373Y-129835198D01*
X201438573Y-129835198D01*
X201669249Y-129881082D01*
X201669249Y-129881082D01*
G37*
G36*
X196375256Y-128891298D02*
G01*
X196481579Y-128912447D01*
X196782042Y-129036903D01*
X197052451Y-129217585D01*
X197282415Y-129447549D01*
X197463097Y-129717958D01*
X197558198Y-129947551D01*
X197587553Y-130018422D01*
X197651000Y-130337389D01*
X197651000Y-130662611D01*
X197626692Y-130784816D01*
X197587553Y-130981579D01*
X197463097Y-131282042D01*
X197282415Y-131552451D01*
X197052451Y-131782415D01*
X196782042Y-131963097D01*
X196481579Y-132087553D01*
X196375256Y-132108702D01*
X196162611Y-132151000D01*
X195837389Y-132151000D01*
X195624744Y-132108702D01*
X195518421Y-132087553D01*
X195217958Y-131963097D01*
X194947549Y-131782415D01*
X194717585Y-131552451D01*
X194536903Y-131282042D01*
X194412447Y-130981579D01*
X194373308Y-130784816D01*
X194349000Y-130662611D01*
X194349000Y-130337389D01*
X194412447Y-130018422D01*
X194441803Y-129947551D01*
X194536903Y-129717958D01*
X194717585Y-129447549D01*
X194947549Y-129217585D01*
X195217958Y-129036903D01*
X195518421Y-128912447D01*
X195624744Y-128891298D01*
X195837389Y-128849000D01*
X196162611Y-128849000D01*
X196375256Y-128891298D01*
X196375256Y-128891298D01*
G37*
G36*
X208460278Y-129071131D02*
G01*
X208677571Y-129161137D01*
X208677573Y-129161138D01*
X208762050Y-129217584D01*
X208873132Y-129291807D01*
X209039442Y-129458117D01*
X209170112Y-129653678D01*
X209260118Y-129870971D01*
X209306002Y-130101647D01*
X209306002Y-130336847D01*
X209260118Y-130567523D01*
X209213146Y-130680922D01*
X209170111Y-130784818D01*
X209039442Y-130980377D01*
X208873132Y-131146687D01*
X208677573Y-131277356D01*
X208677572Y-131277357D01*
X208677571Y-131277357D01*
X208460278Y-131367363D01*
X208229602Y-131413247D01*
X207994402Y-131413247D01*
X207763726Y-131367363D01*
X207546433Y-131277357D01*
X207546432Y-131277357D01*
X207546431Y-131277356D01*
X207350872Y-131146687D01*
X207184562Y-130980377D01*
X207053893Y-130784818D01*
X207010858Y-130680922D01*
X206963886Y-130567523D01*
X206918002Y-130336847D01*
X206918002Y-130101647D01*
X206963886Y-129870971D01*
X207053892Y-129653678D01*
X207184562Y-129458117D01*
X207350872Y-129291807D01*
X207461954Y-129217584D01*
X207546431Y-129161138D01*
X207546433Y-129161137D01*
X207763726Y-129071131D01*
X207994402Y-129025247D01*
X208229602Y-129025247D01*
X208460278Y-129071131D01*
X208460278Y-129071131D01*
G37*
G36*
X185315583Y-121822055D02*
G01*
X185465408Y-121851857D01*
X185747672Y-121968774D01*
X186001703Y-122138512D01*
X186217739Y-122354548D01*
X186387477Y-122608579D01*
X186504394Y-122890843D01*
X186504394Y-122890844D01*
X186563998Y-123190492D01*
X186563998Y-123496014D01*
X186534196Y-123645838D01*
X186504394Y-123795663D01*
X186387477Y-124077927D01*
X186217739Y-124331958D01*
X186001703Y-124547994D01*
X185747672Y-124717732D01*
X185465408Y-124834649D01*
X185315583Y-124864451D01*
X185165759Y-124894253D01*
X184860237Y-124894253D01*
X184710413Y-124864451D01*
X184560588Y-124834649D01*
X184278324Y-124717732D01*
X184024293Y-124547994D01*
X183808257Y-124331958D01*
X183638519Y-124077927D01*
X183521602Y-123795663D01*
X183491800Y-123645838D01*
X183461998Y-123496014D01*
X183461998Y-123190492D01*
X183521602Y-122890844D01*
X183521602Y-122890843D01*
X183638519Y-122608579D01*
X183808257Y-122354548D01*
X184024293Y-122138512D01*
X184278324Y-121968774D01*
X184560588Y-121851857D01*
X184710413Y-121822055D01*
X184860237Y-121792253D01*
X185165759Y-121792253D01*
X185315583Y-121822055D01*
X185315583Y-121822055D01*
G37*
G36*
X197819750Y-124382250D02*
G01*
X196117750Y-124382250D01*
X196117750Y-123430250D01*
X197819750Y-123430250D01*
X197819750Y-124382250D01*
X197819750Y-124382250D01*
G37*
G36*
X201319750Y-124382250D02*
G01*
X199617750Y-124382250D01*
X199617750Y-123430250D01*
X201319750Y-123430250D01*
X201319750Y-124382250D01*
X201319750Y-124382250D01*
G37*
G36*
X192106612Y-121012104D02*
G01*
X192256437Y-121041906D01*
X192538701Y-121158823D01*
X192792732Y-121328561D01*
X193008768Y-121544597D01*
X193178506Y-121798628D01*
X193295423Y-122080892D01*
X193325225Y-122230717D01*
X193349857Y-122354548D01*
X193355027Y-122380542D01*
X193355027Y-122686062D01*
X193295423Y-122985712D01*
X193178506Y-123267976D01*
X193008768Y-123522007D01*
X192792732Y-123738043D01*
X192538701Y-123907781D01*
X192256437Y-124024698D01*
X192106612Y-124054500D01*
X191956788Y-124084302D01*
X191651266Y-124084302D01*
X191501442Y-124054500D01*
X191351617Y-124024698D01*
X191069353Y-123907781D01*
X190815322Y-123738043D01*
X190599286Y-123522007D01*
X190429548Y-123267976D01*
X190312631Y-122985712D01*
X190253027Y-122686062D01*
X190253027Y-122380542D01*
X190258198Y-122354548D01*
X190282829Y-122230717D01*
X190312631Y-122080892D01*
X190429548Y-121798628D01*
X190599286Y-121544597D01*
X190815322Y-121328561D01*
X191069353Y-121158823D01*
X191351617Y-121041906D01*
X191501442Y-121012104D01*
X191651266Y-120982302D01*
X191956788Y-120982302D01*
X192106612Y-121012104D01*
X192106612Y-121012104D01*
G37*
G36*
X197819750Y-122632250D02*
G01*
X196117750Y-122632250D01*
X196117750Y-121680250D01*
X197819750Y-121680250D01*
X197819750Y-122632250D01*
X197819750Y-122632250D01*
G37*
G36*
X201319750Y-122632250D02*
G01*
X199617750Y-122632250D01*
X199617750Y-121680250D01*
X201319750Y-121680250D01*
X201319750Y-122632250D01*
X201319750Y-122632250D01*
G37*
G36*
X205362814Y-119989389D02*
G01*
X205539011Y-120062372D01*
X205554085Y-120068616D01*
X205726223Y-120183635D01*
X205872615Y-120330027D01*
X205984437Y-120497380D01*
X205987635Y-120502167D01*
X206066861Y-120693436D01*
X206107250Y-120896484D01*
X206107250Y-121103516D01*
X206066861Y-121306564D01*
X206057749Y-121328562D01*
X205987634Y-121497835D01*
X205872615Y-121669973D01*
X205726223Y-121816365D01*
X205554085Y-121931384D01*
X205554084Y-121931385D01*
X205554083Y-121931385D01*
X205362814Y-122010611D01*
X205159766Y-122051000D01*
X204952734Y-122051000D01*
X204749686Y-122010611D01*
X204558417Y-121931385D01*
X204558416Y-121931385D01*
X204558415Y-121931384D01*
X204386277Y-121816365D01*
X204239885Y-121669973D01*
X204124866Y-121497835D01*
X204054751Y-121328562D01*
X204045639Y-121306564D01*
X204005250Y-121103516D01*
X204005250Y-120896484D01*
X204045639Y-120693436D01*
X204124865Y-120502167D01*
X204128064Y-120497380D01*
X204239885Y-120330027D01*
X204386277Y-120183635D01*
X204558415Y-120068616D01*
X204573489Y-120062372D01*
X204749686Y-119989389D01*
X204952734Y-119949000D01*
X205159766Y-119949000D01*
X205362814Y-119989389D01*
X205362814Y-119989389D01*
G37*
G36*
X210362814Y-119989389D02*
G01*
X210539011Y-120062372D01*
X210554085Y-120068616D01*
X210726223Y-120183635D01*
X210872615Y-120330027D01*
X210984437Y-120497380D01*
X210987635Y-120502167D01*
X211066861Y-120693436D01*
X211107250Y-120896484D01*
X211107250Y-121103516D01*
X211066861Y-121306564D01*
X211057749Y-121328562D01*
X210987634Y-121497835D01*
X210872615Y-121669973D01*
X210726223Y-121816365D01*
X210554085Y-121931384D01*
X210554084Y-121931385D01*
X210554083Y-121931385D01*
X210362814Y-122010611D01*
X210159766Y-122051000D01*
X209952734Y-122051000D01*
X209749686Y-122010611D01*
X209558417Y-121931385D01*
X209558416Y-121931385D01*
X209558415Y-121931384D01*
X209386277Y-121816365D01*
X209239885Y-121669973D01*
X209124866Y-121497835D01*
X209054751Y-121328562D01*
X209045639Y-121306564D01*
X209005250Y-121103516D01*
X209005250Y-120896484D01*
X209045639Y-120693436D01*
X209124865Y-120502167D01*
X209128064Y-120497380D01*
X209239885Y-120330027D01*
X209386277Y-120183635D01*
X209558415Y-120068616D01*
X209573489Y-120062372D01*
X209749686Y-119989389D01*
X209952734Y-119949000D01*
X210159766Y-119949000D01*
X210362814Y-119989389D01*
X210362814Y-119989389D01*
G37*
G36*
X193864105Y-119523980D02*
G01*
X193951228Y-119541310D01*
X194060651Y-119586635D01*
X194115364Y-119609298D01*
X194236479Y-119690224D01*
X194263081Y-119707999D01*
X194388705Y-119833623D01*
X194388707Y-119833626D01*
X194487406Y-119981340D01*
X194487406Y-119981341D01*
X194555394Y-120145476D01*
X194555394Y-120145478D01*
X194590053Y-120319720D01*
X194590053Y-120497382D01*
X194589101Y-120502167D01*
X194555394Y-120671626D01*
X194510069Y-120781049D01*
X194487406Y-120835762D01*
X194440530Y-120905917D01*
X194388705Y-120983479D01*
X194263081Y-121109103D01*
X194263078Y-121109105D01*
X194115364Y-121207804D01*
X194060651Y-121230467D01*
X193951228Y-121275792D01*
X193864105Y-121293121D01*
X193776984Y-121310451D01*
X193599322Y-121310451D01*
X193512201Y-121293121D01*
X193425078Y-121275792D01*
X193315655Y-121230467D01*
X193260942Y-121207804D01*
X193113228Y-121109105D01*
X193113225Y-121109103D01*
X192987601Y-120983479D01*
X192935776Y-120905917D01*
X192888900Y-120835762D01*
X192866237Y-120781049D01*
X192820912Y-120671626D01*
X192787205Y-120502167D01*
X192786253Y-120497382D01*
X192786253Y-120319720D01*
X192820912Y-120145478D01*
X192820912Y-120145476D01*
X192888900Y-119981341D01*
X192888900Y-119981340D01*
X192987599Y-119833626D01*
X192987601Y-119833623D01*
X193113225Y-119707999D01*
X193139827Y-119690224D01*
X193260942Y-119609298D01*
X193315655Y-119586635D01*
X193425078Y-119541310D01*
X193512201Y-119523980D01*
X193599322Y-119506651D01*
X193776984Y-119506651D01*
X193864105Y-119523980D01*
X193864105Y-119523980D01*
G37*
G36*
X189377724Y-117127434D02*
G01*
X189562621Y-117204021D01*
X189749873Y-117281583D01*
X190084798Y-117505373D01*
X190369627Y-117790202D01*
X190593417Y-118125127D01*
X190593417Y-118125128D01*
X190747566Y-118497276D01*
X190826150Y-118892344D01*
X190826150Y-119295156D01*
X190747566Y-119690224D01*
X190740204Y-119707997D01*
X190593417Y-120062373D01*
X190369627Y-120397298D01*
X190084798Y-120682127D01*
X189749873Y-120905917D01*
X189595724Y-120969767D01*
X189377724Y-121060066D01*
X188982656Y-121138650D01*
X188579844Y-121138650D01*
X188184776Y-121060066D01*
X187966776Y-120969767D01*
X187812627Y-120905917D01*
X187477702Y-120682127D01*
X187192873Y-120397298D01*
X186969083Y-120062373D01*
X186822296Y-119707997D01*
X186814934Y-119690224D01*
X186736350Y-119295156D01*
X186736350Y-118892344D01*
X186814934Y-118497276D01*
X186969083Y-118125128D01*
X186969083Y-118125127D01*
X187192873Y-117790202D01*
X187477702Y-117505373D01*
X187812627Y-117281583D01*
X187999879Y-117204021D01*
X188184776Y-117127434D01*
X188579844Y-117048850D01*
X188982656Y-117048850D01*
X189377724Y-117127434D01*
X189377724Y-117127434D01*
G37*
G36*
X184050299Y-116894378D02*
G01*
X184137422Y-116911708D01*
X184246845Y-116957033D01*
X184301558Y-116979696D01*
X184448280Y-117077732D01*
X184449275Y-117078397D01*
X184574899Y-117204021D01*
X184574901Y-117204024D01*
X184673600Y-117351738D01*
X184673600Y-117351739D01*
X184741588Y-117515874D01*
X184776247Y-117690120D01*
X184776247Y-117867778D01*
X184741588Y-118042024D01*
X184696263Y-118151447D01*
X184673600Y-118206160D01*
X184575564Y-118352882D01*
X184574899Y-118353877D01*
X184449275Y-118479501D01*
X184449272Y-118479503D01*
X184301558Y-118578202D01*
X184246845Y-118600865D01*
X184137422Y-118646190D01*
X184050299Y-118663520D01*
X183963178Y-118680849D01*
X183785516Y-118680849D01*
X183698395Y-118663520D01*
X183611272Y-118646190D01*
X183501849Y-118600865D01*
X183447136Y-118578202D01*
X183299422Y-118479503D01*
X183299419Y-118479501D01*
X183173795Y-118353877D01*
X183173130Y-118352882D01*
X183075094Y-118206160D01*
X183052431Y-118151447D01*
X183007106Y-118042024D01*
X182972447Y-117867778D01*
X182972447Y-117690120D01*
X183007106Y-117515874D01*
X183075094Y-117351739D01*
X183075094Y-117351738D01*
X183173793Y-117204024D01*
X183173795Y-117204021D01*
X183299419Y-117078397D01*
X183300414Y-117077732D01*
X183447136Y-116979696D01*
X183501849Y-116957033D01*
X183611272Y-116911708D01*
X183698395Y-116894378D01*
X183785516Y-116877049D01*
X183963178Y-116877049D01*
X184050299Y-116894378D01*
X184050299Y-116894378D01*
G37*
G36*
X186106749Y-114506082D02*
G01*
X186324042Y-114596088D01*
X186324044Y-114596089D01*
X186519437Y-114726647D01*
X186519603Y-114726758D01*
X186685913Y-114893068D01*
X186816583Y-115088629D01*
X186906589Y-115305922D01*
X186952473Y-115536598D01*
X186952473Y-115771798D01*
X186906589Y-116002474D01*
X186891771Y-116038247D01*
X186816582Y-116219769D01*
X186685913Y-116415328D01*
X186519603Y-116581638D01*
X186324044Y-116712307D01*
X186324043Y-116712308D01*
X186324042Y-116712308D01*
X186106749Y-116802314D01*
X185876073Y-116848198D01*
X185640873Y-116848198D01*
X185410197Y-116802314D01*
X185192904Y-116712308D01*
X185192903Y-116712308D01*
X185192902Y-116712307D01*
X184997343Y-116581638D01*
X184831033Y-116415328D01*
X184700364Y-116219769D01*
X184625175Y-116038247D01*
X184610357Y-116002474D01*
X184564473Y-115771798D01*
X184564473Y-115536598D01*
X184610357Y-115305922D01*
X184700363Y-115088629D01*
X184831033Y-114893068D01*
X184997343Y-114726758D01*
X184997509Y-114726647D01*
X185192902Y-114596089D01*
X185192904Y-114596088D01*
X185410197Y-114506082D01*
X185640873Y-114460198D01*
X185876073Y-114460198D01*
X186106749Y-114506082D01*
X186106749Y-114506082D01*
G37*
G36*
X192897778Y-113696131D02*
G01*
X193115071Y-113786137D01*
X193115073Y-113786138D01*
X193310632Y-113916807D01*
X193476942Y-114083117D01*
X193607612Y-114278678D01*
X193697618Y-114495971D01*
X193743502Y-114726647D01*
X193743502Y-114961847D01*
X193697618Y-115192523D01*
X193650646Y-115305922D01*
X193607611Y-115409818D01*
X193476942Y-115605377D01*
X193310632Y-115771687D01*
X193115073Y-115902356D01*
X193115072Y-115902357D01*
X193115071Y-115902357D01*
X192897778Y-115992363D01*
X192667102Y-116038247D01*
X192431902Y-116038247D01*
X192201226Y-115992363D01*
X191983933Y-115902357D01*
X191983932Y-115902357D01*
X191983931Y-115902356D01*
X191788372Y-115771687D01*
X191622062Y-115605377D01*
X191491393Y-115409818D01*
X191448358Y-115305922D01*
X191401386Y-115192523D01*
X191355502Y-114961847D01*
X191355502Y-114726647D01*
X191401386Y-114495971D01*
X191491392Y-114278678D01*
X191622062Y-114083117D01*
X191788372Y-113916807D01*
X191983931Y-113786138D01*
X191983933Y-113786137D01*
X192201226Y-113696131D01*
X192431902Y-113650247D01*
X192667102Y-113650247D01*
X192897778Y-113696131D01*
X192897778Y-113696131D01*
G37*
G36*
X214457250Y-115551000D02*
G01*
X211855250Y-115551000D01*
X211855250Y-112449000D01*
X214457250Y-112449000D01*
X214457250Y-115551000D01*
X214457250Y-115551000D01*
G37*
G36*
X203257250Y-115551000D02*
G01*
X200655250Y-115551000D01*
X200655250Y-112449000D01*
X203257250Y-112449000D01*
X203257250Y-115551000D01*
X203257250Y-115551000D01*
G37*
G36*
X198135573Y-106187563D02*
G01*
X198295992Y-106236226D01*
X198382405Y-106282415D01*
X198443828Y-106315246D01*
X198573409Y-106421591D01*
X198679754Y-106551172D01*
X198679755Y-106551174D01*
X198758774Y-106699008D01*
X198807437Y-106859427D01*
X198823867Y-107026250D01*
X198807437Y-107193073D01*
X198758774Y-107353492D01*
X198717140Y-107431384D01*
X198679754Y-107501328D01*
X198573409Y-107630909D01*
X198443828Y-107737254D01*
X198443826Y-107737255D01*
X198295992Y-107816274D01*
X198135573Y-107864937D01*
X198010554Y-107877250D01*
X197926946Y-107877250D01*
X197801927Y-107864937D01*
X197641508Y-107816274D01*
X197493674Y-107737255D01*
X197493672Y-107737254D01*
X197364091Y-107630909D01*
X197257746Y-107501328D01*
X197220360Y-107431384D01*
X197178726Y-107353492D01*
X197130063Y-107193073D01*
X197113633Y-107026250D01*
X197130063Y-106859427D01*
X197178726Y-106699008D01*
X197257745Y-106551174D01*
X197257746Y-106551172D01*
X197364091Y-106421591D01*
X197493672Y-106315246D01*
X197555095Y-106282415D01*
X197641508Y-106236226D01*
X197801927Y-106187563D01*
X197926946Y-106175250D01*
X198010554Y-106175250D01*
X198135573Y-106187563D01*
X198135573Y-106187563D01*
G37*
G36*
X187073073Y-106187563D02*
G01*
X187233492Y-106236226D01*
X187319905Y-106282415D01*
X187381328Y-106315246D01*
X187510909Y-106421591D01*
X187617254Y-106551172D01*
X187617255Y-106551174D01*
X187696274Y-106699008D01*
X187744937Y-106859427D01*
X187761367Y-107026250D01*
X187744937Y-107193073D01*
X187696274Y-107353492D01*
X187654640Y-107431384D01*
X187617254Y-107501328D01*
X187510909Y-107630909D01*
X187381328Y-107737254D01*
X187381326Y-107737255D01*
X187233492Y-107816274D01*
X187073073Y-107864937D01*
X186948054Y-107877250D01*
X186864446Y-107877250D01*
X186739427Y-107864937D01*
X186579008Y-107816274D01*
X186431174Y-107737255D01*
X186431172Y-107737254D01*
X186301591Y-107630909D01*
X186195246Y-107501328D01*
X186157860Y-107431384D01*
X186116226Y-107353492D01*
X186067563Y-107193073D01*
X186051133Y-107026250D01*
X186067563Y-106859427D01*
X186116226Y-106699008D01*
X186195245Y-106551174D01*
X186195246Y-106551172D01*
X186301591Y-106421591D01*
X186431172Y-106315246D01*
X186492595Y-106282415D01*
X186579008Y-106236226D01*
X186739427Y-106187563D01*
X186864446Y-106175250D01*
X186948054Y-106175250D01*
X187073073Y-106187563D01*
X187073073Y-106187563D01*
G37*
G36*
X205362814Y-105489389D02*
G01*
X205554083Y-105568615D01*
X205554085Y-105568616D01*
X205726223Y-105683635D01*
X205872615Y-105830027D01*
X205987635Y-106002167D01*
X206066861Y-106193436D01*
X206107250Y-106396484D01*
X206107250Y-106603516D01*
X206066861Y-106806564D01*
X206044965Y-106859425D01*
X205987634Y-106997835D01*
X205872615Y-107169973D01*
X205726223Y-107316365D01*
X205554085Y-107431384D01*
X205554084Y-107431385D01*
X205554083Y-107431385D01*
X205362814Y-107510611D01*
X205159766Y-107551000D01*
X204952734Y-107551000D01*
X204749686Y-107510611D01*
X204558417Y-107431385D01*
X204558416Y-107431385D01*
X204558415Y-107431384D01*
X204386277Y-107316365D01*
X204239885Y-107169973D01*
X204124866Y-106997835D01*
X204067535Y-106859425D01*
X204045639Y-106806564D01*
X204005250Y-106603516D01*
X204005250Y-106396484D01*
X204045639Y-106193436D01*
X204124865Y-106002167D01*
X204239885Y-105830027D01*
X204386277Y-105683635D01*
X204558415Y-105568616D01*
X204558417Y-105568615D01*
X204749686Y-105489389D01*
X204952734Y-105449000D01*
X205159766Y-105449000D01*
X205362814Y-105489389D01*
X205362814Y-105489389D01*
G37*
G36*
X207862814Y-105489389D02*
G01*
X208054083Y-105568615D01*
X208054085Y-105568616D01*
X208226223Y-105683635D01*
X208372615Y-105830027D01*
X208487635Y-106002167D01*
X208566861Y-106193436D01*
X208607250Y-106396484D01*
X208607250Y-106603516D01*
X208566861Y-106806564D01*
X208544965Y-106859425D01*
X208487634Y-106997835D01*
X208372615Y-107169973D01*
X208226223Y-107316365D01*
X208054085Y-107431384D01*
X208054084Y-107431385D01*
X208054083Y-107431385D01*
X207862814Y-107510611D01*
X207659766Y-107551000D01*
X207452734Y-107551000D01*
X207249686Y-107510611D01*
X207058417Y-107431385D01*
X207058416Y-107431385D01*
X207058415Y-107431384D01*
X206886277Y-107316365D01*
X206739885Y-107169973D01*
X206624866Y-106997835D01*
X206567535Y-106859425D01*
X206545639Y-106806564D01*
X206505250Y-106603516D01*
X206505250Y-106396484D01*
X206545639Y-106193436D01*
X206624865Y-106002167D01*
X206739885Y-105830027D01*
X206886277Y-105683635D01*
X207058415Y-105568616D01*
X207058417Y-105568615D01*
X207249686Y-105489389D01*
X207452734Y-105449000D01*
X207659766Y-105449000D01*
X207862814Y-105489389D01*
X207862814Y-105489389D01*
G37*
G36*
X211107250Y-107551000D02*
G01*
X209005250Y-107551000D01*
X209005250Y-105449000D01*
X211107250Y-105449000D01*
X211107250Y-107551000D01*
X211107250Y-107551000D01*
G37*
G36*
X85875256Y-103391298D02*
G01*
X85981579Y-103412447D01*
X86282042Y-103536903D01*
X86552451Y-103717585D01*
X86782415Y-103947549D01*
X86963097Y-104217958D01*
X87087553Y-104518421D01*
X87151000Y-104837391D01*
X87151000Y-105162609D01*
X87087553Y-105481579D01*
X86963097Y-105782042D01*
X86782415Y-106052451D01*
X86552451Y-106282415D01*
X86282042Y-106463097D01*
X85981579Y-106587553D01*
X85901327Y-106603516D01*
X85662611Y-106651000D01*
X85337389Y-106651000D01*
X85098673Y-106603516D01*
X85018421Y-106587553D01*
X84717958Y-106463097D01*
X84447549Y-106282415D01*
X84217585Y-106052451D01*
X84036903Y-105782042D01*
X83912447Y-105481579D01*
X83849000Y-105162609D01*
X83849000Y-104837391D01*
X83912447Y-104518421D01*
X84036903Y-104217958D01*
X84217585Y-103947549D01*
X84447549Y-103717585D01*
X84717958Y-103536903D01*
X85018421Y-103412447D01*
X85124744Y-103391298D01*
X85337389Y-103349000D01*
X85662611Y-103349000D01*
X85875256Y-103391298D01*
X85875256Y-103391298D01*
G37*
G36*
X211569750Y-103632250D02*
G01*
X209867750Y-103632250D01*
X209867750Y-101930250D01*
X211569750Y-101930250D01*
X211569750Y-103632250D01*
X211569750Y-103632250D01*
G37*
G36*
X203265573Y-101942563D02*
G01*
X203425992Y-101991226D01*
X203558656Y-102062136D01*
X203573828Y-102070246D01*
X203703409Y-102176591D01*
X203809754Y-102306172D01*
X203809755Y-102306174D01*
X203888774Y-102454008D01*
X203937437Y-102614427D01*
X203953867Y-102781250D01*
X203937437Y-102948073D01*
X203888774Y-103108492D01*
X203876743Y-103131000D01*
X203809754Y-103256328D01*
X203703409Y-103385909D01*
X203573828Y-103492254D01*
X203573826Y-103492255D01*
X203425992Y-103571274D01*
X203265573Y-103619937D01*
X203140554Y-103632250D01*
X203056946Y-103632250D01*
X202931927Y-103619937D01*
X202771508Y-103571274D01*
X202623674Y-103492255D01*
X202623672Y-103492254D01*
X202494091Y-103385909D01*
X202387746Y-103256328D01*
X202320757Y-103131000D01*
X202308726Y-103108492D01*
X202260063Y-102948073D01*
X202243633Y-102781250D01*
X202260063Y-102614427D01*
X202308726Y-102454008D01*
X202387745Y-102306174D01*
X202387746Y-102306172D01*
X202494091Y-102176591D01*
X202623672Y-102070246D01*
X202638844Y-102062136D01*
X202771508Y-101991226D01*
X202931927Y-101942563D01*
X203056946Y-101930250D01*
X203140554Y-101930250D01*
X203265573Y-101942563D01*
X203265573Y-101942563D01*
G37*
G36*
X150907262Y-100056500D02*
G01*
X151068660Y-100088604D01*
X151350924Y-100205521D01*
X151604955Y-100375259D01*
X151820991Y-100591295D01*
X151990729Y-100845326D01*
X152107646Y-101127590D01*
X152167250Y-101427240D01*
X152167250Y-101732760D01*
X152107646Y-102032410D01*
X151990729Y-102314674D01*
X151820991Y-102568705D01*
X151604955Y-102784741D01*
X151350924Y-102954479D01*
X151068660Y-103071396D01*
X150918835Y-103101198D01*
X150769011Y-103131000D01*
X150463489Y-103131000D01*
X150313665Y-103101198D01*
X150163840Y-103071396D01*
X149881576Y-102954479D01*
X149627545Y-102784741D01*
X149411509Y-102568705D01*
X149241771Y-102314674D01*
X149124854Y-102032410D01*
X149065250Y-101732760D01*
X149065250Y-101427240D01*
X149124854Y-101127590D01*
X149241771Y-100845326D01*
X149411509Y-100591295D01*
X149627545Y-100375259D01*
X149881576Y-100205521D01*
X150163840Y-100088604D01*
X150325238Y-100056500D01*
X150463489Y-100029000D01*
X150769011Y-100029000D01*
X150907262Y-100056500D01*
X150907262Y-100056500D01*
G37*
G36*
X170126012Y-100056500D02*
G01*
X170287410Y-100088604D01*
X170569674Y-100205521D01*
X170823705Y-100375259D01*
X171039741Y-100591295D01*
X171209479Y-100845326D01*
X171326396Y-101127590D01*
X171386000Y-101427240D01*
X171386000Y-101732760D01*
X171326396Y-102032410D01*
X171209479Y-102314674D01*
X171039741Y-102568705D01*
X170823705Y-102784741D01*
X170569674Y-102954479D01*
X170287410Y-103071396D01*
X170137585Y-103101198D01*
X169987761Y-103131000D01*
X169682239Y-103131000D01*
X169532415Y-103101198D01*
X169382590Y-103071396D01*
X169100326Y-102954479D01*
X168846295Y-102784741D01*
X168630259Y-102568705D01*
X168460521Y-102314674D01*
X168343604Y-102032410D01*
X168284000Y-101732760D01*
X168284000Y-101427240D01*
X168343604Y-101127590D01*
X168460521Y-100845326D01*
X168630259Y-100591295D01*
X168846295Y-100375259D01*
X169100326Y-100205521D01*
X169382590Y-100088604D01*
X169543988Y-100056500D01*
X169682239Y-100029000D01*
X169987761Y-100029000D01*
X170126012Y-100056500D01*
X170126012Y-100056500D01*
G37*
G36*
X112657262Y-100056500D02*
G01*
X112818660Y-100088604D01*
X113100924Y-100205521D01*
X113354955Y-100375259D01*
X113570991Y-100591295D01*
X113740729Y-100845326D01*
X113857646Y-101127590D01*
X113917250Y-101427240D01*
X113917250Y-101732760D01*
X113857646Y-102032410D01*
X113740729Y-102314674D01*
X113570991Y-102568705D01*
X113354955Y-102784741D01*
X113100924Y-102954479D01*
X112818660Y-103071396D01*
X112668835Y-103101198D01*
X112519011Y-103131000D01*
X112213489Y-103131000D01*
X112063665Y-103101198D01*
X111913840Y-103071396D01*
X111631576Y-102954479D01*
X111377545Y-102784741D01*
X111161509Y-102568705D01*
X110991771Y-102314674D01*
X110874854Y-102032410D01*
X110815250Y-101732760D01*
X110815250Y-101427240D01*
X110874854Y-101127590D01*
X110991771Y-100845326D01*
X111161509Y-100591295D01*
X111377545Y-100375259D01*
X111631576Y-100205521D01*
X111913840Y-100088604D01*
X112075238Y-100056500D01*
X112213489Y-100029000D01*
X112519011Y-100029000D01*
X112657262Y-100056500D01*
X112657262Y-100056500D01*
G37*
G36*
X131876012Y-100056500D02*
G01*
X132037410Y-100088604D01*
X132319674Y-100205521D01*
X132573705Y-100375259D01*
X132789741Y-100591295D01*
X132959479Y-100845326D01*
X133076396Y-101127590D01*
X133136000Y-101427240D01*
X133136000Y-101732760D01*
X133076396Y-102032410D01*
X132959479Y-102314674D01*
X132789741Y-102568705D01*
X132573705Y-102784741D01*
X132319674Y-102954479D01*
X132037410Y-103071396D01*
X131887585Y-103101198D01*
X131737761Y-103131000D01*
X131432239Y-103131000D01*
X131282415Y-103101198D01*
X131132590Y-103071396D01*
X130850326Y-102954479D01*
X130596295Y-102784741D01*
X130380259Y-102568705D01*
X130210521Y-102314674D01*
X130093604Y-102032410D01*
X130034000Y-101732760D01*
X130034000Y-101427240D01*
X130093604Y-101127590D01*
X130210521Y-100845326D01*
X130380259Y-100591295D01*
X130596295Y-100375259D01*
X130850326Y-100205521D01*
X131132590Y-100088604D01*
X131293988Y-100056500D01*
X131432239Y-100029000D01*
X131737761Y-100029000D01*
X131876012Y-100056500D01*
X131876012Y-100056500D01*
G37*
G36*
X101935728Y-100089203D02*
G01*
X102090600Y-100153353D01*
X102229981Y-100246485D01*
X102348515Y-100365019D01*
X102441647Y-100504400D01*
X102505797Y-100659272D01*
X102538500Y-100823684D01*
X102538500Y-100991316D01*
X102505797Y-101155728D01*
X102441647Y-101310600D01*
X102348515Y-101449981D01*
X102229981Y-101568515D01*
X102090600Y-101661647D01*
X101935728Y-101725797D01*
X101771316Y-101758500D01*
X101603684Y-101758500D01*
X101439272Y-101725797D01*
X101284400Y-101661647D01*
X101145019Y-101568515D01*
X101026485Y-101449981D01*
X100933353Y-101310600D01*
X100869203Y-101155728D01*
X100836500Y-100991316D01*
X100836500Y-100823684D01*
X100869203Y-100659272D01*
X100933353Y-100504400D01*
X101026485Y-100365019D01*
X101145019Y-100246485D01*
X101284400Y-100153353D01*
X101439272Y-100089203D01*
X101603684Y-100056500D01*
X101771316Y-100056500D01*
X101935728Y-100089203D01*
X101935728Y-100089203D01*
G37*
G36*
X86695728Y-100089203D02*
G01*
X86850600Y-100153353D01*
X86989981Y-100246485D01*
X87108515Y-100365019D01*
X87201647Y-100504400D01*
X87265797Y-100659272D01*
X87298500Y-100823684D01*
X87298500Y-100991316D01*
X87265797Y-101155728D01*
X87201647Y-101310600D01*
X87108515Y-101449981D01*
X86989981Y-101568515D01*
X86850600Y-101661647D01*
X86695728Y-101725797D01*
X86531316Y-101758500D01*
X86363684Y-101758500D01*
X86199272Y-101725797D01*
X86044400Y-101661647D01*
X85905019Y-101568515D01*
X85786485Y-101449981D01*
X85693353Y-101310600D01*
X85629203Y-101155728D01*
X85596500Y-100991316D01*
X85596500Y-100823684D01*
X85629203Y-100659272D01*
X85693353Y-100504400D01*
X85786485Y-100365019D01*
X85905019Y-100246485D01*
X86044400Y-100153353D01*
X86199272Y-100089203D01*
X86363684Y-100056500D01*
X86531316Y-100056500D01*
X86695728Y-100089203D01*
X86695728Y-100089203D01*
G37*
G36*
X157257262Y-97516500D02*
G01*
X157418660Y-97548604D01*
X157700924Y-97665521D01*
X157954955Y-97835259D01*
X158170991Y-98051295D01*
X158340729Y-98305326D01*
X158457646Y-98587590D01*
X158517250Y-98887240D01*
X158517250Y-99192760D01*
X158457646Y-99492410D01*
X158340729Y-99774674D01*
X158170991Y-100028705D01*
X157954955Y-100244741D01*
X157700924Y-100414479D01*
X157418660Y-100531396D01*
X157268835Y-100561198D01*
X157119011Y-100591000D01*
X156813489Y-100591000D01*
X156663665Y-100561198D01*
X156513840Y-100531396D01*
X156231576Y-100414479D01*
X155977545Y-100244741D01*
X155761509Y-100028705D01*
X155591771Y-99774674D01*
X155474854Y-99492410D01*
X155415250Y-99192760D01*
X155415250Y-98887240D01*
X155474854Y-98587590D01*
X155591771Y-98305326D01*
X155761509Y-98051295D01*
X155977545Y-97835259D01*
X156231576Y-97665521D01*
X156513840Y-97548604D01*
X156675238Y-97516500D01*
X156813489Y-97489000D01*
X157119011Y-97489000D01*
X157257262Y-97516500D01*
X157257262Y-97516500D01*
G37*
G36*
X119007262Y-97516500D02*
G01*
X119168660Y-97548604D01*
X119450924Y-97665521D01*
X119704955Y-97835259D01*
X119920991Y-98051295D01*
X120090729Y-98305326D01*
X120207646Y-98587590D01*
X120267250Y-98887240D01*
X120267250Y-99192760D01*
X120207646Y-99492410D01*
X120090729Y-99774674D01*
X119920991Y-100028705D01*
X119704955Y-100244741D01*
X119450924Y-100414479D01*
X119168660Y-100531396D01*
X119018835Y-100561198D01*
X118869011Y-100591000D01*
X118563489Y-100591000D01*
X118413665Y-100561198D01*
X118263840Y-100531396D01*
X117981576Y-100414479D01*
X117727545Y-100244741D01*
X117511509Y-100028705D01*
X117341771Y-99774674D01*
X117224854Y-99492410D01*
X117165250Y-99192760D01*
X117165250Y-98887240D01*
X117224854Y-98587590D01*
X117341771Y-98305326D01*
X117511509Y-98051295D01*
X117727545Y-97835259D01*
X117981576Y-97665521D01*
X118263840Y-97548604D01*
X118425238Y-97516500D01*
X118563489Y-97489000D01*
X118869011Y-97489000D01*
X119007262Y-97516500D01*
X119007262Y-97516500D01*
G37*
G36*
X138226012Y-97516500D02*
G01*
X138387410Y-97548604D01*
X138669674Y-97665521D01*
X138923705Y-97835259D01*
X139139741Y-98051295D01*
X139309479Y-98305326D01*
X139426396Y-98587590D01*
X139486000Y-98887240D01*
X139486000Y-99192760D01*
X139426396Y-99492410D01*
X139309479Y-99774674D01*
X139139741Y-100028705D01*
X138923705Y-100244741D01*
X138669674Y-100414479D01*
X138387410Y-100531396D01*
X138237585Y-100561198D01*
X138087761Y-100591000D01*
X137782239Y-100591000D01*
X137632415Y-100561198D01*
X137482590Y-100531396D01*
X137200326Y-100414479D01*
X136946295Y-100244741D01*
X136730259Y-100028705D01*
X136560521Y-99774674D01*
X136443604Y-99492410D01*
X136384000Y-99192760D01*
X136384000Y-98887240D01*
X136443604Y-98587590D01*
X136560521Y-98305326D01*
X136730259Y-98051295D01*
X136946295Y-97835259D01*
X137200326Y-97665521D01*
X137482590Y-97548604D01*
X137643988Y-97516500D01*
X137782239Y-97489000D01*
X138087761Y-97489000D01*
X138226012Y-97516500D01*
X138226012Y-97516500D01*
G37*
G36*
X176476012Y-97516500D02*
G01*
X176637410Y-97548604D01*
X176919674Y-97665521D01*
X177173705Y-97835259D01*
X177389741Y-98051295D01*
X177559479Y-98305326D01*
X177676396Y-98587590D01*
X177736000Y-98887240D01*
X177736000Y-99192760D01*
X177676396Y-99492410D01*
X177559479Y-99774674D01*
X177389741Y-100028705D01*
X177173705Y-100244741D01*
X176919674Y-100414479D01*
X176637410Y-100531396D01*
X176487585Y-100561198D01*
X176337761Y-100591000D01*
X176032239Y-100591000D01*
X175882415Y-100561198D01*
X175732590Y-100531396D01*
X175450326Y-100414479D01*
X175196295Y-100244741D01*
X174980259Y-100028705D01*
X174810521Y-99774674D01*
X174693604Y-99492410D01*
X174634000Y-99192760D01*
X174634000Y-98887240D01*
X174693604Y-98587590D01*
X174810521Y-98305326D01*
X174980259Y-98051295D01*
X175196295Y-97835259D01*
X175450326Y-97665521D01*
X175732590Y-97548604D01*
X175893988Y-97516500D01*
X176032239Y-97489000D01*
X176337761Y-97489000D01*
X176476012Y-97516500D01*
X176476012Y-97516500D01*
G37*
G36*
X198819750Y-100257250D02*
G01*
X197117750Y-100257250D01*
X197117750Y-98555250D01*
X198819750Y-98555250D01*
X198819750Y-100257250D01*
X198819750Y-100257250D01*
G37*
G36*
X187757250Y-100257250D02*
G01*
X186055250Y-100257250D01*
X186055250Y-98555250D01*
X187757250Y-98555250D01*
X187757250Y-100257250D01*
X187757250Y-100257250D01*
G37*
G36*
X101935728Y-97549203D02*
G01*
X102090600Y-97613353D01*
X102229981Y-97706485D01*
X102348515Y-97825019D01*
X102441647Y-97964400D01*
X102505797Y-98119272D01*
X102538500Y-98283684D01*
X102538500Y-98451316D01*
X102505797Y-98615728D01*
X102441647Y-98770600D01*
X102348515Y-98909981D01*
X102229981Y-99028515D01*
X102090600Y-99121647D01*
X101935728Y-99185797D01*
X101771316Y-99218500D01*
X101603684Y-99218500D01*
X101439272Y-99185797D01*
X101284400Y-99121647D01*
X101145019Y-99028515D01*
X101026485Y-98909981D01*
X100933353Y-98770600D01*
X100869203Y-98615728D01*
X100836500Y-98451316D01*
X100836500Y-98283684D01*
X100869203Y-98119272D01*
X100933353Y-97964400D01*
X101026485Y-97825019D01*
X101145019Y-97706485D01*
X101284400Y-97613353D01*
X101439272Y-97549203D01*
X101603684Y-97516500D01*
X101771316Y-97516500D01*
X101935728Y-97549203D01*
X101935728Y-97549203D01*
G37*
G36*
X86695728Y-97549203D02*
G01*
X86850600Y-97613353D01*
X86989981Y-97706485D01*
X87108515Y-97825019D01*
X87201647Y-97964400D01*
X87265797Y-98119272D01*
X87298500Y-98283684D01*
X87298500Y-98451316D01*
X87265797Y-98615728D01*
X87201647Y-98770600D01*
X87108515Y-98909981D01*
X86989981Y-99028515D01*
X86850600Y-99121647D01*
X86695728Y-99185797D01*
X86531316Y-99218500D01*
X86363684Y-99218500D01*
X86199272Y-99185797D01*
X86044400Y-99121647D01*
X85905019Y-99028515D01*
X85786485Y-98909981D01*
X85693353Y-98770600D01*
X85629203Y-98615728D01*
X85596500Y-98451316D01*
X85596500Y-98283684D01*
X85629203Y-98119272D01*
X85693353Y-97964400D01*
X85786485Y-97825019D01*
X85905019Y-97706485D01*
X86044400Y-97613353D01*
X86199272Y-97549203D01*
X86363684Y-97516500D01*
X86531316Y-97516500D01*
X86695728Y-97549203D01*
X86695728Y-97549203D01*
G37*
G36*
X153752724Y-94533684D02*
G01*
X153970724Y-94623983D01*
X154124873Y-94687833D01*
X154459798Y-94911623D01*
X154744627Y-95196452D01*
X154968417Y-95531377D01*
X155032267Y-95685526D01*
X155122566Y-95903526D01*
X155201150Y-96298594D01*
X155201150Y-96701406D01*
X155122566Y-97096474D01*
X155038572Y-97299253D01*
X154968417Y-97468623D01*
X154744627Y-97803548D01*
X154459798Y-98088377D01*
X154124873Y-98312167D01*
X153970724Y-98376017D01*
X153752724Y-98466316D01*
X153357656Y-98544900D01*
X152954844Y-98544900D01*
X152559776Y-98466316D01*
X152341776Y-98376017D01*
X152187627Y-98312167D01*
X151852702Y-98088377D01*
X151567873Y-97803548D01*
X151344083Y-97468623D01*
X151273928Y-97299253D01*
X151189934Y-97096474D01*
X151111350Y-96701406D01*
X151111350Y-96298594D01*
X151189934Y-95903526D01*
X151280233Y-95685526D01*
X151344083Y-95531377D01*
X151567873Y-95196452D01*
X151852702Y-94911623D01*
X152187627Y-94687833D01*
X152341776Y-94623983D01*
X152559776Y-94533684D01*
X152954844Y-94455100D01*
X153357656Y-94455100D01*
X153752724Y-94533684D01*
X153752724Y-94533684D01*
G37*
G36*
X172971474Y-94533684D02*
G01*
X173189474Y-94623983D01*
X173343623Y-94687833D01*
X173678548Y-94911623D01*
X173963377Y-95196452D01*
X174187167Y-95531377D01*
X174251017Y-95685526D01*
X174341316Y-95903526D01*
X174419900Y-96298594D01*
X174419900Y-96701406D01*
X174341316Y-97096474D01*
X174257322Y-97299253D01*
X174187167Y-97468623D01*
X173963377Y-97803548D01*
X173678548Y-98088377D01*
X173343623Y-98312167D01*
X173189474Y-98376017D01*
X172971474Y-98466316D01*
X172576406Y-98544900D01*
X172173594Y-98544900D01*
X171778526Y-98466316D01*
X171560526Y-98376017D01*
X171406377Y-98312167D01*
X171071452Y-98088377D01*
X170786623Y-97803548D01*
X170562833Y-97468623D01*
X170492678Y-97299253D01*
X170408684Y-97096474D01*
X170330100Y-96701406D01*
X170330100Y-96298594D01*
X170408684Y-95903526D01*
X170498983Y-95685526D01*
X170562833Y-95531377D01*
X170786623Y-95196452D01*
X171071452Y-94911623D01*
X171406377Y-94687833D01*
X171560526Y-94623983D01*
X171778526Y-94533684D01*
X172173594Y-94455100D01*
X172576406Y-94455100D01*
X172971474Y-94533684D01*
X172971474Y-94533684D01*
G37*
G36*
X115502724Y-94533684D02*
G01*
X115720724Y-94623983D01*
X115874873Y-94687833D01*
X116209798Y-94911623D01*
X116494627Y-95196452D01*
X116718417Y-95531377D01*
X116782267Y-95685526D01*
X116872566Y-95903526D01*
X116951150Y-96298594D01*
X116951150Y-96701406D01*
X116872566Y-97096474D01*
X116788572Y-97299253D01*
X116718417Y-97468623D01*
X116494627Y-97803548D01*
X116209798Y-98088377D01*
X115874873Y-98312167D01*
X115720724Y-98376017D01*
X115502724Y-98466316D01*
X115107656Y-98544900D01*
X114704844Y-98544900D01*
X114309776Y-98466316D01*
X114091776Y-98376017D01*
X113937627Y-98312167D01*
X113602702Y-98088377D01*
X113317873Y-97803548D01*
X113094083Y-97468623D01*
X113023928Y-97299253D01*
X112939934Y-97096474D01*
X112861350Y-96701406D01*
X112861350Y-96298594D01*
X112939934Y-95903526D01*
X113030233Y-95685526D01*
X113094083Y-95531377D01*
X113317873Y-95196452D01*
X113602702Y-94911623D01*
X113937627Y-94687833D01*
X114091776Y-94623983D01*
X114309776Y-94533684D01*
X114704844Y-94455100D01*
X115107656Y-94455100D01*
X115502724Y-94533684D01*
X115502724Y-94533684D01*
G37*
G36*
X134721474Y-94533684D02*
G01*
X134939474Y-94623983D01*
X135093623Y-94687833D01*
X135428548Y-94911623D01*
X135713377Y-95196452D01*
X135937167Y-95531377D01*
X136001017Y-95685526D01*
X136091316Y-95903526D01*
X136169900Y-96298594D01*
X136169900Y-96701406D01*
X136091316Y-97096474D01*
X136007322Y-97299253D01*
X135937167Y-97468623D01*
X135713377Y-97803548D01*
X135428548Y-98088377D01*
X135093623Y-98312167D01*
X134939474Y-98376017D01*
X134721474Y-98466316D01*
X134326406Y-98544900D01*
X133923594Y-98544900D01*
X133528526Y-98466316D01*
X133310526Y-98376017D01*
X133156377Y-98312167D01*
X132821452Y-98088377D01*
X132536623Y-97803548D01*
X132312833Y-97468623D01*
X132242678Y-97299253D01*
X132158684Y-97096474D01*
X132080100Y-96701406D01*
X132080100Y-96298594D01*
X132158684Y-95903526D01*
X132248983Y-95685526D01*
X132312833Y-95531377D01*
X132536623Y-95196452D01*
X132821452Y-94911623D01*
X133156377Y-94687833D01*
X133310526Y-94623983D01*
X133528526Y-94533684D01*
X133923594Y-94455100D01*
X134326406Y-94455100D01*
X134721474Y-94533684D01*
X134721474Y-94533684D01*
G37*
G36*
X177630952Y-95615430D02*
G01*
X177718075Y-95632759D01*
X177827498Y-95678084D01*
X177882211Y-95700747D01*
X177946472Y-95743685D01*
X178029928Y-95799448D01*
X178155552Y-95925072D01*
X178155554Y-95925075D01*
X178254253Y-96072789D01*
X178276916Y-96127502D01*
X178322241Y-96236925D01*
X178356900Y-96411171D01*
X178356900Y-96588829D01*
X178322241Y-96763075D01*
X178276916Y-96872498D01*
X178254253Y-96927211D01*
X178156217Y-97073933D01*
X178155552Y-97074928D01*
X178029928Y-97200552D01*
X178029925Y-97200554D01*
X177882211Y-97299253D01*
X177827498Y-97321916D01*
X177718075Y-97367241D01*
X177630952Y-97384570D01*
X177543831Y-97401900D01*
X177366169Y-97401900D01*
X177279048Y-97384570D01*
X177191925Y-97367241D01*
X177082502Y-97321916D01*
X177027789Y-97299253D01*
X176880075Y-97200554D01*
X176880072Y-97200552D01*
X176754448Y-97074928D01*
X176753783Y-97073933D01*
X176655747Y-96927211D01*
X176633084Y-96872498D01*
X176587759Y-96763075D01*
X176553100Y-96588829D01*
X176553100Y-96411171D01*
X176587759Y-96236925D01*
X176633084Y-96127502D01*
X176655747Y-96072789D01*
X176754446Y-95925075D01*
X176754448Y-95925072D01*
X176880072Y-95799448D01*
X176963528Y-95743685D01*
X177027789Y-95700747D01*
X177082502Y-95678084D01*
X177191925Y-95632759D01*
X177279048Y-95615430D01*
X177366169Y-95598100D01*
X177543831Y-95598100D01*
X177630952Y-95615430D01*
X177630952Y-95615430D01*
G37*
G36*
X158412202Y-95615430D02*
G01*
X158499325Y-95632759D01*
X158608748Y-95678084D01*
X158663461Y-95700747D01*
X158727722Y-95743685D01*
X158811178Y-95799448D01*
X158936802Y-95925072D01*
X158936804Y-95925075D01*
X159035503Y-96072789D01*
X159058166Y-96127502D01*
X159103491Y-96236925D01*
X159138150Y-96411171D01*
X159138150Y-96588829D01*
X159103491Y-96763075D01*
X159058166Y-96872498D01*
X159035503Y-96927211D01*
X158937467Y-97073933D01*
X158936802Y-97074928D01*
X158811178Y-97200552D01*
X158811175Y-97200554D01*
X158663461Y-97299253D01*
X158608748Y-97321916D01*
X158499325Y-97367241D01*
X158412202Y-97384570D01*
X158325081Y-97401900D01*
X158147419Y-97401900D01*
X158060298Y-97384570D01*
X157973175Y-97367241D01*
X157863752Y-97321916D01*
X157809039Y-97299253D01*
X157661325Y-97200554D01*
X157661322Y-97200552D01*
X157535698Y-97074928D01*
X157535033Y-97073933D01*
X157436997Y-96927211D01*
X157414334Y-96872498D01*
X157369009Y-96763075D01*
X157334350Y-96588829D01*
X157334350Y-96411171D01*
X157369009Y-96236925D01*
X157414334Y-96127502D01*
X157436997Y-96072789D01*
X157535696Y-95925075D01*
X157535698Y-95925072D01*
X157661322Y-95799448D01*
X157744778Y-95743685D01*
X157809039Y-95700747D01*
X157863752Y-95678084D01*
X157973175Y-95632759D01*
X158060298Y-95615430D01*
X158147419Y-95598100D01*
X158325081Y-95598100D01*
X158412202Y-95615430D01*
X158412202Y-95615430D01*
G37*
G36*
X148252202Y-95615430D02*
G01*
X148339325Y-95632759D01*
X148448748Y-95678084D01*
X148503461Y-95700747D01*
X148567722Y-95743685D01*
X148651178Y-95799448D01*
X148776802Y-95925072D01*
X148776804Y-95925075D01*
X148875503Y-96072789D01*
X148898166Y-96127502D01*
X148943491Y-96236925D01*
X148978150Y-96411171D01*
X148978150Y-96588829D01*
X148943491Y-96763075D01*
X148898166Y-96872498D01*
X148875503Y-96927211D01*
X148777467Y-97073933D01*
X148776802Y-97074928D01*
X148651178Y-97200552D01*
X148651175Y-97200554D01*
X148503461Y-97299253D01*
X148448748Y-97321916D01*
X148339325Y-97367241D01*
X148252202Y-97384570D01*
X148165081Y-97401900D01*
X147987419Y-97401900D01*
X147900298Y-97384570D01*
X147813175Y-97367241D01*
X147703752Y-97321916D01*
X147649039Y-97299253D01*
X147501325Y-97200554D01*
X147501322Y-97200552D01*
X147375698Y-97074928D01*
X147375033Y-97073933D01*
X147276997Y-96927211D01*
X147254334Y-96872498D01*
X147209009Y-96763075D01*
X147174350Y-96588829D01*
X147174350Y-96411171D01*
X147209009Y-96236925D01*
X147254334Y-96127502D01*
X147276997Y-96072789D01*
X147375696Y-95925075D01*
X147375698Y-95925072D01*
X147501322Y-95799448D01*
X147584778Y-95743685D01*
X147649039Y-95700747D01*
X147703752Y-95678084D01*
X147813175Y-95632759D01*
X147900298Y-95615430D01*
X147987419Y-95598100D01*
X148165081Y-95598100D01*
X148252202Y-95615430D01*
X148252202Y-95615430D01*
G37*
G36*
X110002202Y-95615430D02*
G01*
X110089325Y-95632759D01*
X110198748Y-95678084D01*
X110253461Y-95700747D01*
X110317722Y-95743685D01*
X110401178Y-95799448D01*
X110526802Y-95925072D01*
X110526804Y-95925075D01*
X110625503Y-96072789D01*
X110648166Y-96127502D01*
X110693491Y-96236925D01*
X110728150Y-96411171D01*
X110728150Y-96588829D01*
X110693491Y-96763075D01*
X110648166Y-96872498D01*
X110625503Y-96927211D01*
X110527467Y-97073933D01*
X110526802Y-97074928D01*
X110401178Y-97200552D01*
X110401175Y-97200554D01*
X110253461Y-97299253D01*
X110198748Y-97321916D01*
X110089325Y-97367241D01*
X110002202Y-97384570D01*
X109915081Y-97401900D01*
X109737419Y-97401900D01*
X109650298Y-97384570D01*
X109563175Y-97367241D01*
X109453752Y-97321916D01*
X109399039Y-97299253D01*
X109251325Y-97200554D01*
X109251322Y-97200552D01*
X109125698Y-97074928D01*
X109125033Y-97073933D01*
X109026997Y-96927211D01*
X109004334Y-96872498D01*
X108959009Y-96763075D01*
X108924350Y-96588829D01*
X108924350Y-96411171D01*
X108959009Y-96236925D01*
X109004334Y-96127502D01*
X109026997Y-96072789D01*
X109125696Y-95925075D01*
X109125698Y-95925072D01*
X109251322Y-95799448D01*
X109334778Y-95743685D01*
X109399039Y-95700747D01*
X109453752Y-95678084D01*
X109563175Y-95632759D01*
X109650298Y-95615430D01*
X109737419Y-95598100D01*
X109915081Y-95598100D01*
X110002202Y-95615430D01*
X110002202Y-95615430D01*
G37*
G36*
X120162202Y-95615430D02*
G01*
X120249325Y-95632759D01*
X120358748Y-95678084D01*
X120413461Y-95700747D01*
X120477722Y-95743685D01*
X120561178Y-95799448D01*
X120686802Y-95925072D01*
X120686804Y-95925075D01*
X120785503Y-96072789D01*
X120808166Y-96127502D01*
X120853491Y-96236925D01*
X120888150Y-96411171D01*
X120888150Y-96588829D01*
X120853491Y-96763075D01*
X120808166Y-96872498D01*
X120785503Y-96927211D01*
X120687467Y-97073933D01*
X120686802Y-97074928D01*
X120561178Y-97200552D01*
X120561175Y-97200554D01*
X120413461Y-97299253D01*
X120358748Y-97321916D01*
X120249325Y-97367241D01*
X120162202Y-97384570D01*
X120075081Y-97401900D01*
X119897419Y-97401900D01*
X119810298Y-97384570D01*
X119723175Y-97367241D01*
X119613752Y-97321916D01*
X119559039Y-97299253D01*
X119411325Y-97200554D01*
X119411322Y-97200552D01*
X119285698Y-97074928D01*
X119285033Y-97073933D01*
X119186997Y-96927211D01*
X119164334Y-96872498D01*
X119119009Y-96763075D01*
X119084350Y-96588829D01*
X119084350Y-96411171D01*
X119119009Y-96236925D01*
X119164334Y-96127502D01*
X119186997Y-96072789D01*
X119285696Y-95925075D01*
X119285698Y-95925072D01*
X119411322Y-95799448D01*
X119494778Y-95743685D01*
X119559039Y-95700747D01*
X119613752Y-95678084D01*
X119723175Y-95632759D01*
X119810298Y-95615430D01*
X119897419Y-95598100D01*
X120075081Y-95598100D01*
X120162202Y-95615430D01*
X120162202Y-95615430D01*
G37*
G36*
X129220952Y-95615430D02*
G01*
X129308075Y-95632759D01*
X129417498Y-95678084D01*
X129472211Y-95700747D01*
X129536472Y-95743685D01*
X129619928Y-95799448D01*
X129745552Y-95925072D01*
X129745554Y-95925075D01*
X129844253Y-96072789D01*
X129866916Y-96127502D01*
X129912241Y-96236925D01*
X129946900Y-96411171D01*
X129946900Y-96588829D01*
X129912241Y-96763075D01*
X129866916Y-96872498D01*
X129844253Y-96927211D01*
X129746217Y-97073933D01*
X129745552Y-97074928D01*
X129619928Y-97200552D01*
X129619925Y-97200554D01*
X129472211Y-97299253D01*
X129417498Y-97321916D01*
X129308075Y-97367241D01*
X129220952Y-97384570D01*
X129133831Y-97401900D01*
X128956169Y-97401900D01*
X128869048Y-97384570D01*
X128781925Y-97367241D01*
X128672502Y-97321916D01*
X128617789Y-97299253D01*
X128470075Y-97200554D01*
X128470072Y-97200552D01*
X128344448Y-97074928D01*
X128343783Y-97073933D01*
X128245747Y-96927211D01*
X128223084Y-96872498D01*
X128177759Y-96763075D01*
X128143100Y-96588829D01*
X128143100Y-96411171D01*
X128177759Y-96236925D01*
X128223084Y-96127502D01*
X128245747Y-96072789D01*
X128344446Y-95925075D01*
X128344448Y-95925072D01*
X128470072Y-95799448D01*
X128553528Y-95743685D01*
X128617789Y-95700747D01*
X128672502Y-95678084D01*
X128781925Y-95632759D01*
X128869048Y-95615430D01*
X128956169Y-95598100D01*
X129133831Y-95598100D01*
X129220952Y-95615430D01*
X129220952Y-95615430D01*
G37*
G36*
X139380952Y-95615430D02*
G01*
X139468075Y-95632759D01*
X139577498Y-95678084D01*
X139632211Y-95700747D01*
X139696472Y-95743685D01*
X139779928Y-95799448D01*
X139905552Y-95925072D01*
X139905554Y-95925075D01*
X140004253Y-96072789D01*
X140026916Y-96127502D01*
X140072241Y-96236925D01*
X140106900Y-96411171D01*
X140106900Y-96588829D01*
X140072241Y-96763075D01*
X140026916Y-96872498D01*
X140004253Y-96927211D01*
X139906217Y-97073933D01*
X139905552Y-97074928D01*
X139779928Y-97200552D01*
X139779925Y-97200554D01*
X139632211Y-97299253D01*
X139577498Y-97321916D01*
X139468075Y-97367241D01*
X139380952Y-97384570D01*
X139293831Y-97401900D01*
X139116169Y-97401900D01*
X139029048Y-97384570D01*
X138941925Y-97367241D01*
X138832502Y-97321916D01*
X138777789Y-97299253D01*
X138630075Y-97200554D01*
X138630072Y-97200552D01*
X138504448Y-97074928D01*
X138503783Y-97073933D01*
X138405747Y-96927211D01*
X138383084Y-96872498D01*
X138337759Y-96763075D01*
X138303100Y-96588829D01*
X138303100Y-96411171D01*
X138337759Y-96236925D01*
X138383084Y-96127502D01*
X138405747Y-96072789D01*
X138504446Y-95925075D01*
X138504448Y-95925072D01*
X138630072Y-95799448D01*
X138713528Y-95743685D01*
X138777789Y-95700747D01*
X138832502Y-95678084D01*
X138941925Y-95632759D01*
X139029048Y-95615430D01*
X139116169Y-95598100D01*
X139293831Y-95598100D01*
X139380952Y-95615430D01*
X139380952Y-95615430D01*
G37*
G36*
X167470952Y-95615430D02*
G01*
X167558075Y-95632759D01*
X167667498Y-95678084D01*
X167722211Y-95700747D01*
X167786472Y-95743685D01*
X167869928Y-95799448D01*
X167995552Y-95925072D01*
X167995554Y-95925075D01*
X168094253Y-96072789D01*
X168116916Y-96127502D01*
X168162241Y-96236925D01*
X168196900Y-96411171D01*
X168196900Y-96588829D01*
X168162241Y-96763075D01*
X168116916Y-96872498D01*
X168094253Y-96927211D01*
X167996217Y-97073933D01*
X167995552Y-97074928D01*
X167869928Y-97200552D01*
X167869925Y-97200554D01*
X167722211Y-97299253D01*
X167667498Y-97321916D01*
X167558075Y-97367241D01*
X167470952Y-97384570D01*
X167383831Y-97401900D01*
X167206169Y-97401900D01*
X167119048Y-97384570D01*
X167031925Y-97367241D01*
X166922502Y-97321916D01*
X166867789Y-97299253D01*
X166720075Y-97200554D01*
X166720072Y-97200552D01*
X166594448Y-97074928D01*
X166593783Y-97073933D01*
X166495747Y-96927211D01*
X166473084Y-96872498D01*
X166427759Y-96763075D01*
X166393100Y-96588829D01*
X166393100Y-96411171D01*
X166427759Y-96236925D01*
X166473084Y-96127502D01*
X166495747Y-96072789D01*
X166594446Y-95925075D01*
X166594448Y-95925072D01*
X166720072Y-95799448D01*
X166803528Y-95743685D01*
X166867789Y-95700747D01*
X166922502Y-95678084D01*
X167031925Y-95632759D01*
X167119048Y-95615430D01*
X167206169Y-95598100D01*
X167383831Y-95598100D01*
X167470952Y-95615430D01*
X167470952Y-95615430D01*
G37*
G36*
X101935728Y-95009203D02*
G01*
X102090600Y-95073353D01*
X102229981Y-95166485D01*
X102348515Y-95285019D01*
X102441647Y-95424400D01*
X102505797Y-95579272D01*
X102538500Y-95743684D01*
X102538500Y-95911316D01*
X102505797Y-96075728D01*
X102441647Y-96230600D01*
X102348515Y-96369981D01*
X102229981Y-96488515D01*
X102090600Y-96581647D01*
X101935728Y-96645797D01*
X101771316Y-96678500D01*
X101603684Y-96678500D01*
X101439272Y-96645797D01*
X101284400Y-96581647D01*
X101145019Y-96488515D01*
X101026485Y-96369981D01*
X100933353Y-96230600D01*
X100869203Y-96075728D01*
X100836500Y-95911316D01*
X100836500Y-95743684D01*
X100869203Y-95579272D01*
X100933353Y-95424400D01*
X101026485Y-95285019D01*
X101145019Y-95166485D01*
X101284400Y-95073353D01*
X101439272Y-95009203D01*
X101603684Y-94976500D01*
X101771316Y-94976500D01*
X101935728Y-95009203D01*
X101935728Y-95009203D01*
G37*
G36*
X86695728Y-95009203D02*
G01*
X86850600Y-95073353D01*
X86989981Y-95166485D01*
X87108515Y-95285019D01*
X87201647Y-95424400D01*
X87265797Y-95579272D01*
X87298500Y-95743684D01*
X87298500Y-95911316D01*
X87265797Y-96075728D01*
X87201647Y-96230600D01*
X87108515Y-96369981D01*
X86989981Y-96488515D01*
X86850600Y-96581647D01*
X86695728Y-96645797D01*
X86531316Y-96678500D01*
X86363684Y-96678500D01*
X86199272Y-96645797D01*
X86044400Y-96581647D01*
X85905019Y-96488515D01*
X85786485Y-96369981D01*
X85693353Y-96230600D01*
X85629203Y-96075728D01*
X85596500Y-95911316D01*
X85596500Y-95743684D01*
X85629203Y-95579272D01*
X85693353Y-95424400D01*
X85786485Y-95285019D01*
X85905019Y-95166485D01*
X86044400Y-95073353D01*
X86199272Y-95009203D01*
X86363684Y-94976500D01*
X86531316Y-94976500D01*
X86695728Y-95009203D01*
X86695728Y-95009203D01*
G37*
G36*
X168913276Y-92811884D02*
G01*
X169130569Y-92901890D01*
X169130571Y-92901891D01*
X169326130Y-93032560D01*
X169492440Y-93198870D01*
X169607665Y-93371315D01*
X169623110Y-93394431D01*
X169713116Y-93611724D01*
X169759000Y-93842400D01*
X169759000Y-94077600D01*
X169713116Y-94308276D01*
X169652299Y-94455100D01*
X169623109Y-94525571D01*
X169492440Y-94721130D01*
X169326130Y-94887440D01*
X169130571Y-95018109D01*
X169130570Y-95018110D01*
X169130569Y-95018110D01*
X168913276Y-95108116D01*
X168682600Y-95154000D01*
X168447400Y-95154000D01*
X168216724Y-95108116D01*
X167999431Y-95018110D01*
X167999430Y-95018110D01*
X167999429Y-95018109D01*
X167803870Y-94887440D01*
X167637560Y-94721130D01*
X167506891Y-94525571D01*
X167477701Y-94455100D01*
X167416884Y-94308276D01*
X167371000Y-94077600D01*
X167371000Y-93842400D01*
X167416884Y-93611724D01*
X167506890Y-93394431D01*
X167522336Y-93371315D01*
X167637560Y-93198870D01*
X167803870Y-93032560D01*
X167999429Y-92901891D01*
X167999431Y-92901890D01*
X168216724Y-92811884D01*
X168447400Y-92766000D01*
X168682600Y-92766000D01*
X168913276Y-92811884D01*
X168913276Y-92811884D01*
G37*
G36*
X111444526Y-92811884D02*
G01*
X111661819Y-92901890D01*
X111661821Y-92901891D01*
X111857380Y-93032560D01*
X112023690Y-93198870D01*
X112138915Y-93371315D01*
X112154360Y-93394431D01*
X112244366Y-93611724D01*
X112290250Y-93842400D01*
X112290250Y-94077600D01*
X112244366Y-94308276D01*
X112183549Y-94455100D01*
X112154359Y-94525571D01*
X112023690Y-94721130D01*
X111857380Y-94887440D01*
X111661821Y-95018109D01*
X111661820Y-95018110D01*
X111661819Y-95018110D01*
X111444526Y-95108116D01*
X111213850Y-95154000D01*
X110978650Y-95154000D01*
X110747974Y-95108116D01*
X110530681Y-95018110D01*
X110530680Y-95018110D01*
X110530679Y-95018109D01*
X110335120Y-94887440D01*
X110168810Y-94721130D01*
X110038141Y-94525571D01*
X110008951Y-94455100D01*
X109948134Y-94308276D01*
X109902250Y-94077600D01*
X109902250Y-93842400D01*
X109948134Y-93611724D01*
X110038140Y-93394431D01*
X110053586Y-93371315D01*
X110168810Y-93198870D01*
X110335120Y-93032560D01*
X110530679Y-92901891D01*
X110530681Y-92901890D01*
X110747974Y-92811884D01*
X110978650Y-92766000D01*
X111213850Y-92766000D01*
X111444526Y-92811884D01*
X111444526Y-92811884D01*
G37*
G36*
X149694526Y-92811884D02*
G01*
X149911819Y-92901890D01*
X149911821Y-92901891D01*
X150107380Y-93032560D01*
X150273690Y-93198870D01*
X150388915Y-93371315D01*
X150404360Y-93394431D01*
X150494366Y-93611724D01*
X150540250Y-93842400D01*
X150540250Y-94077600D01*
X150494366Y-94308276D01*
X150433549Y-94455100D01*
X150404359Y-94525571D01*
X150273690Y-94721130D01*
X150107380Y-94887440D01*
X149911821Y-95018109D01*
X149911820Y-95018110D01*
X149911819Y-95018110D01*
X149694526Y-95108116D01*
X149463850Y-95154000D01*
X149228650Y-95154000D01*
X148997974Y-95108116D01*
X148780681Y-95018110D01*
X148780680Y-95018110D01*
X148780679Y-95018109D01*
X148585120Y-94887440D01*
X148418810Y-94721130D01*
X148288141Y-94525571D01*
X148258951Y-94455100D01*
X148198134Y-94308276D01*
X148152250Y-94077600D01*
X148152250Y-93842400D01*
X148198134Y-93611724D01*
X148288140Y-93394431D01*
X148303586Y-93371315D01*
X148418810Y-93198870D01*
X148585120Y-93032560D01*
X148780679Y-92901891D01*
X148780681Y-92901890D01*
X148997974Y-92811884D01*
X149228650Y-92766000D01*
X149463850Y-92766000D01*
X149694526Y-92811884D01*
X149694526Y-92811884D01*
G37*
G36*
X130663276Y-92811884D02*
G01*
X130880569Y-92901890D01*
X130880571Y-92901891D01*
X131076130Y-93032560D01*
X131242440Y-93198870D01*
X131357665Y-93371315D01*
X131373110Y-93394431D01*
X131463116Y-93611724D01*
X131509000Y-93842400D01*
X131509000Y-94077600D01*
X131463116Y-94308276D01*
X131402299Y-94455100D01*
X131373109Y-94525571D01*
X131242440Y-94721130D01*
X131076130Y-94887440D01*
X130880571Y-95018109D01*
X130880570Y-95018110D01*
X130880569Y-95018110D01*
X130663276Y-95108116D01*
X130432600Y-95154000D01*
X130197400Y-95154000D01*
X129966724Y-95108116D01*
X129749431Y-95018110D01*
X129749430Y-95018110D01*
X129749429Y-95018109D01*
X129553870Y-94887440D01*
X129387560Y-94721130D01*
X129256891Y-94525571D01*
X129227701Y-94455100D01*
X129166884Y-94308276D01*
X129121000Y-94077600D01*
X129121000Y-93842400D01*
X129166884Y-93611724D01*
X129256890Y-93394431D01*
X129272336Y-93371315D01*
X129387560Y-93198870D01*
X129553870Y-93032560D01*
X129749429Y-92901891D01*
X129749431Y-92901890D01*
X129966724Y-92811884D01*
X130197400Y-92766000D01*
X130432600Y-92766000D01*
X130663276Y-92811884D01*
X130663276Y-92811884D01*
G37*
G36*
X86695728Y-92469203D02*
G01*
X86850600Y-92533353D01*
X86989981Y-92626485D01*
X87108515Y-92745019D01*
X87201647Y-92884400D01*
X87265797Y-93039272D01*
X87298500Y-93203684D01*
X87298500Y-93371316D01*
X87265797Y-93535728D01*
X87201647Y-93690600D01*
X87108515Y-93829981D01*
X86989981Y-93948515D01*
X86850600Y-94041647D01*
X86695728Y-94105797D01*
X86531316Y-94138500D01*
X86363684Y-94138500D01*
X86199272Y-94105797D01*
X86044400Y-94041647D01*
X85905019Y-93948515D01*
X85786485Y-93829981D01*
X85693353Y-93690600D01*
X85629203Y-93535728D01*
X85596500Y-93371316D01*
X85596500Y-93203684D01*
X85629203Y-93039272D01*
X85693353Y-92884400D01*
X85786485Y-92745019D01*
X85905019Y-92626485D01*
X86044400Y-92533353D01*
X86199272Y-92469203D01*
X86363684Y-92436500D01*
X86531316Y-92436500D01*
X86695728Y-92469203D01*
X86695728Y-92469203D01*
G37*
G36*
X101935728Y-92469203D02*
G01*
X102090600Y-92533353D01*
X102229981Y-92626485D01*
X102348515Y-92745019D01*
X102441647Y-92884400D01*
X102505797Y-93039272D01*
X102538500Y-93203684D01*
X102538500Y-93371316D01*
X102505797Y-93535728D01*
X102441647Y-93690600D01*
X102348515Y-93829981D01*
X102229981Y-93948515D01*
X102090600Y-94041647D01*
X101935728Y-94105797D01*
X101771316Y-94138500D01*
X101603684Y-94138500D01*
X101439272Y-94105797D01*
X101284400Y-94041647D01*
X101145019Y-93948515D01*
X101026485Y-93829981D01*
X100933353Y-93690600D01*
X100869203Y-93535728D01*
X100836500Y-93371316D01*
X100836500Y-93203684D01*
X100869203Y-93039272D01*
X100933353Y-92884400D01*
X101026485Y-92745019D01*
X101145019Y-92626485D01*
X101284400Y-92533353D01*
X101439272Y-92469203D01*
X101603684Y-92436500D01*
X101771316Y-92436500D01*
X101935728Y-92469203D01*
X101935728Y-92469203D01*
G37*
G36*
X175263276Y-90271884D02*
G01*
X175480569Y-90361890D01*
X175480571Y-90361891D01*
X175676130Y-90492560D01*
X175842440Y-90658870D01*
X175957665Y-90831315D01*
X175973110Y-90854431D01*
X176063116Y-91071724D01*
X176109000Y-91302400D01*
X176109000Y-91537600D01*
X176063116Y-91768276D01*
X175973110Y-91985569D01*
X175973109Y-91985571D01*
X175842440Y-92181130D01*
X175676130Y-92347440D01*
X175480571Y-92478109D01*
X175480570Y-92478110D01*
X175480569Y-92478110D01*
X175263276Y-92568116D01*
X175032600Y-92614000D01*
X174797400Y-92614000D01*
X174566724Y-92568116D01*
X174349431Y-92478110D01*
X174349430Y-92478110D01*
X174349429Y-92478109D01*
X174153870Y-92347440D01*
X173987560Y-92181130D01*
X173856891Y-91985571D01*
X173856890Y-91985569D01*
X173766884Y-91768276D01*
X173721000Y-91537600D01*
X173721000Y-91302400D01*
X173766884Y-91071724D01*
X173856890Y-90854431D01*
X173872336Y-90831315D01*
X173987560Y-90658870D01*
X174153870Y-90492560D01*
X174349429Y-90361891D01*
X174349431Y-90361890D01*
X174566724Y-90271884D01*
X174797400Y-90226000D01*
X175032600Y-90226000D01*
X175263276Y-90271884D01*
X175263276Y-90271884D01*
G37*
G36*
X137013276Y-90271884D02*
G01*
X137230569Y-90361890D01*
X137230571Y-90361891D01*
X137426130Y-90492560D01*
X137592440Y-90658870D01*
X137707665Y-90831315D01*
X137723110Y-90854431D01*
X137813116Y-91071724D01*
X137859000Y-91302400D01*
X137859000Y-91537600D01*
X137813116Y-91768276D01*
X137723110Y-91985569D01*
X137723109Y-91985571D01*
X137592440Y-92181130D01*
X137426130Y-92347440D01*
X137230571Y-92478109D01*
X137230570Y-92478110D01*
X137230569Y-92478110D01*
X137013276Y-92568116D01*
X136782600Y-92614000D01*
X136547400Y-92614000D01*
X136316724Y-92568116D01*
X136099431Y-92478110D01*
X136099430Y-92478110D01*
X136099429Y-92478109D01*
X135903870Y-92347440D01*
X135737560Y-92181130D01*
X135606891Y-91985571D01*
X135606890Y-91985569D01*
X135516884Y-91768276D01*
X135471000Y-91537600D01*
X135471000Y-91302400D01*
X135516884Y-91071724D01*
X135606890Y-90854431D01*
X135622336Y-90831315D01*
X135737560Y-90658870D01*
X135903870Y-90492560D01*
X136099429Y-90361891D01*
X136099431Y-90361890D01*
X136316724Y-90271884D01*
X136547400Y-90226000D01*
X136782600Y-90226000D01*
X137013276Y-90271884D01*
X137013276Y-90271884D01*
G37*
G36*
X156044526Y-90271884D02*
G01*
X156261819Y-90361890D01*
X156261821Y-90361891D01*
X156457380Y-90492560D01*
X156623690Y-90658870D01*
X156738915Y-90831315D01*
X156754360Y-90854431D01*
X156844366Y-91071724D01*
X156890250Y-91302400D01*
X156890250Y-91537600D01*
X156844366Y-91768276D01*
X156754360Y-91985569D01*
X156754359Y-91985571D01*
X156623690Y-92181130D01*
X156457380Y-92347440D01*
X156261821Y-92478109D01*
X156261820Y-92478110D01*
X156261819Y-92478110D01*
X156044526Y-92568116D01*
X155813850Y-92614000D01*
X155578650Y-92614000D01*
X155347974Y-92568116D01*
X155130681Y-92478110D01*
X155130680Y-92478110D01*
X155130679Y-92478109D01*
X154935120Y-92347440D01*
X154768810Y-92181130D01*
X154638141Y-91985571D01*
X154638140Y-91985569D01*
X154548134Y-91768276D01*
X154502250Y-91537600D01*
X154502250Y-91302400D01*
X154548134Y-91071724D01*
X154638140Y-90854431D01*
X154653586Y-90831315D01*
X154768810Y-90658870D01*
X154935120Y-90492560D01*
X155130679Y-90361891D01*
X155130681Y-90361890D01*
X155347974Y-90271884D01*
X155578650Y-90226000D01*
X155813850Y-90226000D01*
X156044526Y-90271884D01*
X156044526Y-90271884D01*
G37*
G36*
X117794526Y-90271884D02*
G01*
X118011819Y-90361890D01*
X118011821Y-90361891D01*
X118207380Y-90492560D01*
X118373690Y-90658870D01*
X118488915Y-90831315D01*
X118504360Y-90854431D01*
X118594366Y-91071724D01*
X118640250Y-91302400D01*
X118640250Y-91537600D01*
X118594366Y-91768276D01*
X118504360Y-91985569D01*
X118504359Y-91985571D01*
X118373690Y-92181130D01*
X118207380Y-92347440D01*
X118011821Y-92478109D01*
X118011820Y-92478110D01*
X118011819Y-92478110D01*
X117794526Y-92568116D01*
X117563850Y-92614000D01*
X117328650Y-92614000D01*
X117097974Y-92568116D01*
X116880681Y-92478110D01*
X116880680Y-92478110D01*
X116880679Y-92478109D01*
X116685120Y-92347440D01*
X116518810Y-92181130D01*
X116388141Y-91985571D01*
X116388140Y-91985569D01*
X116298134Y-91768276D01*
X116252250Y-91537600D01*
X116252250Y-91302400D01*
X116298134Y-91071724D01*
X116388140Y-90854431D01*
X116403586Y-90831315D01*
X116518810Y-90658870D01*
X116685120Y-90492560D01*
X116880679Y-90361891D01*
X116880681Y-90361890D01*
X117097974Y-90271884D01*
X117328650Y-90226000D01*
X117563850Y-90226000D01*
X117794526Y-90271884D01*
X117794526Y-90271884D01*
G37*
G36*
X86695728Y-89929203D02*
G01*
X86850600Y-89993353D01*
X86989981Y-90086485D01*
X87108515Y-90205019D01*
X87201647Y-90344400D01*
X87265797Y-90499272D01*
X87298500Y-90663684D01*
X87298500Y-90831316D01*
X87265797Y-90995728D01*
X87201647Y-91150600D01*
X87108515Y-91289981D01*
X86989981Y-91408515D01*
X86850600Y-91501647D01*
X86695728Y-91565797D01*
X86531316Y-91598500D01*
X86363684Y-91598500D01*
X86199272Y-91565797D01*
X86044400Y-91501647D01*
X85905019Y-91408515D01*
X85786485Y-91289981D01*
X85693353Y-91150600D01*
X85629203Y-90995728D01*
X85596500Y-90831316D01*
X85596500Y-90663684D01*
X85629203Y-90499272D01*
X85693353Y-90344400D01*
X85786485Y-90205019D01*
X85905019Y-90086485D01*
X86044400Y-89993353D01*
X86199272Y-89929203D01*
X86363684Y-89896500D01*
X86531316Y-89896500D01*
X86695728Y-89929203D01*
X86695728Y-89929203D01*
G37*
G36*
X101935728Y-89929203D02*
G01*
X102090600Y-89993353D01*
X102229981Y-90086485D01*
X102348515Y-90205019D01*
X102441647Y-90344400D01*
X102505797Y-90499272D01*
X102538500Y-90663684D01*
X102538500Y-90831316D01*
X102505797Y-90995728D01*
X102441647Y-91150600D01*
X102348515Y-91289981D01*
X102229981Y-91408515D01*
X102090600Y-91501647D01*
X101935728Y-91565797D01*
X101771316Y-91598500D01*
X101603684Y-91598500D01*
X101439272Y-91565797D01*
X101284400Y-91501647D01*
X101145019Y-91408515D01*
X101026485Y-91289981D01*
X100933353Y-91150600D01*
X100869203Y-90995728D01*
X100836500Y-90831316D01*
X100836500Y-90663684D01*
X100869203Y-90499272D01*
X100933353Y-90344400D01*
X101026485Y-90205019D01*
X101145019Y-90086485D01*
X101284400Y-89993353D01*
X101439272Y-89929203D01*
X101603684Y-89896500D01*
X101771316Y-89896500D01*
X101935728Y-89929203D01*
X101935728Y-89929203D01*
G37*
G36*
X112194750Y-89101000D02*
G01*
X110492750Y-89101000D01*
X110492750Y-87399000D01*
X112194750Y-87399000D01*
X112194750Y-89101000D01*
X112194750Y-89101000D01*
G37*
G36*
X119130573Y-87411313D02*
G01*
X119290992Y-87459976D01*
X119423656Y-87530886D01*
X119438828Y-87538996D01*
X119568409Y-87645341D01*
X119674754Y-87774922D01*
X119674755Y-87774924D01*
X119753774Y-87922758D01*
X119802437Y-88083177D01*
X119818867Y-88250000D01*
X119802437Y-88416823D01*
X119753774Y-88577242D01*
X119682864Y-88709906D01*
X119674754Y-88725078D01*
X119568409Y-88854659D01*
X119438828Y-88961004D01*
X119438826Y-88961005D01*
X119290992Y-89040024D01*
X119130573Y-89088687D01*
X119005554Y-89101000D01*
X118921946Y-89101000D01*
X118796927Y-89088687D01*
X118636508Y-89040024D01*
X118488674Y-88961005D01*
X118488672Y-88961004D01*
X118359091Y-88854659D01*
X118252746Y-88725078D01*
X118244636Y-88709906D01*
X118173726Y-88577242D01*
X118125063Y-88416823D01*
X118108633Y-88250000D01*
X118125063Y-88083177D01*
X118173726Y-87922758D01*
X118252745Y-87774924D01*
X118252746Y-87774922D01*
X118359091Y-87645341D01*
X118488672Y-87538996D01*
X118503844Y-87530886D01*
X118636508Y-87459976D01*
X118796927Y-87411313D01*
X118921946Y-87399000D01*
X119005554Y-87399000D01*
X119130573Y-87411313D01*
X119130573Y-87411313D01*
G37*
G36*
X131481000Y-89101000D02*
G01*
X129779000Y-89101000D01*
X129779000Y-87399000D01*
X131481000Y-87399000D01*
X131481000Y-89101000D01*
X131481000Y-89101000D01*
G37*
G36*
X138416823Y-87411313D02*
G01*
X138577242Y-87459976D01*
X138709906Y-87530886D01*
X138725078Y-87538996D01*
X138854659Y-87645341D01*
X138961004Y-87774922D01*
X138961005Y-87774924D01*
X139040024Y-87922758D01*
X139088687Y-88083177D01*
X139105117Y-88250000D01*
X139088687Y-88416823D01*
X139040024Y-88577242D01*
X138969114Y-88709906D01*
X138961004Y-88725078D01*
X138854659Y-88854659D01*
X138725078Y-88961004D01*
X138725076Y-88961005D01*
X138577242Y-89040024D01*
X138416823Y-89088687D01*
X138291804Y-89101000D01*
X138208196Y-89101000D01*
X138083177Y-89088687D01*
X137922758Y-89040024D01*
X137774924Y-88961005D01*
X137774922Y-88961004D01*
X137645341Y-88854659D01*
X137538996Y-88725078D01*
X137530886Y-88709906D01*
X137459976Y-88577242D01*
X137411313Y-88416823D01*
X137394883Y-88250000D01*
X137411313Y-88083177D01*
X137459976Y-87922758D01*
X137538995Y-87774924D01*
X137538996Y-87774922D01*
X137645341Y-87645341D01*
X137774922Y-87538996D01*
X137790094Y-87530886D01*
X137922758Y-87459976D01*
X138083177Y-87411313D01*
X138208196Y-87399000D01*
X138291804Y-87399000D01*
X138416823Y-87411313D01*
X138416823Y-87411313D01*
G37*
G36*
X169637250Y-89101000D02*
G01*
X167935250Y-89101000D01*
X167935250Y-87399000D01*
X169637250Y-87399000D01*
X169637250Y-89101000D01*
X169637250Y-89101000D01*
G37*
G36*
X157380573Y-87411313D02*
G01*
X157540992Y-87459976D01*
X157673656Y-87530886D01*
X157688828Y-87538996D01*
X157818409Y-87645341D01*
X157924754Y-87774922D01*
X157924755Y-87774924D01*
X158003774Y-87922758D01*
X158052437Y-88083177D01*
X158068867Y-88250000D01*
X158052437Y-88416823D01*
X158003774Y-88577242D01*
X157932864Y-88709906D01*
X157924754Y-88725078D01*
X157818409Y-88854659D01*
X157688828Y-88961004D01*
X157688826Y-88961005D01*
X157540992Y-89040024D01*
X157380573Y-89088687D01*
X157255554Y-89101000D01*
X157171946Y-89101000D01*
X157046927Y-89088687D01*
X156886508Y-89040024D01*
X156738674Y-88961005D01*
X156738672Y-88961004D01*
X156609091Y-88854659D01*
X156502746Y-88725078D01*
X156494636Y-88709906D01*
X156423726Y-88577242D01*
X156375063Y-88416823D01*
X156358633Y-88250000D01*
X156375063Y-88083177D01*
X156423726Y-87922758D01*
X156502745Y-87774924D01*
X156502746Y-87774922D01*
X156609091Y-87645341D01*
X156738672Y-87538996D01*
X156753844Y-87530886D01*
X156886508Y-87459976D01*
X157046927Y-87411313D01*
X157171946Y-87399000D01*
X157255554Y-87399000D01*
X157380573Y-87411313D01*
X157380573Y-87411313D01*
G37*
G36*
X176573073Y-87411313D02*
G01*
X176733492Y-87459976D01*
X176866156Y-87530886D01*
X176881328Y-87538996D01*
X177010909Y-87645341D01*
X177117254Y-87774922D01*
X177117255Y-87774924D01*
X177196274Y-87922758D01*
X177244937Y-88083177D01*
X177261367Y-88250000D01*
X177244937Y-88416823D01*
X177196274Y-88577242D01*
X177125364Y-88709906D01*
X177117254Y-88725078D01*
X177010909Y-88854659D01*
X176881328Y-88961004D01*
X176881326Y-88961005D01*
X176733492Y-89040024D01*
X176573073Y-89088687D01*
X176448054Y-89101000D01*
X176364446Y-89101000D01*
X176239427Y-89088687D01*
X176079008Y-89040024D01*
X175931174Y-88961005D01*
X175931172Y-88961004D01*
X175801591Y-88854659D01*
X175695246Y-88725078D01*
X175687136Y-88709906D01*
X175616226Y-88577242D01*
X175567563Y-88416823D01*
X175551133Y-88250000D01*
X175567563Y-88083177D01*
X175616226Y-87922758D01*
X175695245Y-87774924D01*
X175695246Y-87774922D01*
X175801591Y-87645341D01*
X175931172Y-87538996D01*
X175946344Y-87530886D01*
X176079008Y-87459976D01*
X176239427Y-87411313D01*
X176364446Y-87399000D01*
X176448054Y-87399000D01*
X176573073Y-87411313D01*
X176573073Y-87411313D01*
G37*
G36*
X150444750Y-89101000D02*
G01*
X148742750Y-89101000D01*
X148742750Y-87399000D01*
X150444750Y-87399000D01*
X150444750Y-89101000D01*
X150444750Y-89101000D01*
G37*
G36*
X86695728Y-87389203D02*
G01*
X86850600Y-87453353D01*
X86989981Y-87546485D01*
X87108515Y-87665019D01*
X87201647Y-87804400D01*
X87265797Y-87959272D01*
X87298500Y-88123684D01*
X87298500Y-88291316D01*
X87265797Y-88455728D01*
X87201647Y-88610600D01*
X87108515Y-88749981D01*
X86989981Y-88868515D01*
X86850600Y-88961647D01*
X86695728Y-89025797D01*
X86531316Y-89058500D01*
X86363684Y-89058500D01*
X86199272Y-89025797D01*
X86044400Y-88961647D01*
X85905019Y-88868515D01*
X85786485Y-88749981D01*
X85693353Y-88610600D01*
X85629203Y-88455728D01*
X85596500Y-88291316D01*
X85596500Y-88123684D01*
X85629203Y-87959272D01*
X85693353Y-87804400D01*
X85786485Y-87665019D01*
X85905019Y-87546485D01*
X86044400Y-87453353D01*
X86199272Y-87389203D01*
X86363684Y-87356500D01*
X86531316Y-87356500D01*
X86695728Y-87389203D01*
X86695728Y-87389203D01*
G37*
G36*
X101935728Y-87389203D02*
G01*
X102090600Y-87453353D01*
X102229981Y-87546485D01*
X102348515Y-87665019D01*
X102441647Y-87804400D01*
X102505797Y-87959272D01*
X102538500Y-88123684D01*
X102538500Y-88291316D01*
X102505797Y-88455728D01*
X102441647Y-88610600D01*
X102348515Y-88749981D01*
X102229981Y-88868515D01*
X102090600Y-88961647D01*
X101935728Y-89025797D01*
X101771316Y-89058500D01*
X101603684Y-89058500D01*
X101439272Y-89025797D01*
X101284400Y-88961647D01*
X101145019Y-88868515D01*
X101026485Y-88749981D01*
X100933353Y-88610600D01*
X100869203Y-88455728D01*
X100836500Y-88291316D01*
X100836500Y-88123684D01*
X100869203Y-87959272D01*
X100933353Y-87804400D01*
X101026485Y-87665019D01*
X101145019Y-87546485D01*
X101284400Y-87453353D01*
X101439272Y-87389203D01*
X101603684Y-87356500D01*
X101771316Y-87356500D01*
X101935728Y-87389203D01*
X101935728Y-87389203D01*
G37*
G36*
X127038500Y-88226000D02*
G01*
X125336500Y-88226000D01*
X125336500Y-87274000D01*
X127038500Y-87274000D01*
X127038500Y-88226000D01*
X127038500Y-88226000D01*
G37*
G36*
X123538500Y-88226000D02*
G01*
X121836500Y-88226000D01*
X121836500Y-87274000D01*
X123538500Y-87274000D01*
X123538500Y-88226000D01*
X123538500Y-88226000D01*
G37*
G36*
X146257250Y-88132250D02*
G01*
X144555250Y-88132250D01*
X144555250Y-87180250D01*
X146257250Y-87180250D01*
X146257250Y-88132250D01*
X146257250Y-88132250D01*
G37*
G36*
X161882250Y-88132250D02*
G01*
X160180250Y-88132250D01*
X160180250Y-87180250D01*
X161882250Y-87180250D01*
X161882250Y-88132250D01*
X161882250Y-88132250D01*
G37*
G36*
X165382250Y-88132250D02*
G01*
X163680250Y-88132250D01*
X163680250Y-87180250D01*
X165382250Y-87180250D01*
X165382250Y-88132250D01*
X165382250Y-88132250D01*
G37*
G36*
X142757250Y-88132250D02*
G01*
X141055250Y-88132250D01*
X141055250Y-87180250D01*
X142757250Y-87180250D01*
X142757250Y-88132250D01*
X142757250Y-88132250D01*
G37*
G36*
X101935728Y-84849203D02*
G01*
X102090600Y-84913353D01*
X102229981Y-85006485D01*
X102348515Y-85125019D01*
X102441647Y-85264400D01*
X102505797Y-85419272D01*
X102538500Y-85583684D01*
X102538500Y-85751316D01*
X102505797Y-85915728D01*
X102441647Y-86070600D01*
X102348515Y-86209981D01*
X102229981Y-86328515D01*
X102090600Y-86421647D01*
X101935728Y-86485797D01*
X101771316Y-86518500D01*
X101603684Y-86518500D01*
X101439272Y-86485797D01*
X101284400Y-86421647D01*
X101145019Y-86328515D01*
X101026485Y-86209981D01*
X100933353Y-86070600D01*
X100869203Y-85915728D01*
X100836500Y-85751316D01*
X100836500Y-85583684D01*
X100869203Y-85419272D01*
X100933353Y-85264400D01*
X101026485Y-85125019D01*
X101145019Y-85006485D01*
X101284400Y-84913353D01*
X101439272Y-84849203D01*
X101603684Y-84816500D01*
X101771316Y-84816500D01*
X101935728Y-84849203D01*
X101935728Y-84849203D01*
G37*
G36*
X86695728Y-84849203D02*
G01*
X86850600Y-84913353D01*
X86989981Y-85006485D01*
X87108515Y-85125019D01*
X87201647Y-85264400D01*
X87265797Y-85419272D01*
X87298500Y-85583684D01*
X87298500Y-85751316D01*
X87265797Y-85915728D01*
X87201647Y-86070600D01*
X87108515Y-86209981D01*
X86989981Y-86328515D01*
X86850600Y-86421647D01*
X86695728Y-86485797D01*
X86531316Y-86518500D01*
X86363684Y-86518500D01*
X86199272Y-86485797D01*
X86044400Y-86421647D01*
X85905019Y-86328515D01*
X85786485Y-86209981D01*
X85693353Y-86070600D01*
X85629203Y-85915728D01*
X85596500Y-85751316D01*
X85596500Y-85583684D01*
X85629203Y-85419272D01*
X85693353Y-85264400D01*
X85786485Y-85125019D01*
X85905019Y-85006485D01*
X86044400Y-84913353D01*
X86199272Y-84849203D01*
X86363684Y-84816500D01*
X86531316Y-84816500D01*
X86695728Y-84849203D01*
X86695728Y-84849203D01*
G37*
G36*
X127038500Y-86476000D02*
G01*
X125336500Y-86476000D01*
X125336500Y-85524000D01*
X127038500Y-85524000D01*
X127038500Y-86476000D01*
X127038500Y-86476000D01*
G37*
G36*
X123538500Y-86476000D02*
G01*
X121836500Y-86476000D01*
X121836500Y-85524000D01*
X123538500Y-85524000D01*
X123538500Y-86476000D01*
X123538500Y-86476000D01*
G37*
G36*
X119130573Y-84692563D02*
G01*
X119290992Y-84741226D01*
X119423656Y-84812136D01*
X119438828Y-84820246D01*
X119568409Y-84926591D01*
X119674754Y-85056172D01*
X119674755Y-85056174D01*
X119753774Y-85204008D01*
X119802437Y-85364427D01*
X119818867Y-85531250D01*
X119802437Y-85698073D01*
X119753774Y-85858492D01*
X119723180Y-85915729D01*
X119674754Y-86006328D01*
X119568409Y-86135909D01*
X119438828Y-86242254D01*
X119438826Y-86242255D01*
X119290992Y-86321274D01*
X119130573Y-86369937D01*
X119005554Y-86382250D01*
X118921946Y-86382250D01*
X118796927Y-86369937D01*
X118636508Y-86321274D01*
X118488674Y-86242255D01*
X118488672Y-86242254D01*
X118359091Y-86135909D01*
X118252746Y-86006328D01*
X118204320Y-85915729D01*
X118173726Y-85858492D01*
X118125063Y-85698073D01*
X118108633Y-85531250D01*
X118125063Y-85364427D01*
X118173726Y-85204008D01*
X118252745Y-85056174D01*
X118252746Y-85056172D01*
X118359091Y-84926591D01*
X118488672Y-84820246D01*
X118503844Y-84812136D01*
X118636508Y-84741226D01*
X118796927Y-84692563D01*
X118921946Y-84680250D01*
X119005554Y-84680250D01*
X119130573Y-84692563D01*
X119130573Y-84692563D01*
G37*
G36*
X142757250Y-86382250D02*
G01*
X141055250Y-86382250D01*
X141055250Y-85430250D01*
X142757250Y-85430250D01*
X142757250Y-86382250D01*
X142757250Y-86382250D01*
G37*
G36*
X165382250Y-86382250D02*
G01*
X163680250Y-86382250D01*
X163680250Y-85430250D01*
X165382250Y-85430250D01*
X165382250Y-86382250D01*
X165382250Y-86382250D01*
G37*
G36*
X161882250Y-86382250D02*
G01*
X160180250Y-86382250D01*
X160180250Y-85430250D01*
X161882250Y-85430250D01*
X161882250Y-86382250D01*
X161882250Y-86382250D01*
G37*
G36*
X146257250Y-86382250D02*
G01*
X144555250Y-86382250D01*
X144555250Y-85430250D01*
X146257250Y-85430250D01*
X146257250Y-86382250D01*
X146257250Y-86382250D01*
G37*
G36*
X176573073Y-84692563D02*
G01*
X176733492Y-84741226D01*
X176866156Y-84812136D01*
X176881328Y-84820246D01*
X177010909Y-84926591D01*
X177117254Y-85056172D01*
X177117255Y-85056174D01*
X177196274Y-85204008D01*
X177244937Y-85364427D01*
X177261367Y-85531250D01*
X177244937Y-85698073D01*
X177196274Y-85858492D01*
X177165680Y-85915729D01*
X177117254Y-86006328D01*
X177010909Y-86135909D01*
X176881328Y-86242254D01*
X176881326Y-86242255D01*
X176733492Y-86321274D01*
X176573073Y-86369937D01*
X176448054Y-86382250D01*
X176364446Y-86382250D01*
X176239427Y-86369937D01*
X176079008Y-86321274D01*
X175931174Y-86242255D01*
X175931172Y-86242254D01*
X175801591Y-86135909D01*
X175695246Y-86006328D01*
X175646820Y-85915729D01*
X175616226Y-85858492D01*
X175567563Y-85698073D01*
X175551133Y-85531250D01*
X175567563Y-85364427D01*
X175616226Y-85204008D01*
X175695245Y-85056174D01*
X175695246Y-85056172D01*
X175801591Y-84926591D01*
X175931172Y-84820246D01*
X175946344Y-84812136D01*
X176079008Y-84741226D01*
X176239427Y-84692563D01*
X176364446Y-84680250D01*
X176448054Y-84680250D01*
X176573073Y-84692563D01*
X176573073Y-84692563D01*
G37*
G36*
X131413500Y-86382250D02*
G01*
X129711500Y-86382250D01*
X129711500Y-84680250D01*
X131413500Y-84680250D01*
X131413500Y-86382250D01*
X131413500Y-86382250D01*
G37*
G36*
X150444750Y-86382250D02*
G01*
X148742750Y-86382250D01*
X148742750Y-84680250D01*
X150444750Y-84680250D01*
X150444750Y-86382250D01*
X150444750Y-86382250D01*
G37*
G36*
X112194750Y-86382250D02*
G01*
X110492750Y-86382250D01*
X110492750Y-84680250D01*
X112194750Y-84680250D01*
X112194750Y-86382250D01*
X112194750Y-86382250D01*
G37*
G36*
X169637250Y-86382250D02*
G01*
X167935250Y-86382250D01*
X167935250Y-84680250D01*
X169637250Y-84680250D01*
X169637250Y-86382250D01*
X169637250Y-86382250D01*
G37*
G36*
X157380573Y-84692563D02*
G01*
X157540992Y-84741226D01*
X157673656Y-84812136D01*
X157688828Y-84820246D01*
X157818409Y-84926591D01*
X157924754Y-85056172D01*
X157924755Y-85056174D01*
X158003774Y-85204008D01*
X158052437Y-85364427D01*
X158068867Y-85531250D01*
X158052437Y-85698073D01*
X158003774Y-85858492D01*
X157973180Y-85915729D01*
X157924754Y-86006328D01*
X157818409Y-86135909D01*
X157688828Y-86242254D01*
X157688826Y-86242255D01*
X157540992Y-86321274D01*
X157380573Y-86369937D01*
X157255554Y-86382250D01*
X157171946Y-86382250D01*
X157046927Y-86369937D01*
X156886508Y-86321274D01*
X156738674Y-86242255D01*
X156738672Y-86242254D01*
X156609091Y-86135909D01*
X156502746Y-86006328D01*
X156454320Y-85915729D01*
X156423726Y-85858492D01*
X156375063Y-85698073D01*
X156358633Y-85531250D01*
X156375063Y-85364427D01*
X156423726Y-85204008D01*
X156502745Y-85056174D01*
X156502746Y-85056172D01*
X156609091Y-84926591D01*
X156738672Y-84820246D01*
X156753844Y-84812136D01*
X156886508Y-84741226D01*
X157046927Y-84692563D01*
X157171946Y-84680250D01*
X157255554Y-84680250D01*
X157380573Y-84692563D01*
X157380573Y-84692563D01*
G37*
G36*
X138349323Y-84692563D02*
G01*
X138509742Y-84741226D01*
X138642406Y-84812136D01*
X138657578Y-84820246D01*
X138787159Y-84926591D01*
X138893504Y-85056172D01*
X138893505Y-85056174D01*
X138972524Y-85204008D01*
X139021187Y-85364427D01*
X139037617Y-85531250D01*
X139021187Y-85698073D01*
X138972524Y-85858492D01*
X138941930Y-85915729D01*
X138893504Y-86006328D01*
X138787159Y-86135909D01*
X138657578Y-86242254D01*
X138657576Y-86242255D01*
X138509742Y-86321274D01*
X138349323Y-86369937D01*
X138224304Y-86382250D01*
X138140696Y-86382250D01*
X138015677Y-86369937D01*
X137855258Y-86321274D01*
X137707424Y-86242255D01*
X137707422Y-86242254D01*
X137577841Y-86135909D01*
X137471496Y-86006328D01*
X137423070Y-85915729D01*
X137392476Y-85858492D01*
X137343813Y-85698073D01*
X137327383Y-85531250D01*
X137343813Y-85364427D01*
X137392476Y-85204008D01*
X137471495Y-85056174D01*
X137471496Y-85056172D01*
X137577841Y-84926591D01*
X137707422Y-84820246D01*
X137722594Y-84812136D01*
X137855258Y-84741226D01*
X138015677Y-84692563D01*
X138140696Y-84680250D01*
X138224304Y-84680250D01*
X138349323Y-84692563D01*
X138349323Y-84692563D01*
G37*
G36*
X101935728Y-82309203D02*
G01*
X102090600Y-82373353D01*
X102229981Y-82466485D01*
X102348515Y-82585019D01*
X102441647Y-82724400D01*
X102505797Y-82879272D01*
X102538500Y-83043684D01*
X102538500Y-83211316D01*
X102505797Y-83375728D01*
X102441647Y-83530600D01*
X102348515Y-83669981D01*
X102229981Y-83788515D01*
X102090600Y-83881647D01*
X101935728Y-83945797D01*
X101771316Y-83978500D01*
X101603684Y-83978500D01*
X101439272Y-83945797D01*
X101284400Y-83881647D01*
X101145019Y-83788515D01*
X101026485Y-83669981D01*
X100933353Y-83530600D01*
X100869203Y-83375728D01*
X100836500Y-83211316D01*
X100836500Y-83043684D01*
X100869203Y-82879272D01*
X100933353Y-82724400D01*
X101026485Y-82585019D01*
X101145019Y-82466485D01*
X101284400Y-82373353D01*
X101439272Y-82309203D01*
X101603684Y-82276500D01*
X101771316Y-82276500D01*
X101935728Y-82309203D01*
X101935728Y-82309203D01*
G37*
G36*
X86695728Y-82309203D02*
G01*
X86850600Y-82373353D01*
X86989981Y-82466485D01*
X87108515Y-82585019D01*
X87201647Y-82724400D01*
X87265797Y-82879272D01*
X87298500Y-83043684D01*
X87298500Y-83211316D01*
X87265797Y-83375728D01*
X87201647Y-83530600D01*
X87108515Y-83669981D01*
X86989981Y-83788515D01*
X86850600Y-83881647D01*
X86695728Y-83945797D01*
X86531316Y-83978500D01*
X86363684Y-83978500D01*
X86199272Y-83945797D01*
X86044400Y-83881647D01*
X85905019Y-83788515D01*
X85786485Y-83669981D01*
X85693353Y-83530600D01*
X85629203Y-83375728D01*
X85596500Y-83211316D01*
X85596500Y-83043684D01*
X85629203Y-82879272D01*
X85693353Y-82724400D01*
X85786485Y-82585019D01*
X85905019Y-82466485D01*
X86044400Y-82373353D01*
X86199272Y-82309203D01*
X86363684Y-82276500D01*
X86531316Y-82276500D01*
X86695728Y-82309203D01*
X86695728Y-82309203D01*
G37*
G36*
X150981335Y-80558802D02*
G01*
X151131160Y-80588604D01*
X151413424Y-80705521D01*
X151667455Y-80875259D01*
X151883491Y-81091295D01*
X152053229Y-81345326D01*
X152170146Y-81627590D01*
X152229750Y-81927240D01*
X152229750Y-82232760D01*
X152170146Y-82532410D01*
X152053229Y-82814674D01*
X151883491Y-83068705D01*
X151667455Y-83284741D01*
X151413424Y-83454479D01*
X151131160Y-83571396D01*
X150981335Y-83601198D01*
X150831511Y-83631000D01*
X150525989Y-83631000D01*
X150376165Y-83601198D01*
X150226340Y-83571396D01*
X149944076Y-83454479D01*
X149690045Y-83284741D01*
X149474009Y-83068705D01*
X149304271Y-82814674D01*
X149187354Y-82532410D01*
X149127750Y-82232760D01*
X149127750Y-81927240D01*
X149187354Y-81627590D01*
X149304271Y-81345326D01*
X149474009Y-81091295D01*
X149690045Y-80875259D01*
X149944076Y-80705521D01*
X150226340Y-80588604D01*
X150376165Y-80558802D01*
X150525989Y-80529000D01*
X150831511Y-80529000D01*
X150981335Y-80558802D01*
X150981335Y-80558802D01*
G37*
G36*
X112668835Y-80558802D02*
G01*
X112818660Y-80588604D01*
X113100924Y-80705521D01*
X113354955Y-80875259D01*
X113570991Y-81091295D01*
X113740729Y-81345326D01*
X113857646Y-81627590D01*
X113917250Y-81927240D01*
X113917250Y-82232760D01*
X113857646Y-82532410D01*
X113740729Y-82814674D01*
X113570991Y-83068705D01*
X113354955Y-83284741D01*
X113100924Y-83454479D01*
X112818660Y-83571396D01*
X112668835Y-83601198D01*
X112519011Y-83631000D01*
X112213489Y-83631000D01*
X112063665Y-83601198D01*
X111913840Y-83571396D01*
X111631576Y-83454479D01*
X111377545Y-83284741D01*
X111161509Y-83068705D01*
X110991771Y-82814674D01*
X110874854Y-82532410D01*
X110815250Y-82232760D01*
X110815250Y-81927240D01*
X110874854Y-81627590D01*
X110991771Y-81345326D01*
X111161509Y-81091295D01*
X111377545Y-80875259D01*
X111631576Y-80705521D01*
X111913840Y-80588604D01*
X112063665Y-80558802D01*
X112213489Y-80529000D01*
X112519011Y-80529000D01*
X112668835Y-80558802D01*
X112668835Y-80558802D01*
G37*
G36*
X131825085Y-80558802D02*
G01*
X131974910Y-80588604D01*
X132257174Y-80705521D01*
X132511205Y-80875259D01*
X132727241Y-81091295D01*
X132896979Y-81345326D01*
X133013896Y-81627590D01*
X133073500Y-81927240D01*
X133073500Y-82232760D01*
X133013896Y-82532410D01*
X132896979Y-82814674D01*
X132727241Y-83068705D01*
X132511205Y-83284741D01*
X132257174Y-83454479D01*
X131974910Y-83571396D01*
X131825085Y-83601198D01*
X131675261Y-83631000D01*
X131369739Y-83631000D01*
X131219915Y-83601198D01*
X131070090Y-83571396D01*
X130787826Y-83454479D01*
X130533795Y-83284741D01*
X130317759Y-83068705D01*
X130148021Y-82814674D01*
X130031104Y-82532410D01*
X129971500Y-82232760D01*
X129971500Y-81927240D01*
X130031104Y-81627590D01*
X130148021Y-81345326D01*
X130317759Y-81091295D01*
X130533795Y-80875259D01*
X130787826Y-80705521D01*
X131070090Y-80588604D01*
X131219915Y-80558802D01*
X131369739Y-80529000D01*
X131675261Y-80529000D01*
X131825085Y-80558802D01*
X131825085Y-80558802D01*
G37*
G36*
X170137585Y-80558802D02*
G01*
X170287410Y-80588604D01*
X170569674Y-80705521D01*
X170823705Y-80875259D01*
X171039741Y-81091295D01*
X171209479Y-81345326D01*
X171326396Y-81627590D01*
X171386000Y-81927240D01*
X171386000Y-82232760D01*
X171326396Y-82532410D01*
X171209479Y-82814674D01*
X171039741Y-83068705D01*
X170823705Y-83284741D01*
X170569674Y-83454479D01*
X170287410Y-83571396D01*
X170137585Y-83601198D01*
X169987761Y-83631000D01*
X169682239Y-83631000D01*
X169532415Y-83601198D01*
X169382590Y-83571396D01*
X169100326Y-83454479D01*
X168846295Y-83284741D01*
X168630259Y-83068705D01*
X168460521Y-82814674D01*
X168343604Y-82532410D01*
X168284000Y-82232760D01*
X168284000Y-81927240D01*
X168343604Y-81627590D01*
X168460521Y-81345326D01*
X168630259Y-81091295D01*
X168846295Y-80875259D01*
X169100326Y-80705521D01*
X169382590Y-80588604D01*
X169532415Y-80558802D01*
X169682239Y-80529000D01*
X169987761Y-80529000D01*
X170137585Y-80558802D01*
X170137585Y-80558802D01*
G37*
G36*
X203806564Y-81426889D02*
G01*
X203997833Y-81506115D01*
X203997835Y-81506116D01*
X204169973Y-81621135D01*
X204316365Y-81767527D01*
X204431385Y-81939667D01*
X204510611Y-82130936D01*
X204551000Y-82333984D01*
X204551000Y-82541016D01*
X204510611Y-82744064D01*
X204454606Y-82879272D01*
X204431384Y-82935335D01*
X204316365Y-83107473D01*
X204169973Y-83253865D01*
X203997835Y-83368884D01*
X203997834Y-83368885D01*
X203997833Y-83368885D01*
X203806564Y-83448111D01*
X203603516Y-83488500D01*
X203396484Y-83488500D01*
X203193436Y-83448111D01*
X203002167Y-83368885D01*
X203002166Y-83368885D01*
X203002165Y-83368884D01*
X202830027Y-83253865D01*
X202683635Y-83107473D01*
X202568616Y-82935335D01*
X202545394Y-82879272D01*
X202489389Y-82744064D01*
X202449000Y-82541016D01*
X202449000Y-82333984D01*
X202489389Y-82130936D01*
X202568615Y-81939667D01*
X202683635Y-81767527D01*
X202830027Y-81621135D01*
X203002165Y-81506116D01*
X203002167Y-81506115D01*
X203193436Y-81426889D01*
X203396484Y-81386500D01*
X203603516Y-81386500D01*
X203806564Y-81426889D01*
X203806564Y-81426889D01*
G37*
G36*
X197306564Y-81426889D02*
G01*
X197497833Y-81506115D01*
X197497835Y-81506116D01*
X197669973Y-81621135D01*
X197816365Y-81767527D01*
X197931385Y-81939667D01*
X198010611Y-82130936D01*
X198051000Y-82333984D01*
X198051000Y-82541016D01*
X198010611Y-82744064D01*
X197954606Y-82879272D01*
X197931384Y-82935335D01*
X197816365Y-83107473D01*
X197669973Y-83253865D01*
X197497835Y-83368884D01*
X197497834Y-83368885D01*
X197497833Y-83368885D01*
X197306564Y-83448111D01*
X197103516Y-83488500D01*
X196896484Y-83488500D01*
X196693436Y-83448111D01*
X196502167Y-83368885D01*
X196502166Y-83368885D01*
X196502165Y-83368884D01*
X196330027Y-83253865D01*
X196183635Y-83107473D01*
X196068616Y-82935335D01*
X196045394Y-82879272D01*
X195989389Y-82744064D01*
X195949000Y-82541016D01*
X195949000Y-82333984D01*
X195989389Y-82130936D01*
X196068615Y-81939667D01*
X196183635Y-81767527D01*
X196330027Y-81621135D01*
X196502165Y-81506116D01*
X196502167Y-81506115D01*
X196693436Y-81426889D01*
X196896484Y-81386500D01*
X197103516Y-81386500D01*
X197306564Y-81426889D01*
X197306564Y-81426889D01*
G37*
G36*
X101935728Y-79769203D02*
G01*
X102090600Y-79833353D01*
X102229981Y-79926485D01*
X102348515Y-80045019D01*
X102441647Y-80184400D01*
X102505797Y-80339272D01*
X102538500Y-80503684D01*
X102538500Y-80671316D01*
X102505797Y-80835728D01*
X102441647Y-80990600D01*
X102348515Y-81129981D01*
X102229981Y-81248515D01*
X102090600Y-81341647D01*
X101935728Y-81405797D01*
X101771316Y-81438500D01*
X101603684Y-81438500D01*
X101439272Y-81405797D01*
X101284400Y-81341647D01*
X101145019Y-81248515D01*
X101026485Y-81129981D01*
X100933353Y-80990600D01*
X100869203Y-80835728D01*
X100836500Y-80671316D01*
X100836500Y-80503684D01*
X100869203Y-80339272D01*
X100933353Y-80184400D01*
X101026485Y-80045019D01*
X101145019Y-79926485D01*
X101284400Y-79833353D01*
X101439272Y-79769203D01*
X101603684Y-79736500D01*
X101771316Y-79736500D01*
X101935728Y-79769203D01*
X101935728Y-79769203D01*
G37*
G36*
X86695728Y-79769203D02*
G01*
X86850600Y-79833353D01*
X86989981Y-79926485D01*
X87108515Y-80045019D01*
X87201647Y-80184400D01*
X87265797Y-80339272D01*
X87298500Y-80503684D01*
X87298500Y-80671316D01*
X87265797Y-80835728D01*
X87201647Y-80990600D01*
X87108515Y-81129981D01*
X86989981Y-81248515D01*
X86850600Y-81341647D01*
X86695728Y-81405797D01*
X86531316Y-81438500D01*
X86363684Y-81438500D01*
X86199272Y-81405797D01*
X86044400Y-81341647D01*
X85905019Y-81248515D01*
X85786485Y-81129981D01*
X85693353Y-80990600D01*
X85629203Y-80835728D01*
X85596500Y-80671316D01*
X85596500Y-80503684D01*
X85629203Y-80339272D01*
X85693353Y-80184400D01*
X85786485Y-80045019D01*
X85905019Y-79926485D01*
X86044400Y-79833353D01*
X86199272Y-79769203D01*
X86363684Y-79736500D01*
X86531316Y-79736500D01*
X86695728Y-79769203D01*
X86695728Y-79769203D01*
G37*
G36*
X157331335Y-78018802D02*
G01*
X157481160Y-78048604D01*
X157763424Y-78165521D01*
X158017455Y-78335259D01*
X158233491Y-78551295D01*
X158403229Y-78805326D01*
X158520146Y-79087590D01*
X158579750Y-79387240D01*
X158579750Y-79692760D01*
X158520146Y-79992410D01*
X158403229Y-80274674D01*
X158233491Y-80528705D01*
X158017455Y-80744741D01*
X157763424Y-80914479D01*
X157481160Y-81031396D01*
X157331335Y-81061198D01*
X157181511Y-81091000D01*
X156875989Y-81091000D01*
X156726165Y-81061198D01*
X156576340Y-81031396D01*
X156294076Y-80914479D01*
X156040045Y-80744741D01*
X155824009Y-80528705D01*
X155654271Y-80274674D01*
X155537354Y-79992410D01*
X155477750Y-79692760D01*
X155477750Y-79387240D01*
X155537354Y-79087590D01*
X155654271Y-78805326D01*
X155824009Y-78551295D01*
X156040045Y-78335259D01*
X156294076Y-78165521D01*
X156576340Y-78048604D01*
X156726165Y-78018802D01*
X156875989Y-77989000D01*
X157181511Y-77989000D01*
X157331335Y-78018802D01*
X157331335Y-78018802D01*
G37*
G36*
X176487585Y-78018802D02*
G01*
X176637410Y-78048604D01*
X176919674Y-78165521D01*
X177173705Y-78335259D01*
X177389741Y-78551295D01*
X177559479Y-78805326D01*
X177676396Y-79087590D01*
X177736000Y-79387240D01*
X177736000Y-79692760D01*
X177676396Y-79992410D01*
X177559479Y-80274674D01*
X177389741Y-80528705D01*
X177173705Y-80744741D01*
X176919674Y-80914479D01*
X176637410Y-81031396D01*
X176487585Y-81061198D01*
X176337761Y-81091000D01*
X176032239Y-81091000D01*
X175882415Y-81061198D01*
X175732590Y-81031396D01*
X175450326Y-80914479D01*
X175196295Y-80744741D01*
X174980259Y-80528705D01*
X174810521Y-80274674D01*
X174693604Y-79992410D01*
X174634000Y-79692760D01*
X174634000Y-79387240D01*
X174693604Y-79087590D01*
X174810521Y-78805326D01*
X174980259Y-78551295D01*
X175196295Y-78335259D01*
X175450326Y-78165521D01*
X175732590Y-78048604D01*
X175882415Y-78018802D01*
X176032239Y-77989000D01*
X176337761Y-77989000D01*
X176487585Y-78018802D01*
X176487585Y-78018802D01*
G37*
G36*
X119018835Y-78018802D02*
G01*
X119168660Y-78048604D01*
X119450924Y-78165521D01*
X119704955Y-78335259D01*
X119920991Y-78551295D01*
X120090729Y-78805326D01*
X120207646Y-79087590D01*
X120267250Y-79387240D01*
X120267250Y-79692760D01*
X120207646Y-79992410D01*
X120090729Y-80274674D01*
X119920991Y-80528705D01*
X119704955Y-80744741D01*
X119450924Y-80914479D01*
X119168660Y-81031396D01*
X119018835Y-81061198D01*
X118869011Y-81091000D01*
X118563489Y-81091000D01*
X118413665Y-81061198D01*
X118263840Y-81031396D01*
X117981576Y-80914479D01*
X117727545Y-80744741D01*
X117511509Y-80528705D01*
X117341771Y-80274674D01*
X117224854Y-79992410D01*
X117165250Y-79692760D01*
X117165250Y-79387240D01*
X117224854Y-79087590D01*
X117341771Y-78805326D01*
X117511509Y-78551295D01*
X117727545Y-78335259D01*
X117981576Y-78165521D01*
X118263840Y-78048604D01*
X118413665Y-78018802D01*
X118563489Y-77989000D01*
X118869011Y-77989000D01*
X119018835Y-78018802D01*
X119018835Y-78018802D01*
G37*
G36*
X138175085Y-78018802D02*
G01*
X138324910Y-78048604D01*
X138607174Y-78165521D01*
X138861205Y-78335259D01*
X139077241Y-78551295D01*
X139246979Y-78805326D01*
X139363896Y-79087590D01*
X139423500Y-79387240D01*
X139423500Y-79692760D01*
X139363896Y-79992410D01*
X139246979Y-80274674D01*
X139077241Y-80528705D01*
X138861205Y-80744741D01*
X138607174Y-80914479D01*
X138324910Y-81031396D01*
X138175085Y-81061198D01*
X138025261Y-81091000D01*
X137719739Y-81091000D01*
X137569915Y-81061198D01*
X137420090Y-81031396D01*
X137137826Y-80914479D01*
X136883795Y-80744741D01*
X136667759Y-80528705D01*
X136498021Y-80274674D01*
X136381104Y-79992410D01*
X136321500Y-79692760D01*
X136321500Y-79387240D01*
X136381104Y-79087590D01*
X136498021Y-78805326D01*
X136667759Y-78551295D01*
X136883795Y-78335259D01*
X137137826Y-78165521D01*
X137420090Y-78048604D01*
X137569915Y-78018802D01*
X137719739Y-77989000D01*
X138025261Y-77989000D01*
X138175085Y-78018802D01*
X138175085Y-78018802D01*
G37*
G36*
X134658974Y-75033684D02*
G01*
X134829697Y-75104400D01*
X135031123Y-75187833D01*
X135366048Y-75411623D01*
X135650877Y-75696452D01*
X135874667Y-76031377D01*
X135931471Y-76168515D01*
X136028816Y-76403526D01*
X136107400Y-76798594D01*
X136107400Y-77201406D01*
X136028816Y-77596474D01*
X135944822Y-77799253D01*
X135874667Y-77968623D01*
X135650877Y-78303548D01*
X135366048Y-78588377D01*
X135031123Y-78812167D01*
X134901653Y-78865795D01*
X134658974Y-78966316D01*
X134263906Y-79044900D01*
X133861094Y-79044900D01*
X133466026Y-78966316D01*
X133223347Y-78865795D01*
X133093877Y-78812167D01*
X132758952Y-78588377D01*
X132474123Y-78303548D01*
X132250333Y-77968623D01*
X132180178Y-77799253D01*
X132096184Y-77596474D01*
X132017600Y-77201406D01*
X132017600Y-76798594D01*
X132096184Y-76403526D01*
X132193529Y-76168515D01*
X132250333Y-76031377D01*
X132474123Y-75696452D01*
X132758952Y-75411623D01*
X133093877Y-75187833D01*
X133295303Y-75104400D01*
X133466026Y-75033684D01*
X133861094Y-74955100D01*
X134263906Y-74955100D01*
X134658974Y-75033684D01*
X134658974Y-75033684D01*
G37*
G36*
X153815224Y-75033684D02*
G01*
X153985947Y-75104400D01*
X154187373Y-75187833D01*
X154522298Y-75411623D01*
X154807127Y-75696452D01*
X155030917Y-76031377D01*
X155087721Y-76168515D01*
X155185066Y-76403526D01*
X155263650Y-76798594D01*
X155263650Y-77201406D01*
X155185066Y-77596474D01*
X155101072Y-77799253D01*
X155030917Y-77968623D01*
X154807127Y-78303548D01*
X154522298Y-78588377D01*
X154187373Y-78812167D01*
X154057903Y-78865795D01*
X153815224Y-78966316D01*
X153420156Y-79044900D01*
X153017344Y-79044900D01*
X152622276Y-78966316D01*
X152379597Y-78865795D01*
X152250127Y-78812167D01*
X151915202Y-78588377D01*
X151630373Y-78303548D01*
X151406583Y-77968623D01*
X151336428Y-77799253D01*
X151252434Y-77596474D01*
X151173850Y-77201406D01*
X151173850Y-76798594D01*
X151252434Y-76403526D01*
X151349779Y-76168515D01*
X151406583Y-76031377D01*
X151630373Y-75696452D01*
X151915202Y-75411623D01*
X152250127Y-75187833D01*
X152451553Y-75104400D01*
X152622276Y-75033684D01*
X153017344Y-74955100D01*
X153420156Y-74955100D01*
X153815224Y-75033684D01*
X153815224Y-75033684D01*
G37*
G36*
X115502724Y-75033684D02*
G01*
X115673447Y-75104400D01*
X115874873Y-75187833D01*
X116209798Y-75411623D01*
X116494627Y-75696452D01*
X116718417Y-76031377D01*
X116775221Y-76168515D01*
X116872566Y-76403526D01*
X116951150Y-76798594D01*
X116951150Y-77201406D01*
X116872566Y-77596474D01*
X116788572Y-77799253D01*
X116718417Y-77968623D01*
X116494627Y-78303548D01*
X116209798Y-78588377D01*
X115874873Y-78812167D01*
X115745403Y-78865795D01*
X115502724Y-78966316D01*
X115107656Y-79044900D01*
X114704844Y-79044900D01*
X114309776Y-78966316D01*
X114067097Y-78865795D01*
X113937627Y-78812167D01*
X113602702Y-78588377D01*
X113317873Y-78303548D01*
X113094083Y-77968623D01*
X113023928Y-77799253D01*
X112939934Y-77596474D01*
X112861350Y-77201406D01*
X112861350Y-76798594D01*
X112939934Y-76403526D01*
X113037279Y-76168515D01*
X113094083Y-76031377D01*
X113317873Y-75696452D01*
X113602702Y-75411623D01*
X113937627Y-75187833D01*
X114139053Y-75104400D01*
X114309776Y-75033684D01*
X114704844Y-74955100D01*
X115107656Y-74955100D01*
X115502724Y-75033684D01*
X115502724Y-75033684D01*
G37*
G36*
X172971474Y-75033684D02*
G01*
X173142197Y-75104400D01*
X173343623Y-75187833D01*
X173678548Y-75411623D01*
X173963377Y-75696452D01*
X174187167Y-76031377D01*
X174243971Y-76168515D01*
X174341316Y-76403526D01*
X174419900Y-76798594D01*
X174419900Y-77201406D01*
X174341316Y-77596474D01*
X174257322Y-77799253D01*
X174187167Y-77968623D01*
X173963377Y-78303548D01*
X173678548Y-78588377D01*
X173343623Y-78812167D01*
X173214153Y-78865795D01*
X172971474Y-78966316D01*
X172576406Y-79044900D01*
X172173594Y-79044900D01*
X171778526Y-78966316D01*
X171535847Y-78865795D01*
X171406377Y-78812167D01*
X171071452Y-78588377D01*
X170786623Y-78303548D01*
X170562833Y-77968623D01*
X170492678Y-77799253D01*
X170408684Y-77596474D01*
X170330100Y-77201406D01*
X170330100Y-76798594D01*
X170408684Y-76403526D01*
X170506029Y-76168515D01*
X170562833Y-76031377D01*
X170786623Y-75696452D01*
X171071452Y-75411623D01*
X171406377Y-75187833D01*
X171607803Y-75104400D01*
X171778526Y-75033684D01*
X172173594Y-74955100D01*
X172576406Y-74955100D01*
X172971474Y-75033684D01*
X172971474Y-75033684D01*
G37*
G36*
X197306564Y-76926889D02*
G01*
X197497833Y-77006115D01*
X197497835Y-77006116D01*
X197621624Y-77088829D01*
X197669973Y-77121135D01*
X197816365Y-77267527D01*
X197931385Y-77439667D01*
X198010611Y-77630936D01*
X198051000Y-77833984D01*
X198051000Y-78041016D01*
X198010611Y-78244064D01*
X197985972Y-78303547D01*
X197931384Y-78435335D01*
X197816365Y-78607473D01*
X197669973Y-78753865D01*
X197497835Y-78868884D01*
X197497834Y-78868885D01*
X197497833Y-78868885D01*
X197306564Y-78948111D01*
X197103516Y-78988500D01*
X196896484Y-78988500D01*
X196693436Y-78948111D01*
X196502167Y-78868885D01*
X196502166Y-78868885D01*
X196502165Y-78868884D01*
X196330027Y-78753865D01*
X196183635Y-78607473D01*
X196068616Y-78435335D01*
X196014028Y-78303547D01*
X195989389Y-78244064D01*
X195949000Y-78041016D01*
X195949000Y-77833984D01*
X195989389Y-77630936D01*
X196068615Y-77439667D01*
X196183635Y-77267527D01*
X196330027Y-77121135D01*
X196378376Y-77088829D01*
X196502165Y-77006116D01*
X196502167Y-77006115D01*
X196693436Y-76926889D01*
X196896484Y-76886500D01*
X197103516Y-76886500D01*
X197306564Y-76926889D01*
X197306564Y-76926889D01*
G37*
G36*
X203806564Y-76926889D02*
G01*
X203997833Y-77006115D01*
X203997835Y-77006116D01*
X204121624Y-77088829D01*
X204169973Y-77121135D01*
X204316365Y-77267527D01*
X204431385Y-77439667D01*
X204510611Y-77630936D01*
X204551000Y-77833984D01*
X204551000Y-78041016D01*
X204510611Y-78244064D01*
X204485972Y-78303547D01*
X204431384Y-78435335D01*
X204316365Y-78607473D01*
X204169973Y-78753865D01*
X203997835Y-78868884D01*
X203997834Y-78868885D01*
X203997833Y-78868885D01*
X203806564Y-78948111D01*
X203603516Y-78988500D01*
X203396484Y-78988500D01*
X203193436Y-78948111D01*
X203002167Y-78868885D01*
X203002166Y-78868885D01*
X203002165Y-78868884D01*
X202830027Y-78753865D01*
X202683635Y-78607473D01*
X202568616Y-78435335D01*
X202514028Y-78303547D01*
X202489389Y-78244064D01*
X202449000Y-78041016D01*
X202449000Y-77833984D01*
X202489389Y-77630936D01*
X202568615Y-77439667D01*
X202683635Y-77267527D01*
X202830027Y-77121135D01*
X202878376Y-77088829D01*
X203002165Y-77006116D01*
X203002167Y-77006115D01*
X203193436Y-76926889D01*
X203396484Y-76886500D01*
X203603516Y-76886500D01*
X203806564Y-76926889D01*
X203806564Y-76926889D01*
G37*
G36*
X86695728Y-77229203D02*
G01*
X86850600Y-77293353D01*
X86989981Y-77386485D01*
X87108515Y-77505019D01*
X87201647Y-77644400D01*
X87265797Y-77799272D01*
X87298500Y-77963684D01*
X87298500Y-78131316D01*
X87265797Y-78295728D01*
X87201647Y-78450600D01*
X87108515Y-78589981D01*
X86989981Y-78708515D01*
X86850600Y-78801647D01*
X86695728Y-78865797D01*
X86531316Y-78898500D01*
X86363684Y-78898500D01*
X86199272Y-78865797D01*
X86044400Y-78801647D01*
X85905019Y-78708515D01*
X85786485Y-78589981D01*
X85693353Y-78450600D01*
X85629203Y-78295728D01*
X85596500Y-78131316D01*
X85596500Y-77963684D01*
X85629203Y-77799272D01*
X85693353Y-77644400D01*
X85786485Y-77505019D01*
X85905019Y-77386485D01*
X86044400Y-77293353D01*
X86199272Y-77229203D01*
X86363684Y-77196500D01*
X86531316Y-77196500D01*
X86695728Y-77229203D01*
X86695728Y-77229203D01*
G37*
G36*
X101935728Y-77229203D02*
G01*
X102090600Y-77293353D01*
X102229981Y-77386485D01*
X102348515Y-77505019D01*
X102441647Y-77644400D01*
X102505797Y-77799272D01*
X102538500Y-77963684D01*
X102538500Y-78131316D01*
X102505797Y-78295728D01*
X102441647Y-78450600D01*
X102348515Y-78589981D01*
X102229981Y-78708515D01*
X102090600Y-78801647D01*
X101935728Y-78865797D01*
X101771316Y-78898500D01*
X101603684Y-78898500D01*
X101439272Y-78865797D01*
X101284400Y-78801647D01*
X101145019Y-78708515D01*
X101026485Y-78589981D01*
X100933353Y-78450600D01*
X100869203Y-78295728D01*
X100836500Y-78131316D01*
X100836500Y-77963684D01*
X100869203Y-77799272D01*
X100933353Y-77644400D01*
X101026485Y-77505019D01*
X101145019Y-77386485D01*
X101284400Y-77293353D01*
X101439272Y-77229203D01*
X101603684Y-77196500D01*
X101771316Y-77196500D01*
X101935728Y-77229203D01*
X101935728Y-77229203D01*
G37*
G36*
X167470952Y-76115430D02*
G01*
X167558075Y-76132759D01*
X167644396Y-76168515D01*
X167722211Y-76200747D01*
X167813356Y-76261648D01*
X167869928Y-76299448D01*
X167995552Y-76425072D01*
X167995554Y-76425075D01*
X168094253Y-76572789D01*
X168094253Y-76572790D01*
X168162241Y-76736925D01*
X168196900Y-76911171D01*
X168196900Y-77088829D01*
X168162241Y-77263075D01*
X168149699Y-77293353D01*
X168094253Y-77427211D01*
X168042263Y-77505020D01*
X167995552Y-77574928D01*
X167869928Y-77700552D01*
X167869925Y-77700554D01*
X167722211Y-77799253D01*
X167667498Y-77821916D01*
X167558075Y-77867241D01*
X167470952Y-77884570D01*
X167383831Y-77901900D01*
X167206169Y-77901900D01*
X167119048Y-77884570D01*
X167031925Y-77867241D01*
X166922502Y-77821916D01*
X166867789Y-77799253D01*
X166720075Y-77700554D01*
X166720072Y-77700552D01*
X166594448Y-77574928D01*
X166547737Y-77505020D01*
X166495747Y-77427211D01*
X166440301Y-77293353D01*
X166427759Y-77263075D01*
X166393100Y-77088829D01*
X166393100Y-76911171D01*
X166427759Y-76736925D01*
X166495747Y-76572790D01*
X166495747Y-76572789D01*
X166594446Y-76425075D01*
X166594448Y-76425072D01*
X166720072Y-76299448D01*
X166776644Y-76261648D01*
X166867789Y-76200747D01*
X166945604Y-76168515D01*
X167031925Y-76132759D01*
X167119048Y-76115429D01*
X167206169Y-76098100D01*
X167383831Y-76098100D01*
X167470952Y-76115430D01*
X167470952Y-76115430D01*
G37*
G36*
X110002202Y-76115430D02*
G01*
X110089325Y-76132759D01*
X110175646Y-76168515D01*
X110253461Y-76200747D01*
X110344606Y-76261648D01*
X110401178Y-76299448D01*
X110526802Y-76425072D01*
X110526804Y-76425075D01*
X110625503Y-76572789D01*
X110625503Y-76572790D01*
X110693491Y-76736925D01*
X110728150Y-76911171D01*
X110728150Y-77088829D01*
X110693491Y-77263075D01*
X110680949Y-77293353D01*
X110625503Y-77427211D01*
X110573513Y-77505020D01*
X110526802Y-77574928D01*
X110401178Y-77700552D01*
X110401175Y-77700554D01*
X110253461Y-77799253D01*
X110198748Y-77821916D01*
X110089325Y-77867241D01*
X110002202Y-77884570D01*
X109915081Y-77901900D01*
X109737419Y-77901900D01*
X109650298Y-77884570D01*
X109563175Y-77867241D01*
X109453752Y-77821916D01*
X109399039Y-77799253D01*
X109251325Y-77700554D01*
X109251322Y-77700552D01*
X109125698Y-77574928D01*
X109078987Y-77505020D01*
X109026997Y-77427211D01*
X108971551Y-77293353D01*
X108959009Y-77263075D01*
X108924350Y-77088829D01*
X108924350Y-76911171D01*
X108959009Y-76736925D01*
X109026997Y-76572790D01*
X109026997Y-76572789D01*
X109125696Y-76425075D01*
X109125698Y-76425072D01*
X109251322Y-76299448D01*
X109307894Y-76261648D01*
X109399039Y-76200747D01*
X109476854Y-76168515D01*
X109563175Y-76132759D01*
X109650298Y-76115430D01*
X109737419Y-76098100D01*
X109915081Y-76098100D01*
X110002202Y-76115430D01*
X110002202Y-76115430D01*
G37*
G36*
X120162202Y-76115430D02*
G01*
X120249325Y-76132759D01*
X120335646Y-76168515D01*
X120413461Y-76200747D01*
X120504606Y-76261648D01*
X120561178Y-76299448D01*
X120686802Y-76425072D01*
X120686804Y-76425075D01*
X120785503Y-76572789D01*
X120785503Y-76572790D01*
X120853491Y-76736925D01*
X120888150Y-76911171D01*
X120888150Y-77088829D01*
X120853491Y-77263075D01*
X120840949Y-77293353D01*
X120785503Y-77427211D01*
X120733513Y-77505020D01*
X120686802Y-77574928D01*
X120561178Y-77700552D01*
X120561175Y-77700554D01*
X120413461Y-77799253D01*
X120358748Y-77821916D01*
X120249325Y-77867241D01*
X120162202Y-77884570D01*
X120075081Y-77901900D01*
X119897419Y-77901900D01*
X119810298Y-77884570D01*
X119723175Y-77867241D01*
X119613752Y-77821916D01*
X119559039Y-77799253D01*
X119411325Y-77700554D01*
X119411322Y-77700552D01*
X119285698Y-77574928D01*
X119238987Y-77505020D01*
X119186997Y-77427211D01*
X119131551Y-77293353D01*
X119119009Y-77263075D01*
X119084350Y-77088829D01*
X119084350Y-76911171D01*
X119119009Y-76736925D01*
X119186997Y-76572790D01*
X119186997Y-76572789D01*
X119285696Y-76425075D01*
X119285698Y-76425072D01*
X119411322Y-76299448D01*
X119467894Y-76261648D01*
X119559039Y-76200747D01*
X119636854Y-76168515D01*
X119723175Y-76132759D01*
X119810298Y-76115430D01*
X119897419Y-76098100D01*
X120075081Y-76098100D01*
X120162202Y-76115430D01*
X120162202Y-76115430D01*
G37*
G36*
X139318452Y-76115430D02*
G01*
X139405575Y-76132759D01*
X139491896Y-76168515D01*
X139569711Y-76200747D01*
X139660856Y-76261648D01*
X139717428Y-76299448D01*
X139843052Y-76425072D01*
X139843054Y-76425075D01*
X139941753Y-76572789D01*
X139941753Y-76572790D01*
X140009741Y-76736925D01*
X140044400Y-76911171D01*
X140044400Y-77088829D01*
X140009741Y-77263075D01*
X139997199Y-77293353D01*
X139941753Y-77427211D01*
X139889763Y-77505020D01*
X139843052Y-77574928D01*
X139717428Y-77700552D01*
X139717425Y-77700554D01*
X139569711Y-77799253D01*
X139514998Y-77821916D01*
X139405575Y-77867241D01*
X139318452Y-77884570D01*
X139231331Y-77901900D01*
X139053669Y-77901900D01*
X138966548Y-77884570D01*
X138879425Y-77867241D01*
X138770002Y-77821916D01*
X138715289Y-77799253D01*
X138567575Y-77700554D01*
X138567572Y-77700552D01*
X138441948Y-77574928D01*
X138395237Y-77505020D01*
X138343247Y-77427211D01*
X138287801Y-77293353D01*
X138275259Y-77263075D01*
X138240600Y-77088829D01*
X138240600Y-76911171D01*
X138275259Y-76736925D01*
X138343247Y-76572790D01*
X138343247Y-76572789D01*
X138441946Y-76425075D01*
X138441948Y-76425072D01*
X138567572Y-76299448D01*
X138624144Y-76261648D01*
X138715289Y-76200747D01*
X138793104Y-76168515D01*
X138879425Y-76132759D01*
X138966548Y-76115430D01*
X139053669Y-76098100D01*
X139231331Y-76098100D01*
X139318452Y-76115430D01*
X139318452Y-76115430D01*
G37*
G36*
X129158452Y-76115430D02*
G01*
X129245575Y-76132759D01*
X129331896Y-76168515D01*
X129409711Y-76200747D01*
X129500856Y-76261648D01*
X129557428Y-76299448D01*
X129683052Y-76425072D01*
X129683054Y-76425075D01*
X129781753Y-76572789D01*
X129781753Y-76572790D01*
X129849741Y-76736925D01*
X129884400Y-76911171D01*
X129884400Y-77088829D01*
X129849741Y-77263075D01*
X129837199Y-77293353D01*
X129781753Y-77427211D01*
X129729763Y-77505020D01*
X129683052Y-77574928D01*
X129557428Y-77700552D01*
X129557425Y-77700554D01*
X129409711Y-77799253D01*
X129354998Y-77821916D01*
X129245575Y-77867241D01*
X129158452Y-77884570D01*
X129071331Y-77901900D01*
X128893669Y-77901900D01*
X128806548Y-77884570D01*
X128719425Y-77867241D01*
X128610002Y-77821916D01*
X128555289Y-77799253D01*
X128407575Y-77700554D01*
X128407572Y-77700552D01*
X128281948Y-77574928D01*
X128235237Y-77505020D01*
X128183247Y-77427211D01*
X128127801Y-77293353D01*
X128115259Y-77263075D01*
X128080600Y-77088829D01*
X128080600Y-76911171D01*
X128115259Y-76736925D01*
X128183247Y-76572790D01*
X128183247Y-76572789D01*
X128281946Y-76425075D01*
X128281948Y-76425072D01*
X128407572Y-76299448D01*
X128464144Y-76261648D01*
X128555289Y-76200747D01*
X128633104Y-76168515D01*
X128719425Y-76132759D01*
X128806548Y-76115430D01*
X128893669Y-76098100D01*
X129071331Y-76098100D01*
X129158452Y-76115430D01*
X129158452Y-76115430D01*
G37*
G36*
X148314702Y-76115430D02*
G01*
X148401825Y-76132759D01*
X148488146Y-76168515D01*
X148565961Y-76200747D01*
X148657106Y-76261648D01*
X148713678Y-76299448D01*
X148839302Y-76425072D01*
X148839304Y-76425075D01*
X148938003Y-76572789D01*
X148938003Y-76572790D01*
X149005991Y-76736925D01*
X149040650Y-76911171D01*
X149040650Y-77088829D01*
X149005991Y-77263075D01*
X148993449Y-77293353D01*
X148938003Y-77427211D01*
X148886013Y-77505020D01*
X148839302Y-77574928D01*
X148713678Y-77700552D01*
X148713675Y-77700554D01*
X148565961Y-77799253D01*
X148511248Y-77821916D01*
X148401825Y-77867241D01*
X148314702Y-77884570D01*
X148227581Y-77901900D01*
X148049919Y-77901900D01*
X147962798Y-77884570D01*
X147875675Y-77867241D01*
X147766252Y-77821916D01*
X147711539Y-77799253D01*
X147563825Y-77700554D01*
X147563822Y-77700552D01*
X147438198Y-77574928D01*
X147391487Y-77505020D01*
X147339497Y-77427211D01*
X147284051Y-77293353D01*
X147271509Y-77263075D01*
X147236850Y-77088829D01*
X147236850Y-76911171D01*
X147271509Y-76736925D01*
X147339497Y-76572790D01*
X147339497Y-76572789D01*
X147438196Y-76425075D01*
X147438198Y-76425072D01*
X147563822Y-76299448D01*
X147620394Y-76261648D01*
X147711539Y-76200747D01*
X147789354Y-76168515D01*
X147875675Y-76132759D01*
X147962798Y-76115430D01*
X148049919Y-76098100D01*
X148227581Y-76098100D01*
X148314702Y-76115430D01*
X148314702Y-76115430D01*
G37*
G36*
X158474702Y-76115430D02*
G01*
X158561825Y-76132759D01*
X158648146Y-76168515D01*
X158725961Y-76200747D01*
X158817106Y-76261648D01*
X158873678Y-76299448D01*
X158999302Y-76425072D01*
X158999304Y-76425075D01*
X159098003Y-76572789D01*
X159098003Y-76572790D01*
X159165991Y-76736925D01*
X159200650Y-76911171D01*
X159200650Y-77088829D01*
X159165991Y-77263075D01*
X159153449Y-77293353D01*
X159098003Y-77427211D01*
X159046013Y-77505020D01*
X158999302Y-77574928D01*
X158873678Y-77700552D01*
X158873675Y-77700554D01*
X158725961Y-77799253D01*
X158671248Y-77821916D01*
X158561825Y-77867241D01*
X158474702Y-77884570D01*
X158387581Y-77901900D01*
X158209919Y-77901900D01*
X158122798Y-77884570D01*
X158035675Y-77867241D01*
X157926252Y-77821916D01*
X157871539Y-77799253D01*
X157723825Y-77700554D01*
X157723822Y-77700552D01*
X157598198Y-77574928D01*
X157551487Y-77505020D01*
X157499497Y-77427211D01*
X157444051Y-77293353D01*
X157431509Y-77263075D01*
X157396850Y-77088829D01*
X157396850Y-76911171D01*
X157431509Y-76736925D01*
X157499497Y-76572790D01*
X157499497Y-76572789D01*
X157598196Y-76425075D01*
X157598198Y-76425072D01*
X157723822Y-76299448D01*
X157780394Y-76261648D01*
X157871539Y-76200747D01*
X157949354Y-76168515D01*
X158035675Y-76132759D01*
X158122798Y-76115429D01*
X158209919Y-76098100D01*
X158387581Y-76098100D01*
X158474702Y-76115430D01*
X158474702Y-76115430D01*
G37*
G36*
X177630952Y-76115430D02*
G01*
X177718075Y-76132759D01*
X177804396Y-76168515D01*
X177882211Y-76200747D01*
X177973356Y-76261648D01*
X178029928Y-76299448D01*
X178155552Y-76425072D01*
X178155554Y-76425075D01*
X178254253Y-76572789D01*
X178254253Y-76572790D01*
X178322241Y-76736925D01*
X178356900Y-76911171D01*
X178356900Y-77088829D01*
X178322241Y-77263075D01*
X178309699Y-77293353D01*
X178254253Y-77427211D01*
X178202263Y-77505020D01*
X178155552Y-77574928D01*
X178029928Y-77700552D01*
X178029925Y-77700554D01*
X177882211Y-77799253D01*
X177827498Y-77821916D01*
X177718075Y-77867241D01*
X177630952Y-77884570D01*
X177543831Y-77901900D01*
X177366169Y-77901900D01*
X177279048Y-77884570D01*
X177191925Y-77867241D01*
X177082502Y-77821916D01*
X177027789Y-77799253D01*
X176880075Y-77700554D01*
X176880072Y-77700552D01*
X176754448Y-77574928D01*
X176707737Y-77505020D01*
X176655747Y-77427211D01*
X176600301Y-77293353D01*
X176587759Y-77263075D01*
X176553100Y-77088829D01*
X176553100Y-76911171D01*
X176587759Y-76736925D01*
X176655747Y-76572790D01*
X176655747Y-76572789D01*
X176754446Y-76425075D01*
X176754448Y-76425072D01*
X176880072Y-76299448D01*
X176936644Y-76261648D01*
X177027789Y-76200747D01*
X177105604Y-76168515D01*
X177191925Y-76132759D01*
X177279048Y-76115429D01*
X177366169Y-76098100D01*
X177543831Y-76098100D01*
X177630952Y-76115430D01*
X177630952Y-76115430D01*
G37*
G36*
X86695728Y-74689203D02*
G01*
X86850600Y-74753353D01*
X86989981Y-74846485D01*
X87108515Y-74965019D01*
X87201647Y-75104400D01*
X87265797Y-75259272D01*
X87298500Y-75423684D01*
X87298500Y-75591316D01*
X87265797Y-75755728D01*
X87201647Y-75910600D01*
X87108515Y-76049981D01*
X86989981Y-76168515D01*
X86850600Y-76261647D01*
X86695728Y-76325797D01*
X86531316Y-76358500D01*
X86363684Y-76358500D01*
X86199272Y-76325797D01*
X86044400Y-76261647D01*
X85905019Y-76168515D01*
X85786485Y-76049981D01*
X85693353Y-75910600D01*
X85629203Y-75755728D01*
X85596500Y-75591316D01*
X85596500Y-75423684D01*
X85629203Y-75259272D01*
X85693353Y-75104400D01*
X85786485Y-74965019D01*
X85905019Y-74846485D01*
X86044400Y-74753353D01*
X86199272Y-74689203D01*
X86363684Y-74656500D01*
X86531316Y-74656500D01*
X86695728Y-74689203D01*
X86695728Y-74689203D01*
G37*
G36*
X101935728Y-74689203D02*
G01*
X102090600Y-74753353D01*
X102229981Y-74846485D01*
X102348515Y-74965019D01*
X102441647Y-75104400D01*
X102505797Y-75259272D01*
X102538500Y-75423684D01*
X102538500Y-75591316D01*
X102505797Y-75755728D01*
X102441647Y-75910600D01*
X102348515Y-76049981D01*
X102229981Y-76168515D01*
X102090600Y-76261647D01*
X101935728Y-76325797D01*
X101771316Y-76358500D01*
X101603684Y-76358500D01*
X101439272Y-76325797D01*
X101284400Y-76261647D01*
X101145019Y-76168515D01*
X101026485Y-76049981D01*
X100933353Y-75910600D01*
X100869203Y-75755728D01*
X100836500Y-75591316D01*
X100836500Y-75423684D01*
X100869203Y-75259272D01*
X100933353Y-75104400D01*
X101026485Y-74965019D01*
X101145019Y-74846485D01*
X101284400Y-74753353D01*
X101439272Y-74689203D01*
X101603684Y-74656500D01*
X101771316Y-74656500D01*
X101935728Y-74689203D01*
X101935728Y-74689203D01*
G37*
G36*
X168913276Y-73311884D02*
G01*
X169130569Y-73401890D01*
X169130571Y-73401891D01*
X169326130Y-73532560D01*
X169492440Y-73698870D01*
X169572375Y-73818500D01*
X169623110Y-73894431D01*
X169713116Y-74111724D01*
X169759000Y-74342400D01*
X169759000Y-74577600D01*
X169713116Y-74808276D01*
X169648190Y-74965020D01*
X169623109Y-75025571D01*
X169492440Y-75221130D01*
X169326130Y-75387440D01*
X169130571Y-75518109D01*
X169130570Y-75518110D01*
X169130569Y-75518110D01*
X168913276Y-75608116D01*
X168682600Y-75654000D01*
X168447400Y-75654000D01*
X168216724Y-75608116D01*
X167999431Y-75518110D01*
X167999430Y-75518110D01*
X167999429Y-75518109D01*
X167803870Y-75387440D01*
X167637560Y-75221130D01*
X167506891Y-75025571D01*
X167481810Y-74965020D01*
X167416884Y-74808276D01*
X167371000Y-74577600D01*
X167371000Y-74342400D01*
X167416884Y-74111724D01*
X167506890Y-73894431D01*
X167557626Y-73818500D01*
X167637560Y-73698870D01*
X167803870Y-73532560D01*
X167999429Y-73401891D01*
X167999431Y-73401890D01*
X168216724Y-73311884D01*
X168447400Y-73266000D01*
X168682600Y-73266000D01*
X168913276Y-73311884D01*
X168913276Y-73311884D01*
G37*
G36*
X130600776Y-73311884D02*
G01*
X130818069Y-73401890D01*
X130818071Y-73401891D01*
X131013630Y-73532560D01*
X131179940Y-73698870D01*
X131259875Y-73818500D01*
X131310610Y-73894431D01*
X131400616Y-74111724D01*
X131446500Y-74342400D01*
X131446500Y-74577600D01*
X131400616Y-74808276D01*
X131335690Y-74965020D01*
X131310609Y-75025571D01*
X131179940Y-75221130D01*
X131013630Y-75387440D01*
X130818071Y-75518109D01*
X130818070Y-75518110D01*
X130818069Y-75518110D01*
X130600776Y-75608116D01*
X130370100Y-75654000D01*
X130134900Y-75654000D01*
X129904224Y-75608116D01*
X129686931Y-75518110D01*
X129686930Y-75518110D01*
X129686929Y-75518109D01*
X129491370Y-75387440D01*
X129325060Y-75221130D01*
X129194391Y-75025571D01*
X129169310Y-74965020D01*
X129104384Y-74808276D01*
X129058500Y-74577600D01*
X129058500Y-74342400D01*
X129104384Y-74111724D01*
X129194390Y-73894431D01*
X129245126Y-73818500D01*
X129325060Y-73698870D01*
X129491370Y-73532560D01*
X129686929Y-73401891D01*
X129686931Y-73401890D01*
X129904224Y-73311884D01*
X130134900Y-73266000D01*
X130370100Y-73266000D01*
X130600776Y-73311884D01*
X130600776Y-73311884D01*
G37*
G36*
X111444526Y-73311884D02*
G01*
X111661819Y-73401890D01*
X111661821Y-73401891D01*
X111857380Y-73532560D01*
X112023690Y-73698870D01*
X112103625Y-73818500D01*
X112154360Y-73894431D01*
X112244366Y-74111724D01*
X112290250Y-74342400D01*
X112290250Y-74577600D01*
X112244366Y-74808276D01*
X112179440Y-74965020D01*
X112154359Y-75025571D01*
X112023690Y-75221130D01*
X111857380Y-75387440D01*
X111661821Y-75518109D01*
X111661820Y-75518110D01*
X111661819Y-75518110D01*
X111444526Y-75608116D01*
X111213850Y-75654000D01*
X110978650Y-75654000D01*
X110747974Y-75608116D01*
X110530681Y-75518110D01*
X110530680Y-75518110D01*
X110530679Y-75518109D01*
X110335120Y-75387440D01*
X110168810Y-75221130D01*
X110038141Y-75025571D01*
X110013060Y-74965020D01*
X109948134Y-74808276D01*
X109902250Y-74577600D01*
X109902250Y-74342400D01*
X109948134Y-74111724D01*
X110038140Y-73894431D01*
X110088876Y-73818500D01*
X110168810Y-73698870D01*
X110335120Y-73532560D01*
X110530679Y-73401891D01*
X110530681Y-73401890D01*
X110747974Y-73311884D01*
X110978650Y-73266000D01*
X111213850Y-73266000D01*
X111444526Y-73311884D01*
X111444526Y-73311884D01*
G37*
G36*
X149757026Y-73311884D02*
G01*
X149974319Y-73401890D01*
X149974321Y-73401891D01*
X150169880Y-73532560D01*
X150336190Y-73698870D01*
X150416125Y-73818500D01*
X150466860Y-73894431D01*
X150556866Y-74111724D01*
X150602750Y-74342400D01*
X150602750Y-74577600D01*
X150556866Y-74808276D01*
X150491940Y-74965020D01*
X150466859Y-75025571D01*
X150336190Y-75221130D01*
X150169880Y-75387440D01*
X149974321Y-75518109D01*
X149974320Y-75518110D01*
X149974319Y-75518110D01*
X149757026Y-75608116D01*
X149526350Y-75654000D01*
X149291150Y-75654000D01*
X149060474Y-75608116D01*
X148843181Y-75518110D01*
X148843180Y-75518110D01*
X148843179Y-75518109D01*
X148647620Y-75387440D01*
X148481310Y-75221130D01*
X148350641Y-75025571D01*
X148325560Y-74965020D01*
X148260634Y-74808276D01*
X148214750Y-74577600D01*
X148214750Y-74342400D01*
X148260634Y-74111724D01*
X148350640Y-73894431D01*
X148401376Y-73818500D01*
X148481310Y-73698870D01*
X148647620Y-73532560D01*
X148843179Y-73401891D01*
X148843181Y-73401890D01*
X149060474Y-73311884D01*
X149291150Y-73266000D01*
X149526350Y-73266000D01*
X149757026Y-73311884D01*
X149757026Y-73311884D01*
G37*
G36*
X87298500Y-73818500D02*
G01*
X85596500Y-73818500D01*
X85596500Y-72116500D01*
X87298500Y-72116500D01*
X87298500Y-73818500D01*
X87298500Y-73818500D01*
G37*
G36*
X101935728Y-72149203D02*
G01*
X102090600Y-72213353D01*
X102229981Y-72306485D01*
X102348515Y-72425019D01*
X102441647Y-72564400D01*
X102505797Y-72719272D01*
X102538500Y-72883684D01*
X102538500Y-73051316D01*
X102505797Y-73215728D01*
X102441647Y-73370600D01*
X102348515Y-73509981D01*
X102229981Y-73628515D01*
X102090600Y-73721647D01*
X101935728Y-73785797D01*
X101771316Y-73818500D01*
X101603684Y-73818500D01*
X101439272Y-73785797D01*
X101284400Y-73721647D01*
X101145019Y-73628515D01*
X101026485Y-73509981D01*
X100933353Y-73370600D01*
X100869203Y-73215728D01*
X100836500Y-73051316D01*
X100836500Y-72883684D01*
X100869203Y-72719272D01*
X100933353Y-72564400D01*
X101026485Y-72425019D01*
X101145019Y-72306485D01*
X101284400Y-72213353D01*
X101439272Y-72149203D01*
X101603684Y-72116500D01*
X101771316Y-72116500D01*
X101935728Y-72149203D01*
X101935728Y-72149203D01*
G37*
G36*
X136950776Y-70771884D02*
G01*
X137168069Y-70861890D01*
X137168071Y-70861891D01*
X137212867Y-70891823D01*
X137363630Y-70992560D01*
X137529940Y-71158870D01*
X137660610Y-71354431D01*
X137750616Y-71571724D01*
X137796500Y-71802400D01*
X137796500Y-72037600D01*
X137750616Y-72268276D01*
X137685690Y-72425020D01*
X137660609Y-72485571D01*
X137529940Y-72681130D01*
X137363630Y-72847440D01*
X137168071Y-72978109D01*
X137168070Y-72978110D01*
X137168069Y-72978110D01*
X136950776Y-73068116D01*
X136720100Y-73114000D01*
X136484900Y-73114000D01*
X136254224Y-73068116D01*
X136036931Y-72978110D01*
X136036930Y-72978110D01*
X136036929Y-72978109D01*
X135841370Y-72847440D01*
X135675060Y-72681130D01*
X135544391Y-72485571D01*
X135519310Y-72425020D01*
X135454384Y-72268276D01*
X135408500Y-72037600D01*
X135408500Y-71802400D01*
X135454384Y-71571724D01*
X135544390Y-71354431D01*
X135675060Y-71158870D01*
X135841370Y-70992560D01*
X135992133Y-70891823D01*
X136036929Y-70861891D01*
X136036931Y-70861890D01*
X136254224Y-70771884D01*
X136484900Y-70726000D01*
X136720100Y-70726000D01*
X136950776Y-70771884D01*
X136950776Y-70771884D01*
G37*
G36*
X117794526Y-70771884D02*
G01*
X118011819Y-70861890D01*
X118011821Y-70861891D01*
X118056617Y-70891823D01*
X118207380Y-70992560D01*
X118373690Y-71158870D01*
X118504360Y-71354431D01*
X118594366Y-71571724D01*
X118640250Y-71802400D01*
X118640250Y-72037600D01*
X118594366Y-72268276D01*
X118529440Y-72425020D01*
X118504359Y-72485571D01*
X118373690Y-72681130D01*
X118207380Y-72847440D01*
X118011821Y-72978109D01*
X118011820Y-72978110D01*
X118011819Y-72978110D01*
X117794526Y-73068116D01*
X117563850Y-73114000D01*
X117328650Y-73114000D01*
X117097974Y-73068116D01*
X116880681Y-72978110D01*
X116880680Y-72978110D01*
X116880679Y-72978109D01*
X116685120Y-72847440D01*
X116518810Y-72681130D01*
X116388141Y-72485571D01*
X116363060Y-72425020D01*
X116298134Y-72268276D01*
X116252250Y-72037600D01*
X116252250Y-71802400D01*
X116298134Y-71571724D01*
X116388140Y-71354431D01*
X116518810Y-71158870D01*
X116685120Y-70992560D01*
X116835883Y-70891823D01*
X116880679Y-70861891D01*
X116880681Y-70861890D01*
X117097974Y-70771884D01*
X117328650Y-70726000D01*
X117563850Y-70726000D01*
X117794526Y-70771884D01*
X117794526Y-70771884D01*
G37*
G36*
X156107026Y-70771884D02*
G01*
X156324319Y-70861890D01*
X156324321Y-70861891D01*
X156369117Y-70891823D01*
X156519880Y-70992560D01*
X156686190Y-71158870D01*
X156816860Y-71354431D01*
X156906866Y-71571724D01*
X156952750Y-71802400D01*
X156952750Y-72037600D01*
X156906866Y-72268276D01*
X156841940Y-72425020D01*
X156816859Y-72485571D01*
X156686190Y-72681130D01*
X156519880Y-72847440D01*
X156324321Y-72978109D01*
X156324320Y-72978110D01*
X156324319Y-72978110D01*
X156107026Y-73068116D01*
X155876350Y-73114000D01*
X155641150Y-73114000D01*
X155410474Y-73068116D01*
X155193181Y-72978110D01*
X155193180Y-72978110D01*
X155193179Y-72978109D01*
X154997620Y-72847440D01*
X154831310Y-72681130D01*
X154700641Y-72485571D01*
X154675560Y-72425020D01*
X154610634Y-72268276D01*
X154564750Y-72037600D01*
X154564750Y-71802400D01*
X154610634Y-71571724D01*
X154700640Y-71354431D01*
X154831310Y-71158870D01*
X154997620Y-70992560D01*
X155148383Y-70891823D01*
X155193179Y-70861891D01*
X155193181Y-70861890D01*
X155410474Y-70771884D01*
X155641150Y-70726000D01*
X155876350Y-70726000D01*
X156107026Y-70771884D01*
X156107026Y-70771884D01*
G37*
G36*
X175263276Y-70771884D02*
G01*
X175480569Y-70861890D01*
X175480571Y-70861891D01*
X175525367Y-70891823D01*
X175676130Y-70992560D01*
X175842440Y-71158870D01*
X175973110Y-71354431D01*
X176063116Y-71571724D01*
X176109000Y-71802400D01*
X176109000Y-72037600D01*
X176063116Y-72268276D01*
X175998190Y-72425020D01*
X175973109Y-72485571D01*
X175842440Y-72681130D01*
X175676130Y-72847440D01*
X175480571Y-72978109D01*
X175480570Y-72978110D01*
X175480569Y-72978110D01*
X175263276Y-73068116D01*
X175032600Y-73114000D01*
X174797400Y-73114000D01*
X174566724Y-73068116D01*
X174349431Y-72978110D01*
X174349430Y-72978110D01*
X174349429Y-72978109D01*
X174153870Y-72847440D01*
X173987560Y-72681130D01*
X173856891Y-72485571D01*
X173831810Y-72425020D01*
X173766884Y-72268276D01*
X173721000Y-72037600D01*
X173721000Y-71802400D01*
X173766884Y-71571724D01*
X173856890Y-71354431D01*
X173987560Y-71158870D01*
X174153870Y-70992560D01*
X174304633Y-70891823D01*
X174349429Y-70861891D01*
X174349431Y-70861890D01*
X174566724Y-70771884D01*
X174797400Y-70726000D01*
X175032600Y-70726000D01*
X175263276Y-70771884D01*
X175263276Y-70771884D01*
G37*
G36*
X196578072Y-69486313D02*
G01*
X196738491Y-69534976D01*
X196886327Y-69613995D01*
X197015909Y-69720341D01*
X197122254Y-69849922D01*
X197122255Y-69849924D01*
X197201274Y-69997758D01*
X197249937Y-70158177D01*
X197262250Y-70283196D01*
X197262250Y-70766803D01*
X197249937Y-70891822D01*
X197201274Y-71052242D01*
X197144280Y-71158870D01*
X197122254Y-71200078D01*
X197015909Y-71329659D01*
X196886328Y-71436004D01*
X196886326Y-71436005D01*
X196738492Y-71515024D01*
X196578073Y-71563687D01*
X196411250Y-71580117D01*
X196244428Y-71563687D01*
X196084009Y-71515024D01*
X195936175Y-71436005D01*
X195936173Y-71436004D01*
X195806592Y-71329659D01*
X195700246Y-71200078D01*
X195678220Y-71158870D01*
X195621226Y-71052242D01*
X195572563Y-70891823D01*
X195560250Y-70766804D01*
X195560250Y-70283197D01*
X195572563Y-70158178D01*
X195621226Y-69997759D01*
X195700245Y-69849923D01*
X195806591Y-69720341D01*
X195936172Y-69613996D01*
X195951344Y-69605886D01*
X196084008Y-69534976D01*
X196244427Y-69486313D01*
X196411250Y-69469883D01*
X196578072Y-69486313D01*
X196578072Y-69486313D01*
G37*
G36*
X199118072Y-69486313D02*
G01*
X199278491Y-69534976D01*
X199426327Y-69613995D01*
X199555909Y-69720341D01*
X199662254Y-69849922D01*
X199662255Y-69849924D01*
X199741274Y-69997758D01*
X199789937Y-70158177D01*
X199802250Y-70283196D01*
X199802250Y-70766803D01*
X199789937Y-70891822D01*
X199741274Y-71052242D01*
X199684280Y-71158870D01*
X199662254Y-71200078D01*
X199555909Y-71329659D01*
X199426328Y-71436004D01*
X199426326Y-71436005D01*
X199278492Y-71515024D01*
X199118073Y-71563687D01*
X198951250Y-71580117D01*
X198784428Y-71563687D01*
X198624009Y-71515024D01*
X198476175Y-71436005D01*
X198476173Y-71436004D01*
X198346592Y-71329659D01*
X198240246Y-71200078D01*
X198218220Y-71158870D01*
X198161226Y-71052242D01*
X198112563Y-70891823D01*
X198100250Y-70766804D01*
X198100250Y-70283197D01*
X198112563Y-70158178D01*
X198161226Y-69997759D01*
X198240245Y-69849923D01*
X198346591Y-69720341D01*
X198476172Y-69613996D01*
X198491344Y-69605886D01*
X198624008Y-69534976D01*
X198784427Y-69486313D01*
X198951250Y-69469883D01*
X199118072Y-69486313D01*
X199118072Y-69486313D01*
G37*
G36*
X204198072Y-69486313D02*
G01*
X204358491Y-69534976D01*
X204506327Y-69613995D01*
X204635909Y-69720341D01*
X204742254Y-69849922D01*
X204742255Y-69849924D01*
X204821274Y-69997758D01*
X204869937Y-70158177D01*
X204882250Y-70283196D01*
X204882250Y-70766803D01*
X204869937Y-70891822D01*
X204821274Y-71052242D01*
X204764280Y-71158870D01*
X204742254Y-71200078D01*
X204635909Y-71329659D01*
X204506328Y-71436004D01*
X204506326Y-71436005D01*
X204358492Y-71515024D01*
X204198073Y-71563687D01*
X204031250Y-71580117D01*
X203864428Y-71563687D01*
X203704009Y-71515024D01*
X203556175Y-71436005D01*
X203556173Y-71436004D01*
X203426592Y-71329659D01*
X203320246Y-71200078D01*
X203298220Y-71158870D01*
X203241226Y-71052242D01*
X203192563Y-70891823D01*
X203180250Y-70766804D01*
X203180250Y-70283197D01*
X203192563Y-70158178D01*
X203241226Y-69997759D01*
X203320245Y-69849923D01*
X203426591Y-69720341D01*
X203556172Y-69613996D01*
X203571344Y-69605886D01*
X203704008Y-69534976D01*
X203864427Y-69486313D01*
X204031250Y-69469883D01*
X204198072Y-69486313D01*
X204198072Y-69486313D01*
G37*
G36*
X201658072Y-69486313D02*
G01*
X201818491Y-69534976D01*
X201966327Y-69613995D01*
X202095909Y-69720341D01*
X202202254Y-69849922D01*
X202202255Y-69849924D01*
X202281274Y-69997758D01*
X202329937Y-70158177D01*
X202342250Y-70283196D01*
X202342250Y-70766803D01*
X202329937Y-70891822D01*
X202281274Y-71052242D01*
X202224280Y-71158870D01*
X202202254Y-71200078D01*
X202095909Y-71329659D01*
X201966328Y-71436004D01*
X201966326Y-71436005D01*
X201818492Y-71515024D01*
X201658073Y-71563687D01*
X201491250Y-71580117D01*
X201324428Y-71563687D01*
X201164009Y-71515024D01*
X201016175Y-71436005D01*
X201016173Y-71436004D01*
X200886592Y-71329659D01*
X200780246Y-71200078D01*
X200758220Y-71158870D01*
X200701226Y-71052242D01*
X200652563Y-70891823D01*
X200640250Y-70766804D01*
X200640250Y-70283197D01*
X200652563Y-70158178D01*
X200701226Y-69997759D01*
X200780245Y-69849923D01*
X200886591Y-69720341D01*
X201016172Y-69613996D01*
X201031344Y-69605886D01*
X201164008Y-69534976D01*
X201324427Y-69486313D01*
X201491250Y-69469883D01*
X201658072Y-69486313D01*
X201658072Y-69486313D01*
G37*
G36*
X85875256Y-67391298D02*
G01*
X85981579Y-67412447D01*
X86282042Y-67536903D01*
X86552451Y-67717585D01*
X86782415Y-67947549D01*
X86963097Y-68217958D01*
X87087553Y-68518421D01*
X87151000Y-68837391D01*
X87151000Y-69162609D01*
X87087553Y-69481579D01*
X86963097Y-69782042D01*
X86782415Y-70052451D01*
X86552451Y-70282415D01*
X86282042Y-70463097D01*
X85981579Y-70587553D01*
X85875256Y-70608702D01*
X85662611Y-70651000D01*
X85337389Y-70651000D01*
X85124744Y-70608702D01*
X85018421Y-70587553D01*
X84717958Y-70463097D01*
X84447549Y-70282415D01*
X84217585Y-70052451D01*
X84036903Y-69782042D01*
X83912447Y-69481579D01*
X83849000Y-69162609D01*
X83849000Y-68837391D01*
X83912447Y-68518421D01*
X84036903Y-68217958D01*
X84217585Y-67947549D01*
X84447549Y-67717585D01*
X84717958Y-67536903D01*
X85018421Y-67412447D01*
X85124744Y-67391298D01*
X85337389Y-67349000D01*
X85662611Y-67349000D01*
X85875256Y-67391298D01*
X85875256Y-67391298D01*
G37*
G36*
X214875256Y-67391298D02*
G01*
X214981579Y-67412447D01*
X215282042Y-67536903D01*
X215552451Y-67717585D01*
X215782415Y-67947549D01*
X215963097Y-68217958D01*
X216087553Y-68518421D01*
X216151000Y-68837391D01*
X216151000Y-69162609D01*
X216087553Y-69481579D01*
X215963097Y-69782042D01*
X215782415Y-70052451D01*
X215552451Y-70282415D01*
X215282042Y-70463097D01*
X214981579Y-70587553D01*
X214875256Y-70608702D01*
X214662611Y-70651000D01*
X214337389Y-70651000D01*
X214124744Y-70608702D01*
X214018421Y-70587553D01*
X213717958Y-70463097D01*
X213447549Y-70282415D01*
X213217585Y-70052451D01*
X213036903Y-69782042D01*
X212912447Y-69481579D01*
X212849000Y-69162609D01*
X212849000Y-68837391D01*
X212912447Y-68518421D01*
X213036903Y-68217958D01*
X213217585Y-67947549D01*
X213447549Y-67717585D01*
X213717958Y-67536903D01*
X214018421Y-67412447D01*
X214124744Y-67391298D01*
X214337389Y-67349000D01*
X214662611Y-67349000D01*
X214875256Y-67391298D01*
X214875256Y-67391298D01*
G37*
M02*
